<?xml version="1.0" encoding="utf-8"?>
<!-- Generator: Adobe Illustrator 16.0.0, SVG Export Plug-In . SVG Version: 6.00 Build 0)  -->
<!DOCTYPE svg PUBLIC "-//W3C//DTD SVG 1.1//EN" "http://www.w3.org/Graphics/SVG/1.1/DTD/svg11.dtd">
<svg version="1.1" id="图层_1" xmlns="http://www.w3.org/2000/svg" xmlns:xlink="http://www.w3.org/1999/xlink" x="0px" y="0px"
	 width="18px" height="18px" viewBox="0 0 18 18" enable-background="new 0 0 18 18" xml:space="preserve">
<g>
	<path fill="none" stroke="#2A84FB" stroke-width="0.75" stroke-linecap="round" stroke-miterlimit="10" d="M10.727,3.028
		c0.846,1.316,1.404,3.56,1.404,6.104c0,4.056-1.414,7.341-3.155,7.341c-1.743,0-3.155-3.285-3.155-7.341
		c0-2.524,0.547-4.751,1.381-6.072"/>
	<circle fill="#2A84FB" cx="8.904" cy="2.07" r="0.775"/>
	<circle fill="#2A84FB" cx="2.71" cy="6.481" r="0.776"/>
	<path fill="none" stroke="#2A84FB" stroke-width="0.75" stroke-linecap="round" stroke-miterlimit="10" d="M3.727,4.677
		c1.528-0.418,4.19,0.202,6.833,1.72c3.522,2.027,5.679,4.885,4.816,6.385c-0.862,1.501-4.419,1.075-7.942-0.951
		c-1.693-0.974-3.07-2.139-3.948-3.254"/>
	<circle fill="#2A84FB" cx="2.71" cy="11.749" r="0.776"/>
	<path fill="none" stroke="#2A84FB" stroke-width="0.75" stroke-linecap="round" stroke-miterlimit="10" d="M3.727,13.552
		c1.528,0.418,4.19-0.201,6.833-1.72c3.522-2.026,5.679-4.886,4.816-6.385c-0.862-1.5-4.419-1.075-7.942,0.952
		c-1.693,0.974-3.07,2.14-3.948,3.254"/>
</g>
</svg>
