<?xml version="1.0" encoding="utf-8"?>
<!-- Generator: Adobe Illustrator 16.0.0, SVG Export Plug-In . SVG Version: 6.00 Build 0)  -->
<!DOCTYPE svg PUBLIC "-//W3C//DTD SVG 1.1//EN" "http://www.w3.org/Graphics/SVG/1.1/DTD/svg11.dtd">
<svg version="1.1" id="图层_1" xmlns="http://www.w3.org/2000/svg" xmlns:xlink="http://www.w3.org/1999/xlink" x="0px" y="0px"
	 width="18px" height="18px" viewBox="0 0 18 18" enable-background="new 0 0 18 18" xml:space="preserve">
<g>
	<path fill="none" stroke="#2A84FB" stroke-width="0.75" stroke-miterlimit="10" d="M10.954,10.158V3.704
		c0-1.072-0.871-1.942-1.942-1.942c-1.074,0-1.941,0.87-1.941,1.942v6.493c-0.845,0.611-1.399,1.599-1.399,2.722
		c0,1.858,1.507,3.366,3.364,3.366c1.86,0,3.367-1.508,3.367-3.366C12.402,11.773,11.829,10.766,10.954,10.158z"/>
	<path fill="none" stroke="#2A84FB" stroke-width="0.5" stroke-miterlimit="10" d="M9.644,8.705v3.235
		c0.355,0.246,0.763,0.656,0.763,1.123c0,0.756-0.613,1.369-1.371,1.369c-0.756,0-1.368-0.613-1.368-1.369
		c0-0.457,0.399-0.859,0.743-1.107v-3.25H9.644z"/>
	<line fill="none" stroke="#2A84FB" stroke-width="0.5" stroke-miterlimit="10" x1="7.07" y1="4.532" x2="8.836" y2="4.532"/>
	<line fill="none" stroke="#2A84FB" stroke-width="0.5" stroke-miterlimit="10" x1="7.07" y1="5.941" x2="8.836" y2="5.941"/>
	<line fill="none" stroke="#2A84FB" stroke-width="0.5" stroke-miterlimit="10" x1="7.07" y1="7.35" x2="8.836" y2="7.35"/>
</g>
</svg>
