<?xml version="1.0" encoding="utf-8"?>
<!-- Generator: Adobe Illustrator 16.0.0, SVG Export Plug-In . SVG Version: 6.00 Build 0)  -->
<!DOCTYPE svg PUBLIC "-//W3C//DTD SVG 1.1//EN" "http://www.w3.org/Graphics/SVG/1.1/DTD/svg11.dtd">
<svg version="1.1" id="图层_1" xmlns="http://www.w3.org/2000/svg" xmlns:xlink="http://www.w3.org/1999/xlink" x="0px" y="0px"
	 width="18px" height="18px" viewBox="0 0 18 18" enable-background="new 0 0 18 18" xml:space="preserve">
<g>
	<path fill="none" stroke="#2A84FB" stroke-width="0.5" stroke-miterlimit="10" d="M13.08,15.391
		c-1.263,1.743-3.146,1.998-4.712,0.961C6.8,15.316,6.339,13.23,7.406,11.639c1.112-1.665,6.173-3.172,6.173-3.172
		S14.303,13.702,13.08,15.391z"/>
	<path fill="none" stroke="#2A84FB" stroke-width="0.5" stroke-linecap="round" stroke-miterlimit="10" d="M9.452,15.352
		C8.26,14.564,7.909,12.979,8.72,11.77"/>
	<path fill="none" stroke="#2A84FB" stroke-width="0.5" stroke-miterlimit="10" d="M13.743,6.279
		c-0.906,1.25-2.258,1.433-3.38,0.691C9.241,6.227,8.91,4.73,9.674,3.589c0.798-1.193,4.426-2.274,4.426-2.274
		S14.62,5.069,13.743,6.279z"/>
	<path fill="none" stroke="#2A84FB" stroke-width="0.5" stroke-linecap="round" stroke-miterlimit="10" d="M11.298,6.283
		c-0.854-0.565-1.106-1.701-0.525-2.569"/>
	<path fill="none" stroke="#2A84FB" stroke-width="0.5" stroke-miterlimit="10" d="M5.836,7.729
		c-0.634,0.875-1.58,1.003-2.364,0.484C2.685,7.692,2.454,6.646,2.989,5.847c0.558-0.835,3.098-1.592,3.098-1.592
		S6.449,6.882,5.836,7.729z"/>
	<path fill="none" stroke="#2A84FB" stroke-width="0.5" stroke-linecap="round" stroke-miterlimit="10" d="M4.289,7.732
		C3.69,7.337,3.513,6.541,3.92,5.934"/>
</g>
</svg>
