<?xml version="1.0" encoding="utf-8"?>
<!-- Generator: Adobe Illustrator 16.0.0, SVG Export Plug-In . SVG Version: 6.00 Build 0)  -->
<!DOCTYPE svg PUBLIC "-//W3C//DTD SVG 1.1//EN" "http://www.w3.org/Graphics/SVG/1.1/DTD/svg11.dtd">
<svg version="1.1" id="图层_1" xmlns="http://www.w3.org/2000/svg" xmlns:xlink="http://www.w3.org/1999/xlink" x="0px" y="0px"
	 width="20px" height="20px" viewBox="0 0 20 20" enable-background="new 0 0 20 20" xml:space="preserve">
<path fill-rule="evenodd" clip-rule="evenodd" fill="none" stroke="#2A84FB" stroke-width="0.5" stroke-linecap="round" stroke-linejoin="round" stroke-miterlimit="10" d="
	M15.356,8.052V4.813h-1.48v1.75L9.992,2.602l-7.409,7.581h1.984v5.726c0,0.641,0.519,1.158,1.157,1.158c0,0,1.346,0,2.766,0
	c0-1.549,0-2.564,0-3.475c-0.001-0.27,0.277-0.797,0.677-0.912c0.748,0,0.822-0.002,1.563-0.002
	c0.411,0.115,0.699,0.643,0.699,0.914c0,0.16,0,2.291,0,3.475c1.551,0,2.758,0,2.758,0c0.639,0,1.158-0.518,1.158-1.158v-5.726
	h2.035l-2.029-2.131H15.356z"/>
</svg>
