<?xml version="1.0" encoding="utf-8"?>
<!-- Generator: Adobe Illustrator 16.0.0, SVG Export Plug-In . SVG Version: 6.00 Build 0)  -->
<!DOCTYPE svg PUBLIC "-//W3C//DTD SVG 1.1//EN" "http://www.w3.org/Graphics/SVG/1.1/DTD/svg11.dtd">
<svg version="1.1" id="图层_1" xmlns="http://www.w3.org/2000/svg" xmlns:xlink="http://www.w3.org/1999/xlink" x="0px" y="0px"
	 width="20px" height="20px" viewBox="0 0 20 20" enable-background="new 0 0 20 20" xml:space="preserve">
<g>
	<g>
		
			<circle fill-rule="evenodd" clip-rule="evenodd" fill="none" stroke="#2A84FB" stroke-width="0.5" stroke-miterlimit="10" cx="14.51" cy="5.532" r="2.618"/>
		<path fill-rule="evenodd" clip-rule="evenodd" fill="none" stroke="#2A84FB" stroke-width="0.5" stroke-miterlimit="10" d="
			M15.653,5.697c-0.09,0.634-0.678,1.069-1.311,0.98c-0.631-0.095-1.07-0.679-0.977-1.312c0.09-0.63,0.676-1.07,1.309-0.977
			C15.308,4.479,15.745,5.065,15.653,5.697z"/>
		
			<polyline fill-rule="evenodd" clip-rule="evenodd" fill="none" stroke="#2A84FB" stroke-width="0.5" stroke-linejoin="round" stroke-miterlimit="10" points="
			11.868,5.895 10.314,5.669 10.51,4.318 12.063,4.543 		"/>
		
			<polyline fill-rule="evenodd" clip-rule="evenodd" fill="none" stroke="#2A84FB" stroke-width="0.5" stroke-linejoin="round" stroke-miterlimit="10" points="
			16.938,6.627 18.493,6.853 18.688,5.503 17.136,5.276 		"/>
		
			<polyline fill-rule="evenodd" clip-rule="evenodd" fill="none" stroke="#2A84FB" stroke-width="0.5" stroke-linejoin="round" stroke-miterlimit="10" points="
			12.28,4.039 11.341,2.784 12.433,1.967 13.37,3.224 		"/>
		
			<polyline fill-rule="evenodd" clip-rule="evenodd" fill="none" stroke="#2A84FB" stroke-width="0.5" stroke-linejoin="round" stroke-miterlimit="10" points="
			16.972,4.72 18.229,3.781 17.415,2.69 16.157,3.629 		"/>
		
			<polyline fill-rule="evenodd" clip-rule="evenodd" fill="none" stroke="#2A84FB" stroke-width="0.5" stroke-linejoin="round" stroke-miterlimit="10" points="
			11.95,6.328 10.692,7.268 11.507,8.361 12.765,7.421 		"/>
		
			<polyline fill-rule="evenodd" clip-rule="evenodd" fill="none" stroke="#2A84FB" stroke-width="0.5" stroke-linejoin="round" stroke-miterlimit="10" points="
			16.64,7.008 17.579,8.267 16.487,9.082 15.548,7.825 		"/>
		
			<polyline fill-rule="evenodd" clip-rule="evenodd" fill="none" stroke="#2A84FB" stroke-width="0.5" stroke-linejoin="round" stroke-miterlimit="10" points="
			14.194,2.952 14.421,1.398 15.769,1.594 15.544,3.147 		"/>
		
			<polyline fill-rule="evenodd" clip-rule="evenodd" fill="none" stroke="#2A84FB" stroke-width="0.5" stroke-linejoin="round" stroke-miterlimit="10" points="
			13.46,8.023 13.235,9.577 14.583,9.773 14.81,8.219 		"/>
	</g>
	<path fill-rule="evenodd" clip-rule="evenodd" fill="#2A84FB" d="M16.946,10.296c-0.617,0.237-1.285,0.371-1.984,0.371
		c-0.48,0-0.943-0.066-1.387-0.181h-0.191c0-0.015-0.004-0.035-0.004-0.05c-0.252-0.074-0.494-0.168-0.729-0.275
		c0.01,0.108,0.023,0.215,0.029,0.325h-3.29V7.888c0.228-0.014,0.462-0.046,0.699-0.089C9.97,7.582,9.866,7.354,9.774,7.12
		C9.646,7.135,9.518,7.152,9.391,7.16V5.119c0-0.007-0.001-0.015-0.001-0.022s0.001-0.014,0.001-0.021V3.638
		c0.069,0,0.133,0.007,0.195,0.01C9.65,3.417,9.722,3.19,9.812,2.972C9.557,2.944,9.301,2.925,9.041,2.918V2.915
		c-0.011,0-0.021,0.002-0.031,0.002S8.989,2.915,8.977,2.915v0.003C4.6,3.011,1.136,6.491,1.136,10.893
		c0,4.402,3.464,7.884,7.841,7.974v0.004c0.012,0,0.021-0.002,0.032-0.002s0.021,0.002,0.031,0.002v-0.004
		c4.38-0.09,7.937-3.572,7.937-7.974C16.978,10.691,16.962,10.494,16.946,10.296z M7.1,3.919C6.584,4.624,6.114,5.492,5.762,6.385
		C5.151,6.126,4.611,5.821,4.188,5.516C5.01,4.765,5.997,4.201,7.1,3.919z M3.695,6.009c0.493,0.352,1.128,0.681,1.832,0.987
		c-0.469,1.268-0.751,2.482-0.798,3.491H1.887C1.958,8.726,2.616,7.207,3.695,6.009z M1.887,11.246h2.842
		c0.023,0.986,0.305,2.277,0.798,3.545c-0.704,0.305-1.339,0.633-1.832,0.986C2.616,14.58,1.958,13.006,1.887,11.246z M4.188,16.27
		c0.447-0.328,0.986-0.633,1.598-0.891C6.114,16.27,6.56,17.115,7.1,17.844C5.997,17.586,5.01,17.021,4.188,16.27z M8.659,18.148
		c-0.235,0-0.361-0.023-0.619-0.07c-0.658-0.869-1.222-1.902-1.644-2.959c0.799-0.281,1.512-0.445,2.263-0.492V18.148z
		 M8.659,13.898c-0.798,0.047-1.604,0.281-2.497,0.658c-0.423-1.127-0.681-2.254-0.729-3.311h3.226V13.898z M8.659,10.486H5.433
		C5.481,9.383,5.739,8.334,6.162,7.23c0.893,0.375,1.699,0.61,2.497,0.657V10.486z M8.659,7.16C7.884,7.113,7.148,6.925,6.373,6.643
		C6.818,5.563,7.406,4.577,8.04,3.708c0.258-0.047,0.384-0.07,0.619-0.07V7.16z M9.391,11.246h3.29
		c-0.047,1.057-0.305,2.184-0.729,3.311c-0.893-0.377-1.763-0.611-2.561-0.658V11.246z M9.391,18.148v-3.521
		c0.752,0.047,1.528,0.211,2.327,0.492c-0.424,1.057-0.986,2.09-1.644,2.959C9.816,18.125,9.626,18.148,9.391,18.148z
		 M11.013,17.844c0.541-0.729,0.986-1.574,1.314-2.465c0.611,0.258,1.15,0.563,1.598,0.891
		C13.103,17.021,12.116,17.586,11.013,17.844z M14.419,15.777c-0.494-0.354-1.127-0.682-1.832-0.986
		c0.492-1.268,0.773-2.559,0.797-3.545h2.842C16.155,13.006,15.499,14.58,14.419,15.777z"/>
</g>
</svg>
