<?xml version="1.0" encoding="utf-8"?>
<!-- Generator: Adobe Illustrator 16.0.0, SVG Export Plug-In . SVG Version: 6.00 Build 0)  -->
<!DOCTYPE svg PUBLIC "-//W3C//DTD SVG 1.1//EN" "http://www.w3.org/Graphics/SVG/1.1/DTD/svg11.dtd">
<svg version="1.1" id="图层_1" xmlns="http://www.w3.org/2000/svg" xmlns:xlink="http://www.w3.org/1999/xlink" x="0px" y="0px"
	 width="20px" height="20px" viewBox="0 0 20 20" enable-background="new 0 0 20 20" xml:space="preserve">
<path fill="none" stroke="#2A84FB" stroke-width="0.5" stroke-miterlimit="10" d="M12.638,5.566c0,0.654-0.529,1.185-1.184,1.185
	h-3.37c-0.654,0-1.184-0.53-1.184-1.185V3.752c0-0.654,0.53-1.184,1.184-1.184h3.37c0.654,0,1.184,0.53,1.184,1.184V5.566z"/>
<path fill="none" stroke="#2A84FB" stroke-width="0.5" stroke-miterlimit="10" d="M5.341,15.88c0,0.537-0.437,0.974-0.974,0.974
	h-2.77c-0.538,0-0.974-0.437-0.974-0.974v-1.491c0-0.538,0.437-0.975,0.974-0.975h2.77c0.538,0,0.974,0.437,0.974,0.975V15.88z"/>
<path fill="none" stroke="#2A84FB" stroke-width="0.5" stroke-miterlimit="10" d="M12.128,15.88c0,0.537-0.436,0.974-0.975,0.974
	H8.385c-0.539,0-0.975-0.437-0.975-0.974v-1.491c0-0.538,0.436-0.975,0.975-0.975h2.769c0.539,0,0.975,0.437,0.975,0.975V15.88z"/>
<path fill="none" stroke="#2A84FB" stroke-width="0.5" stroke-miterlimit="10" d="M18.915,15.88c0,0.537-0.436,0.974-0.975,0.974
	h-2.77c-0.537,0-0.973-0.437-0.973-0.974v-1.491c0-0.538,0.436-0.975,0.973-0.975h2.77c0.539,0,0.975,0.437,0.975,0.975V15.88z"/>
<line fill="none" stroke="#2A84FB" stroke-width="0.5" stroke-miterlimit="10" x1="9.769" y1="6.751" x2="9.769" y2="10.206"/>
<line fill="none" stroke="#2A84FB" stroke-width="0.5" stroke-miterlimit="10" x1="9.769" y1="10.206" x2="9.769" y2="13.414"/>
<polyline fill="none" stroke="#2A84FB" stroke-width="0.5" stroke-linejoin="round" stroke-miterlimit="10" points="2.981,13.414 
	2.981,10.206 16.558,10.206 16.558,13.414 "/>
</svg>
