<?xml version="1.0" encoding="utf-8"?>
<!-- Generator: Adobe Illustrator 16.0.0, SVG Export Plug-In . SVG Version: 6.00 Build 0)  -->
<!DOCTYPE svg PUBLIC "-//W3C//DTD SVG 1.1//EN" "http://www.w3.org/Graphics/SVG/1.1/DTD/svg11.dtd">
<svg version="1.1" id="图层_1" xmlns="http://www.w3.org/2000/svg" xmlns:xlink="http://www.w3.org/1999/xlink" x="0px" y="0px"
	 width="20px" height="20px" viewBox="0 0 20 20" enable-background="new 0 0 20 20" xml:space="preserve">
<path fill="none" stroke="#FFFFFF" stroke-width="0.5" stroke-miterlimit="10" d="M13.1,6.129c0,0.654-0.529,1.185-1.183,1.185
	h-3.37c-0.654,0-1.184-0.53-1.184-1.185V4.315c0-0.654,0.53-1.184,1.184-1.184h3.37c0.653,0,1.183,0.53,1.183,1.184V6.129z"/>
<path fill="none" stroke="#FFFFFF" stroke-width="0.5" stroke-miterlimit="10" d="M5.804,16.442c0,0.537-0.437,0.974-0.974,0.974
	H2.06c-0.538,0-0.974-0.437-0.974-0.974v-1.491c0-0.538,0.437-0.975,0.974-0.975h2.77c0.538,0,0.974,0.437,0.974,0.975V16.442z"/>
<path fill="none" stroke="#FFFFFF" stroke-width="0.5" stroke-miterlimit="10" d="M12.59,16.442c0,0.537-0.436,0.974-0.974,0.974
	H8.848c-0.539,0-0.975-0.437-0.975-0.974v-1.491c0-0.538,0.436-0.975,0.975-0.975h2.769c0.538,0,0.974,0.437,0.974,0.975V16.442z"/>
<path fill="none" stroke="#FFFFFF" stroke-width="0.5" stroke-miterlimit="10" d="M19.377,16.442c0,0.537-0.436,0.974-0.973,0.974
	h-2.77c-0.539,0-0.975-0.437-0.975-0.974v-1.491c0-0.538,0.436-0.975,0.975-0.975h2.77c0.537,0,0.973,0.437,0.973,0.975V16.442z"/>
<line fill="none" stroke="#FFFFFF" stroke-width="0.5" stroke-miterlimit="10" x1="10.232" y1="7.313" x2="10.232" y2="10.769"/>
<line fill="none" stroke="#FFFFFF" stroke-width="0.5" stroke-miterlimit="10" x1="10.232" y1="10.769" x2="10.232" y2="13.977"/>
<polyline fill="none" stroke="#FFFFFF" stroke-width="0.5" stroke-linejoin="round" stroke-miterlimit="10" points="3.444,13.977 
	3.444,10.769 17.02,10.769 17.02,13.977 "/>
</svg>
