<?xml version="1.0" encoding="utf-8"?>
<!-- Generator: Adobe Illustrator 16.0.0, SVG Export Plug-In . SVG Version: 6.00 Build 0)  -->
<!DOCTYPE svg PUBLIC "-//W3C//DTD SVG 1.1//EN" "http://www.w3.org/Graphics/SVG/1.1/DTD/svg11.dtd">
<svg version="1.1" id="图层_1" xmlns="http://www.w3.org/2000/svg" xmlns:xlink="http://www.w3.org/1999/xlink" x="0px" y="0px"
	 width="20px" height="20px" viewBox="0 0 20 20" enable-background="new 0 0 20 20" xml:space="preserve">
<g>
	<path fill-rule="evenodd" clip-rule="evenodd" fill="none" stroke="#FFFFFF" stroke-width="0.5" stroke-miterlimit="10" d="
		M7.081,4.367c0-1.589,1.289-2.878,2.878-2.878s2.877,1.289,2.877,2.878"/>
	<path fill-rule="evenodd" clip-rule="evenodd" fill="none" stroke="#FFFFFF" stroke-width="0.5" stroke-miterlimit="10" d="
		M4.203,11.965v-1.646c0-3.633,2.123-6.578,5.756-6.578l0,0c3.633,0,5.756,2.945,5.756,6.578v1.646"/>
	
		<ellipse fill-rule="evenodd" clip-rule="evenodd" fill="none" stroke="#FFFFFF" stroke-width="0.5" stroke-miterlimit="10" cx="9.958" cy="14.546" rx="7.983" ry="3.666"/>
	<g>
		<path fill="#FFFFFF" d="M9.976,13.596L9.976,13.596c0.714,0,1.413,0.101,2.084,0.299c-0.393,0.618-1.159,1.601-2.072,1.601
			c-0.671,0-1.392-0.554-2.104-1.61C8.354,13.752,9.091,13.596,9.976,13.596 M9.976,13.096c-1.68,0-2.852,0.52-2.852,0.52
			c1.045,1.785,2.023,2.38,2.863,2.38c1.68,0,2.806-2.38,2.806-2.38C11.781,13.227,10.815,13.096,9.976,13.096L9.976,13.096z"/>
	</g>
</g>
</svg>
