<?xml version="1.0" encoding="utf-8"?>
<!-- Generator: Adobe Illustrator 16.0.0, SVG Export Plug-In . SVG Version: 6.00 Build 0)  -->
<!DOCTYPE svg PUBLIC "-//W3C//DTD SVG 1.1//EN" "http://www.w3.org/Graphics/SVG/1.1/DTD/svg11.dtd">
<svg version="1.1" id="图层_1" xmlns="http://www.w3.org/2000/svg" xmlns:xlink="http://www.w3.org/1999/xlink" x="0px" y="0px"
	 width="20px" height="20px" viewBox="0 0 20 20" enable-background="new 0 0 20 20" xml:space="preserve">
<g>
	
		<path fill-rule="evenodd" clip-rule="evenodd" fill="none" stroke="#FFFFFF" stroke-width="0.5" stroke-linecap="round" stroke-linejoin="round" stroke-miterlimit="10" d="
		M3.012,17.019l0.971,0.971c0.67,0.67,1.755,0.67,2.425,0l3.831-3.916l-3.51-3.053l-3.717,3.572
		C2.342,15.263,2.342,16.349,3.012,17.019z"/>
	<path fill-rule="evenodd" clip-rule="evenodd" fill="none" stroke="#FFFFFF" stroke-width="0.5" stroke-miterlimit="10" d="
		M6,2.124c-0.206,0-0.408,0.02-0.606,0.048l3.303,3.535L7.704,8.478L4.809,9.004L1.741,5.721C1.701,5.958,1.675,6.2,1.675,6.449
		c0,2.389,1.937,4.324,4.325,4.324c0.58,0,1.132-0.115,1.637-0.322c2.542,1.593,4.152,3.529,4.747,4.316
		c-0.126,0.311-0.197,0.65-0.197,1.006c0,1.475,1.195,2.67,2.67,2.67s2.67-1.195,2.67-2.67s-1.195-2.67-2.67-2.67
		c-0.268,0-0.525,0.041-0.771,0.115c-0.786-0.729-2.787-2.692-4.122-5.042c0.231-0.529,0.36-1.113,0.36-1.726
		C10.324,4.061,8.389,2.124,6,2.124z"/>
	
		<polygon fill-rule="evenodd" clip-rule="evenodd" fill="none" stroke="#FFFFFF" stroke-width="0.5" stroke-miterlimit="10" points="
		16.177,1.885 12.78,5.28 13.387,5.887 10.857,8.481 12.07,9.693 14.6,7.1 15.206,7.706 18.602,4.31 	"/>
	
		<circle fill-rule="evenodd" clip-rule="evenodd" fill="none" stroke="#FFFFFF" stroke-width="0.5" stroke-miterlimit="10" cx="14.855" cy="15.772" r="1.42"/>
	<path fill-rule="evenodd" clip-rule="evenodd" fill="none" stroke="#FFFFFF" stroke-width="0.5" stroke-miterlimit="10" d="
		M6.549,12.636c0.155-0.154,0.407-0.154,0.563,0c0.155,0.156,0.155,0.406,0,0.563l-2.877,2.869c-0.156,0.154-0.407,0.154-0.563,0
		c-0.156-0.154-0.156-0.406,0-0.561L6.549,12.636z"/>
	<path fill-rule="evenodd" clip-rule="evenodd" fill="none" stroke="#FFFFFF" stroke-width="0.5" stroke-miterlimit="10" d="
		M7.815,13.899c0.155-0.154,0.407-0.154,0.563,0c0.154,0.154,0.154,0.406,0,0.561L5.5,17.331c-0.156,0.154-0.408,0.154-0.562,0
		c-0.156-0.156-0.156-0.406,0-0.563L7.815,13.899z"/>
</g>
</svg>
