<?xml version="1.0" encoding="utf-8"?>
<!-- Generator: Adobe Illustrator 16.0.0, SVG Export Plug-In . SVG Version: 6.00 Build 0)  -->
<!DOCTYPE svg PUBLIC "-//W3C//DTD SVG 1.1//EN" "http://www.w3.org/Graphics/SVG/1.1/DTD/svg11.dtd">
<svg version="1.1" id="图层_1" xmlns="http://www.w3.org/2000/svg" xmlns:xlink="http://www.w3.org/1999/xlink" x="0px" y="0px"
	 width="18px" height="18px" viewBox="0 0 18 18" enable-background="new 0 0 18 18" xml:space="preserve">
<g>
	<polygon fill="#2A84FB" points="1.844,15.16 1.844,10.635 2.373,10.635 2.373,10.115 1.844,10.115 1.844,7.516 2.373,7.516 
		2.373,6.996 1.844,6.996 1.844,4.396 2.373,4.396 2.373,3.875 1.844,3.875 1.844,2.595 1.323,2.595 1.323,15.68 16.487,15.68 
		16.487,15.16 	"/>
	<polygon fill="#2A84FB" points="8.79,10.953 4.779,13.61 3.118,12.109 2.259,12.687 2.259,14.67 16.315,14.67 16.315,10.722 
		11.654,13.379 	"/>
	<polygon fill="#2A84FB" points="9.134,7.603 11.654,9.797 16.315,6.446 16.315,3.135 11.999,6.562 9.82,4.598 5.81,8.064 
		4.895,6.909 2.717,9.219 4.32,10.953 	"/>
</g>
</svg>
