<?xml version="1.0" encoding="utf-8"?>
<!-- Generator: Adobe Illustrator 16.0.0, SVG Export Plug-In . SVG Version: 6.00 Build 0)  -->
<!DOCTYPE svg PUBLIC "-//W3C//DTD SVG 1.1//EN" "http://www.w3.org/Graphics/SVG/1.1/DTD/svg11.dtd">
<svg version="1.1" id="图层_1" xmlns="http://www.w3.org/2000/svg" xmlns:xlink="http://www.w3.org/1999/xlink" x="0px" y="0px"
	 width="48px" height="48px" viewBox="0 0 48 48" enable-background="new 0 0 48 48" xml:space="preserve">
<circle fill="#5C5E69" cx="24" cy="24" r="24"/>
<path fill="#EDEDED" d="M27.946,17.87c0-1.472-0.216-3.167-0.216-3.167c0-3.306-2.682-5.987-5.988-5.987
	c-3.305,0-5.987,2.681-5.987,5.987c0,0-0.187,1.693-0.187,3.167c-0.288-0.068-0.862-0.083-0.47,1.068
	c0.285,0.838,0.58,1.04,0.787,1.061c1.202,3.161,2.663,5.656,5.856,5.656c3.083,0,4.275-2.122,5.837-5.651
	c0.205,0.006,0.527-0.162,0.835-1.065C28.807,17.789,28.234,17.801,27.946,17.87z"/>
<path fill="#EDEDED" d="M7.87,34.854c0,0,0.584-4.49,5.293-6.937c4.709-2.445,3.833-1.861,3.833-1.861l3.066,5.586l0.401-1.498
	l-0.767-1.533l1.825-1.789l1.789,1.789l-0.657,1.242l0.212,1.818l1.066-1.965l2.117-3.712c0,0,0.948-0.157,0.803,0.354
	s-2.19,5.366,1.313,8.506H7.87z"/>
<circle fill="#EDEDED" cx="34.34" cy="29.792" r="5.792"/>
<g>
	<path fill="none" stroke="#5C5E69" stroke-miterlimit="10" d="M36.887,30.215v2.494c0,0.33-0.266,0.596-0.595,0.596h-4.696
		c-0.329,0-0.595-0.266-0.595-0.596v-5.215c0-0.328,0.266-0.596,0.595-0.596h0.601"/>
	<line fill="none" stroke="#5C5E69" stroke-miterlimit="10" x1="31.136" y1="27.982" x2="32.196" y2="27.982"/>
</g>
<path fill="#5C5E69" d="M32.794,26.279v1.86h0.931l1.386-1.37v-0.49H32.794z M33.951,27.209h-0.431v-0.457h0.431V27.209z"/>
<rect x="33.774" y="27.548" transform="matrix(0.6966 0.7174 -0.7174 0.6966 31.9075 -15.6069)" fill="#5C5E69" width="1.269" height="4.755"/>
<polygon fill="#5C5E69" points="32.261,31.506 31.665,32.572 32.794,32.037 "/>
<path fill="#5C5E69" d="M37.102,28.232l0.409-0.424c0.228-0.237,0.22-0.614-0.017-0.842l-0.151-0.164
	c-0.236-0.228-0.614-0.221-0.843,0.017l-0.407,0.424L37.102,28.232z"/>
</svg>
