<?xml version="1.0" encoding="utf-8"?>
<!-- Generator: Adobe Illustrator 16.0.0, SVG Export Plug-In . SVG Version: 6.00 Build 0)  -->
<!DOCTYPE svg PUBLIC "-//W3C//DTD SVG 1.1//EN" "http://www.w3.org/Graphics/SVG/1.1/DTD/svg11.dtd">
<svg version="1.1" id="图层_1" xmlns="http://www.w3.org/2000/svg" xmlns:xlink="http://www.w3.org/1999/xlink" x="0px" y="0px"
	 width="20px" height="20px" viewBox="0 0 20 20" enable-background="new 0 0 20 20" xml:space="preserve">
<g>
	
		<path fill-rule="evenodd" clip-rule="evenodd" fill="none" stroke="#2A84FB" stroke-width="0.5" stroke-linecap="round" stroke-linejoin="round" stroke-miterlimit="10" d="
		M2.628,17.051l0.971,0.971c0.67,0.67,1.755,0.67,2.425,0l3.831-3.916l-3.51-3.053l-3.717,3.572
		C1.958,15.296,1.958,16.381,2.628,17.051z"/>
	<path fill-rule="evenodd" clip-rule="evenodd" fill="none" stroke="#2A84FB" stroke-width="0.5" stroke-miterlimit="10" d="
		M5.616,2.156c-0.206,0-0.408,0.02-0.606,0.048L8.312,5.74L7.32,8.511L4.425,9.037L1.357,5.753c-0.04,0.237-0.066,0.479-0.066,0.729
		c0,2.389,1.937,4.324,4.325,4.324c0.58,0,1.132-0.115,1.637-0.322c2.542,1.594,4.152,3.529,4.747,4.315
		c-0.126,0.311-0.197,0.65-0.197,1.006c0,1.475,1.195,2.67,2.67,2.67s2.67-1.195,2.67-2.67s-1.195-2.671-2.67-2.671
		c-0.268,0-0.525,0.042-0.771,0.115c-0.786-0.727-2.787-2.691-4.122-5.041c0.231-0.529,0.36-1.113,0.36-1.726
		C9.94,4.093,8.005,2.156,5.616,2.156z"/>
	
		<polygon fill-rule="evenodd" clip-rule="evenodd" fill="none" stroke="#2A84FB" stroke-width="0.5" stroke-miterlimit="10" points="
		15.793,1.917 12.396,5.313 13.003,5.919 10.474,8.514 11.687,9.726 14.216,7.132 14.822,7.739 18.218,4.343 	"/>
	
		<circle fill-rule="evenodd" clip-rule="evenodd" fill="none" stroke="#2A84FB" stroke-width="0.5" stroke-miterlimit="10" cx="14.472" cy="15.805" r="1.42"/>
	<path fill-rule="evenodd" clip-rule="evenodd" fill="none" stroke="#2A84FB" stroke-width="0.5" stroke-miterlimit="10" d="
		M6.165,12.669c0.155-0.154,0.407-0.154,0.563,0c0.155,0.155,0.155,0.406,0,0.561L3.85,16.1c-0.156,0.154-0.407,0.154-0.563,0
		c-0.156-0.154-0.156-0.405,0-0.561L6.165,12.669z"/>
	<path fill-rule="evenodd" clip-rule="evenodd" fill="none" stroke="#2A84FB" stroke-width="0.5" stroke-miterlimit="10" d="
		M7.431,13.932c0.155-0.154,0.407-0.154,0.563,0c0.154,0.155,0.154,0.406,0,0.562l-2.878,2.87c-0.156,0.154-0.408,0.154-0.562,0
		c-0.156-0.155-0.156-0.406,0-0.563L7.431,13.932z"/>
</g>
</svg>
