<?xml version="1.0" encoding="utf-8"?>
<!-- Generator: Adobe Illustrator 16.0.0, SVG Export Plug-In . SVG Version: 6.00 Build 0)  -->
<!DOCTYPE svg PUBLIC "-//W3C//DTD SVG 1.1//EN" "http://www.w3.org/Graphics/SVG/1.1/DTD/svg11.dtd">
<svg version="1.1" id="图层_1" xmlns="http://www.w3.org/2000/svg" xmlns:xlink="http://www.w3.org/1999/xlink" x="0px" y="0px"
	 width="48px" height="48px" viewBox="0 0 48 48" enable-background="new 0 0 48 48" xml:space="preserve">
<g>
	<circle fill="#5C5E69" cx="24" cy="24" r="24"/>
	<path fill="#EDEDED" d="M27.946,19.72c0-1.472-0.216-3.167-0.216-3.167c0-3.306-2.682-5.987-5.988-5.987
		c-3.305,0-5.987,2.681-5.987,5.987c0,0-0.187,1.692-0.187,3.167c-0.288-0.068-0.862-0.083-0.47,1.068
		c0.285,0.837,0.58,1.04,0.787,1.061c1.202,3.161,2.663,5.656,5.856,5.656c3.083,0,4.275-2.122,5.837-5.652
		c0.205,0.006,0.527-0.162,0.835-1.065C28.807,19.639,28.234,19.651,27.946,19.72z"/>
	<path fill="#EDEDED" d="M7.87,36.705c0,0,0.584-4.49,5.293-6.938c4.709-2.445,3.833-1.861,3.833-1.861l3.066,5.586l0.401-1.497
		l-0.767-1.533l1.825-1.789l1.789,1.789l-0.657,1.241l0.212,1.818l1.066-1.965l2.117-3.712c0,0,0.948-0.157,0.803,0.354
		c-0.146,0.51-2.19,5.365,1.313,8.506H7.87z"/>
	<g>
		<path fill="#EDEDED" d="M34.34,25.85c-3.199,0-5.793,2.593-5.793,5.792c0,3.2,2.594,5.793,5.793,5.793
			c3.198,0,5.79-2.593,5.79-5.793C40.13,28.442,37.538,25.85,34.34,25.85z M38.396,32.561h-0.785
			c-0.046,0.162-0.093,0.322-0.162,0.473l0.565,0.566c0.093,0.091,0.094,0.238,0,0.329l-1.056,1.058
			c-0.092,0.092-0.24,0.092-0.331,0l-0.468-0.468c-0.258,0.164-0.541,0.285-0.84,0.376v0.741c0,0.129-0.104,0.233-0.234,0.233
			h-1.495c-0.13,0-0.232-0.104-0.232-0.233v-0.741c-0.308-0.094-0.6-0.219-0.864-0.389l-0.479,0.48c-0.092,0.092-0.24,0.092-0.331,0
			l-1.056-1.058c-0.094-0.091-0.092-0.238,0-0.329l0.589-0.589c-0.063-0.144-0.105-0.297-0.148-0.45h-0.783
			c-0.13,0-0.234-0.102-0.234-0.232v-1.494c0-0.131,0.104-0.235,0.234-0.235h0.821c0.038-0.126,0.079-0.249,0.133-0.368
			l-0.611-0.613c-0.092-0.091-0.094-0.238,0-0.329l1.056-1.058c0.091-0.092,0.239-0.092,0.331,0l0.522,0.522
			c0.253-0.157,0.529-0.276,0.821-0.364v-0.865c0-0.129,0.103-0.232,0.232-0.232h1.495c0.13,0,0.234,0.104,0.234,0.232v0.865
			c0.283,0.086,0.55,0.199,0.797,0.352l0.511-0.51c0.091-0.092,0.239-0.092,0.331,0l1.056,1.058c0.094,0.091,0.093,0.238,0,0.329
			l-0.588,0.589c0.06,0.127,0.103,0.258,0.146,0.393h0.824c0.128,0,0.232,0.104,0.232,0.235v1.494
			C38.629,32.459,38.524,32.561,38.396,32.561z"/>
		<circle fill="#EDEDED" cx="34.34" cy="31.642" r="2.364"/>
	</g>
</g>
</svg>
