<?xml version="1.0" encoding="utf-8"?>
<!-- Generator: Adobe Illustrator 16.0.0, SVG Export Plug-In . SVG Version: 6.00 Build 0)  -->
<!DOCTYPE svg PUBLIC "-//W3C//DTD SVG 1.1//EN" "http://www.w3.org/Graphics/SVG/1.1/DTD/svg11.dtd">
<svg version="1.1" id="图层_1" xmlns="http://www.w3.org/2000/svg" xmlns:xlink="http://www.w3.org/1999/xlink" x="0px" y="0px"
	 width="20px" height="20px" viewBox="0 0 20 20" enable-background="new 0 0 20 20" xml:space="preserve">
<g>
	<path fill-rule="evenodd" clip-rule="evenodd" fill="none" stroke="#2A84FB" stroke-width="0.5" stroke-miterlimit="10" d="
		M7.206,4.576c0-1.589,1.289-2.878,2.878-2.878c1.59,0,2.878,1.289,2.878,2.878"/>
	<path fill-rule="evenodd" clip-rule="evenodd" fill="none" stroke="#2A84FB" stroke-width="0.5" stroke-miterlimit="10" d="
		M4.328,12.173v-1.645c0-3.633,2.123-6.578,5.756-6.578l0,0c3.633,0,5.756,2.945,5.756,6.578v1.645"/>
	
		<ellipse fill-rule="evenodd" clip-rule="evenodd" fill="none" stroke="#2A84FB" stroke-width="0.5" stroke-miterlimit="10" cx="10.084" cy="14.755" rx="7.983" ry="3.666"/>
	<g>
		<path fill="#2A84FB" d="M10.101,13.806L10.101,13.806c0.716,0,1.417,0.101,2.088,0.299c-0.432,0.682-1.209,1.6-2.077,1.6
			c-0.671,0-1.392-0.554-2.104-1.61C8.479,13.961,9.217,13.806,10.101,13.806 M10.101,13.306c-1.68,0-2.852,0.52-2.852,0.52
			c1.045,1.785,2.023,2.379,2.863,2.379c1.68,0,2.805-2.379,2.805-2.379C11.907,13.436,10.941,13.306,10.101,13.306L10.101,13.306z"
			/>
	</g>
</g>
</svg>
