<?xml version="1.0" encoding="utf-8"?>
<!-- Generator: Adobe Illustrator 16.0.0, SVG Export Plug-In . SVG Version: 6.00 Build 0)  -->
<!DOCTYPE svg PUBLIC "-//W3C//DTD SVG 1.1//EN" "http://www.w3.org/Graphics/SVG/1.1/DTD/svg11.dtd">
<svg version="1.1" id="图层_1" xmlns="http://www.w3.org/2000/svg" xmlns:xlink="http://www.w3.org/1999/xlink" x="0px" y="0px"
	 width="48px" height="48px" viewBox="0 0 48 48" enable-background="new 0 0 48 48" xml:space="preserve">
<g>
	<circle fill="#5C5E69" cx="24" cy="24" r="24"/>
	<path fill="#EDEDED" d="M27.947,19.718c0-1.472-0.216-3.167-0.216-3.167c0-3.308-2.684-5.99-5.989-5.99
		c-3.309,0-5.991,2.683-5.991,5.99c0,0-0.186,1.693-0.186,3.167c-0.287-0.067-0.863-0.083-0.47,1.068
		c0.285,0.838,0.579,1.04,0.788,1.062c1.203,3.162,2.664,5.658,5.86,5.658c3.083,0,4.275-2.123,5.838-5.654
		c0.205,0.006,0.526-0.161,0.836-1.065C28.809,19.637,28.235,19.65,27.947,19.718z"/>
	<path fill="#EDEDED" d="M7.863,36.709c0,0,0.585-4.492,5.296-6.938c4.711-2.447,3.834-1.862,3.834-1.862l3.068,5.588l0.401-1.498
		l-0.766-1.534l1.825-1.789l1.79,1.789l-0.658,1.242l0.211,1.819l1.066-1.966l2.119-3.714c0,0,0.949-0.157,0.803,0.354
		c-0.146,0.511-2.191,5.368,1.313,8.509H7.863z"/>
	<path fill="#EDEDED" d="M34.342,25.85c-3.199,0-5.795,2.595-5.795,5.795c0,3.201,2.596,5.795,5.795,5.795
		c3.2,0,5.794-2.594,5.794-5.795C40.136,28.444,37.542,25.85,34.342,25.85z M36.461,34.773l-2.52-2.508h-1.633
		c0,0-0.559-0.268-1.106-1.107s-0.134-1.454-0.134-1.454l1.229,1.234c1.752,0.256,1.315-1.461,1.315-1.461l-1.098-1.387
		c0.11-0.146,1.462,0.219,1.462,0.219l0.985,1.168l0.074,1.607l2.737,2.629C37.812,35.103,36.461,34.773,36.461,34.773z"/>
</g>
</svg>
