<?xml version="1.0" encoding="utf-8"?>
<!-- Generator: Adobe Illustrator 16.0.0, SVG Export Plug-In . SVG Version: 6.00 Build 0)  -->
<!DOCTYPE svg PUBLIC "-//W3C//DTD SVG 1.1//EN" "http://www.w3.org/Graphics/SVG/1.1/DTD/svg11.dtd">
<svg version="1.1" id="图层_1" xmlns="http://www.w3.org/2000/svg" xmlns:xlink="http://www.w3.org/1999/xlink" x="0px" y="0px"
	 width="20px" height="20px" viewBox="0 0 20 20" enable-background="new 0 0 20 20" xml:space="preserve">
<g>
	<g>
		
			<circle fill-rule="evenodd" clip-rule="evenodd" fill="none" stroke="#FFFFFF" stroke-width="0.5" stroke-miterlimit="10" cx="14.612" cy="5.397" r="2.618"/>
		<path fill-rule="evenodd" clip-rule="evenodd" fill="none" stroke="#FFFFFF" stroke-width="0.5" stroke-miterlimit="10" d="
			M15.756,5.563c-0.09,0.634-0.678,1.069-1.311,0.98c-0.631-0.095-1.07-0.679-0.977-1.312c0.09-0.63,0.676-1.07,1.309-0.977
			C15.41,4.345,15.848,4.931,15.756,5.563z"/>
		
			<polyline fill-rule="evenodd" clip-rule="evenodd" fill="none" stroke="#FFFFFF" stroke-width="0.5" stroke-linejoin="round" stroke-miterlimit="10" points="
			11.971,5.76 10.417,5.535 10.613,4.184 12.166,4.409 		"/>
		
			<polyline fill-rule="evenodd" clip-rule="evenodd" fill="none" stroke="#FFFFFF" stroke-width="0.5" stroke-linejoin="round" stroke-miterlimit="10" points="
			17.041,6.493 18.596,6.718 18.791,5.369 17.238,5.142 		"/>
		
			<polyline fill-rule="evenodd" clip-rule="evenodd" fill="none" stroke="#FFFFFF" stroke-width="0.5" stroke-linejoin="round" stroke-miterlimit="10" points="
			12.383,3.905 11.443,2.65 12.535,1.833 13.473,3.09 		"/>
		
			<polyline fill-rule="evenodd" clip-rule="evenodd" fill="none" stroke="#FFFFFF" stroke-width="0.5" stroke-linejoin="round" stroke-miterlimit="10" points="
			17.074,4.585 18.332,3.646 17.518,2.556 16.26,3.495 		"/>
		
			<polyline fill-rule="evenodd" clip-rule="evenodd" fill="none" stroke="#FFFFFF" stroke-width="0.5" stroke-linejoin="round" stroke-miterlimit="10" points="
			12.053,6.193 10.794,7.134 11.609,8.227 12.867,7.287 		"/>
		
			<polyline fill-rule="evenodd" clip-rule="evenodd" fill="none" stroke="#FFFFFF" stroke-width="0.5" stroke-linejoin="round" stroke-miterlimit="10" points="
			16.742,6.874 17.682,8.133 16.59,8.948 15.65,7.69 		"/>
		
			<polyline fill-rule="evenodd" clip-rule="evenodd" fill="none" stroke="#FFFFFF" stroke-width="0.5" stroke-linejoin="round" stroke-miterlimit="10" points="
			14.297,2.817 14.523,1.264 15.871,1.459 15.646,3.013 		"/>
		
			<polyline fill-rule="evenodd" clip-rule="evenodd" fill="none" stroke="#FFFFFF" stroke-width="0.5" stroke-linejoin="round" stroke-miterlimit="10" points="
			13.563,7.889 13.338,9.443 14.686,9.639 14.912,8.085 		"/>
	</g>
	<path fill-rule="evenodd" clip-rule="evenodd" fill="#FFFFFF" d="M17.049,10.162c-0.617,0.237-1.285,0.371-1.984,0.371
		c-0.48,0-0.943-0.066-1.387-0.181h-0.191c0-0.015-0.004-0.035-0.004-0.05c-0.252-0.074-0.494-0.168-0.729-0.275
		c0.01,0.108,0.023,0.215,0.029,0.325h-3.29V7.753c0.228-0.014,0.462-0.046,0.699-0.089c-0.12-0.217-0.225-0.445-0.316-0.679
		C9.749,7,9.621,7.018,9.494,7.025V4.985c0-0.007-0.001-0.015-0.001-0.022s0.001-0.014,0.001-0.021V3.503
		c0.069,0,0.133,0.007,0.195,0.01c0.063-0.231,0.136-0.458,0.226-0.676C9.66,2.81,9.404,2.791,9.143,2.784V2.781
		c-0.011,0-0.021,0.002-0.031,0.002S9.091,2.781,9.08,2.781v0.003c-4.377,0.092-7.841,3.572-7.841,7.975
		c0,4.403,3.464,7.884,7.841,7.974v0.004c0.012,0,0.021,0,0.032-0.002c0.011,0.002,0.021,0.002,0.031,0.002v-0.004
		c4.38-0.09,7.937-3.57,7.937-7.974C17.08,10.557,17.064,10.359,17.049,10.162z M7.203,3.785C6.687,4.489,6.216,5.358,5.865,6.25
		C5.253,5.992,4.713,5.687,4.291,5.381C5.113,4.63,6.099,4.067,7.203,3.785z M3.797,5.875c0.493,0.352,1.128,0.681,1.832,0.987
		c-0.469,1.268-0.751,2.482-0.798,3.491H1.99C2.061,8.591,2.718,7.072,3.797,5.875z M1.99,11.111h2.842
		c0.023,0.986,0.305,2.278,0.798,3.545c-0.704,0.307-1.339,0.635-1.832,0.986C2.718,14.445,2.061,12.872,1.99,11.111z M4.291,16.135
		c0.447-0.328,0.986-0.633,1.598-0.891c0.328,0.891,0.774,1.736,1.314,2.465C6.099,17.451,5.113,16.887,4.291,16.135z M8.761,18.014
		c-0.235,0-0.361-0.023-0.619-0.068c-0.658-0.869-1.222-1.904-1.644-2.959c0.799-0.283,1.512-0.447,2.263-0.494V18.014z
		 M8.761,13.764c-0.798,0.047-1.604,0.281-2.497,0.658c-0.423-1.127-0.681-2.254-0.729-3.311h3.226V13.764z M8.761,10.352H5.536
		C5.583,9.249,5.841,8.2,6.264,7.096c0.893,0.375,1.699,0.61,2.497,0.657V10.352z M8.761,7.025C7.987,6.979,7.25,6.791,6.475,6.508
		C6.92,5.429,7.508,4.443,8.142,3.573c0.258-0.047,0.384-0.07,0.619-0.07V7.025z M9.494,11.111h3.29
		c-0.047,1.057-0.305,2.184-0.729,3.311c-0.893-0.377-1.763-0.611-2.561-0.658V11.111z M9.494,18.014v-3.521
		c0.752,0.047,1.528,0.211,2.327,0.494c-0.424,1.055-0.986,2.09-1.644,2.959C9.918,17.99,9.729,18.014,9.494,18.014z M11.115,17.709
		c0.541-0.729,0.986-1.574,1.314-2.465c0.611,0.258,1.15,0.563,1.598,0.891C13.205,16.887,12.219,17.451,11.115,17.709z
		 M14.521,15.643c-0.494-0.352-1.127-0.68-1.832-0.986c0.492-1.267,0.773-2.559,0.797-3.545h2.842
		C16.258,12.872,15.602,14.445,14.521,15.643z"/>
</g>
</svg>
