<svg xmlns="http://www.w3.org/2000/svg" xmlns:xlink="http://www.w3.org/1999/xlink" id="body_7" preserveAspectRatio="xMinYMin meet" viewBox="0 0 793 1123"><defs><clipPath id="1"><path d="M0 842L0 0L0 0L595.22 0L595.22 0L595.22 842L595.22 842L0 842z" /></clipPath></defs><g transform="matrix(1.333333 0 0 1.333333 0 0)"><g><g clip-path="url(#1)"><g transform="matrix(0.4798529 0 0 0.476 85.08 28.37994)"><g transform="matrix(1 0 0 1 0 0)"><image x="0" y="0" xlink:href="img_01.png" width="34" height="30" /></g></g><path transform="matrix(1 0 0 -1 0 842)" d="M83.58 795.02L511.8 795.02L511.8 795.02L511.8 795.7401L511.8 795.7401L83.58 795.7401z" stroke="none" fill="#000000" fill-rule="winding" /><path transform="matrix(1 0 0 -1 0 842)" d="M79.44 738.02L79.92001 738.02L79.92001 738.02L79.92001 738.5001L79.92001 738.5001L79.44 738.5001z" stroke="none" fill="#000000" fill-rule="winding" /><path transform="matrix(1 0 0 -1 0 842)" d="M79.44 738.02L506.04 738.02L506.04 738.02L506.04 738.5001L506.04 738.5001L79.44 738.5001z" stroke="none" fill="#000000" fill-rule="winding" /><path transform="matrix(1 0 0 -1 0 842)" d="M505.56 738.02L506.04 738.02L506.04 738.02L506.04 738.5001L506.04 738.5001L505.56 738.5001z" stroke="none" fill="#000000" fill-rule="winding" /><path transform="matrix(1 0 0 -1 0 842)" d="M79.44 720.02L79.92001 720.02L79.92001 720.02L79.92001 738.02L79.92001 738.02L79.44 738.02z" stroke="none" fill="#000000" fill-rule="winding" /><path transform="matrix(1 0 0 -1 0 842)" d="M505.56 720.02L506.04 720.02L506.04 720.02L506.04 738.02L506.04 738.02L505.56 738.02z" stroke="none" fill="#000000" fill-rule="winding" /><path transform="matrix(1 0 0 -1 0 842)" d="M79.44 719.54L404.28 719.54L404.28 719.54L404.28 720.02L404.28 720.02L79.44 720.02z" stroke="none" fill="#000000" fill-rule="winding" /><path transform="matrix(1 0 0 -1 0 842)" d="M404.28 720.02L505.56 720.02L505.56 720.02L505.56 719.54L505.56 719.54L404.28 719.54" stroke="none" fill="#000000" fill-rule="winding" /><path transform="matrix(1 0 0 -1 0 842)" d="M505.56 719.54L506.04 719.54L506.04 719.54L506.04 720.02L506.04 720.02L505.56 720.02z" stroke="none" fill="#000000" fill-rule="winding" /><path transform="matrix(1 0 0 -1 0 842)" d="M79.44 703.88L79.92001 703.88L79.92001 703.88L79.92001 719.54L79.92001 719.54L79.44 719.54z" stroke="none" fill="#000000" fill-rule="winding" /><path transform="matrix(1 0 0 -1 0 842)" d="M141.54 703.88L142.02 703.88L142.02 703.88L142.02 719.54L142.02 719.54L141.54 719.54z" stroke="none" fill="#000000" fill-rule="winding" /><path transform="matrix(1 0 0 -1 0 842)" d="M212.46 703.88L212.94 703.88L212.94 703.88L212.94 719.54L212.94 719.54L212.46 719.54z" stroke="none" fill="#000000" fill-rule="winding" /><path transform="matrix(1 0 0 -1 0 842)" d="M403.8 703.88L404.28 703.88L404.28 703.88L404.28 719.54L404.28 719.54L403.8 719.54z" stroke="none" fill="#000000" fill-rule="winding" /><path transform="matrix(1 0 0 -1 0 842)" d="M505.56 703.88L506.04 703.88L506.04 703.88L506.04 719.54L506.04 719.54L505.56 719.54z" stroke="none" fill="#000000" fill-rule="winding" /><path transform="matrix(1 0 0 -1 0 842)" d="M79.44 703.4L404.28 703.4L404.28 703.4L404.28 703.8801L404.28 703.8801L79.44 703.8801z" stroke="none" fill="#000000" fill-rule="winding" /><path transform="matrix(1 0 0 -1 0 842)" d="M404.28 703.88L505.56 703.88L505.56 703.88L505.56 703.4L505.56 703.4L404.28 703.4" stroke="none" fill="#000000" fill-rule="winding" /><path transform="matrix(1 0 0 -1 0 842)" d="M505.56 703.4L506.04 703.4L506.04 703.4L506.04 703.8801L506.04 703.8801L505.56 703.8801z" stroke="none" fill="#000000" fill-rule="winding" /><path transform="matrix(1 0 0 -1 0 842)" d="M79.44 687.8L79.92001 687.8L79.92001 687.8L79.92001 703.4L79.92001 703.4L79.44 703.4z" stroke="none" fill="#000000" fill-rule="winding" /><path transform="matrix(1 0 0 -1 0 842)" d="M141.54 687.8L142.02 687.8L142.02 687.8L142.02 703.4L142.02 703.4L141.54 703.4z" stroke="none" fill="#000000" fill-rule="winding" /><path transform="matrix(1 0 0 -1 0 842)" d="M212.46 687.8L212.94 687.8L212.94 687.8L212.94 703.4L212.94 703.4L212.46 703.4z" stroke="none" fill="#000000" fill-rule="winding" /><path transform="matrix(1 0 0 -1 0 842)" d="M403.8 687.8L404.28 687.8L404.28 687.8L404.28 703.4L404.28 703.4L403.8 703.4z" stroke="none" fill="#000000" fill-rule="winding" /><path transform="matrix(1 0 0 -1 0 842)" d="M505.56 687.8L506.04 687.8L506.04 687.8L506.04 703.4L506.04 703.4L505.56 703.4z" stroke="none" fill="#000000" fill-rule="winding" /><path transform="matrix(1 0 0 -1 0 842)" d="M79.44 687.32L404.28 687.32L404.28 687.32L404.28 687.8L404.28 687.8L79.44 687.8z" stroke="none" fill="#000000" fill-rule="winding" /><path transform="matrix(1 0 0 -1 0 842)" d="M505.56 687.32L506.04 687.32L506.04 687.32L506.04 687.8L506.04 687.8L505.56 687.8z" stroke="none" fill="#000000" fill-rule="winding" /><path transform="matrix(1 0 0 -1 0 842)" d="M79.44 671.72L79.92001 671.72L79.92001 671.72L79.92001 687.3199L79.92001 687.3199L79.44 687.3199z" stroke="none" fill="#000000" fill-rule="winding" /><path transform="matrix(1 0 0 -1 0 842)" d="M141.54 671.72L142.02 671.72L142.02 671.72L142.02 687.3199L142.02 687.3199L141.54 687.3199z" stroke="none" fill="#000000" fill-rule="winding" /><path transform="matrix(1 0 0 -1 0 842)" d="M212.46 671.72L212.94 671.72L212.94 671.72L212.94 687.3199L212.94 687.3199L212.46 687.3199z" stroke="none" fill="#000000" fill-rule="winding" /><path transform="matrix(1 0 0 -1 0 842)" d="M403.8 671.72L404.28 671.72L404.28 671.72L404.28 687.3199L404.28 687.3199L403.8 687.3199z" stroke="none" fill="#000000" fill-rule="winding" /><path transform="matrix(1 0 0 -1 0 842)" d="M505.56 671.72L506.04 671.72L506.04 671.72L506.04 687.3199L506.04 687.3199L505.56 687.3199z" stroke="none" fill="#000000" fill-rule="winding" /><path transform="matrix(1 0 0 -1 0 842)" d="M79.44 671.24L404.28 671.24L404.28 671.24L404.28 671.72L404.28 671.72L79.44 671.72z" stroke="none" fill="#000000" fill-rule="winding" /><path transform="matrix(1 0 0 -1 0 842)" d="M505.56 671.24L506.04 671.24L506.04 671.24L506.04 671.72L506.04 671.72L505.56 671.72z" stroke="none" fill="#000000" fill-rule="winding" /><path transform="matrix(1 0 0 -1 0 842)" d="M79.44 655.58L79.92001 655.58L79.92001 655.58L79.92001 671.24L79.92001 671.24L79.44 671.24z" stroke="none" fill="#000000" fill-rule="winding" /><path transform="matrix(1 0 0 -1 0 842)" d="M141.54 655.58L142.02 655.58L142.02 655.58L142.02 671.24L142.02 671.24L141.54 671.24z" stroke="none" fill="#000000" fill-rule="winding" /><path transform="matrix(1 0 0 -1 0 842)" d="M212.46 655.58L212.94 655.58L212.94 655.58L212.94 671.24L212.94 671.24L212.46 671.24z" stroke="none" fill="#000000" fill-rule="winding" /><path transform="matrix(1 0 0 -1 0 842)" d="M403.8 655.58L404.28 655.58L404.28 655.58L404.28 671.24L404.28 671.24L403.8 671.24z" stroke="none" fill="#000000" fill-rule="winding" /><path transform="matrix(1 0 0 -1 0 842)" d="M505.56 655.58L506.04 655.58L506.04 655.58L506.04 671.24L506.04 671.24L505.56 671.24z" stroke="none" fill="#000000" fill-rule="winding" /><path transform="matrix(1 0 0 -1 0 842)" d="M79.44 655.1L404.28 655.1L404.28 655.1L404.28 655.58L404.28 655.58L79.44 655.58z" stroke="none" fill="#000000" fill-rule="winding" /><path transform="matrix(1 0 0 -1 0 842)" d="M505.56 655.1L506.04 655.1L506.04 655.1L506.04 655.58L506.04 655.58L505.56 655.58z" stroke="none" fill="#000000" fill-rule="winding" /><path transform="matrix(1 0 0 -1 0 842)" d="M79.44 639.5L79.92001 639.5L79.92001 639.5L79.92001 655.1L79.92001 655.1L79.44 655.1z" stroke="none" fill="#000000" fill-rule="winding" /><path transform="matrix(1 0 0 -1 0 842)" d="M141.54 639.5L142.02 639.5L142.02 639.5L142.02 655.1L142.02 655.1L141.54 655.1z" stroke="none" fill="#000000" fill-rule="winding" /><path transform="matrix(1 0 0 -1 0 842)" d="M212.46 639.5L212.94 639.5L212.94 639.5L212.94 655.1L212.94 655.1L212.46 655.1z" stroke="none" fill="#000000" fill-rule="winding" /><path transform="matrix(1 0 0 -1 0 842)" d="M403.8 639.5L404.28 639.5L404.28 639.5L404.28 655.1L404.28 655.1L403.8 655.1z" stroke="none" fill="#000000" fill-rule="winding" /><path transform="matrix(1 0 0 -1 0 842)" d="M505.56 639.5L506.04 639.5L506.04 639.5L506.04 655.1L506.04 655.1L505.56 655.1z" stroke="none" fill="#000000" fill-rule="winding" /><path transform="matrix(1 0 0 -1 0 842)" d="M79.44 639.02L404.28 639.02L404.28 639.02L404.28 639.5L404.28 639.5L79.44 639.5z" stroke="none" fill="#000000" fill-rule="winding" /><path transform="matrix(1 0 0 -1 0 842)" d="M505.56 639.02L506.04 639.02L506.04 639.02L506.04 639.5L506.04 639.5L505.56 639.5z" stroke="none" fill="#000000" fill-rule="winding" /><path transform="matrix(1 0 0 -1 0 842)" d="M79.44 623.42L79.92001 623.42L79.92001 623.42L79.92001 639.02L79.92001 639.02L79.44 639.02z" stroke="none" fill="#000000" fill-rule="winding" /><path transform="matrix(1 0 0 -1 0 842)" d="M141.54 623.42L142.02 623.42L142.02 623.42L142.02 639.02L142.02 639.02L141.54 639.02z" stroke="none" fill="#000000" fill-rule="winding" /><path transform="matrix(1 0 0 -1 0 842)" d="M212.46 623.42L212.94 623.42L212.94 623.42L212.94 639.02L212.94 639.02L212.46 639.02z" stroke="none" fill="#000000" fill-rule="winding" /><path transform="matrix(1 0 0 -1 0 842)" d="M403.8 623.42L404.28 623.42L404.28 623.42L404.28 639.02L404.28 639.02L403.8 639.02z" stroke="none" fill="#000000" fill-rule="winding" /><path transform="matrix(1 0 0 -1 0 842)" d="M505.56 623.42L506.04 623.42L506.04 623.42L506.04 639.02L506.04 639.02L505.56 639.02z" stroke="none" fill="#000000" fill-rule="winding" /><path transform="matrix(1 0 0 -1 0 842)" d="M79.44 622.94L404.28 622.94L404.28 622.94L404.28 623.42L404.28 623.42L79.44 623.42z" stroke="none" fill="#000000" fill-rule="winding" /><path transform="matrix(1 0 0 -1 0 842)" d="M404.28 623.42L505.56 623.42L505.56 623.42L505.56 622.94L505.56 622.94L404.28 622.94" stroke="none" fill="#000000" fill-rule="winding" /><path transform="matrix(1 0 0 -1 0 842)" d="M505.56 622.94L506.04 622.94L506.04 622.94L506.04 623.42L506.04 623.42L505.56 623.42z" stroke="none" fill="#000000" fill-rule="winding" /><path transform="matrix(1 0 0 -1 0 842)" d="M79.44 605.66L79.92001 605.66L79.92001 605.66L79.92001 622.94L79.92001 622.94L79.44 622.94z" stroke="none" fill="#000000" fill-rule="winding" /><path transform="matrix(1 0 0 -1 0 842)" d="M505.56 605.66L506.04 605.66L506.04 605.66L506.04 622.94L506.04 622.94L505.56 622.94z" stroke="none" fill="#000000" fill-rule="winding" /><path transform="matrix(1 0 0 -1 0 842)" d="M79.44 605.18L404.28 605.18L404.28 605.18L404.28 605.66L404.28 605.66L79.44 605.66z" stroke="none" fill="#000000" fill-rule="winding" /><path transform="matrix(1 0 0 -1 0 842)" d="M404.28 605.66L505.56 605.66L505.56 605.66L505.56 605.18L505.56 605.18L404.28 605.18" stroke="none" fill="#000000" fill-rule="winding" /><path transform="matrix(1 0 0 -1 0 842)" d="M505.56 605.18L506.04 605.18L506.04 605.18L506.04 605.66L506.04 605.66L505.56 605.66z" stroke="none" fill="#000000" fill-rule="winding" /><path transform="matrix(1 0 0 -1 0 842)" d="M79.44 589.58L79.92001 589.58L79.92001 589.58L79.92001 605.18L79.92001 605.18L79.44 605.18z" stroke="none" fill="#000000" fill-rule="winding" /><path transform="matrix(1 0 0 -1 0 842)" d="M141.54 589.58L142.02 589.58L142.02 589.58L142.02 605.18L142.02 605.18L141.54 605.18z" stroke="none" fill="#000000" fill-rule="winding" /><path transform="matrix(1 0 0 -1 0 842)" d="M212.46 589.58L212.94 589.58L212.94 589.58L212.94 605.18L212.94 605.18L212.46 605.18z" stroke="none" fill="#000000" fill-rule="winding" /><path transform="matrix(1 0 0 -1 0 842)" d="M403.8 589.58L404.28 589.58L404.28 589.58L404.28 605.18L404.28 605.18L403.8 605.18z" stroke="none" fill="#000000" fill-rule="winding" /><path transform="matrix(1 0 0 -1 0 842)" d="M505.56 589.58L506.04 589.58L506.04 589.58L506.04 605.18L506.04 605.18L505.56 605.18z" stroke="none" fill="#000000" fill-rule="winding" /><path transform="matrix(1 0 0 -1 0 842)" d="M79.44 589.1L404.28 589.1L404.28 589.1L404.28 589.58L404.28 589.58L79.44 589.58z" stroke="none" fill="#000000" fill-rule="winding" /><path transform="matrix(1 0 0 -1 0 842)" d="M505.56 589.1L506.04 589.1L506.04 589.1L506.04 589.58L506.04 589.58L505.56 589.58z" stroke="none" fill="#000000" fill-rule="winding" /><path transform="matrix(1 0 0 -1 0 842)" d="M79.44 573.44L79.92001 573.44L79.92001 573.44L79.92001 589.1L79.92001 589.1L79.44 589.1z" stroke="none" fill="#000000" fill-rule="winding" /><path transform="matrix(1 0 0 -1 0 842)" d="M141.54 573.44L142.02 573.44L142.02 573.44L142.02 589.1L142.02 589.1L141.54 589.1z" stroke="none" fill="#000000" fill-rule="winding" /><path transform="matrix(1 0 0 -1 0 842)" d="M212.46 573.44L212.94 573.44L212.94 573.44L212.94 589.1L212.94 589.1L212.46 589.1z" stroke="none" fill="#000000" fill-rule="winding" /><path transform="matrix(1 0 0 -1 0 842)" d="M403.8 573.44L404.28 573.44L404.28 573.44L404.28 589.1L404.28 589.1L403.8 589.1z" stroke="none" fill="#000000" fill-rule="winding" /><path transform="matrix(1 0 0 -1 0 842)" d="M505.56 573.44L506.04 573.44L506.04 573.44L506.04 589.1L506.04 589.1L505.56 589.1z" stroke="none" fill="#000000" fill-rule="winding" /><path transform="matrix(1 0 0 -1 0 842)" d="M79.44 572.96L404.28 572.96L404.28 572.96L404.28 573.44L404.28 573.44L79.44 573.44z" stroke="none" fill="#000000" fill-rule="winding" /><path transform="matrix(1 0 0 -1 0 842)" d="M505.56 572.96L506.04 572.96L506.04 572.96L506.04 573.44L506.04 573.44L505.56 573.44z" stroke="none" fill="#000000" fill-rule="winding" /><path transform="matrix(1 0 0 -1 0 842)" d="M79.44 557.36L79.92001 557.36L79.92001 557.36L79.92001 572.96L79.92001 572.96L79.44 572.96z" stroke="none" fill="#000000" fill-rule="winding" /><path transform="matrix(1 0 0 -1 0 842)" d="M141.54 557.36L142.02 557.36L142.02 557.36L142.02 572.96L142.02 572.96L141.54 572.96z" stroke="none" fill="#000000" fill-rule="winding" /><path transform="matrix(1 0 0 -1 0 842)" d="M212.46 557.36L212.94 557.36L212.94 557.36L212.94 572.96L212.94 572.96L212.46 572.96z" stroke="none" fill="#000000" fill-rule="winding" /><path transform="matrix(1 0 0 -1 0 842)" d="M403.8 557.36L404.28 557.36L404.28 557.36L404.28 572.96L404.28 572.96L403.8 572.96z" stroke="none" fill="#000000" fill-rule="winding" /><path transform="matrix(1 0 0 -1 0 842)" d="M505.56 557.36L506.04 557.36L506.04 557.36L506.04 572.96L506.04 572.96L505.56 572.96z" stroke="none" fill="#000000" fill-rule="winding" /><path transform="matrix(1 0 0 -1 0 842)" d="M79.44 556.88L404.28 556.88L404.28 556.88L404.28 557.36L404.28 557.36L79.44 557.36z" stroke="none" fill="#000000" fill-rule="winding" /><path transform="matrix(1 0 0 -1 0 842)" d="M505.56 556.88L506.04 556.88L506.04 556.88L506.04 557.36L506.04 557.36L505.56 557.36z" stroke="none" fill="#000000" fill-rule="winding" /><path transform="matrix(1 0 0 -1 0 842)" d="M79.44 541.28L79.92001 541.28L79.92001 541.28L79.92001 556.88L79.92001 556.88L79.44 556.88z" stroke="none" fill="#000000" fill-rule="winding" /><path transform="matrix(1 0 0 -1 0 842)" d="M141.54 541.28L142.02 541.28L142.02 541.28L142.02 556.88L142.02 556.88L141.54 556.88z" stroke="none" fill="#000000" fill-rule="winding" /><path transform="matrix(1 0 0 -1 0 842)" d="M212.46 541.28L212.94 541.28L212.94 541.28L212.94 556.88L212.94 556.88L212.46 556.88z" stroke="none" fill="#000000" fill-rule="winding" /><path transform="matrix(1 0 0 -1 0 842)" d="M403.8 541.28L404.28 541.28L404.28 541.28L404.28 556.88L404.28 556.88L403.8 556.88z" stroke="none" fill="#000000" fill-rule="winding" /><path transform="matrix(1 0 0 -1 0 842)" d="M505.56 541.28L506.04 541.28L506.04 541.28L506.04 556.88L506.04 556.88L505.56 556.88z" stroke="none" fill="#000000" fill-rule="winding" /><path transform="matrix(1 0 0 -1 0 842)" d="M79.44 540.8L404.28 540.8L404.28 540.8L404.28 541.28L404.28 541.28L79.44 541.28z" stroke="none" fill="#000000" fill-rule="winding" /><path transform="matrix(1 0 0 -1 0 842)" d="M505.56 540.8L506.04 540.8L506.04 540.8L506.04 541.28L506.04 541.28L505.56 541.28z" stroke="none" fill="#000000" fill-rule="winding" /><path transform="matrix(1 0 0 -1 0 842)" d="M79.44 525.14L79.92001 525.14L79.92001 525.14L79.92001 540.8L79.92001 540.8L79.44 540.8z" stroke="none" fill="#000000" fill-rule="winding" /><path transform="matrix(1 0 0 -1 0 842)" d="M141.54 525.14L142.02 525.14L142.02 525.14L142.02 540.8L142.02 540.8L141.54 540.8z" stroke="none" fill="#000000" fill-rule="winding" /><path transform="matrix(1 0 0 -1 0 842)" d="M212.46 525.14L212.94 525.14L212.94 525.14L212.94 540.8L212.94 540.8L212.46 540.8z" stroke="none" fill="#000000" fill-rule="winding" /><path transform="matrix(1 0 0 -1 0 842)" d="M403.8 525.14L404.28 525.14L404.28 525.14L404.28 540.8L404.28 540.8L403.8 540.8z" stroke="none" fill="#000000" fill-rule="winding" /><path transform="matrix(1 0 0 -1 0 842)" d="M505.56 525.14L506.04 525.14L506.04 525.14L506.04 540.8L506.04 540.8L505.56 540.8z" stroke="none" fill="#000000" fill-rule="winding" /><path transform="matrix(1 0 0 -1 0 842)" d="M79.44 524.66L404.28 524.66L404.28 524.66L404.28 525.14L404.28 525.14L79.44 525.14z" stroke="none" fill="#000000" fill-rule="winding" /><path transform="matrix(1 0 0 -1 0 842)" d="M404.28 525.14L505.56 525.14L505.56 525.14L505.56 524.66L505.56 524.66L404.28 524.66" stroke="none" fill="#000000" fill-rule="winding" /><path transform="matrix(1 0 0 -1 0 842)" d="M505.56 524.66L506.04 524.66L506.04 524.66L506.04 525.14L506.04 525.14L505.56 525.14z" stroke="none" fill="#000000" fill-rule="winding" /><path transform="matrix(1 0 0 -1 0 842)" d="M79.44 506.66L79.92001 506.66L79.92001 506.66L79.92001 524.66L79.92001 524.66L79.44 524.66z" stroke="none" fill="#000000" fill-rule="winding" /><path transform="matrix(1 0 0 -1 0 842)" d="M505.56 506.66L506.04 506.66L506.04 506.66L506.04 524.66L506.04 524.66L505.56 524.66z" stroke="none" fill="#000000" fill-rule="winding" /><path transform="matrix(1 0 0 -1 0 842)" d="M79.44 506.18L404.28 506.18L404.28 506.18L404.28 506.66L404.28 506.66L79.44 506.66z" stroke="none" fill="#000000" fill-rule="winding" /><path transform="matrix(1 0 0 -1 0 842)" d="M404.28 506.66L505.56 506.66L505.56 506.66L505.56 506.18L505.56 506.18L404.28 506.18" stroke="none" fill="#000000" fill-rule="winding" /><path transform="matrix(1 0 0 -1 0 842)" d="M505.56 506.18L506.04 506.18L506.04 506.18L506.04 506.66L506.04 506.66L505.56 506.66z" stroke="none" fill="#000000" fill-rule="winding" /><path transform="matrix(1 0 0 -1 0 842)" d="M79.44 490.58L79.92001 490.58L79.92001 490.58L79.92001 506.18L79.92001 506.18L79.44 506.18z" stroke="none" fill="#000000" fill-rule="winding" /><path transform="matrix(1 0 0 -1 0 842)" d="M141.54 490.58L142.02 490.58L142.02 490.58L142.02 506.18L142.02 506.18L141.54 506.18z" stroke="none" fill="#000000" fill-rule="winding" /><path transform="matrix(1 0 0 -1 0 842)" d="M212.46 490.58L212.94 490.58L212.94 490.58L212.94 506.18L212.94 506.18L212.46 506.18z" stroke="none" fill="#000000" fill-rule="winding" /><path transform="matrix(1 0 0 -1 0 842)" d="M403.8 490.58L404.28 490.58L404.28 490.58L404.28 506.18L404.28 506.18L403.8 506.18z" stroke="none" fill="#000000" fill-rule="winding" /><path transform="matrix(1 0 0 -1 0 842)" d="M505.56 490.58L506.04 490.58L506.04 490.58L506.04 506.18L506.04 506.18L505.56 506.18z" stroke="none" fill="#000000" fill-rule="winding" /><path transform="matrix(1 0 0 -1 0 842)" d="M79.44 490.1L404.28 490.1L404.28 490.1L404.28 490.58L404.28 490.58L79.44 490.58z" stroke="none" fill="#000000" fill-rule="winding" /><path transform="matrix(1 0 0 -1 0 842)" d="M505.56 490.1L506.04 490.1L506.04 490.1L506.04 490.58L506.04 490.58L505.56 490.58z" stroke="none" fill="#000000" fill-rule="winding" /><path transform="matrix(1 0 0 -1 0 842)" d="M79.44 474.44L79.92001 474.44L79.92001 474.44L79.92001 490.1L79.92001 490.1L79.44 490.1z" stroke="none" fill="#000000" fill-rule="winding" /><path transform="matrix(1 0 0 -1 0 842)" d="M141.54 474.44L142.02 474.44L142.02 474.44L142.02 490.1L142.02 490.1L141.54 490.1z" stroke="none" fill="#000000" fill-rule="winding" /><path transform="matrix(1 0 0 -1 0 842)" d="M212.46 474.44L212.94 474.44L212.94 474.44L212.94 490.1L212.94 490.1L212.46 490.1z" stroke="none" fill="#000000" fill-rule="winding" /><path transform="matrix(1 0 0 -1 0 842)" d="M403.8 474.44L404.28 474.44L404.28 474.44L404.28 490.1L404.28 490.1L403.8 490.1z" stroke="none" fill="#000000" fill-rule="winding" /><path transform="matrix(1 0 0 -1 0 842)" d="M505.56 474.44L506.04 474.44L506.04 474.44L506.04 490.1L506.04 490.1L505.56 490.1z" stroke="none" fill="#000000" fill-rule="winding" /><path transform="matrix(1 0 0 -1 0 842)" d="M79.44 473.96L404.28 473.96L404.28 473.96L404.28 474.44L404.28 474.44L79.44 474.44z" stroke="none" fill="#000000" fill-rule="winding" /><path transform="matrix(1 0 0 -1 0 842)" d="M505.56 473.96L506.04 473.96L506.04 473.96L506.04 474.44L506.04 474.44L505.56 474.44z" stroke="none" fill="#000000" fill-rule="winding" /><path transform="matrix(1 0 0 -1 0 842)" d="M79.44 458.36L79.92001 458.36L79.92001 458.36L79.92001 473.96L79.92001 473.96L79.44 473.96z" stroke="none" fill="#000000" fill-rule="winding" /><path transform="matrix(1 0 0 -1 0 842)" d="M141.54 458.36L142.02 458.36L142.02 458.36L142.02 473.96L142.02 473.96L141.54 473.96z" stroke="none" fill="#000000" fill-rule="winding" /><path transform="matrix(1 0 0 -1 0 842)" d="M212.46 458.36L212.94 458.36L212.94 458.36L212.94 473.96L212.94 473.96L212.46 473.96z" stroke="none" fill="#000000" fill-rule="winding" /><path transform="matrix(1 0 0 -1 0 842)" d="M403.8 458.36L404.28 458.36L404.28 458.36L404.28 473.96L404.28 473.96L403.8 473.96z" stroke="none" fill="#000000" fill-rule="winding" /><path transform="matrix(1 0 0 -1 0 842)" d="M505.56 458.36L506.04 458.36L506.04 458.36L506.04 473.96L506.04 473.96L505.56 473.96z" stroke="none" fill="#000000" fill-rule="winding" /><path transform="matrix(1 0 0 -1 0 842)" d="M79.44 457.88L404.28 457.88L404.28 457.88L404.28 458.36L404.28 458.36L79.44 458.36z" stroke="none" fill="#000000" fill-rule="winding" /><path transform="matrix(1 0 0 -1 0 842)" d="M505.56 457.88L506.04 457.88L506.04 457.88L506.04 458.36L506.04 458.36L505.56 458.36z" stroke="none" fill="#000000" fill-rule="winding" /><path transform="matrix(1 0 0 -1 0 842)" d="M79.44 442.28L79.92001 442.28L79.92001 442.28L79.92001 457.88L79.92001 457.88L79.44 457.88z" stroke="none" fill="#000000" fill-rule="winding" /><path transform="matrix(1 0 0 -1 0 842)" d="M141.54 442.28L142.02 442.28L142.02 442.28L142.02 457.88L142.02 457.88L141.54 457.88z" stroke="none" fill="#000000" fill-rule="winding" /><path transform="matrix(1 0 0 -1 0 842)" d="M212.46 442.28L212.94 442.28L212.94 442.28L212.94 457.88L212.94 457.88L212.46 457.88z" stroke="none" fill="#000000" fill-rule="winding" /><path transform="matrix(1 0 0 -1 0 842)" d="M403.8 442.28L404.28 442.28L404.28 442.28L404.28 457.88L404.28 457.88L403.8 457.88z" stroke="none" fill="#000000" fill-rule="winding" /><path transform="matrix(1 0 0 -1 0 842)" d="M505.56 442.28L506.04 442.28L506.04 442.28L506.04 457.88L506.04 457.88L505.56 457.88z" stroke="none" fill="#000000" fill-rule="winding" /><path transform="matrix(1 0 0 -1 0 842)" d="M79.44 441.8L404.28 441.8L404.28 441.8L404.28 442.28L404.28 442.28L79.44 442.28z" stroke="none" fill="#000000" fill-rule="winding" /><path transform="matrix(1 0 0 -1 0 842)" d="M505.56 441.8L506.04 441.8L506.04 441.8L506.04 442.28L506.04 442.28L505.56 442.28z" stroke="none" fill="#000000" fill-rule="winding" /><path transform="matrix(1 0 0 -1 0 842)" d="M79.44 426.14L79.92001 426.14L79.92001 426.14L79.92001 441.8L79.92001 441.8L79.44 441.8z" stroke="none" fill="#000000" fill-rule="winding" /><path transform="matrix(1 0 0 -1 0 842)" d="M141.54 426.14L142.02 426.14L142.02 426.14L142.02 441.8L142.02 441.8L141.54 441.8z" stroke="none" fill="#000000" fill-rule="winding" /><path transform="matrix(1 0 0 -1 0 842)" d="M212.46 426.14L212.94 426.14L212.94 426.14L212.94 441.8L212.94 441.8L212.46 441.8z" stroke="none" fill="#000000" fill-rule="winding" /><path transform="matrix(1 0 0 -1 0 842)" d="M403.8 426.14L404.28 426.14L404.28 426.14L404.28 441.8L404.28 441.8L403.8 441.8z" stroke="none" fill="#000000" fill-rule="winding" /><path transform="matrix(1 0 0 -1 0 842)" d="M505.56 426.14L506.04 426.14L506.04 426.14L506.04 441.8L506.04 441.8L505.56 441.8z" stroke="none" fill="#000000" fill-rule="winding" /><path transform="matrix(1 0 0 -1 0 842)" d="M79.44 425.66L404.28 425.66L404.28 425.66L404.28 426.14L404.28 426.14L79.44 426.14z" stroke="none" fill="#000000" fill-rule="winding" /><path transform="matrix(1 0 0 -1 0 842)" d="M404.28 426.14L505.56 426.14L505.56 426.14L505.56 425.66L505.56 425.66L404.28 425.66" stroke="none" fill="#000000" fill-rule="winding" /><path transform="matrix(1 0 0 -1 0 842)" d="M505.56 425.66L506.04 425.66L506.04 425.66L506.04 426.14L506.04 426.14L505.56 426.14z" stroke="none" fill="#000000" fill-rule="winding" /><path transform="matrix(1 0 0 -1 0 842)" d="M79.44 408.38L79.92001 408.38L79.92001 408.38L79.92001 425.66L79.92001 425.66L79.44 425.66z" stroke="none" fill="#000000" fill-rule="winding" /><path transform="matrix(1 0 0 -1 0 842)" d="M505.56 408.38L506.04 408.38L506.04 408.38L506.04 425.66L506.04 425.66L505.56 425.66z" stroke="none" fill="#000000" fill-rule="winding" /><path transform="matrix(1 0 0 -1 0 842)" d="M79.44 407.9L404.28 407.9L404.28 407.9L404.28 408.38L404.28 408.38L79.44 408.38z" stroke="none" fill="#000000" fill-rule="winding" /><path transform="matrix(1 0 0 -1 0 842)" d="M404.28 408.38L505.56 408.38L505.56 408.38L505.56 407.9L505.56 407.9L404.28 407.9" stroke="none" fill="#000000" fill-rule="winding" /><path transform="matrix(1 0 0 -1 0 842)" d="M505.56 407.9L506.04 407.9L506.04 407.9L506.04 408.38L506.04 408.38L505.56 408.38z" stroke="none" fill="#000000" fill-rule="winding" /><path transform="matrix(1 0 0 -1 0 842)" d="M79.44 392.3L79.92001 392.3L79.92001 392.3L79.92001 407.9L79.92001 407.9L79.44 407.9z" stroke="none" fill="#000000" fill-rule="winding" /><path transform="matrix(1 0 0 -1 0 842)" d="M141.54 392.3L142.02 392.3L142.02 392.3L142.02 407.9L142.02 407.9L141.54 407.9z" stroke="none" fill="#000000" fill-rule="winding" /><path transform="matrix(1 0 0 -1 0 842)" d="M212.46 392.3L212.94 392.3L212.94 392.3L212.94 407.9L212.94 407.9L212.46 407.9z" stroke="none" fill="#000000" fill-rule="winding" /><path transform="matrix(1 0 0 -1 0 842)" d="M403.8 392.3L404.28 392.3L404.28 392.3L404.28 407.9L404.28 407.9L403.8 407.9z" stroke="none" fill="#000000" fill-rule="winding" /><path transform="matrix(1 0 0 -1 0 842)" d="M505.56 392.3L506.04 392.3L506.04 392.3L506.04 407.9L506.04 407.9L505.56 407.9z" stroke="none" fill="#000000" fill-rule="winding" /><path transform="matrix(1 0 0 -1 0 842)" d="M79.44 391.82L404.28 391.82L404.28 391.82L404.28 392.3L404.28 392.3L79.44 392.3z" stroke="none" fill="#000000" fill-rule="winding" /><path transform="matrix(1 0 0 -1 0 842)" d="M505.56 391.82L506.04 391.82L506.04 391.82L506.04 392.3L506.04 392.3L505.56 392.3z" stroke="none" fill="#000000" fill-rule="winding" /><path transform="matrix(1 0 0 -1 0 842)" d="M79.44 376.22L79.92001 376.22L79.92001 376.22L79.92001 391.82L79.92001 391.82L79.44 391.82z" stroke="none" fill="#000000" fill-rule="winding" /><path transform="matrix(1 0 0 -1 0 842)" d="M141.54 376.22L142.02 376.22L142.02 376.22L142.02 391.82L142.02 391.82L141.54 391.82z" stroke="none" fill="#000000" fill-rule="winding" /><path transform="matrix(1 0 0 -1 0 842)" d="M212.46 376.22L212.94 376.22L212.94 376.22L212.94 391.82L212.94 391.82L212.46 391.82z" stroke="none" fill="#000000" fill-rule="winding" /><path transform="matrix(1 0 0 -1 0 842)" d="M403.8 376.22L404.28 376.22L404.28 376.22L404.28 391.82L404.28 391.82L403.8 391.82z" stroke="none" fill="#000000" fill-rule="winding" /><path transform="matrix(1 0 0 -1 0 842)" d="M505.56 376.22L506.04 376.22L506.04 376.22L506.04 391.82L506.04 391.82L505.56 391.82z" stroke="none" fill="#000000" fill-rule="winding" /><path transform="matrix(1 0 0 -1 0 842)" d="M79.44 375.74L404.28 375.74L404.28 375.74L404.28 376.22L404.28 376.22L79.44 376.22z" stroke="none" fill="#000000" fill-rule="winding" /><path transform="matrix(1 0 0 -1 0 842)" d="M505.56 375.74L506.04 375.74L506.04 375.74L506.04 376.22L506.04 376.22L505.56 376.22z" stroke="none" fill="#000000" fill-rule="winding" /><path transform="matrix(1 0 0 -1 0 842)" d="M79.44 360.08L79.92001 360.08L79.92001 360.08L79.92001 375.74L79.92001 375.74L79.44 375.74z" stroke="none" fill="#000000" fill-rule="winding" /><path transform="matrix(1 0 0 -1 0 842)" d="M141.54 360.08L142.02 360.08L142.02 360.08L142.02 375.74L142.02 375.74L141.54 375.74z" stroke="none" fill="#000000" fill-rule="winding" /><path transform="matrix(1 0 0 -1 0 842)" d="M212.46 360.08L212.94 360.08L212.94 360.08L212.94 375.74L212.94 375.74L212.46 375.74z" stroke="none" fill="#000000" fill-rule="winding" /><path transform="matrix(1 0 0 -1 0 842)" d="M403.8 360.08L404.28 360.08L404.28 360.08L404.28 375.74L404.28 375.74L403.8 375.74z" stroke="none" fill="#000000" fill-rule="winding" /><path transform="matrix(1 0 0 -1 0 842)" d="M505.56 360.08L506.04 360.08L506.04 360.08L506.04 375.74L506.04 375.74L505.56 375.74z" stroke="none" fill="#000000" fill-rule="winding" /><path transform="matrix(1 0 0 -1 0 842)" d="M79.44 359.6L404.28 359.6L404.28 359.6L404.28 360.08L404.28 360.08L79.44 360.08z" stroke="none" fill="#000000" fill-rule="winding" /><path transform="matrix(1 0 0 -1 0 842)" d="M505.56 359.6L506.04 359.6L506.04 359.6L506.04 360.08L506.04 360.08L505.56 360.08z" stroke="none" fill="#000000" fill-rule="winding" /><path transform="matrix(1 0 0 -1 0 842)" d="M79.44 344L79.92001 344L79.92001 344L79.92001 359.6L79.92001 359.6L79.44 359.6z" stroke="none" fill="#000000" fill-rule="winding" /><path transform="matrix(1 0 0 -1 0 842)" d="M141.54 344L142.02 344L142.02 344L142.02 359.6L142.02 359.6L141.54 359.6z" stroke="none" fill="#000000" fill-rule="winding" /><path transform="matrix(1 0 0 -1 0 842)" d="M212.46 344L212.94 344L212.94 344L212.94 359.6L212.94 359.6L212.46 359.6z" stroke="none" fill="#000000" fill-rule="winding" /><path transform="matrix(1 0 0 -1 0 842)" d="M403.8 344L404.28 344L404.28 344L404.28 359.6L404.28 359.6L403.8 359.6z" stroke="none" fill="#000000" fill-rule="winding" /><path transform="matrix(1 0 0 -1 0 842)" d="M505.56 344L506.04 344L506.04 344L506.04 359.6L506.04 359.6L505.56 359.6z" stroke="none" fill="#000000" fill-rule="winding" /><path transform="matrix(1 0 0 -1 0 842)" d="M79.44 343.52L404.28 343.52L404.28 343.52L404.28 344L404.28 344L79.44 344z" stroke="none" fill="#000000" fill-rule="winding" /><path transform="matrix(1 0 0 -1 0 842)" d="M505.56 343.52L506.04 343.52L506.04 343.52L506.04 344L506.04 344L505.56 344z" stroke="none" fill="#000000" fill-rule="winding" /><path transform="matrix(1 0 0 -1 0 842)" d="M79.44 327.92L79.92001 327.92L79.92001 327.92L79.92001 343.52L79.92001 343.52L79.44 343.52z" stroke="none" fill="#000000" fill-rule="winding" /><path transform="matrix(1 0 0 -1 0 842)" d="M141.54 327.92L142.02 327.92L142.02 327.92L142.02 343.52L142.02 343.52L141.54 343.52z" stroke="none" fill="#000000" fill-rule="winding" /><path transform="matrix(1 0 0 -1 0 842)" d="M212.46 327.92L212.94 327.92L212.94 327.92L212.94 343.52L212.94 343.52L212.46 343.52z" stroke="none" fill="#000000" fill-rule="winding" /><path transform="matrix(1 0 0 -1 0 842)" d="M403.8 327.92L404.28 327.92L404.28 327.92L404.28 343.52L404.28 343.52L403.8 343.52z" stroke="none" fill="#000000" fill-rule="winding" /><path transform="matrix(1 0 0 -1 0 842)" d="M505.56 327.92L506.04 327.92L506.04 327.92L506.04 343.52L506.04 343.52L505.56 343.52z" stroke="none" fill="#000000" fill-rule="winding" /><path transform="matrix(1 0 0 -1 0 842)" d="M79.44 327.44L404.28 327.44L404.28 327.44L404.28 327.92L404.28 327.92L79.44 327.92z" stroke="none" fill="#000000" fill-rule="winding" /><path transform="matrix(1 0 0 -1 0 842)" d="M404.28 327.92L505.56 327.92L505.56 327.92L505.56 327.44L505.56 327.44L404.28 327.44" stroke="none" fill="#000000" fill-rule="winding" /><path transform="matrix(1 0 0 -1 0 842)" d="M505.56 327.44L506.04 327.44L506.04 327.44L506.04 327.92L506.04 327.92L505.56 327.92z" stroke="none" fill="#000000" fill-rule="winding" /><path transform="matrix(1 0 0 -1 0 842)" d="M79.44 311.66L79.92001 311.66L79.92001 311.66L79.92001 327.44L79.92001 327.44L79.44 327.44z" stroke="none" fill="#000000" fill-rule="winding" /><path transform="matrix(1 0 0 -1 0 842)" d="M505.56 311.66L506.04 311.66L506.04 311.66L506.04 327.44L506.04 327.44L505.56 327.44z" stroke="none" fill="#000000" fill-rule="winding" /><path transform="matrix(1 0 0 -1 0 842)" d="M79.44 311.18L404.28 311.18L404.28 311.18L404.28 311.66L404.28 311.66L79.44 311.66z" stroke="none" fill="#000000" fill-rule="winding" /><path transform="matrix(1 0 0 -1 0 842)" d="M404.28 311.66L505.56 311.66L505.56 311.66L505.56 311.18L505.56 311.18L404.28 311.18" stroke="none" fill="#000000" fill-rule="winding" /><path transform="matrix(1 0 0 -1 0 842)" d="M505.56 311.18L506.04 311.18L506.04 311.18L506.04 311.66L506.04 311.66L505.56 311.66z" stroke="none" fill="#000000" fill-rule="winding" /><path transform="matrix(1 0 0 -1 0 842)" d="M79.44 295.58L79.92001 295.58L79.92001 295.58L79.92001 311.18L79.92001 311.18L79.44 311.18z" stroke="none" fill="#000000" fill-rule="winding" /><path transform="matrix(1 0 0 -1 0 842)" d="M141.54 295.58L142.02 295.58L142.02 295.58L142.02 311.18L142.02 311.18L141.54 311.18z" stroke="none" fill="#000000" fill-rule="winding" /><path transform="matrix(1 0 0 -1 0 842)" d="M212.46 295.58L212.94 295.58L212.94 295.58L212.94 311.18L212.94 311.18L212.46 311.18z" stroke="none" fill="#000000" fill-rule="winding" /><path transform="matrix(1 0 0 -1 0 842)" d="M403.8 295.58L404.28 295.58L404.28 295.58L404.28 311.18L404.28 311.18L403.8 311.18z" stroke="none" fill="#000000" fill-rule="winding" /><path transform="matrix(1 0 0 -1 0 842)" d="M505.56 295.58L506.04 295.58L506.04 295.58L506.04 311.18L506.04 311.18L505.56 311.18z" stroke="none" fill="#000000" fill-rule="winding" /><path transform="matrix(1 0 0 -1 0 842)" d="M79.44 295.1L404.28 295.1L404.28 295.1L404.28 295.58L404.28 295.58L79.44 295.58z" stroke="none" fill="#000000" fill-rule="winding" /><path transform="matrix(1 0 0 -1 0 842)" d="M505.56 295.1L506.04 295.1L506.04 295.1L506.04 295.58L506.04 295.58L505.56 295.58z" stroke="none" fill="#000000" fill-rule="winding" /><path transform="matrix(1 0 0 -1 0 842)" d="M79.44 279.44L79.92001 279.44L79.92001 279.44L79.92001 295.1L79.92001 295.1L79.44 295.1z" stroke="none" fill="#000000" fill-rule="winding" /><path transform="matrix(1 0 0 -1 0 842)" d="M141.54 279.44L142.02 279.44L142.02 279.44L142.02 295.1L142.02 295.1L141.54 295.1z" stroke="none" fill="#000000" fill-rule="winding" /><path transform="matrix(1 0 0 -1 0 842)" d="M212.46 279.44L212.94 279.44L212.94 279.44L212.94 295.1L212.94 295.1L212.46 295.1z" stroke="none" fill="#000000" fill-rule="winding" /><path transform="matrix(1 0 0 -1 0 842)" d="M403.8 279.44L404.28 279.44L404.28 279.44L404.28 295.1L404.28 295.1L403.8 295.1z" stroke="none" fill="#000000" fill-rule="winding" /><path transform="matrix(1 0 0 -1 0 842)" d="M505.56 279.44L506.04 279.44L506.04 279.44L506.04 295.1L506.04 295.1L505.56 295.1z" stroke="none" fill="#000000" fill-rule="winding" /><path transform="matrix(1 0 0 -1 0 842)" d="M79.44 278.96L404.28 278.96L404.28 278.96L404.28 279.44L404.28 279.44L79.44 279.44z" stroke="none" fill="#000000" fill-rule="winding" /><path transform="matrix(1 0 0 -1 0 842)" d="M505.56 278.96L506.04 278.96L506.04 278.96L506.04 279.44L506.04 279.44L505.56 279.44z" stroke="none" fill="#000000" fill-rule="winding" /><path transform="matrix(1 0 0 -1 0 842)" d="M79.44 263.36L79.92001 263.36L79.92001 263.36L79.92001 278.96L79.92001 278.96L79.44 278.96z" stroke="none" fill="#000000" fill-rule="winding" /><path transform="matrix(1 0 0 -1 0 842)" d="M141.54 263.36L142.02 263.36L142.02 263.36L142.02 278.96L142.02 278.96L141.54 278.96z" stroke="none" fill="#000000" fill-rule="winding" /><path transform="matrix(1 0 0 -1 0 842)" d="M212.46 263.36L212.94 263.36L212.94 263.36L212.94 278.96L212.94 278.96L212.46 278.96z" stroke="none" fill="#000000" fill-rule="winding" /><path transform="matrix(1 0 0 -1 0 842)" d="M403.8 263.36L404.28 263.36L404.28 263.36L404.28 278.96L404.28 278.96L403.8 278.96z" stroke="none" fill="#000000" fill-rule="winding" /><path transform="matrix(1 0 0 -1 0 842)" d="M505.56 263.36L506.04 263.36L506.04 263.36L506.04 278.96L506.04 278.96L505.56 278.96z" stroke="none" fill="#000000" fill-rule="winding" /><path transform="matrix(1 0 0 -1 0 842)" d="M79.44 262.88L404.28 262.88L404.28 262.88L404.28 263.36L404.28 263.36L79.44 263.36z" stroke="none" fill="#000000" fill-rule="winding" /><path transform="matrix(1 0 0 -1 0 842)" d="M505.56 262.88L506.04 262.88L506.04 262.88L506.04 263.36L506.04 263.36L505.56 263.36z" stroke="none" fill="#000000" fill-rule="winding" /><path transform="matrix(1 0 0 -1 0 842)" d="M79.44 247.28L79.92001 247.28L79.92001 247.28L79.92001 262.88L79.92001 262.88L79.44 262.88z" stroke="none" fill="#000000" fill-rule="winding" /><path transform="matrix(1 0 0 -1 0 842)" d="M141.54 247.28L142.02 247.28L142.02 247.28L142.02 262.88L142.02 262.88L141.54 262.88z" stroke="none" fill="#000000" fill-rule="winding" /><path transform="matrix(1 0 0 -1 0 842)" d="M212.46 247.28L212.94 247.28L212.94 247.28L212.94 262.88L212.94 262.88L212.46 262.88z" stroke="none" fill="#000000" fill-rule="winding" /><path transform="matrix(1 0 0 -1 0 842)" d="M403.8 247.28L404.28 247.28L404.28 247.28L404.28 262.88L404.28 262.88L403.8 262.88z" stroke="none" fill="#000000" fill-rule="winding" /><path transform="matrix(1 0 0 -1 0 842)" d="M505.56 247.28L506.04 247.28L506.04 247.28L506.04 262.88L506.04 262.88L505.56 262.88z" stroke="none" fill="#000000" fill-rule="winding" /><path transform="matrix(1 0 0 -1 0 842)" d="M79.44 246.8L404.28 246.8L404.28 246.8L404.28 247.28L404.28 247.28L79.44 247.28z" stroke="none" fill="#000000" fill-rule="winding" /><path transform="matrix(1 0 0 -1 0 842)" d="M505.56 246.8L506.04 246.8L506.04 246.8L506.04 247.28L506.04 247.28L505.56 247.28z" stroke="none" fill="#000000" fill-rule="winding" /><path transform="matrix(1 0 0 -1 0 842)" d="M79.44 231.14L79.92001 231.14L79.92001 231.14L79.92001 246.8L79.92001 246.8L79.44 246.8z" stroke="none" fill="#000000" fill-rule="winding" /><path transform="matrix(1 0 0 -1 0 842)" d="M141.54 231.14L142.02 231.14L142.02 231.14L142.02 246.8L142.02 246.8L141.54 246.8z" stroke="none" fill="#000000" fill-rule="winding" /><path transform="matrix(1 0 0 -1 0 842)" d="M212.46 231.14L212.94 231.14L212.94 231.14L212.94 246.8L212.94 246.8L212.46 246.8z" stroke="none" fill="#000000" fill-rule="winding" /><path transform="matrix(1 0 0 -1 0 842)" d="M403.8 231.14L404.28 231.14L404.28 231.14L404.28 246.8L404.28 246.8L403.8 246.8z" stroke="none" fill="#000000" fill-rule="winding" /><path transform="matrix(1 0 0 -1 0 842)" d="M505.56 231.14L506.04 231.14L506.04 231.14L506.04 246.8L506.04 246.8L505.56 246.8z" stroke="none" fill="#000000" fill-rule="winding" /><path transform="matrix(1 0 0 -1 0 842)" d="M79.44 230.66L404.28 230.66L404.28 230.66L404.28 231.14L404.28 231.14L79.44 231.14z" stroke="none" fill="#000000" fill-rule="winding" /><path transform="matrix(1 0 0 -1 0 842)" d="M404.28 231.14L505.56 231.14L505.56 231.14L505.56 230.66L505.56 230.66L404.28 230.66" stroke="none" fill="#000000" fill-rule="winding" /><path transform="matrix(1 0 0 -1 0 842)" d="M505.56 230.66L506.04 230.66L506.04 230.66L506.04 231.14L506.04 231.14L505.56 231.14z" stroke="none" fill="#000000" fill-rule="winding" /><path transform="matrix(1 0 0 -1 0 842)" d="M79.44 214.16L79.92001 214.16L79.92001 214.16L79.92001 230.66L79.92001 230.66L79.44 230.66z" stroke="none" fill="#000000" fill-rule="winding" /><path transform="matrix(1 0 0 -1 0 842)" d="M505.56 214.16L506.04 214.16L506.04 214.16L506.04 230.66L506.04 230.66L505.56 230.66z" stroke="none" fill="#000000" fill-rule="winding" /><path transform="matrix(1 0 0 -1 0 842)" d="M79.44 213.68L404.28 213.68L404.28 213.68L404.28 214.16L404.28 214.16L79.44 214.16z" stroke="none" fill="#000000" fill-rule="winding" /><path transform="matrix(1 0 0 -1 0 842)" d="M404.28 214.16L505.56 214.16L505.56 214.16L505.56 213.68L505.56 213.68L404.28 213.68" stroke="none" fill="#000000" fill-rule="winding" /><path transform="matrix(1 0 0 -1 0 842)" d="M505.56 213.68L506.04 213.68L506.04 213.68L506.04 214.16L506.04 214.16L505.56 214.16z" stroke="none" fill="#000000" fill-rule="winding" /><path transform="matrix(1 0 0 -1 0 842)" d="M79.44 198.08L79.92001 198.08L79.92001 198.08L79.92001 213.68L79.92001 213.68L79.44 213.68z" stroke="none" fill="#000000" fill-rule="winding" /><path transform="matrix(1 0 0 -1 0 842)" d="M141.54 198.08L142.02 198.08L142.02 198.08L142.02 213.68L142.02 213.68L141.54 213.68z" stroke="none" fill="#000000" fill-rule="winding" /><path transform="matrix(1 0 0 -1 0 842)" d="M212.46 198.08L212.94 198.08L212.94 198.08L212.94 213.68L212.94 213.68L212.46 213.68z" stroke="none" fill="#000000" fill-rule="winding" /><path transform="matrix(1 0 0 -1 0 842)" d="M403.8 198.08L404.28 198.08L404.28 198.08L404.28 213.68L404.28 213.68L403.8 213.68z" stroke="none" fill="#000000" fill-rule="winding" /><path transform="matrix(1 0 0 -1 0 842)" d="M505.56 198.08L506.04 198.08L506.04 198.08L506.04 213.68L506.04 213.68L505.56 213.68z" stroke="none" fill="#000000" fill-rule="winding" /><path transform="matrix(1 0 0 -1 0 842)" d="M79.44 197.6L404.28 197.6L404.28 197.6L404.28 198.08L404.28 198.08L79.44 198.08z" stroke="none" fill="#000000" fill-rule="winding" /><path transform="matrix(1 0 0 -1 0 842)" d="M505.56 197.6L506.04 197.6L506.04 197.6L506.04 198.08L506.04 198.08L505.56 198.08z" stroke="none" fill="#000000" fill-rule="winding" /><path transform="matrix(1 0 0 -1 0 842)" d="M79.44 181.94L79.92001 181.94L79.92001 181.94L79.92001 197.6L79.92001 197.6L79.44 197.6z" stroke="none" fill="#000000" fill-rule="winding" /><path transform="matrix(1 0 0 -1 0 842)" d="M141.54 181.94L142.02 181.94L142.02 181.94L142.02 197.6L142.02 197.6L141.54 197.6z" stroke="none" fill="#000000" fill-rule="winding" /><path transform="matrix(1 0 0 -1 0 842)" d="M212.46 181.94L212.94 181.94L212.94 181.94L212.94 197.6L212.94 197.6L212.46 197.6z" stroke="none" fill="#000000" fill-rule="winding" /><path transform="matrix(1 0 0 -1 0 842)" d="M403.8 181.94L404.28 181.94L404.28 181.94L404.28 197.6L404.28 197.6L403.8 197.6z" stroke="none" fill="#000000" fill-rule="winding" /><path transform="matrix(1 0 0 -1 0 842)" d="M505.56 181.94L506.04 181.94L506.04 181.94L506.04 197.6L506.04 197.6L505.56 197.6z" stroke="none" fill="#000000" fill-rule="winding" /><path transform="matrix(1 0 0 -1 0 842)" d="M79.44 181.46L404.28 181.46L404.28 181.46L404.28 181.94L404.28 181.94L79.44 181.94z" stroke="none" fill="#000000" fill-rule="winding" /><path transform="matrix(1 0 0 -1 0 842)" d="M505.56 181.46L506.04 181.46L506.04 181.46L506.04 181.94L506.04 181.94L505.56 181.94z" stroke="none" fill="#000000" fill-rule="winding" /><path transform="matrix(1 0 0 -1 0 842)" d="M79.44 165.86L79.92001 165.86L79.92001 165.86L79.92001 181.46L79.92001 181.46L79.44 181.46z" stroke="none" fill="#000000" fill-rule="winding" /><path transform="matrix(1 0 0 -1 0 842)" d="M141.54 165.86L142.02 165.86L142.02 165.86L142.02 181.46L142.02 181.46L141.54 181.46z" stroke="none" fill="#000000" fill-rule="winding" /><path transform="matrix(1 0 0 -1 0 842)" d="M212.46 165.86L212.94 165.86L212.94 165.86L212.94 181.46L212.94 181.46L212.46 181.46z" stroke="none" fill="#000000" fill-rule="winding" /><path transform="matrix(1 0 0 -1 0 842)" d="M403.8 165.86L404.28 165.86L404.28 165.86L404.28 181.46L404.28 181.46L403.8 181.46z" stroke="none" fill="#000000" fill-rule="winding" /><path transform="matrix(1 0 0 -1 0 842)" d="M505.56 165.86L506.04 165.86L506.04 165.86L506.04 181.46L506.04 181.46L505.56 181.46z" stroke="none" fill="#000000" fill-rule="winding" /><path transform="matrix(1 0 0 -1 0 842)" d="M79.44 165.38L404.28 165.38L404.28 165.38L404.28 165.86L404.28 165.86L79.44 165.86z" stroke="none" fill="#000000" fill-rule="winding" /><path transform="matrix(1 0 0 -1 0 842)" d="M505.56 165.38L506.04 165.38L506.04 165.38L506.04 165.86L506.04 165.86L505.56 165.86z" stroke="none" fill="#000000" fill-rule="winding" /><path transform="matrix(1 0 0 -1 0 842)" d="M79.44 149.78L79.92001 149.78L79.92001 149.78L79.92001 165.38L79.92001 165.38L79.44 165.38z" stroke="none" fill="#000000" fill-rule="winding" /><path transform="matrix(1 0 0 -1 0 842)" d="M141.54 149.78L142.02 149.78L142.02 149.78L142.02 165.38L142.02 165.38L141.54 165.38z" stroke="none" fill="#000000" fill-rule="winding" /><path transform="matrix(1 0 0 -1 0 842)" d="M212.46 149.78L212.94 149.78L212.94 149.78L212.94 165.38L212.94 165.38L212.46 165.38z" stroke="none" fill="#000000" fill-rule="winding" /><path transform="matrix(1 0 0 -1 0 842)" d="M403.8 149.78L404.28 149.78L404.28 149.78L404.28 165.38L404.28 165.38L403.8 165.38z" stroke="none" fill="#000000" fill-rule="winding" /><path transform="matrix(1 0 0 -1 0 842)" d="M505.56 149.78L506.04 149.78L506.04 149.78L506.04 165.38L506.04 165.38L505.56 165.38z" stroke="none" fill="#000000" fill-rule="winding" /><path transform="matrix(1 0 0 -1 0 842)" d="M79.44 149.3L404.28 149.3L404.28 149.3L404.28 149.78L404.28 149.78L79.44 149.78z" stroke="none" fill="#000000" fill-rule="winding" /><path transform="matrix(1 0 0 -1 0 842)" d="M505.56 149.3L506.04 149.3L506.04 149.3L506.04 149.78L506.04 149.78L505.56 149.78z" stroke="none" fill="#000000" fill-rule="winding" /><path transform="matrix(1 0 0 -1 0 842)" d="M79.44 133.64L79.92001 133.64L79.92001 133.64L79.92001 149.3L79.92001 149.3L79.44 149.3z" stroke="none" fill="#000000" fill-rule="winding" /><path transform="matrix(1 0 0 -1 0 842)" d="M141.54 133.64L142.02 133.64L142.02 133.64L142.02 149.3L142.02 149.3L141.54 149.3z" stroke="none" fill="#000000" fill-rule="winding" /><path transform="matrix(1 0 0 -1 0 842)" d="M212.46 133.64L212.94 133.64L212.94 133.64L212.94 149.3L212.94 149.3L212.46 149.3z" stroke="none" fill="#000000" fill-rule="winding" /><path transform="matrix(1 0 0 -1 0 842)" d="M403.8 133.64L404.28 133.64L404.28 133.64L404.28 149.3L404.28 149.3L403.8 149.3z" stroke="none" fill="#000000" fill-rule="winding" /><path transform="matrix(1 0 0 -1 0 842)" d="M505.56 133.64L506.04 133.64L506.04 133.64L506.04 149.3L506.04 149.3L505.56 149.3z" stroke="none" fill="#000000" fill-rule="winding" /><path transform="matrix(1 0 0 -1 0 842)" d="M79.44 133.16L404.28 133.16L404.28 133.16L404.28 133.64L404.28 133.64L79.44 133.64z" stroke="none" fill="#000000" fill-rule="winding" /><path transform="matrix(1 0 0 -1 0 842)" d="M404.28 133.64L505.56 133.64L505.56 133.64L505.56 133.16L505.56 133.16L404.28 133.16" stroke="none" fill="#000000" fill-rule="winding" /><path transform="matrix(1 0 0 -1 0 842)" d="M505.56 133.16L506.04 133.16L506.04 133.16L506.04 133.64L506.04 133.64L505.56 133.64z" stroke="none" fill="#000000" fill-rule="winding" /><path transform="matrix(1 0 0 -1 0 842)" d="M79.44 117.38L79.92001 117.38L79.92001 117.38L79.92001 133.16L79.92001 133.16L79.44 133.16z" stroke="none" fill="#000000" fill-rule="winding" /><path transform="matrix(1 0 0 -1 0 842)" d="M505.56 117.38L506.04 117.38L506.04 117.38L506.04 133.16L506.04 133.16L505.56 133.16z" stroke="none" fill="#000000" fill-rule="winding" /><path transform="matrix(1 0 0 -1 0 842)" d="M79.44 116.9L404.28 116.9L404.28 116.9L404.28 117.38L404.28 117.38L79.44 117.38z" stroke="none" fill="#000000" fill-rule="winding" /><path transform="matrix(1 0 0 -1 0 842)" d="M404.28 117.38L505.56 117.38L505.56 117.38L505.56 116.9L505.56 116.9L404.28 116.9" stroke="none" fill="#000000" fill-rule="winding" /><path transform="matrix(1 0 0 -1 0 842)" d="M505.56 116.9L506.04 116.9L506.04 116.9L506.04 117.38L506.04 117.38L505.56 117.38z" stroke="none" fill="#000000" fill-rule="winding" /><path transform="matrix(1 0 0 -1 0 842)" d="M79.44 101.3L79.92001 101.3L79.92001 101.3L79.92001 116.9L79.92001 116.9L79.44 116.9z" stroke="none" fill="#000000" fill-rule="winding" /><path transform="matrix(1 0 0 -1 0 842)" d="M141.54 101.3L142.02 101.3L142.02 101.3L142.02 116.9L142.02 116.9L141.54 116.9z" stroke="none" fill="#000000" fill-rule="winding" /><path transform="matrix(1 0 0 -1 0 842)" d="M212.46 101.3L212.94 101.3L212.94 101.3L212.94 116.9L212.94 116.9L212.46 116.9z" stroke="none" fill="#000000" fill-rule="winding" /><path transform="matrix(1 0 0 -1 0 842)" d="M403.8 101.3L404.28 101.3L404.28 101.3L404.28 116.9L404.28 116.9L403.8 116.9z" stroke="none" fill="#000000" fill-rule="winding" /><path transform="matrix(1 0 0 -1 0 842)" d="M505.56 101.3L506.04 101.3L506.04 101.3L506.04 116.9L506.04 116.9L505.56 116.9z" stroke="none" fill="#000000" fill-rule="winding" /><path transform="matrix(1 0 0 -1 0 842)" d="M79.44 100.82L404.28 100.82L404.28 100.82L404.28 101.3L404.28 101.3L79.44 101.3z" stroke="none" fill="#000000" fill-rule="winding" /><path transform="matrix(1 0 0 -1 0 842)" d="M505.56 100.82L506.04 100.82L506.04 100.82L506.04 101.3L506.04 101.3L505.56 101.3z" stroke="none" fill="#000000" fill-rule="winding" /><path transform="matrix(1 0 0 -1 0 842)" d="M79.44 85.22L79.92001 85.22L79.92001 85.22L79.92001 100.82L79.92001 100.82L79.44 100.82z" stroke="none" fill="#000000" fill-rule="winding" /><path transform="matrix(1 0 0 -1 0 842)" d="M141.54 85.22L142.02 85.22L142.02 85.22L142.02 100.82L142.02 100.82L141.54 100.82z" stroke="none" fill="#000000" fill-rule="winding" /><path transform="matrix(1 0 0 -1 0 842)" d="M212.46 85.22L212.94 85.22L212.94 85.22L212.94 100.82L212.94 100.82L212.46 100.82z" stroke="none" fill="#000000" fill-rule="winding" /><path transform="matrix(1 0 0 -1 0 842)" d="M403.8 85.22L404.28 85.22L404.28 85.22L404.28 100.82L404.28 100.82L403.8 100.82z" stroke="none" fill="#000000" fill-rule="winding" /><path transform="matrix(1 0 0 -1 0 842)" d="M505.56 85.22L506.04 85.22L506.04 85.22L506.04 100.82L506.04 100.82L505.56 100.82z" stroke="none" fill="#000000" fill-rule="winding" /><path transform="matrix(1 0 0 -1 0 842)" d="M79.44 84.74L404.28 84.74L404.28 84.74L404.28 85.22001L404.28 85.22001L79.44 85.22001z" stroke="none" fill="#000000" fill-rule="winding" /><path transform="matrix(1 0 0 -1 0 842)" d="M505.56 84.74L506.04 84.74L506.04 84.74L506.04 85.22001L506.04 85.22001L505.56 85.22001z" stroke="none" fill="#000000" fill-rule="winding" /><path transform="matrix(1 0 0 -1 0 842)" d="M79.44 68.6L79.92001 68.6L79.92001 68.6L79.92001 84.74L79.92001 84.74L79.44 84.74z" stroke="none" fill="#000000" fill-rule="winding" /><path transform="matrix(1 0 0 -1 0 842)" d="M79.44 68.6L141.54 68.6L141.54 68.6L141.54 69.08001L141.54 69.08001L79.44 69.08001z" stroke="none" fill="#000000" fill-rule="winding" /><path transform="matrix(1 0 0 -1 0 842)" d="M141.54 68.6L142.02 68.6L142.02 68.6L142.02 84.74L142.02 84.74L141.54 84.74z" stroke="none" fill="#000000" fill-rule="winding" /><path transform="matrix(1 0 0 -1 0 842)" d="M142.02 68.6L212.46 68.6L212.46 68.6L212.46 69.08001L212.46 69.08001L142.02 69.08001z" stroke="none" fill="#000000" fill-rule="winding" /><path transform="matrix(1 0 0 -1 0 842)" d="M212.46 68.6L212.94 68.6L212.94 68.6L212.94 84.74L212.94 84.74L212.46 84.74z" stroke="none" fill="#000000" fill-rule="winding" /><path transform="matrix(1 0 0 -1 0 842)" d="M212.94 68.6L403.8 68.6L403.8 68.6L403.8 69.08001L403.8 69.08001L212.94 69.08001z" stroke="none" fill="#000000" fill-rule="winding" /><path transform="matrix(1 0 0 -1 0 842)" d="M403.8 68.6L404.28 68.6L404.28 68.6L404.28 84.74L404.28 84.74L403.8 84.74z" stroke="none" fill="#000000" fill-rule="winding" /><path transform="matrix(1 0 0 -1 0 842)" d="M404.28 69.08L505.56 69.08L505.56 69.08L505.56 68.6L505.56 68.6L404.28 68.6" stroke="none" fill="#000000" fill-rule="winding" /><path transform="matrix(1 0 0 -1 0 842)" d="M505.56 68.6L506.04 68.6L506.04 68.6L506.04 84.74L506.04 84.74L505.56 84.74z" stroke="none" fill="#000000" fill-rule="winding" /><path transform="matrix(1 0 0 -1 0 842)" d="M505.56 68.6L506.04 68.6L506.04 68.6L506.04 69.08001L506.04 69.08001L505.56 69.08001z" stroke="none" fill="#000000" fill-rule="winding" /></g></g></g></svg>