<svg xmlns="http://www.w3.org/2000/svg" xmlns:xlink="http://www.w3.org/1999/xlink" id="body_3" preserveAspectRatio="xMinYMin meet" viewBox="0 0 793 1123"><defs><clipPath id="1"><path d="M0 842L0 0L0 0L595.22 0L595.22 0L595.22 842L595.22 842L0 842z" /></clipPath></defs><g transform="matrix(1.333333 0 0 1.333333 0 0)"><g><g clip-path="url(#1)"><g transform="matrix(0.4798529 0 0 0.476 85.08 28.37994)"><g transform="matrix(1 0 0 1 0 0)"><image x="0" y="0" xlink:href="img_01.png" width="34" height="30" /></g></g><path transform="matrix(1 0 0 -1 0 842)" d="M83.58 795.02L511.8 795.02L511.8 795.02L511.8 795.7401L511.8 795.7401L83.58 795.7401z" stroke="none" fill="#000000" fill-rule="winding" /><path transform="matrix(1 0 0 -1 0 842)" d="M79.44 784.82L79.92001 784.82L79.92001 784.82L79.92001 785.3L79.92001 785.3L79.44 785.3z" stroke="none" fill="#000000" fill-rule="winding" /><path transform="matrix(1 0 0 -1 0 842)" d="M79.44 784.82L506.04 784.82L506.04 784.82L506.04 785.3L506.04 785.3L79.44 785.3z" stroke="none" fill="#000000" fill-rule="winding" /><path transform="matrix(1 0 0 -1 0 842)" d="M505.56 784.82L506.04 784.82L506.04 784.82L506.04 785.3L506.04 785.3L505.56 785.3z" stroke="none" fill="#000000" fill-rule="winding" /><path transform="matrix(1 0 0 -1 0 842)" d="M79.44 769.22L79.92001 769.22L79.92001 769.22L79.92001 784.8199L79.92001 784.8199L79.44 784.8199z" stroke="none" fill="#000000" fill-rule="winding" /><path transform="matrix(1 0 0 -1 0 842)" d="M174.84 769.22L175.32 769.22L175.32 769.22L175.32 784.8199L175.32 784.8199L174.84 784.8199z" stroke="none" fill="#000000" fill-rule="winding" /><path transform="matrix(1 0 0 -1 0 842)" d="M246.84 769.22L247.32 769.22L247.32 769.22L247.32 784.8199L247.32 784.8199L246.84 784.8199z" stroke="none" fill="#000000" fill-rule="winding" /><path transform="matrix(1 0 0 -1 0 842)" d="M399.84 769.22L400.32 769.22L400.32 769.22L400.32 784.8199L400.32 784.8199L399.84 784.8199z" stroke="none" fill="#000000" fill-rule="winding" /><path transform="matrix(1 0 0 -1 0 842)" d="M505.56 769.22L506.04 769.22L506.04 769.22L506.04 784.8199L506.04 784.8199L505.56 784.8199z" stroke="none" fill="#000000" fill-rule="winding" /><path transform="matrix(1 0 0 -1 0 842)" d="M79.44 768.74L506.04 768.74L506.04 768.74L506.04 769.22L506.04 769.22L79.44 769.22z" stroke="none" fill="#000000" fill-rule="winding" /><path transform="matrix(1 0 0 -1 0 842)" d="M79.44 659.48L79.92001 659.48L79.92001 659.48L79.92001 768.74L79.92001 768.74L79.44 768.74z" stroke="none" fill="#000000" fill-rule="winding" /><path transform="matrix(1 0 0 -1 0 842)" d="M174.84 659.48L175.32 659.48L175.32 659.48L175.32 768.74L175.32 768.74L174.84 768.74z" stroke="none" fill="#000000" fill-rule="winding" /><path transform="matrix(1 0 0 -1 0 842)" d="M246.84 659.48L247.32 659.48L247.32 659.48L247.32 768.74L247.32 768.74L246.84 768.74z" stroke="none" fill="#000000" fill-rule="winding" /><path transform="matrix(1 0 0 -1 0 842)" d="M399.84 659.48L400.32 659.48L400.32 659.48L400.32 768.74L400.32 768.74L399.84 768.74z" stroke="none" fill="#000000" fill-rule="winding" /><path transform="matrix(1 0 0 -1 0 842)" d="M505.56 659.48L506.04 659.48L506.04 659.48L506.04 768.74L506.04 768.74L505.56 768.74z" stroke="none" fill="#000000" fill-rule="winding" /><path transform="matrix(1 0 0 -1 0 842)" d="M79.44 659L506.04 659L506.04 659L506.04 659.48L506.04 659.48L79.44 659.48z" stroke="none" fill="#000000" fill-rule="winding" /><path transform="matrix(1 0 0 -1 0 842)" d="M79.44 643.4L79.92001 643.4L79.92001 643.4L79.92001 659L79.92001 659L79.44 659z" stroke="none" fill="#000000" fill-rule="winding" /><path transform="matrix(1 0 0 -1 0 842)" d="M174.84 643.4L175.32 643.4L175.32 643.4L175.32 659L175.32 659L174.84 659z" stroke="none" fill="#000000" fill-rule="winding" /><path transform="matrix(1 0 0 -1 0 842)" d="M246.84 643.4L247.32 643.4L247.32 643.4L247.32 659L247.32 659L246.84 659z" stroke="none" fill="#000000" fill-rule="winding" /><path transform="matrix(1 0 0 -1 0 842)" d="M399.84 643.4L400.32 643.4L400.32 643.4L400.32 659L400.32 659L399.84 659z" stroke="none" fill="#000000" fill-rule="winding" /><path transform="matrix(1 0 0 -1 0 842)" d="M505.56 643.4L506.04 643.4L506.04 643.4L506.04 659L506.04 659L505.56 659z" stroke="none" fill="#000000" fill-rule="winding" /><path transform="matrix(1 0 0 -1 0 842)" d="M79.44 642.92L506.04 642.92L506.04 642.92L506.04 643.4L506.04 643.4L79.44 643.4z" stroke="none" fill="#000000" fill-rule="winding" /><path transform="matrix(1 0 0 -1 0 842)" d="M79.44 627.32L79.92001 627.32L79.92001 627.32L79.92001 642.92L79.92001 642.92L79.44 642.92z" stroke="none" fill="#000000" fill-rule="winding" /><path transform="matrix(1 0 0 -1 0 842)" d="M174.84 627.32L175.32 627.32L175.32 627.32L175.32 642.92L175.32 642.92L174.84 642.92z" stroke="none" fill="#000000" fill-rule="winding" /><path transform="matrix(1 0 0 -1 0 842)" d="M246.84 627.32L247.32 627.32L247.32 627.32L247.32 642.92L247.32 642.92L246.84 642.92z" stroke="none" fill="#000000" fill-rule="winding" /><path transform="matrix(1 0 0 -1 0 842)" d="M399.84 627.32L400.32 627.32L400.32 627.32L400.32 642.92L400.32 642.92L399.84 642.92z" stroke="none" fill="#000000" fill-rule="winding" /><path transform="matrix(1 0 0 -1 0 842)" d="M505.56 627.32L506.04 627.32L506.04 627.32L506.04 642.92L506.04 642.92L505.56 642.92z" stroke="none" fill="#000000" fill-rule="winding" /><path transform="matrix(1 0 0 -1 0 842)" d="M79.44 626.84L506.04 626.84L506.04 626.84L506.04 627.32L506.04 627.32L79.44 627.32z" stroke="none" fill="#000000" fill-rule="winding" /><path transform="matrix(1 0 0 -1 0 842)" d="M79.44 611.18L79.92001 611.18L79.92001 611.18L79.92001 626.84L79.92001 626.84L79.44 626.84z" stroke="none" fill="#000000" fill-rule="winding" /><path transform="matrix(1 0 0 -1 0 842)" d="M174.84 611.18L175.32 611.18L175.32 611.18L175.32 626.84L175.32 626.84L174.84 626.84z" stroke="none" fill="#000000" fill-rule="winding" /><path transform="matrix(1 0 0 -1 0 842)" d="M246.84 611.18L247.32 611.18L247.32 611.18L247.32 626.84L247.32 626.84L246.84 626.84z" stroke="none" fill="#000000" fill-rule="winding" /><path transform="matrix(1 0 0 -1 0 842)" d="M399.84 611.18L400.32 611.18L400.32 611.18L400.32 626.84L400.32 626.84L399.84 626.84z" stroke="none" fill="#000000" fill-rule="winding" /><path transform="matrix(1 0 0 -1 0 842)" d="M505.56 611.18L506.04 611.18L506.04 611.18L506.04 626.84L506.04 626.84L505.56 626.84z" stroke="none" fill="#000000" fill-rule="winding" /><path transform="matrix(1 0 0 -1 0 842)" d="M79.44 610.7L506.04 610.7L506.04 610.7L506.04 611.18L506.04 611.18L79.44 611.18z" stroke="none" fill="#000000" fill-rule="winding" /><path transform="matrix(1 0 0 -1 0 842)" d="M79.44 595.1L79.92001 595.1L79.92001 595.1L79.92001 610.7L79.92001 610.7L79.44 610.7z" stroke="none" fill="#000000" fill-rule="winding" /><path transform="matrix(1 0 0 -1 0 842)" d="M174.84 595.1L175.32 595.1L175.32 595.1L175.32 610.7L175.32 610.7L174.84 610.7z" stroke="none" fill="#000000" fill-rule="winding" /><path transform="matrix(1 0 0 -1 0 842)" d="M246.84 595.1L247.32 595.1L247.32 595.1L247.32 610.7L247.32 610.7L246.84 610.7z" stroke="none" fill="#000000" fill-rule="winding" /><path transform="matrix(1 0 0 -1 0 842)" d="M399.84 595.1L400.32 595.1L400.32 595.1L400.32 610.7L400.32 610.7L399.84 610.7z" stroke="none" fill="#000000" fill-rule="winding" /><path transform="matrix(1 0 0 -1 0 842)" d="M505.56 595.1L506.04 595.1L506.04 595.1L506.04 610.7L506.04 610.7L505.56 610.7z" stroke="none" fill="#000000" fill-rule="winding" /><path transform="matrix(1 0 0 -1 0 842)" d="M79.44 594.62L506.04 594.62L506.04 594.62L506.04 595.1L506.04 595.1L79.44 595.1z" stroke="none" fill="#000000" fill-rule="winding" /><path transform="matrix(1 0 0 -1 0 842)" d="M79.44 563.42L79.92001 563.42L79.92001 563.42L79.92001 594.62L79.92001 594.62L79.44 594.62z" stroke="none" fill="#000000" fill-rule="winding" /><path transform="matrix(1 0 0 -1 0 842)" d="M174.84 563.42L175.32 563.42L175.32 563.42L175.32 594.62L175.32 594.62L174.84 594.62z" stroke="none" fill="#000000" fill-rule="winding" /><path transform="matrix(1 0 0 -1 0 842)" d="M246.84 563.42L247.32 563.42L247.32 563.42L247.32 594.62L247.32 594.62L246.84 594.62z" stroke="none" fill="#000000" fill-rule="winding" /><path transform="matrix(1 0 0 -1 0 842)" d="M399.84 563.42L400.32 563.42L400.32 563.42L400.32 594.62L400.32 594.62L399.84 594.62z" stroke="none" fill="#000000" fill-rule="winding" /><path transform="matrix(1 0 0 -1 0 842)" d="M505.56 563.42L506.04 563.42L506.04 563.42L506.04 594.62L506.04 594.62L505.56 594.62z" stroke="none" fill="#000000" fill-rule="winding" /><path transform="matrix(1 0 0 -1 0 842)" d="M79.44 562.94L506.04 562.94L506.04 562.94L506.04 563.42L506.04 563.42L79.44 563.42z" stroke="none" fill="#000000" fill-rule="winding" /><path transform="matrix(1 0 0 -1 0 842)" d="M79.44 453.68L79.92001 453.68L79.92001 453.68L79.92001 562.94L79.92001 562.94L79.44 562.94z" stroke="none" fill="#000000" fill-rule="winding" /><path transform="matrix(1 0 0 -1 0 842)" d="M174.84 453.68L175.32 453.68L175.32 453.68L175.32 562.94L175.32 562.94L174.84 562.94z" stroke="none" fill="#000000" fill-rule="winding" /><path transform="matrix(1 0 0 -1 0 842)" d="M246.84 453.68L247.32 453.68L247.32 453.68L247.32 562.94L247.32 562.94L246.84 562.94z" stroke="none" fill="#000000" fill-rule="winding" /><path transform="matrix(1 0 0 -1 0 842)" d="M399.84 453.68L400.32 453.68L400.32 453.68L400.32 562.94L400.32 562.94L399.84 562.94z" stroke="none" fill="#000000" fill-rule="winding" /><path transform="matrix(1 0 0 -1 0 842)" d="M505.56 453.68L506.04 453.68L506.04 453.68L506.04 562.94L506.04 562.94L505.56 562.94z" stroke="none" fill="#000000" fill-rule="winding" /><path transform="matrix(1 0 0 -1 0 842)" d="M79.44 453.2L506.04 453.2L506.04 453.2L506.04 453.68L506.04 453.68L79.44 453.68z" stroke="none" fill="#000000" fill-rule="winding" /><path transform="matrix(1 0 0 -1 0 842)" d="M79.44 437.6L79.92001 437.6L79.92001 437.6L79.92001 453.2L79.92001 453.2L79.44 453.2z" stroke="none" fill="#000000" fill-rule="winding" /><path transform="matrix(1 0 0 -1 0 842)" d="M174.84 437.6L175.32 437.6L175.32 437.6L175.32 453.2L175.32 453.2L174.84 453.2z" stroke="none" fill="#000000" fill-rule="winding" /><path transform="matrix(1 0 0 -1 0 842)" d="M246.84 437.6L247.32 437.6L247.32 437.6L247.32 453.2L247.32 453.2L246.84 453.2z" stroke="none" fill="#000000" fill-rule="winding" /><path transform="matrix(1 0 0 -1 0 842)" d="M399.84 437.6L400.32 437.6L400.32 437.6L400.32 453.2L400.32 453.2L399.84 453.2z" stroke="none" fill="#000000" fill-rule="winding" /><path transform="matrix(1 0 0 -1 0 842)" d="M505.56 437.6L506.04 437.6L506.04 437.6L506.04 453.2L506.04 453.2L505.56 453.2z" stroke="none" fill="#000000" fill-rule="winding" /><path transform="matrix(1 0 0 -1 0 842)" d="M79.44 437.12L506.04 437.12L506.04 437.12L506.04 437.6L506.04 437.6L79.44 437.6z" stroke="none" fill="#000000" fill-rule="winding" /><path transform="matrix(1 0 0 -1 0 842)" d="M79.44 421.52L79.92001 421.52L79.92001 421.52L79.92001 437.12L79.92001 437.12L79.44 437.12z" stroke="none" fill="#000000" fill-rule="winding" /><path transform="matrix(1 0 0 -1 0 842)" d="M174.84 421.52L175.32 421.52L175.32 421.52L175.32 437.12L175.32 437.12L174.84 437.12z" stroke="none" fill="#000000" fill-rule="winding" /><path transform="matrix(1 0 0 -1 0 842)" d="M246.84 421.52L247.32 421.52L247.32 421.52L247.32 437.12L247.32 437.12L246.84 437.12z" stroke="none" fill="#000000" fill-rule="winding" /><path transform="matrix(1 0 0 -1 0 842)" d="M399.84 421.52L400.32 421.52L400.32 421.52L400.32 437.12L400.32 437.12L399.84 437.12z" stroke="none" fill="#000000" fill-rule="winding" /><path transform="matrix(1 0 0 -1 0 842)" d="M505.56 421.52L506.04 421.52L506.04 421.52L506.04 437.12L506.04 437.12L505.56 437.12z" stroke="none" fill="#000000" fill-rule="winding" /><path transform="matrix(1 0 0 -1 0 842)" d="M79.44 421.04L506.04 421.04L506.04 421.04L506.04 421.52L506.04 421.52L79.44 421.52z" stroke="none" fill="#000000" fill-rule="winding" /><path transform="matrix(1 0 0 -1 0 842)" d="M79.44 405.38L79.92001 405.38L79.92001 405.38L79.92001 421.04L79.92001 421.04L79.44 421.04z" stroke="none" fill="#000000" fill-rule="winding" /><path transform="matrix(1 0 0 -1 0 842)" d="M174.84 405.38L175.32 405.38L175.32 405.38L175.32 421.04L175.32 421.04L174.84 421.04z" stroke="none" fill="#000000" fill-rule="winding" /><path transform="matrix(1 0 0 -1 0 842)" d="M246.84 405.38L247.32 405.38L247.32 405.38L247.32 421.04L247.32 421.04L246.84 421.04z" stroke="none" fill="#000000" fill-rule="winding" /><path transform="matrix(1 0 0 -1 0 842)" d="M399.84 405.38L400.32 405.38L400.32 405.38L400.32 421.04L400.32 421.04L399.84 421.04z" stroke="none" fill="#000000" fill-rule="winding" /><path transform="matrix(1 0 0 -1 0 842)" d="M505.56 405.38L506.04 405.38L506.04 405.38L506.04 421.04L506.04 421.04L505.56 421.04z" stroke="none" fill="#000000" fill-rule="winding" /><path transform="matrix(1 0 0 -1 0 842)" d="M79.44 404.9L506.04 404.9L506.04 404.9L506.04 405.38L506.04 405.38L79.44 405.38z" stroke="none" fill="#000000" fill-rule="winding" /><path transform="matrix(1 0 0 -1 0 842)" d="M79.44 389.3L79.92001 389.3L79.92001 389.3L79.92001 404.9L79.92001 404.9L79.44 404.9z" stroke="none" fill="#000000" fill-rule="winding" /><path transform="matrix(1 0 0 -1 0 842)" d="M174.84 389.3L175.32 389.3L175.32 389.3L175.32 404.9L175.32 404.9L174.84 404.9z" stroke="none" fill="#000000" fill-rule="winding" /><path transform="matrix(1 0 0 -1 0 842)" d="M246.84 389.3L247.32 389.3L247.32 389.3L247.32 404.9L247.32 404.9L246.84 404.9z" stroke="none" fill="#000000" fill-rule="winding" /><path transform="matrix(1 0 0 -1 0 842)" d="M399.84 389.3L400.32 389.3L400.32 389.3L400.32 404.9L400.32 404.9L399.84 404.9z" stroke="none" fill="#000000" fill-rule="winding" /><path transform="matrix(1 0 0 -1 0 842)" d="M505.56 389.3L506.04 389.3L506.04 389.3L506.04 404.9L506.04 404.9L505.56 404.9z" stroke="none" fill="#000000" fill-rule="winding" /><path transform="matrix(1 0 0 -1 0 842)" d="M79.44 388.82L506.04 388.82L506.04 388.82L506.04 389.3L506.04 389.3L79.44 389.3z" stroke="none" fill="#000000" fill-rule="winding" /><path transform="matrix(1 0 0 -1 0 842)" d="M79.44 170.42L79.92001 170.42L79.92001 170.42L79.92001 388.82L79.92001 388.82L79.44 388.82z" stroke="none" fill="#000000" fill-rule="winding" /><path transform="matrix(1 0 0 -1 0 842)" d="M174.84 170.42L175.32 170.42L175.32 170.42L175.32 388.82L175.32 388.82L174.84 388.82z" stroke="none" fill="#000000" fill-rule="winding" /><path transform="matrix(1 0 0 -1 0 842)" d="M246.84 170.42L247.32 170.42L247.32 170.42L247.32 388.82L247.32 388.82L246.84 388.82z" stroke="none" fill="#000000" fill-rule="winding" /><path transform="matrix(1 0 0 -1 0 842)" d="M399.84 170.42L400.32 170.42L400.32 170.42L400.32 388.82L400.32 388.82L399.84 388.82z" stroke="none" fill="#000000" fill-rule="winding" /><path transform="matrix(1 0 0 -1 0 842)" d="M505.56 170.42L506.04 170.42L506.04 170.42L506.04 388.82L506.04 388.82L505.56 388.82z" stroke="none" fill="#000000" fill-rule="winding" /><path transform="matrix(1 0 0 -1 0 842)" d="M79.44 169.94L506.04 169.94L506.04 169.94L506.04 170.42L506.04 170.42L79.44 170.42z" stroke="none" fill="#000000" fill-rule="winding" /><path transform="matrix(1 0 0 -1 0 842)" d="M79.44 154.28L79.92001 154.28L79.92001 154.28L79.92001 169.94L79.92001 169.94L79.44 169.94z" stroke="none" fill="#000000" fill-rule="winding" /><path transform="matrix(1 0 0 -1 0 842)" d="M174.84 154.28L175.32 154.28L175.32 154.28L175.32 169.94L175.32 169.94L174.84 169.94z" stroke="none" fill="#000000" fill-rule="winding" /><path transform="matrix(1 0 0 -1 0 842)" d="M246.84 154.28L247.32 154.28L247.32 154.28L247.32 169.94L247.32 169.94L246.84 169.94z" stroke="none" fill="#000000" fill-rule="winding" /><path transform="matrix(1 0 0 -1 0 842)" d="M399.84 154.28L400.32 154.28L400.32 154.28L400.32 169.94L400.32 169.94L399.84 169.94z" stroke="none" fill="#000000" fill-rule="winding" /><path transform="matrix(1 0 0 -1 0 842)" d="M505.56 154.28L506.04 154.28L506.04 154.28L506.04 169.94L506.04 169.94L505.56 169.94z" stroke="none" fill="#000000" fill-rule="winding" /><path transform="matrix(1 0 0 -1 0 842)" d="M79.44 153.8L506.04 153.8L506.04 153.8L506.04 154.28L506.04 154.28L79.44 154.28z" stroke="none" fill="#000000" fill-rule="winding" /><path transform="matrix(1 0 0 -1 0 842)" d="M79.44 138.2L79.92001 138.2L79.92001 138.2L79.92001 153.8L79.92001 153.8L79.44 153.8z" stroke="none" fill="#000000" fill-rule="winding" /><path transform="matrix(1 0 0 -1 0 842)" d="M174.84 138.2L175.32 138.2L175.32 138.2L175.32 153.8L175.32 153.8L174.84 153.8z" stroke="none" fill="#000000" fill-rule="winding" /><path transform="matrix(1 0 0 -1 0 842)" d="M246.84 138.2L247.32 138.2L247.32 138.2L247.32 153.8L247.32 153.8L246.84 153.8z" stroke="none" fill="#000000" fill-rule="winding" /><path transform="matrix(1 0 0 -1 0 842)" d="M399.84 138.2L400.32 138.2L400.32 138.2L400.32 153.8L400.32 153.8L399.84 153.8z" stroke="none" fill="#000000" fill-rule="winding" /><path transform="matrix(1 0 0 -1 0 842)" d="M459.12 138.2L459.6 138.2L459.6 138.2L459.6 153.8L459.6 153.8L459.12 153.8z" stroke="none" fill="#000000" fill-rule="winding" /><path transform="matrix(1 0 0 -1 0 842)" d="M505.56 138.2L506.04 138.2L506.04 138.2L506.04 153.8L506.04 153.8L505.56 153.8z" stroke="none" fill="#000000" fill-rule="winding" /><path transform="matrix(1 0 0 -1 0 842)" d="M79.44 137.72L459.6 137.72L459.6 137.72L459.6 138.2L459.6 138.2L79.44 138.2z" stroke="none" fill="#000000" fill-rule="winding" /><path transform="matrix(1 0 0 -1 0 842)" d="M505.56 137.72L506.04 137.72L506.04 137.72L506.04 138.2L506.04 138.2L505.56 138.2z" stroke="none" fill="#000000" fill-rule="winding" /><path transform="matrix(1 0 0 -1 0 842)" d="M79.44 122.12L79.92001 122.12L79.92001 122.12L79.92001 137.72L79.92001 137.72L79.44 137.72z" stroke="none" fill="#000000" fill-rule="winding" /><path transform="matrix(1 0 0 -1 0 842)" d="M174.84 122.12L175.32 122.12L175.32 122.12L175.32 137.72L175.32 137.72L174.84 137.72z" stroke="none" fill="#000000" fill-rule="winding" /><path transform="matrix(1 0 0 -1 0 842)" d="M246.84 122.12L247.32 122.12L247.32 122.12L247.32 137.72L247.32 137.72L246.84 137.72z" stroke="none" fill="#000000" fill-rule="winding" /><path transform="matrix(1 0 0 -1 0 842)" d="M399.84 122.12L400.32 122.12L400.32 122.12L400.32 137.72L400.32 137.72L399.84 137.72z" stroke="none" fill="#000000" fill-rule="winding" /><path transform="matrix(1 0 0 -1 0 842)" d="M459.12 122.12L459.6 122.12L459.6 122.12L459.6 137.72L459.6 137.72L459.12 137.72z" stroke="none" fill="#000000" fill-rule="winding" /><path transform="matrix(1 0 0 -1 0 842)" d="M505.56 122.12L506.04 122.12L506.04 122.12L506.04 137.72L506.04 137.72L505.56 137.72z" stroke="none" fill="#000000" fill-rule="winding" /><path transform="matrix(1 0 0 -1 0 842)" d="M79.44 121.64L459.6 121.64L459.6 121.64L459.6 122.12L459.6 122.12L79.44 122.12z" stroke="none" fill="#000000" fill-rule="winding" /><path transform="matrix(1 0 0 -1 0 842)" d="M505.56 121.64L506.04 121.64L506.04 121.64L506.04 122.12L506.04 122.12L505.56 122.12z" stroke="none" fill="#000000" fill-rule="winding" /><path transform="matrix(1 0 0 -1 0 842)" d="M79.44 105.98L79.92001 105.98L79.92001 105.98L79.92001 121.64L79.92001 121.64L79.44 121.64z" stroke="none" fill="#000000" fill-rule="winding" /><path transform="matrix(1 0 0 -1 0 842)" d="M174.84 105.98L175.32 105.98L175.32 105.98L175.32 121.64L175.32 121.64L174.84 121.64z" stroke="none" fill="#000000" fill-rule="winding" /><path transform="matrix(1 0 0 -1 0 842)" d="M246.84 105.98L247.32 105.98L247.32 105.98L247.32 121.64L247.32 121.64L246.84 121.64z" stroke="none" fill="#000000" fill-rule="winding" /><path transform="matrix(1 0 0 -1 0 842)" d="M399.84 105.98L400.32 105.98L400.32 105.98L400.32 121.64L400.32 121.64L399.84 121.64z" stroke="none" fill="#000000" fill-rule="winding" /><path transform="matrix(1 0 0 -1 0 842)" d="M459.12 105.98L459.6 105.98L459.6 105.98L459.6 121.64L459.6 121.64L459.12 121.64z" stroke="none" fill="#000000" fill-rule="winding" /><path transform="matrix(1 0 0 -1 0 842)" d="M505.56 105.98L506.04 105.98L506.04 105.98L506.04 121.64L506.04 121.64L505.56 121.64z" stroke="none" fill="#000000" fill-rule="winding" /><path transform="matrix(1 0 0 -1 0 842)" d="M79.44 105.5L459.6 105.5L459.6 105.5L459.6 105.98L459.6 105.98L79.44 105.98z" stroke="none" fill="#000000" fill-rule="winding" /><path transform="matrix(1 0 0 -1 0 842)" d="M505.56 105.5L506.04 105.5L506.04 105.5L506.04 105.98L506.04 105.98L505.56 105.98z" stroke="none" fill="#000000" fill-rule="winding" /><path transform="matrix(1 0 0 -1 0 842)" d="M79.44 89.9L79.92001 89.9L79.92001 89.9L79.92001 105.5L79.92001 105.5L79.44 105.5z" stroke="none" fill="#000000" fill-rule="winding" /><path transform="matrix(1 0 0 -1 0 842)" d="M174.84 89.9L175.32 89.9L175.32 89.9L175.32 105.5L175.32 105.5L174.84 105.5z" stroke="none" fill="#000000" fill-rule="winding" /><path transform="matrix(1 0 0 -1 0 842)" d="M246.84 89.9L247.32 89.9L247.32 89.9L247.32 105.5L247.32 105.5L246.84 105.5z" stroke="none" fill="#000000" fill-rule="winding" /><path transform="matrix(1 0 0 -1 0 842)" d="M399.84 89.9L400.32 89.9L400.32 89.9L400.32 105.5L400.32 105.5L399.84 105.5z" stroke="none" fill="#000000" fill-rule="winding" /><path transform="matrix(1 0 0 -1 0 842)" d="M459.12 89.9L459.6 89.9L459.6 89.9L459.6 105.5L459.6 105.5L459.12 105.5z" stroke="none" fill="#000000" fill-rule="winding" /><path transform="matrix(1 0 0 -1 0 842)" d="M505.56 89.9L506.04 89.9L506.04 89.9L506.04 105.5L506.04 105.5L505.56 105.5z" stroke="none" fill="#000000" fill-rule="winding" /><path transform="matrix(1 0 0 -1 0 842)" d="M79.44 89.42L459.6 89.42L459.6 89.42L459.6 89.89998L459.6 89.89998L79.44 89.89998z" stroke="none" fill="#000000" fill-rule="winding" /><path transform="matrix(1 0 0 -1 0 842)" d="M505.56 89.42L506.04 89.42L506.04 89.42L506.04 89.89998L506.04 89.89998L505.56 89.89998z" stroke="none" fill="#000000" fill-rule="winding" /><path transform="matrix(1 0 0 -1 0 842)" d="M79.44 73.82L79.92001 73.82L79.92001 73.82L79.92001 89.42L79.92001 89.42L79.44 89.42z" stroke="none" fill="#000000" fill-rule="winding" /><path transform="matrix(1 0 0 -1 0 842)" d="M174.84 73.82L175.32 73.82L175.32 73.82L175.32 89.42L175.32 89.42L174.84 89.42z" stroke="none" fill="#000000" fill-rule="winding" /><path transform="matrix(1 0 0 -1 0 842)" d="M246.84 73.82L247.32 73.82L247.32 73.82L247.32 89.42L247.32 89.42L246.84 89.42z" stroke="none" fill="#000000" fill-rule="winding" /><path transform="matrix(1 0 0 -1 0 842)" d="M399.84 73.82L400.32 73.82L400.32 73.82L400.32 89.42L400.32 89.42L399.84 89.42z" stroke="none" fill="#000000" fill-rule="winding" /><path transform="matrix(1 0 0 -1 0 842)" d="M459.12 73.82L459.6 73.82L459.6 73.82L459.6 89.42L459.6 89.42L459.12 89.42z" stroke="none" fill="#000000" fill-rule="winding" /><path transform="matrix(1 0 0 -1 0 842)" d="M505.56 73.82L506.04 73.82L506.04 73.82L506.04 89.42L506.04 89.42L505.56 89.42z" stroke="none" fill="#000000" fill-rule="winding" /><path transform="matrix(1 0 0 -1 0 842)" d="M79.44 73.34L459.6 73.34L459.6 73.34L459.6 73.82001L459.6 73.82001L79.44 73.82001z" stroke="none" fill="#000000" fill-rule="winding" /><path transform="matrix(1 0 0 -1 0 842)" d="M505.56 73.34L506.04 73.34L506.04 73.34L506.04 73.82001L506.04 73.82001L505.56 73.82001z" stroke="none" fill="#000000" fill-rule="winding" /><path transform="matrix(1 0 0 -1 0 842)" d="M79.44 57.2L79.92001 57.2L79.92001 57.2L79.92001 73.34L79.92001 73.34L79.44 73.34z" stroke="none" fill="#000000" fill-rule="winding" /><path transform="matrix(1 0 0 -1 0 842)" d="M79.44 57.2L174.84 57.2L174.84 57.2L174.84 57.67998L174.84 57.67998L79.44 57.67998z" stroke="none" fill="#000000" fill-rule="winding" /><path transform="matrix(1 0 0 -1 0 842)" d="M174.84 57.2L175.32 57.2L175.32 57.2L175.32 73.34L175.32 73.34L174.84 73.34z" stroke="none" fill="#000000" fill-rule="winding" /><path transform="matrix(1 0 0 -1 0 842)" d="M175.32 57.2L246.84 57.2L246.84 57.2L246.84 57.67998L246.84 57.67998L175.32 57.67998z" stroke="none" fill="#000000" fill-rule="winding" /><path transform="matrix(1 0 0 -1 0 842)" d="M246.84 57.2L247.32 57.2L247.32 57.2L247.32 73.34L247.32 73.34L246.84 73.34z" stroke="none" fill="#000000" fill-rule="winding" /><path transform="matrix(1 0 0 -1 0 842)" d="M247.32 57.2L399.84 57.2L399.84 57.2L399.84 57.67998L399.84 57.67998L247.32 57.67998z" stroke="none" fill="#000000" fill-rule="winding" /><path transform="matrix(1 0 0 -1 0 842)" d="M399.84 57.2L400.32 57.2L400.32 57.2L400.32 73.34L400.32 73.34L399.84 73.34z" stroke="none" fill="#000000" fill-rule="winding" /><path transform="matrix(1 0 0 -1 0 842)" d="M400.32 57.2L459.12 57.2L459.12 57.2L459.12 57.67998L459.12 57.67998L400.32 57.67998z" stroke="none" fill="#000000" fill-rule="winding" /><path transform="matrix(1 0 0 -1 0 842)" d="M459.12 57.2L459.6 57.2L459.6 57.2L459.6 73.34L459.6 73.34L459.12 73.34z" stroke="none" fill="#000000" fill-rule="winding" /><path transform="matrix(1 0 0 -1 0 842)" d="M459.6 57.2L505.56 57.2L505.56 57.2L505.56 57.67998L505.56 57.67998L459.6 57.67998z" stroke="none" fill="#000000" fill-rule="winding" /><path transform="matrix(1 0 0 -1 0 842)" d="M505.56 57.2L506.04 57.2L506.04 57.2L506.04 73.34L506.04 73.34L505.56 73.34z" stroke="none" fill="#000000" fill-rule="winding" /><path transform="matrix(1 0 0 -1 0 842)" d="M505.56 57.2L506.04 57.2L506.04 57.2L506.04 57.67998L506.04 57.67998L505.56 57.67998z" stroke="none" fill="#000000" fill-rule="winding" /></g></g></g></svg>