<svg xmlns="http://www.w3.org/2000/svg" xmlns:xlink="http://www.w3.org/1999/xlink" id="body_5" preserveAspectRatio="xMinYMin meet" viewBox="0 0 793 1123"><defs><clipPath id="1"><path d="M0 842L0 0L0 0L595.22 0L595.22 0L595.22 842L595.22 842L0 842z" /></clipPath></defs><g transform="matrix(1.333333 0 0 1.333333 0 0)"><g><g clip-path="url(#1)"><g transform="matrix(0.4798529 0 0 0.476 85.08 28.37994)"><g transform="matrix(1 0 0 1 0 0)"><image x="0" y="0" xlink:href="img_01.png" width="34" height="30" /></g></g><path transform="matrix(1 0 0 -1 0 842)" d="M83.58 795.02L511.8 795.02L511.8 795.02L511.8 795.7401L511.8 795.7401L83.58 795.7401z" stroke="none" fill="#000000" fill-rule="winding" /><path transform="matrix(1 0 0 -1 0 842)" d="M79.44 784.82L79.92001 784.82L79.92001 784.82L79.92001 785.3L79.92001 785.3L79.44 785.3z" stroke="none" fill="#000000" fill-rule="winding" /><path transform="matrix(1 0 0 -1 0 842)" d="M79.44 784.82L506.04 784.82L506.04 784.82L506.04 785.3L506.04 785.3L79.44 785.3z" stroke="none" fill="#000000" fill-rule="winding" /><path transform="matrix(1 0 0 -1 0 842)" d="M505.56 784.82L506.04 784.82L506.04 784.82L506.04 785.3L506.04 785.3L505.56 785.3z" stroke="none" fill="#000000" fill-rule="winding" /><path transform="matrix(1 0 0 -1 0 842)" d="M79.44 769.22L79.92001 769.22L79.92001 769.22L79.92001 784.8199L79.92001 784.8199L79.44 784.8199z" stroke="none" fill="#000000" fill-rule="winding" /><path transform="matrix(1 0 0 -1 0 842)" d="M399.84 769.22L400.32 769.22L400.32 769.22L400.32 784.8199L400.32 784.8199L399.84 784.8199z" stroke="none" fill="#000000" fill-rule="winding" /><path transform="matrix(1 0 0 -1 0 842)" d="M505.56 769.22L506.04 769.22L506.04 769.22L506.04 784.8199L506.04 784.8199L505.56 784.8199z" stroke="none" fill="#000000" fill-rule="winding" /><path transform="matrix(1 0 0 -1 0 842)" d="M79.44 768.74L400.32 768.74L400.32 768.74L400.32 769.22L400.32 769.22L79.44 769.22z" stroke="none" fill="#000000" fill-rule="winding" /><path transform="matrix(1 0 0 -1 0 842)" d="M505.56 768.74L506.04 768.74L506.04 768.74L506.04 769.22L506.04 769.22L505.56 769.22z" stroke="none" fill="#000000" fill-rule="winding" /><path transform="matrix(1 0 0 -1 0 842)" d="M79.44 753.08L79.92001 753.08L79.92001 753.08L79.92001 768.74L79.92001 768.74L79.44 768.74z" stroke="none" fill="#000000" fill-rule="winding" /><path transform="matrix(1 0 0 -1 0 842)" d="M174.84 753.08L175.32 753.08L175.32 753.08L175.32 768.74L175.32 768.74L174.84 768.74z" stroke="none" fill="#000000" fill-rule="winding" /><path transform="matrix(1 0 0 -1 0 842)" d="M246.84 753.08L247.32 753.08L247.32 753.08L247.32 768.74L247.32 768.74L246.84 768.74z" stroke="none" fill="#000000" fill-rule="winding" /><path transform="matrix(1 0 0 -1 0 842)" d="M399.84 753.08L400.32 753.08L400.32 753.08L400.32 768.74L400.32 768.74L399.84 768.74z" stroke="none" fill="#000000" fill-rule="winding" /><path transform="matrix(1 0 0 -1 0 842)" d="M505.56 753.08L506.04 753.08L506.04 753.08L506.04 768.74L506.04 768.74L505.56 768.74z" stroke="none" fill="#000000" fill-rule="winding" /><path transform="matrix(1 0 0 -1 0 842)" d="M79.44 752.6L400.32 752.6L400.32 752.6L400.32 753.08L400.32 753.08L79.44 753.08z" stroke="none" fill="#000000" fill-rule="winding" /><path transform="matrix(1 0 0 -1 0 842)" d="M505.56 752.6L506.04 752.6L506.04 752.6L506.04 753.08L506.04 753.08L505.56 753.08z" stroke="none" fill="#000000" fill-rule="winding" /><path transform="matrix(1 0 0 -1 0 842)" d="M79.44 737L79.92001 737L79.92001 737L79.92001 752.6L79.92001 752.6L79.44 752.6z" stroke="none" fill="#000000" fill-rule="winding" /><path transform="matrix(1 0 0 -1 0 842)" d="M174.84 737L175.32 737L175.32 737L175.32 752.6L175.32 752.6L174.84 752.6z" stroke="none" fill="#000000" fill-rule="winding" /><path transform="matrix(1 0 0 -1 0 842)" d="M246.84 737L247.32 737L247.32 737L247.32 752.6L247.32 752.6L246.84 752.6z" stroke="none" fill="#000000" fill-rule="winding" /><path transform="matrix(1 0 0 -1 0 842)" d="M399.84 737L400.32 737L400.32 737L400.32 752.6L400.32 752.6L399.84 752.6z" stroke="none" fill="#000000" fill-rule="winding" /><path transform="matrix(1 0 0 -1 0 842)" d="M505.56 737L506.04 737L506.04 737L506.04 752.6L506.04 752.6L505.56 752.6z" stroke="none" fill="#000000" fill-rule="winding" /><path transform="matrix(1 0 0 -1 0 842)" d="M79.44 736.52L400.32 736.52L400.32 736.52L400.32 737.0001L400.32 737.0001L79.44 737.0001z" stroke="none" fill="#000000" fill-rule="winding" /><path transform="matrix(1 0 0 -1 0 842)" d="M505.56 736.52L506.04 736.52L506.04 736.52L506.04 737.0001L506.04 737.0001L505.56 737.0001z" stroke="none" fill="#000000" fill-rule="winding" /><path transform="matrix(1 0 0 -1 0 842)" d="M79.44 720.92L79.92001 720.92L79.92001 720.92L79.92001 736.52L79.92001 736.52L79.44 736.52z" stroke="none" fill="#000000" fill-rule="winding" /><path transform="matrix(1 0 0 -1 0 842)" d="M174.84 720.92L175.32 720.92L175.32 720.92L175.32 736.52L175.32 736.52L174.84 736.52z" stroke="none" fill="#000000" fill-rule="winding" /><path transform="matrix(1 0 0 -1 0 842)" d="M246.84 720.92L247.32 720.92L247.32 720.92L247.32 736.52L247.32 736.52L246.84 736.52z" stroke="none" fill="#000000" fill-rule="winding" /><path transform="matrix(1 0 0 -1 0 842)" d="M399.84 720.92L400.32 720.92L400.32 720.92L400.32 736.52L400.32 736.52L399.84 736.52z" stroke="none" fill="#000000" fill-rule="winding" /><path transform="matrix(1 0 0 -1 0 842)" d="M505.56 720.92L506.04 720.92L506.04 720.92L506.04 736.52L506.04 736.52L505.56 736.52z" stroke="none" fill="#000000" fill-rule="winding" /><path transform="matrix(1 0 0 -1 0 842)" d="M79.44 720.44L400.32 720.44L400.32 720.44L400.32 720.92L400.32 720.92L79.44 720.92z" stroke="none" fill="#000000" fill-rule="winding" /><path transform="matrix(1 0 0 -1 0 842)" d="M505.56 720.44L506.04 720.44L506.04 720.44L506.04 720.92L506.04 720.92L505.56 720.92z" stroke="none" fill="#000000" fill-rule="winding" /><path transform="matrix(1 0 0 -1 0 842)" d="M79.44 704.78L79.92001 704.78L79.92001 704.78L79.92001 720.44L79.92001 720.44L79.44 720.44z" stroke="none" fill="#000000" fill-rule="winding" /><path transform="matrix(1 0 0 -1 0 842)" d="M399.84 704.78L400.32 704.78L400.32 704.78L400.32 720.44L400.32 720.44L399.84 720.44z" stroke="none" fill="#000000" fill-rule="winding" /><path transform="matrix(1 0 0 -1 0 842)" d="M505.56 704.78L506.04 704.78L506.04 704.78L506.04 720.44L506.04 720.44L505.56 720.44z" stroke="none" fill="#000000" fill-rule="winding" /><path transform="matrix(1 0 0 -1 0 842)" d="M79.44 704.3L400.32 704.3L400.32 704.3L400.32 704.78L400.32 704.78L79.44 704.78z" stroke="none" fill="#000000" fill-rule="winding" /><path transform="matrix(1 0 0 -1 0 842)" d="M505.56 704.3L506.04 704.3L506.04 704.3L506.04 704.78L506.04 704.78L505.56 704.78z" stroke="none" fill="#000000" fill-rule="winding" /><path transform="matrix(1 0 0 -1 0 842)" d="M79.44 688.7L79.92001 688.7L79.92001 688.7L79.92001 704.3L79.92001 704.3L79.44 704.3z" stroke="none" fill="#000000" fill-rule="winding" /><path transform="matrix(1 0 0 -1 0 842)" d="M174.84 688.7L175.32 688.7L175.32 688.7L175.32 704.3L175.32 704.3L174.84 704.3z" stroke="none" fill="#000000" fill-rule="winding" /><path transform="matrix(1 0 0 -1 0 842)" d="M246.84 688.7L247.32 688.7L247.32 688.7L247.32 704.3L247.32 704.3L246.84 704.3z" stroke="none" fill="#000000" fill-rule="winding" /><path transform="matrix(1 0 0 -1 0 842)" d="M399.84 688.7L400.32 688.7L400.32 688.7L400.32 704.3L400.32 704.3L399.84 704.3z" stroke="none" fill="#000000" fill-rule="winding" /><path transform="matrix(1 0 0 -1 0 842)" d="M505.56 688.7L506.04 688.7L506.04 688.7L506.04 704.3L506.04 704.3L505.56 704.3z" stroke="none" fill="#000000" fill-rule="winding" /><path transform="matrix(1 0 0 -1 0 842)" d="M79.44 688.22L400.32 688.22L400.32 688.22L400.32 688.7L400.32 688.7L79.44 688.7z" stroke="none" fill="#000000" fill-rule="winding" /><path transform="matrix(1 0 0 -1 0 842)" d="M505.56 688.22L506.04 688.22L506.04 688.22L506.04 688.7L506.04 688.7L505.56 688.7z" stroke="none" fill="#000000" fill-rule="winding" /><path transform="matrix(1 0 0 -1 0 842)" d="M79.44 672.62L79.92001 672.62L79.92001 672.62L79.92001 688.22L79.92001 688.22L79.44 688.22z" stroke="none" fill="#000000" fill-rule="winding" /><path transform="matrix(1 0 0 -1 0 842)" d="M174.84 672.62L175.32 672.62L175.32 672.62L175.32 688.22L175.32 688.22L174.84 688.22z" stroke="none" fill="#000000" fill-rule="winding" /><path transform="matrix(1 0 0 -1 0 842)" d="M246.84 672.62L247.32 672.62L247.32 672.62L247.32 688.22L247.32 688.22L246.84 688.22z" stroke="none" fill="#000000" fill-rule="winding" /><path transform="matrix(1 0 0 -1 0 842)" d="M399.84 672.62L400.32 672.62L400.32 672.62L400.32 688.22L400.32 688.22L399.84 688.22z" stroke="none" fill="#000000" fill-rule="winding" /><path transform="matrix(1 0 0 -1 0 842)" d="M505.56 672.62L506.04 672.62L506.04 672.62L506.04 688.22L506.04 688.22L505.56 688.22z" stroke="none" fill="#000000" fill-rule="winding" /><path transform="matrix(1 0 0 -1 0 842)" d="M79.44 672.14L400.32 672.14L400.32 672.14L400.32 672.62L400.32 672.62L79.44 672.62z" stroke="none" fill="#000000" fill-rule="winding" /><path transform="matrix(1 0 0 -1 0 842)" d="M505.56 672.14L506.04 672.14L506.04 672.14L506.04 672.62L506.04 672.62L505.56 672.62z" stroke="none" fill="#000000" fill-rule="winding" /><path transform="matrix(1 0 0 -1 0 842)" d="M79.44 656.48L79.92001 656.48L79.92001 656.48L79.92001 672.14L79.92001 672.14L79.44 672.14z" stroke="none" fill="#000000" fill-rule="winding" /><path transform="matrix(1 0 0 -1 0 842)" d="M174.84 656.48L175.32 656.48L175.32 656.48L175.32 672.14L175.32 672.14L174.84 672.14z" stroke="none" fill="#000000" fill-rule="winding" /><path transform="matrix(1 0 0 -1 0 842)" d="M246.84 656.48L247.32 656.48L247.32 656.48L247.32 672.14L247.32 672.14L246.84 672.14z" stroke="none" fill="#000000" fill-rule="winding" /><path transform="matrix(1 0 0 -1 0 842)" d="M399.84 656.48L400.32 656.48L400.32 656.48L400.32 672.14L400.32 672.14L399.84 672.14z" stroke="none" fill="#000000" fill-rule="winding" /><path transform="matrix(1 0 0 -1 0 842)" d="M505.56 656.48L506.04 656.48L506.04 656.48L506.04 672.14L506.04 672.14L505.56 672.14z" stroke="none" fill="#000000" fill-rule="winding" /><path transform="matrix(1 0 0 -1 0 842)" d="M79.44 656L506.04 656L506.04 656L506.04 656.48L506.04 656.48L79.44 656.48z" stroke="none" fill="#000000" fill-rule="winding" /><path transform="matrix(1 0 0 -1 0 842)" d="M79.44 638.78L79.92001 638.78L79.92001 638.78L79.92001 656L79.92001 656L79.44 656z" stroke="none" fill="#000000" fill-rule="winding" /><path transform="matrix(1 0 0 -1 0 842)" d="M505.56 638.78L506.04 638.78L506.04 638.78L506.04 656L506.04 656L505.56 656z" stroke="none" fill="#000000" fill-rule="winding" /><path transform="matrix(1 0 0 -1 0 842)" d="M79.44 638.3L506.04 638.3L506.04 638.3L506.04 638.78L506.04 638.78L79.44 638.78z" stroke="none" fill="#000000" fill-rule="winding" /><path transform="matrix(1 0 0 -1 0 842)" d="M79.44 622.64L79.92001 622.64L79.92001 622.64L79.92001 638.3L79.92001 638.3L79.44 638.3z" stroke="none" fill="#000000" fill-rule="winding" /><path transform="matrix(1 0 0 -1 0 842)" d="M174.84 622.64L175.32 622.64L175.32 622.64L175.32 638.3L175.32 638.3L174.84 638.3z" stroke="none" fill="#000000" fill-rule="winding" /><path transform="matrix(1 0 0 -1 0 842)" d="M246.84 622.64L247.32 622.64L247.32 622.64L247.32 638.3L247.32 638.3L246.84 638.3z" stroke="none" fill="#000000" fill-rule="winding" /><path transform="matrix(1 0 0 -1 0 842)" d="M399.84 622.64L400.32 622.64L400.32 622.64L400.32 638.3L400.32 638.3L399.84 638.3z" stroke="none" fill="#000000" fill-rule="winding" /><path transform="matrix(1 0 0 -1 0 842)" d="M505.56 622.64L506.04 622.64L506.04 622.64L506.04 638.3L506.04 638.3L505.56 638.3z" stroke="none" fill="#000000" fill-rule="winding" /><path transform="matrix(1 0 0 -1 0 842)" d="M79.44 622.16L400.32 622.16L400.32 622.16L400.32 622.64L400.32 622.64L79.44 622.64z" stroke="none" fill="#000000" fill-rule="winding" /><path transform="matrix(1 0 0 -1 0 842)" d="M505.56 622.16L506.04 622.16L506.04 622.16L506.04 622.64L506.04 622.64L505.56 622.64z" stroke="none" fill="#000000" fill-rule="winding" /><path transform="matrix(1 0 0 -1 0 842)" d="M79.44 606.56L79.92001 606.56L79.92001 606.56L79.92001 622.16L79.92001 622.16L79.44 622.16z" stroke="none" fill="#000000" fill-rule="winding" /><path transform="matrix(1 0 0 -1 0 842)" d="M174.84 606.56L175.32 606.56L175.32 606.56L175.32 622.16L175.32 622.16L174.84 622.16z" stroke="none" fill="#000000" fill-rule="winding" /><path transform="matrix(1 0 0 -1 0 842)" d="M246.84 606.56L247.32 606.56L247.32 606.56L247.32 622.16L247.32 622.16L246.84 622.16z" stroke="none" fill="#000000" fill-rule="winding" /><path transform="matrix(1 0 0 -1 0 842)" d="M399.84 606.56L400.32 606.56L400.32 606.56L400.32 622.16L400.32 622.16L399.84 622.16z" stroke="none" fill="#000000" fill-rule="winding" /><path transform="matrix(1 0 0 -1 0 842)" d="M505.56 606.56L506.04 606.56L506.04 606.56L506.04 622.16L506.04 622.16L505.56 622.16z" stroke="none" fill="#000000" fill-rule="winding" /><path transform="matrix(1 0 0 -1 0 842)" d="M79.44 606.08L400.32 606.08L400.32 606.08L400.32 606.56L400.32 606.56L79.44 606.56z" stroke="none" fill="#000000" fill-rule="winding" /><path transform="matrix(1 0 0 -1 0 842)" d="M505.56 606.08L506.04 606.08L506.04 606.08L506.04 606.56L506.04 606.56L505.56 606.56z" stroke="none" fill="#000000" fill-rule="winding" /><path transform="matrix(1 0 0 -1 0 842)" d="M79.44 590.48L79.92001 590.48L79.92001 590.48L79.92001 606.08L79.92001 606.08L79.44 606.08z" stroke="none" fill="#000000" fill-rule="winding" /><path transform="matrix(1 0 0 -1 0 842)" d="M174.84 590.48L175.32 590.48L175.32 590.48L175.32 606.08L175.32 606.08L174.84 606.08z" stroke="none" fill="#000000" fill-rule="winding" /><path transform="matrix(1 0 0 -1 0 842)" d="M246.84 590.48L247.32 590.48L247.32 590.48L247.32 606.08L247.32 606.08L246.84 606.08z" stroke="none" fill="#000000" fill-rule="winding" /><path transform="matrix(1 0 0 -1 0 842)" d="M399.84 590.48L400.32 590.48L400.32 590.48L400.32 606.08L400.32 606.08L399.84 606.08z" stroke="none" fill="#000000" fill-rule="winding" /><path transform="matrix(1 0 0 -1 0 842)" d="M505.56 590.48L506.04 590.48L506.04 590.48L506.04 606.08L506.04 606.08L505.56 606.08z" stroke="none" fill="#000000" fill-rule="winding" /><path transform="matrix(1 0 0 -1 0 842)" d="M79.44 590L400.32 590L400.32 590L400.32 590.48L400.32 590.48L79.44 590.48z" stroke="none" fill="#000000" fill-rule="winding" /><path transform="matrix(1 0 0 -1 0 842)" d="M505.56 590L506.04 590L506.04 590L506.04 590.48L506.04 590.48L505.56 590.48z" stroke="none" fill="#000000" fill-rule="winding" /><path transform="matrix(1 0 0 -1 0 842)" d="M79.44 574.34L79.92001 574.34L79.92001 574.34L79.92001 590L79.92001 590L79.44 590z" stroke="none" fill="#000000" fill-rule="winding" /><path transform="matrix(1 0 0 -1 0 842)" d="M399.84 574.34L400.32 574.34L400.32 574.34L400.32 590L400.32 590L399.84 590z" stroke="none" fill="#000000" fill-rule="winding" /><path transform="matrix(1 0 0 -1 0 842)" d="M505.56 574.34L506.04 574.34L506.04 574.34L506.04 590L506.04 590L505.56 590z" stroke="none" fill="#000000" fill-rule="winding" /><path transform="matrix(1 0 0 -1 0 842)" d="M79.44 573.86L400.32 573.86L400.32 573.86L400.32 574.34L400.32 574.34L79.44 574.34z" stroke="none" fill="#000000" fill-rule="winding" /><path transform="matrix(1 0 0 -1 0 842)" d="M505.56 573.86L506.04 573.86L506.04 573.86L506.04 574.34L506.04 574.34L505.56 574.34z" stroke="none" fill="#000000" fill-rule="winding" /><path transform="matrix(1 0 0 -1 0 842)" d="M79.44 558.26L79.92001 558.26L79.92001 558.26L79.92001 573.86L79.92001 573.86L79.44 573.86z" stroke="none" fill="#000000" fill-rule="winding" /><path transform="matrix(1 0 0 -1 0 842)" d="M174.84 558.26L175.32 558.26L175.32 558.26L175.32 573.86L175.32 573.86L174.84 573.86z" stroke="none" fill="#000000" fill-rule="winding" /><path transform="matrix(1 0 0 -1 0 842)" d="M246.84 558.26L247.32 558.26L247.32 558.26L247.32 573.86L247.32 573.86L246.84 573.86z" stroke="none" fill="#000000" fill-rule="winding" /><path transform="matrix(1 0 0 -1 0 842)" d="M399.84 558.26L400.32 558.26L400.32 558.26L400.32 573.86L400.32 573.86L399.84 573.86z" stroke="none" fill="#000000" fill-rule="winding" /><path transform="matrix(1 0 0 -1 0 842)" d="M505.56 558.26L506.04 558.26L506.04 558.26L506.04 573.86L506.04 573.86L505.56 573.86z" stroke="none" fill="#000000" fill-rule="winding" /><path transform="matrix(1 0 0 -1 0 842)" d="M79.44 557.78L400.32 557.78L400.32 557.78L400.32 558.26L400.32 558.26L79.44 558.26z" stroke="none" fill="#000000" fill-rule="winding" /><path transform="matrix(1 0 0 -1 0 842)" d="M505.56 557.78L506.04 557.78L506.04 557.78L506.04 558.26L506.04 558.26L505.56 558.26z" stroke="none" fill="#000000" fill-rule="winding" /><path transform="matrix(1 0 0 -1 0 842)" d="M79.44 542.18L79.92001 542.18L79.92001 542.18L79.92001 557.78L79.92001 557.78L79.44 557.78z" stroke="none" fill="#000000" fill-rule="winding" /><path transform="matrix(1 0 0 -1 0 842)" d="M174.84 542.18L175.32 542.18L175.32 542.18L175.32 557.78L175.32 557.78L174.84 557.78z" stroke="none" fill="#000000" fill-rule="winding" /><path transform="matrix(1 0 0 -1 0 842)" d="M246.84 542.18L247.32 542.18L247.32 542.18L247.32 557.78L247.32 557.78L246.84 557.78z" stroke="none" fill="#000000" fill-rule="winding" /><path transform="matrix(1 0 0 -1 0 842)" d="M399.84 542.18L400.32 542.18L400.32 542.18L400.32 557.78L400.32 557.78L399.84 557.78z" stroke="none" fill="#000000" fill-rule="winding" /><path transform="matrix(1 0 0 -1 0 842)" d="M505.56 542.18L506.04 542.18L506.04 542.18L506.04 557.78L506.04 557.78L505.56 557.78z" stroke="none" fill="#000000" fill-rule="winding" /><path transform="matrix(1 0 0 -1 0 842)" d="M79.44 541.7L400.32 541.7L400.32 541.7L400.32 542.18L400.32 542.18L79.44 542.18z" stroke="none" fill="#000000" fill-rule="winding" /><path transform="matrix(1 0 0 -1 0 842)" d="M505.56 541.7L506.04 541.7L506.04 541.7L506.04 542.18L506.04 542.18L505.56 542.18z" stroke="none" fill="#000000" fill-rule="winding" /><path transform="matrix(1 0 0 -1 0 842)" d="M79.44 526.04L79.92001 526.04L79.92001 526.04L79.92001 541.7L79.92001 541.7L79.44 541.7z" stroke="none" fill="#000000" fill-rule="winding" /><path transform="matrix(1 0 0 -1 0 842)" d="M174.84 526.04L175.32 526.04L175.32 526.04L175.32 541.7L175.32 541.7L174.84 541.7z" stroke="none" fill="#000000" fill-rule="winding" /><path transform="matrix(1 0 0 -1 0 842)" d="M246.84 526.04L247.32 526.04L247.32 526.04L247.32 541.7L247.32 541.7L246.84 541.7z" stroke="none" fill="#000000" fill-rule="winding" /><path transform="matrix(1 0 0 -1 0 842)" d="M399.84 526.04L400.32 526.04L400.32 526.04L400.32 541.7L400.32 541.7L399.84 541.7z" stroke="none" fill="#000000" fill-rule="winding" /><path transform="matrix(1 0 0 -1 0 842)" d="M505.56 526.04L506.04 526.04L506.04 526.04L506.04 541.7L506.04 541.7L505.56 541.7z" stroke="none" fill="#000000" fill-rule="winding" /><path transform="matrix(1 0 0 -1 0 842)" d="M79.44 525.56L400.32 525.56L400.32 525.56L400.32 526.04L400.32 526.04L79.44 526.04z" stroke="none" fill="#000000" fill-rule="winding" /><path transform="matrix(1 0 0 -1 0 842)" d="M505.56 525.56L506.04 525.56L506.04 525.56L506.04 526.04L506.04 526.04L505.56 526.04z" stroke="none" fill="#000000" fill-rule="winding" /><path transform="matrix(1 0 0 -1 0 842)" d="M79.44 509.96L79.92001 509.96L79.92001 509.96L79.92001 525.56L79.92001 525.56L79.44 525.56z" stroke="none" fill="#000000" fill-rule="winding" /><path transform="matrix(1 0 0 -1 0 842)" d="M399.84 509.96L400.32 509.96L400.32 509.96L400.32 525.56L400.32 525.56L399.84 525.56z" stroke="none" fill="#000000" fill-rule="winding" /><path transform="matrix(1 0 0 -1 0 842)" d="M505.56 509.96L506.04 509.96L506.04 509.96L506.04 525.56L506.04 525.56L505.56 525.56z" stroke="none" fill="#000000" fill-rule="winding" /><path transform="matrix(1 0 0 -1 0 842)" d="M79.44 509.48L400.32 509.48L400.32 509.48L400.32 509.96L400.32 509.96L79.44 509.96z" stroke="none" fill="#000000" fill-rule="winding" /><path transform="matrix(1 0 0 -1 0 842)" d="M505.56 509.48L506.04 509.48L506.04 509.48L506.04 509.96L506.04 509.96L505.56 509.96z" stroke="none" fill="#000000" fill-rule="winding" /><path transform="matrix(1 0 0 -1 0 842)" d="M79.44 493.88L79.92001 493.88L79.92001 493.88L79.92001 509.48L79.92001 509.48L79.44 509.48z" stroke="none" fill="#000000" fill-rule="winding" /><path transform="matrix(1 0 0 -1 0 842)" d="M174.84 493.88L175.32 493.88L175.32 493.88L175.32 509.48L175.32 509.48L174.84 509.48z" stroke="none" fill="#000000" fill-rule="winding" /><path transform="matrix(1 0 0 -1 0 842)" d="M246.84 493.88L247.32 493.88L247.32 493.88L247.32 509.48L247.32 509.48L246.84 509.48z" stroke="none" fill="#000000" fill-rule="winding" /><path transform="matrix(1 0 0 -1 0 842)" d="M399.84 493.88L400.32 493.88L400.32 493.88L400.32 509.48L400.32 509.48L399.84 509.48z" stroke="none" fill="#000000" fill-rule="winding" /><path transform="matrix(1 0 0 -1 0 842)" d="M505.56 493.88L506.04 493.88L506.04 493.88L506.04 509.48L506.04 509.48L505.56 509.48z" stroke="none" fill="#000000" fill-rule="winding" /><path transform="matrix(1 0 0 -1 0 842)" d="M79.44 493.4L400.32 493.4L400.32 493.4L400.32 493.88L400.32 493.88L79.44 493.88z" stroke="none" fill="#000000" fill-rule="winding" /><path transform="matrix(1 0 0 -1 0 842)" d="M505.56 493.4L506.04 493.4L506.04 493.4L506.04 493.88L506.04 493.88L505.56 493.88z" stroke="none" fill="#000000" fill-rule="winding" /><path transform="matrix(1 0 0 -1 0 842)" d="M79.44 477.74L79.92001 477.74L79.92001 477.74L79.92001 493.4L79.92001 493.4L79.44 493.4z" stroke="none" fill="#000000" fill-rule="winding" /><path transform="matrix(1 0 0 -1 0 842)" d="M174.84 477.74L175.32 477.74L175.32 477.74L175.32 493.4L175.32 493.4L174.84 493.4z" stroke="none" fill="#000000" fill-rule="winding" /><path transform="matrix(1 0 0 -1 0 842)" d="M246.84 477.74L247.32 477.74L247.32 477.74L247.32 493.4L247.32 493.4L246.84 493.4z" stroke="none" fill="#000000" fill-rule="winding" /><path transform="matrix(1 0 0 -1 0 842)" d="M399.84 477.74L400.32 477.74L400.32 477.74L400.32 493.4L400.32 493.4L399.84 493.4z" stroke="none" fill="#000000" fill-rule="winding" /><path transform="matrix(1 0 0 -1 0 842)" d="M505.56 477.74L506.04 477.74L506.04 477.74L506.04 493.4L506.04 493.4L505.56 493.4z" stroke="none" fill="#000000" fill-rule="winding" /><path transform="matrix(1 0 0 -1 0 842)" d="M79.44 477.26L400.32 477.26L400.32 477.26L400.32 477.74L400.32 477.74L79.44 477.74z" stroke="none" fill="#000000" fill-rule="winding" /><path transform="matrix(1 0 0 -1 0 842)" d="M505.56 477.26L506.04 477.26L506.04 477.26L506.04 477.74L506.04 477.74L505.56 477.74z" stroke="none" fill="#000000" fill-rule="winding" /><path transform="matrix(1 0 0 -1 0 842)" d="M79.44 461.18L79.92001 461.18L79.92001 461.18L79.92001 477.26L79.92001 477.26L79.44 477.26z" stroke="none" fill="#000000" fill-rule="winding" /><path transform="matrix(1 0 0 -1 0 842)" d="M79.44 461.18L174.84 461.18L174.84 461.18L174.84 461.66L174.84 461.66L79.44 461.66z" stroke="none" fill="#000000" fill-rule="winding" /><path transform="matrix(1 0 0 -1 0 842)" d="M174.84 461.18L175.32 461.18L175.32 461.18L175.32 477.26L175.32 477.26L174.84 477.26z" stroke="none" fill="#000000" fill-rule="winding" /><path transform="matrix(1 0 0 -1 0 842)" d="M175.32 461.18L246.84 461.18L246.84 461.18L246.84 461.66L246.84 461.66L175.32 461.66z" stroke="none" fill="#000000" fill-rule="winding" /><path transform="matrix(1 0 0 -1 0 842)" d="M246.84 461.18L247.32 461.18L247.32 461.18L247.32 477.26L247.32 477.26L246.84 477.26z" stroke="none" fill="#000000" fill-rule="winding" /><path transform="matrix(1 0 0 -1 0 842)" d="M247.32 461.18L399.84 461.18L399.84 461.18L399.84 461.66L399.84 461.66L247.32 461.66z" stroke="none" fill="#000000" fill-rule="winding" /><path transform="matrix(1 0 0 -1 0 842)" d="M399.84 461.18L400.32 461.18L400.32 461.18L400.32 477.26L400.32 477.26L399.84 477.26z" stroke="none" fill="#000000" fill-rule="winding" /><path transform="matrix(1 0 0 -1 0 842)" d="M400.32 461.18L505.56 461.18L505.56 461.18L505.56 461.66L505.56 461.66L400.32 461.66z" stroke="none" fill="#000000" fill-rule="winding" /><path transform="matrix(1 0 0 -1 0 842)" d="M505.56 461.18L506.04 461.18L506.04 461.18L506.04 477.26L506.04 477.26L505.56 477.26z" stroke="none" fill="#000000" fill-rule="winding" /><path transform="matrix(1 0 0 -1 0 842)" d="M505.56 461.18L506.04 461.18L506.04 461.18L506.04 461.66L506.04 461.66L505.56 461.66z" stroke="none" fill="#000000" fill-rule="winding" /><path transform="matrix(1 0 0 -1 0 842)" d="M79.44 429.5L79.92001 429.5L79.92001 429.5L79.92001 429.98L79.92001 429.98L79.44 429.98z" stroke="none" fill="#000000" fill-rule="winding" /><path transform="matrix(1 0 0 -1 0 842)" d="M79.44 429.5L404.28 429.5L404.28 429.5L404.28 429.98L404.28 429.98L79.44 429.98z" stroke="none" fill="#000000" fill-rule="winding" /><path transform="matrix(1 0 0 -1 0 842)" d="M404.28 429.98L505.56 429.98L505.56 429.98L505.56 429.5L505.56 429.5L404.28 429.5" stroke="none" fill="#000000" fill-rule="winding" /><path transform="matrix(1 0 0 -1 0 842)" d="M505.56 429.5L506.04 429.5L506.04 429.5L506.04 429.98L506.04 429.98L505.56 429.98z" stroke="none" fill="#000000" fill-rule="winding" /><path transform="matrix(1 0 0 -1 0 842)" d="M505.56 429.5L506.04 429.5L506.04 429.5L506.04 429.98L506.04 429.98L505.56 429.98z" stroke="none" fill="#000000" fill-rule="winding" /><path transform="matrix(1 0 0 -1 0 842)" d="M79.44 413.84L79.92001 413.84L79.92001 413.84L79.92001 429.5L79.92001 429.5L79.44 429.5z" stroke="none" fill="#000000" fill-rule="winding" /><path transform="matrix(1 0 0 -1 0 842)" d="M141.54 413.84L142.02 413.84L142.02 413.84L142.02 429.5L142.02 429.5L141.54 429.5z" stroke="none" fill="#000000" fill-rule="winding" /><path transform="matrix(1 0 0 -1 0 842)" d="M212.46 413.84L212.94 413.84L212.94 413.84L212.94 429.5L212.94 429.5L212.46 429.5z" stroke="none" fill="#000000" fill-rule="winding" /><path transform="matrix(1 0 0 -1 0 842)" d="M403.8 413.84L404.28 413.84L404.28 413.84L404.28 429.5L404.28 429.5L403.8 429.5z" stroke="none" fill="#000000" fill-rule="winding" /><path transform="matrix(1 0 0 -1 0 842)" d="M505.56 413.84L506.04 413.84L506.04 413.84L506.04 429.5L506.04 429.5L505.56 429.5z" stroke="none" fill="#000000" fill-rule="winding" /><path transform="matrix(1 0 0 -1 0 842)" d="M79.44 413.36L404.28 413.36L404.28 413.36L404.28 413.84L404.28 413.84L79.44 413.84z" stroke="none" fill="#000000" fill-rule="winding" /><path transform="matrix(1 0 0 -1 0 842)" d="M505.56 413.36L506.04 413.36L506.04 413.36L506.04 413.84L506.04 413.84L505.56 413.84z" stroke="none" fill="#000000" fill-rule="winding" /><path transform="matrix(1 0 0 -1 0 842)" d="M79.44 397.76L79.92001 397.76L79.92001 397.76L79.92001 413.36L79.92001 413.36L79.44 413.36z" stroke="none" fill="#000000" fill-rule="winding" /><path transform="matrix(1 0 0 -1 0 842)" d="M141.54 397.76L142.02 397.76L142.02 397.76L142.02 413.36L142.02 413.36L141.54 413.36z" stroke="none" fill="#000000" fill-rule="winding" /><path transform="matrix(1 0 0 -1 0 842)" d="M212.46 397.76L212.94 397.76L212.94 397.76L212.94 413.36L212.94 413.36L212.46 413.36z" stroke="none" fill="#000000" fill-rule="winding" /><path transform="matrix(1 0 0 -1 0 842)" d="M403.8 397.76L404.28 397.76L404.28 397.76L404.28 413.36L404.28 413.36L403.8 413.36z" stroke="none" fill="#000000" fill-rule="winding" /><path transform="matrix(1 0 0 -1 0 842)" d="M505.56 397.76L506.04 397.76L506.04 397.76L506.04 413.36L506.04 413.36L505.56 413.36z" stroke="none" fill="#000000" fill-rule="winding" /><path transform="matrix(1 0 0 -1 0 842)" d="M79.44 397.28L404.28 397.28L404.28 397.28L404.28 397.76L404.28 397.76L79.44 397.76z" stroke="none" fill="#000000" fill-rule="winding" /><path transform="matrix(1 0 0 -1 0 842)" d="M505.56 397.28L506.04 397.28L506.04 397.28L506.04 397.76L506.04 397.76L505.56 397.76z" stroke="none" fill="#000000" fill-rule="winding" /><path transform="matrix(1 0 0 -1 0 842)" d="M79.44 381.68L79.92001 381.68L79.92001 381.68L79.92001 397.28L79.92001 397.28L79.44 397.28z" stroke="none" fill="#000000" fill-rule="winding" /><path transform="matrix(1 0 0 -1 0 842)" d="M141.54 381.68L142.02 381.68L142.02 381.68L142.02 397.28L142.02 397.28L141.54 397.28z" stroke="none" fill="#000000" fill-rule="winding" /><path transform="matrix(1 0 0 -1 0 842)" d="M212.46 381.68L212.94 381.68L212.94 381.68L212.94 397.28L212.94 397.28L212.46 397.28z" stroke="none" fill="#000000" fill-rule="winding" /><path transform="matrix(1 0 0 -1 0 842)" d="M403.8 381.68L404.28 381.68L404.28 381.68L404.28 397.28L404.28 397.28L403.8 397.28z" stroke="none" fill="#000000" fill-rule="winding" /><path transform="matrix(1 0 0 -1 0 842)" d="M505.56 381.68L506.04 381.68L506.04 381.68L506.04 397.28L506.04 397.28L505.56 397.28z" stroke="none" fill="#000000" fill-rule="winding" /><path transform="matrix(1 0 0 -1 0 842)" d="M79.44 381.2L404.28 381.2L404.28 381.2L404.28 381.68L404.28 381.68L79.44 381.68z" stroke="none" fill="#000000" fill-rule="winding" /><path transform="matrix(1 0 0 -1 0 842)" d="M505.56 381.2L506.04 381.2L506.04 381.2L506.04 381.68L506.04 381.68L505.56 381.68z" stroke="none" fill="#000000" fill-rule="winding" /><path transform="matrix(1 0 0 -1 0 842)" d="M79.44 365.54L79.92001 365.54L79.92001 365.54L79.92001 381.2L79.92001 381.2L79.44 381.2z" stroke="none" fill="#000000" fill-rule="winding" /><path transform="matrix(1 0 0 -1 0 842)" d="M141.54 365.54L142.02 365.54L142.02 365.54L142.02 381.2L142.02 381.2L141.54 381.2z" stroke="none" fill="#000000" fill-rule="winding" /><path transform="matrix(1 0 0 -1 0 842)" d="M212.46 365.54L212.94 365.54L212.94 365.54L212.94 381.2L212.94 381.2L212.46 381.2z" stroke="none" fill="#000000" fill-rule="winding" /><path transform="matrix(1 0 0 -1 0 842)" d="M403.8 365.54L404.28 365.54L404.28 365.54L404.28 381.2L404.28 381.2L403.8 381.2z" stroke="none" fill="#000000" fill-rule="winding" /><path transform="matrix(1 0 0 -1 0 842)" d="M505.56 365.54L506.04 365.54L506.04 365.54L506.04 381.2L506.04 381.2L505.56 381.2z" stroke="none" fill="#000000" fill-rule="winding" /><path transform="matrix(1 0 0 -1 0 842)" d="M79.44 365.06L404.28 365.06L404.28 365.06L404.28 365.54L404.28 365.54L79.44 365.54z" stroke="none" fill="#000000" fill-rule="winding" /><path transform="matrix(1 0 0 -1 0 842)" d="M404.28 365.54L505.56 365.54L505.56 365.54L505.56 365.06L505.56 365.06L404.28 365.06" stroke="none" fill="#000000" fill-rule="winding" /><path transform="matrix(1 0 0 -1 0 842)" d="M505.56 365.06L506.04 365.06L506.04 365.06L506.04 365.54L506.04 365.54L505.56 365.54z" stroke="none" fill="#000000" fill-rule="winding" /><path transform="matrix(1 0 0 -1 0 842)" d="M79.44 349.46L79.92001 349.46L79.92001 349.46L79.92001 365.06L79.92001 365.06L79.44 365.06z" stroke="none" fill="#000000" fill-rule="winding" /><path transform="matrix(1 0 0 -1 0 842)" d="M141.54 349.46L142.02 349.46L142.02 349.46L142.02 365.06L142.02 365.06L141.54 365.06z" stroke="none" fill="#000000" fill-rule="winding" /><path transform="matrix(1 0 0 -1 0 842)" d="M212.46 349.46L212.94 349.46L212.94 349.46L212.94 365.06L212.94 365.06L212.46 365.06z" stroke="none" fill="#000000" fill-rule="winding" /><path transform="matrix(1 0 0 -1 0 842)" d="M403.8 349.46L404.28 349.46L404.28 349.46L404.28 365.06L404.28 365.06L403.8 365.06z" stroke="none" fill="#000000" fill-rule="winding" /><path transform="matrix(1 0 0 -1 0 842)" d="M505.56 349.46L506.04 349.46L506.04 349.46L506.04 365.06L506.04 365.06L505.56 365.06z" stroke="none" fill="#000000" fill-rule="winding" /><path transform="matrix(1 0 0 -1 0 842)" d="M79.44 348.98L404.28 348.98L404.28 348.98L404.28 349.46L404.28 349.46L79.44 349.46z" stroke="none" fill="#000000" fill-rule="winding" /><path transform="matrix(1 0 0 -1 0 842)" d="M505.56 348.98L506.04 348.98L506.04 348.98L506.04 349.46L506.04 349.46L505.56 349.46z" stroke="none" fill="#000000" fill-rule="winding" /><path transform="matrix(1 0 0 -1 0 842)" d="M79.44 333.38L79.92001 333.38L79.92001 333.38L79.92001 348.98L79.92001 348.98L79.44 348.98z" stroke="none" fill="#000000" fill-rule="winding" /><path transform="matrix(1 0 0 -1 0 842)" d="M141.54 333.38L142.02 333.38L142.02 333.38L142.02 348.98L142.02 348.98L141.54 348.98z" stroke="none" fill="#000000" fill-rule="winding" /><path transform="matrix(1 0 0 -1 0 842)" d="M212.46 333.38L212.94 333.38L212.94 333.38L212.94 348.98L212.94 348.98L212.46 348.98z" stroke="none" fill="#000000" fill-rule="winding" /><path transform="matrix(1 0 0 -1 0 842)" d="M403.8 333.38L404.28 333.38L404.28 333.38L404.28 348.98L404.28 348.98L403.8 348.98z" stroke="none" fill="#000000" fill-rule="winding" /><path transform="matrix(1 0 0 -1 0 842)" d="M505.56 333.38L506.04 333.38L506.04 333.38L506.04 348.98L506.04 348.98L505.56 348.98z" stroke="none" fill="#000000" fill-rule="winding" /><path transform="matrix(1 0 0 -1 0 842)" d="M79.44 332.9L404.28 332.9L404.28 332.9L404.28 333.38L404.28 333.38L79.44 333.38z" stroke="none" fill="#000000" fill-rule="winding" /><path transform="matrix(1 0 0 -1 0 842)" d="M505.56 332.9L506.04 332.9L506.04 332.9L506.04 333.38L506.04 333.38L505.56 333.38z" stroke="none" fill="#000000" fill-rule="winding" /><path transform="matrix(1 0 0 -1 0 842)" d="M79.44 317.24L79.92001 317.24L79.92001 317.24L79.92001 332.9L79.92001 332.9L79.44 332.9z" stroke="none" fill="#000000" fill-rule="winding" /><path transform="matrix(1 0 0 -1 0 842)" d="M141.54 317.24L142.02 317.24L142.02 317.24L142.02 332.9L142.02 332.9L141.54 332.9z" stroke="none" fill="#000000" fill-rule="winding" /><path transform="matrix(1 0 0 -1 0 842)" d="M212.46 317.24L212.94 317.24L212.94 317.24L212.94 332.9L212.94 332.9L212.46 332.9z" stroke="none" fill="#000000" fill-rule="winding" /><path transform="matrix(1 0 0 -1 0 842)" d="M403.8 317.24L404.28 317.24L404.28 317.24L404.28 332.9L404.28 332.9L403.8 332.9z" stroke="none" fill="#000000" fill-rule="winding" /><path transform="matrix(1 0 0 -1 0 842)" d="M505.56 317.24L506.04 317.24L506.04 317.24L506.04 332.9L506.04 332.9L505.56 332.9z" stroke="none" fill="#000000" fill-rule="winding" /><path transform="matrix(1 0 0 -1 0 842)" d="M79.44 316.76L404.28 316.76L404.28 316.76L404.28 317.24L404.28 317.24L79.44 317.24z" stroke="none" fill="#000000" fill-rule="winding" /><path transform="matrix(1 0 0 -1 0 842)" d="M505.56 316.76L506.04 316.76L506.04 316.76L506.04 317.24L506.04 317.24L505.56 317.24z" stroke="none" fill="#000000" fill-rule="winding" /><path transform="matrix(1 0 0 -1 0 842)" d="M79.44 301.16L79.92001 301.16L79.92001 301.16L79.92001 316.76L79.92001 316.76L79.44 316.76z" stroke="none" fill="#000000" fill-rule="winding" /><path transform="matrix(1 0 0 -1 0 842)" d="M141.54 301.16L142.02 301.16L142.02 301.16L142.02 316.76L142.02 316.76L141.54 316.76z" stroke="none" fill="#000000" fill-rule="winding" /><path transform="matrix(1 0 0 -1 0 842)" d="M212.46 301.16L212.94 301.16L212.94 301.16L212.94 316.76L212.94 316.76L212.46 316.76z" stroke="none" fill="#000000" fill-rule="winding" /><path transform="matrix(1 0 0 -1 0 842)" d="M403.8 301.16L404.28 301.16L404.28 301.16L404.28 316.76L404.28 316.76L403.8 316.76z" stroke="none" fill="#000000" fill-rule="winding" /><path transform="matrix(1 0 0 -1 0 842)" d="M505.56 301.16L506.04 301.16L506.04 301.16L506.04 316.76L506.04 316.76L505.56 316.76z" stroke="none" fill="#000000" fill-rule="winding" /><path transform="matrix(1 0 0 -1 0 842)" d="M79.44 300.68L404.28 300.68L404.28 300.68L404.28 301.16L404.28 301.16L79.44 301.16z" stroke="none" fill="#000000" fill-rule="winding" /><path transform="matrix(1 0 0 -1 0 842)" d="M505.56 300.68L506.04 300.68L506.04 300.68L506.04 301.16L506.04 301.16L505.56 301.16z" stroke="none" fill="#000000" fill-rule="winding" /><path transform="matrix(1 0 0 -1 0 842)" d="M79.44 285.08L79.92001 285.08L79.92001 285.08L79.92001 300.68L79.92001 300.68L79.44 300.68z" stroke="none" fill="#000000" fill-rule="winding" /><path transform="matrix(1 0 0 -1 0 842)" d="M141.54 285.08L142.02 285.08L142.02 285.08L142.02 300.68L142.02 300.68L141.54 300.68z" stroke="none" fill="#000000" fill-rule="winding" /><path transform="matrix(1 0 0 -1 0 842)" d="M212.46 285.08L212.94 285.08L212.94 285.08L212.94 300.68L212.94 300.68L212.46 300.68z" stroke="none" fill="#000000" fill-rule="winding" /><path transform="matrix(1 0 0 -1 0 842)" d="M403.8 285.08L404.28 285.08L404.28 285.08L404.28 300.68L404.28 300.68L403.8 300.68z" stroke="none" fill="#000000" fill-rule="winding" /><path transform="matrix(1 0 0 -1 0 842)" d="M505.56 285.08L506.04 285.08L506.04 285.08L506.04 300.68L506.04 300.68L505.56 300.68z" stroke="none" fill="#000000" fill-rule="winding" /><path transform="matrix(1 0 0 -1 0 842)" d="M79.44 284.6L404.28 284.6L404.28 284.6L404.28 285.08L404.28 285.08L79.44 285.08z" stroke="none" fill="#000000" fill-rule="winding" /><path transform="matrix(1 0 0 -1 0 842)" d="M505.56 284.6L506.04 284.6L506.04 284.6L506.04 285.08L506.04 285.08L505.56 285.08z" stroke="none" fill="#000000" fill-rule="winding" /><path transform="matrix(1 0 0 -1 0 842)" d="M79.44 268.94L79.92001 268.94L79.92001 268.94L79.92001 284.6L79.92001 284.6L79.44 284.6z" stroke="none" fill="#000000" fill-rule="winding" /><path transform="matrix(1 0 0 -1 0 842)" d="M141.54 268.94L142.02 268.94L142.02 268.94L142.02 284.6L142.02 284.6L141.54 284.6z" stroke="none" fill="#000000" fill-rule="winding" /><path transform="matrix(1 0 0 -1 0 842)" d="M212.46 268.94L212.94 268.94L212.94 268.94L212.94 284.6L212.94 284.6L212.46 284.6z" stroke="none" fill="#000000" fill-rule="winding" /><path transform="matrix(1 0 0 -1 0 842)" d="M403.8 268.94L404.28 268.94L404.28 268.94L404.28 284.6L404.28 284.6L403.8 284.6z" stroke="none" fill="#000000" fill-rule="winding" /><path transform="matrix(1 0 0 -1 0 842)" d="M505.56 268.94L506.04 268.94L506.04 268.94L506.04 284.6L506.04 284.6L505.56 284.6z" stroke="none" fill="#000000" fill-rule="winding" /><path transform="matrix(1 0 0 -1 0 842)" d="M79.44 268.46L404.28 268.46L404.28 268.46L404.28 268.94L404.28 268.94L79.44 268.94z" stroke="none" fill="#000000" fill-rule="winding" /><path transform="matrix(1 0 0 -1 0 842)" d="M505.56 268.46L506.04 268.46L506.04 268.46L506.04 268.94L506.04 268.94L505.56 268.94z" stroke="none" fill="#000000" fill-rule="winding" /><path transform="matrix(1 0 0 -1 0 842)" d="M79.44 252.86L79.92001 252.86L79.92001 252.86L79.92001 268.46L79.92001 268.46L79.44 268.46z" stroke="none" fill="#000000" fill-rule="winding" /><path transform="matrix(1 0 0 -1 0 842)" d="M141.54 252.86L142.02 252.86L142.02 252.86L142.02 268.46L142.02 268.46L141.54 268.46z" stroke="none" fill="#000000" fill-rule="winding" /><path transform="matrix(1 0 0 -1 0 842)" d="M212.46 252.86L212.94 252.86L212.94 252.86L212.94 268.46L212.94 268.46L212.46 268.46z" stroke="none" fill="#000000" fill-rule="winding" /><path transform="matrix(1 0 0 -1 0 842)" d="M403.8 252.86L404.28 252.86L404.28 252.86L404.28 268.46L404.28 268.46L403.8 268.46z" stroke="none" fill="#000000" fill-rule="winding" /><path transform="matrix(1 0 0 -1 0 842)" d="M505.56 252.86L506.04 252.86L506.04 252.86L506.04 268.46L506.04 268.46L505.56 268.46z" stroke="none" fill="#000000" fill-rule="winding" /><path transform="matrix(1 0 0 -1 0 842)" d="M79.44 252.38L404.28 252.38L404.28 252.38L404.28 252.86L404.28 252.86L79.44 252.86z" stroke="none" fill="#000000" fill-rule="winding" /><path transform="matrix(1 0 0 -1 0 842)" d="M505.56 252.38L506.04 252.38L506.04 252.38L506.04 252.86L506.04 252.86L505.56 252.86z" stroke="none" fill="#000000" fill-rule="winding" /><path transform="matrix(1 0 0 -1 0 842)" d="M79.44 236.78L79.92001 236.78L79.92001 236.78L79.92001 252.38L79.92001 252.38L79.44 252.38z" stroke="none" fill="#000000" fill-rule="winding" /><path transform="matrix(1 0 0 -1 0 842)" d="M141.54 236.78L142.02 236.78L142.02 236.78L142.02 252.38L142.02 252.38L141.54 252.38z" stroke="none" fill="#000000" fill-rule="winding" /><path transform="matrix(1 0 0 -1 0 842)" d="M212.46 236.78L212.94 236.78L212.94 236.78L212.94 252.38L212.94 252.38L212.46 252.38z" stroke="none" fill="#000000" fill-rule="winding" /><path transform="matrix(1 0 0 -1 0 842)" d="M403.8 236.78L404.28 236.78L404.28 236.78L404.28 252.38L404.28 252.38L403.8 252.38z" stroke="none" fill="#000000" fill-rule="winding" /><path transform="matrix(1 0 0 -1 0 842)" d="M505.56 236.78L506.04 236.78L506.04 236.78L506.04 252.38L506.04 252.38L505.56 252.38z" stroke="none" fill="#000000" fill-rule="winding" /><path transform="matrix(1 0 0 -1 0 842)" d="M79.44 236.3L404.28 236.3L404.28 236.3L404.28 236.78L404.28 236.78L79.44 236.78z" stroke="none" fill="#000000" fill-rule="winding" /><path transform="matrix(1 0 0 -1 0 842)" d="M404.28 236.78L505.56 236.78L505.56 236.78L505.56 236.3L505.56 236.3L404.28 236.3" stroke="none" fill="#000000" fill-rule="winding" /><path transform="matrix(1 0 0 -1 0 842)" d="M505.56 236.3L506.04 236.3L506.04 236.3L506.04 236.78L506.04 236.78L505.56 236.78z" stroke="none" fill="#000000" fill-rule="winding" /><path transform="matrix(1 0 0 -1 0 842)" d="M79.44 220.64L79.92001 220.64L79.92001 220.64L79.92001 236.3L79.92001 236.3L79.44 236.3z" stroke="none" fill="#000000" fill-rule="winding" /><path transform="matrix(1 0 0 -1 0 842)" d="M141.54 220.64L142.02 220.64L142.02 220.64L142.02 236.3L142.02 236.3L141.54 236.3z" stroke="none" fill="#000000" fill-rule="winding" /><path transform="matrix(1 0 0 -1 0 842)" d="M212.46 220.64L212.94 220.64L212.94 220.64L212.94 236.3L212.94 236.3L212.46 236.3z" stroke="none" fill="#000000" fill-rule="winding" /><path transform="matrix(1 0 0 -1 0 842)" d="M403.8 220.64L404.28 220.64L404.28 220.64L404.28 236.3L404.28 236.3L403.8 236.3z" stroke="none" fill="#000000" fill-rule="winding" /><path transform="matrix(1 0 0 -1 0 842)" d="M505.56 220.64L506.04 220.64L506.04 220.64L506.04 236.3L506.04 236.3L505.56 236.3z" stroke="none" fill="#000000" fill-rule="winding" /><path transform="matrix(1 0 0 -1 0 842)" d="M79.44 220.16L404.28 220.16L404.28 220.16L404.28 220.64L404.28 220.64L79.44 220.64z" stroke="none" fill="#000000" fill-rule="winding" /><path transform="matrix(1 0 0 -1 0 842)" d="M505.56 220.16L506.04 220.16L506.04 220.16L506.04 220.64L506.04 220.64L505.56 220.64z" stroke="none" fill="#000000" fill-rule="winding" /><path transform="matrix(1 0 0 -1 0 842)" d="M79.44 204.56L79.92001 204.56L79.92001 204.56L79.92001 220.16L79.92001 220.16L79.44 220.16z" stroke="none" fill="#000000" fill-rule="winding" /><path transform="matrix(1 0 0 -1 0 842)" d="M141.54 204.56L142.02 204.56L142.02 204.56L142.02 220.16L142.02 220.16L141.54 220.16z" stroke="none" fill="#000000" fill-rule="winding" /><path transform="matrix(1 0 0 -1 0 842)" d="M212.46 204.56L212.94 204.56L212.94 204.56L212.94 220.16L212.94 220.16L212.46 220.16z" stroke="none" fill="#000000" fill-rule="winding" /><path transform="matrix(1 0 0 -1 0 842)" d="M403.8 204.56L404.28 204.56L404.28 204.56L404.28 220.16L404.28 220.16L403.8 220.16z" stroke="none" fill="#000000" fill-rule="winding" /><path transform="matrix(1 0 0 -1 0 842)" d="M505.56 204.56L506.04 204.56L506.04 204.56L506.04 220.16L506.04 220.16L505.56 220.16z" stroke="none" fill="#000000" fill-rule="winding" /><path transform="matrix(1 0 0 -1 0 842)" d="M79.44 204.08L404.28 204.08L404.28 204.08L404.28 204.56L404.28 204.56L79.44 204.56z" stroke="none" fill="#000000" fill-rule="winding" /><path transform="matrix(1 0 0 -1 0 842)" d="M505.56 204.08L506.04 204.08L506.04 204.08L506.04 204.56L506.04 204.56L505.56 204.56z" stroke="none" fill="#000000" fill-rule="winding" /><path transform="matrix(1 0 0 -1 0 842)" d="M79.44 188.48L79.92001 188.48L79.92001 188.48L79.92001 204.08L79.92001 204.08L79.44 204.08z" stroke="none" fill="#000000" fill-rule="winding" /><path transform="matrix(1 0 0 -1 0 842)" d="M141.54 188.48L142.02 188.48L142.02 188.48L142.02 204.08L142.02 204.08L141.54 204.08z" stroke="none" fill="#000000" fill-rule="winding" /><path transform="matrix(1 0 0 -1 0 842)" d="M212.46 188.48L212.94 188.48L212.94 188.48L212.94 204.08L212.94 204.08L212.46 204.08z" stroke="none" fill="#000000" fill-rule="winding" /><path transform="matrix(1 0 0 -1 0 842)" d="M403.8 188.48L404.28 188.48L404.28 188.48L404.28 204.08L404.28 204.08L403.8 204.08z" stroke="none" fill="#000000" fill-rule="winding" /><path transform="matrix(1 0 0 -1 0 842)" d="M505.56 188.48L506.04 188.48L506.04 188.48L506.04 204.08L506.04 204.08L505.56 204.08z" stroke="none" fill="#000000" fill-rule="winding" /><path transform="matrix(1 0 0 -1 0 842)" d="M79.44 188L404.28 188L404.28 188L404.28 188.48L404.28 188.48L79.44 188.48z" stroke="none" fill="#000000" fill-rule="winding" /><path transform="matrix(1 0 0 -1 0 842)" d="M505.56 188L506.04 188L506.04 188L506.04 188.48L506.04 188.48L505.56 188.48z" stroke="none" fill="#000000" fill-rule="winding" /><path transform="matrix(1 0 0 -1 0 842)" d="M79.44 172.34L79.92001 172.34L79.92001 172.34L79.92001 188L79.92001 188L79.44 188z" stroke="none" fill="#000000" fill-rule="winding" /><path transform="matrix(1 0 0 -1 0 842)" d="M141.54 172.34L142.02 172.34L142.02 172.34L142.02 188L142.02 188L141.54 188z" stroke="none" fill="#000000" fill-rule="winding" /><path transform="matrix(1 0 0 -1 0 842)" d="M212.46 172.34L212.94 172.34L212.94 172.34L212.94 188L212.94 188L212.46 188z" stroke="none" fill="#000000" fill-rule="winding" /><path transform="matrix(1 0 0 -1 0 842)" d="M403.8 172.34L404.28 172.34L404.28 172.34L404.28 188L404.28 188L403.8 188z" stroke="none" fill="#000000" fill-rule="winding" /><path transform="matrix(1 0 0 -1 0 842)" d="M505.56 172.34L506.04 172.34L506.04 172.34L506.04 188L506.04 188L505.56 188z" stroke="none" fill="#000000" fill-rule="winding" /><path transform="matrix(1 0 0 -1 0 842)" d="M79.44 171.86L404.28 171.86L404.28 171.86L404.28 172.34L404.28 172.34L79.44 172.34z" stroke="none" fill="#000000" fill-rule="winding" /><path transform="matrix(1 0 0 -1 0 842)" d="M505.56 171.86L506.04 171.86L506.04 171.86L506.04 172.34L506.04 172.34L505.56 172.34z" stroke="none" fill="#000000" fill-rule="winding" /><path transform="matrix(1 0 0 -1 0 842)" d="M79.44 156.26L79.92001 156.26L79.92001 156.26L79.92001 171.86L79.92001 171.86L79.44 171.86z" stroke="none" fill="#000000" fill-rule="winding" /><path transform="matrix(1 0 0 -1 0 842)" d="M141.54 156.26L142.02 156.26L142.02 156.26L142.02 171.86L142.02 171.86L141.54 171.86z" stroke="none" fill="#000000" fill-rule="winding" /><path transform="matrix(1 0 0 -1 0 842)" d="M212.46 156.26L212.94 156.26L212.94 156.26L212.94 171.86L212.94 171.86L212.46 171.86z" stroke="none" fill="#000000" fill-rule="winding" /><path transform="matrix(1 0 0 -1 0 842)" d="M403.8 156.26L404.28 156.26L404.28 156.26L404.28 171.86L404.28 171.86L403.8 171.86z" stroke="none" fill="#000000" fill-rule="winding" /><path transform="matrix(1 0 0 -1 0 842)" d="M505.56 156.26L506.04 156.26L506.04 156.26L506.04 171.86L506.04 171.86L505.56 171.86z" stroke="none" fill="#000000" fill-rule="winding" /><path transform="matrix(1 0 0 -1 0 842)" d="M79.44 155.78L404.28 155.78L404.28 155.78L404.28 156.26L404.28 156.26L79.44 156.26z" stroke="none" fill="#000000" fill-rule="winding" /><path transform="matrix(1 0 0 -1 0 842)" d="M505.56 155.78L506.04 155.78L506.04 155.78L506.04 156.26L506.04 156.26L505.56 156.26z" stroke="none" fill="#000000" fill-rule="winding" /><path transform="matrix(1 0 0 -1 0 842)" d="M79.44 140.18L79.92001 140.18L79.92001 140.18L79.92001 155.78L79.92001 155.78L79.44 155.78z" stroke="none" fill="#000000" fill-rule="winding" /><path transform="matrix(1 0 0 -1 0 842)" d="M141.54 140.18L142.02 140.18L142.02 140.18L142.02 155.78L142.02 155.78L141.54 155.78z" stroke="none" fill="#000000" fill-rule="winding" /><path transform="matrix(1 0 0 -1 0 842)" d="M212.46 140.18L212.94 140.18L212.94 140.18L212.94 155.78L212.94 155.78L212.46 155.78z" stroke="none" fill="#000000" fill-rule="winding" /><path transform="matrix(1 0 0 -1 0 842)" d="M403.8 140.18L404.28 140.18L404.28 140.18L404.28 155.78L404.28 155.78L403.8 155.78z" stroke="none" fill="#000000" fill-rule="winding" /><path transform="matrix(1 0 0 -1 0 842)" d="M505.56 140.18L506.04 140.18L506.04 140.18L506.04 155.78L506.04 155.78L505.56 155.78z" stroke="none" fill="#000000" fill-rule="winding" /><path transform="matrix(1 0 0 -1 0 842)" d="M79.44 139.7L404.28 139.7L404.28 139.7L404.28 140.18L404.28 140.18L79.44 140.18z" stroke="none" fill="#000000" fill-rule="winding" /><path transform="matrix(1 0 0 -1 0 842)" d="M505.56 139.7L506.04 139.7L506.04 139.7L506.04 140.18L506.04 140.18L505.56 140.18z" stroke="none" fill="#000000" fill-rule="winding" /><path transform="matrix(1 0 0 -1 0 842)" d="M79.44 124.04L79.92001 124.04L79.92001 124.04L79.92001 139.7L79.92001 139.7L79.44 139.7z" stroke="none" fill="#000000" fill-rule="winding" /><path transform="matrix(1 0 0 -1 0 842)" d="M141.54 124.04L142.02 124.04L142.02 124.04L142.02 139.7L142.02 139.7L141.54 139.7z" stroke="none" fill="#000000" fill-rule="winding" /><path transform="matrix(1 0 0 -1 0 842)" d="M212.46 124.04L212.94 124.04L212.94 124.04L212.94 139.7L212.94 139.7L212.46 139.7z" stroke="none" fill="#000000" fill-rule="winding" /><path transform="matrix(1 0 0 -1 0 842)" d="M403.8 124.04L404.28 124.04L404.28 124.04L404.28 139.7L404.28 139.7L403.8 139.7z" stroke="none" fill="#000000" fill-rule="winding" /><path transform="matrix(1 0 0 -1 0 842)" d="M505.56 124.04L506.04 124.04L506.04 124.04L506.04 139.7L506.04 139.7L505.56 139.7z" stroke="none" fill="#000000" fill-rule="winding" /><path transform="matrix(1 0 0 -1 0 842)" d="M79.44 123.56L404.28 123.56L404.28 123.56L404.28 124.04L404.28 124.04L79.44 124.04z" stroke="none" fill="#000000" fill-rule="winding" /><path transform="matrix(1 0 0 -1 0 842)" d="M505.56 123.56L506.04 123.56L506.04 123.56L506.04 124.04L506.04 124.04L505.56 124.04z" stroke="none" fill="#000000" fill-rule="winding" /><path transform="matrix(1 0 0 -1 0 842)" d="M79.44 107.96L79.92001 107.96L79.92001 107.96L79.92001 123.56L79.92001 123.56L79.44 123.56z" stroke="none" fill="#000000" fill-rule="winding" /><path transform="matrix(1 0 0 -1 0 842)" d="M141.54 107.96L142.02 107.96L142.02 107.96L142.02 123.56L142.02 123.56L141.54 123.56z" stroke="none" fill="#000000" fill-rule="winding" /><path transform="matrix(1 0 0 -1 0 842)" d="M212.46 107.96L212.94 107.96L212.94 107.96L212.94 123.56L212.94 123.56L212.46 123.56z" stroke="none" fill="#000000" fill-rule="winding" /><path transform="matrix(1 0 0 -1 0 842)" d="M403.8 107.96L404.28 107.96L404.28 107.96L404.28 123.56L404.28 123.56L403.8 123.56z" stroke="none" fill="#000000" fill-rule="winding" /><path transform="matrix(1 0 0 -1 0 842)" d="M505.56 107.96L506.04 107.96L506.04 107.96L506.04 123.56L506.04 123.56L505.56 123.56z" stroke="none" fill="#000000" fill-rule="winding" /><path transform="matrix(1 0 0 -1 0 842)" d="M79.44 107.48L404.28 107.48L404.28 107.48L404.28 107.96L404.28 107.96L79.44 107.96z" stroke="none" fill="#000000" fill-rule="winding" /><path transform="matrix(1 0 0 -1 0 842)" d="M505.56 107.48L506.04 107.48L506.04 107.48L506.04 107.96L506.04 107.96L505.56 107.96z" stroke="none" fill="#000000" fill-rule="winding" /><path transform="matrix(1 0 0 -1 0 842)" d="M79.44 91.88L79.92001 91.88L79.92001 91.88L79.92001 107.48L79.92001 107.48L79.44 107.48z" stroke="none" fill="#000000" fill-rule="winding" /><path transform="matrix(1 0 0 -1 0 842)" d="M141.54 91.88L142.02 91.88L142.02 91.88L142.02 107.48L142.02 107.48L141.54 107.48z" stroke="none" fill="#000000" fill-rule="winding" /><path transform="matrix(1 0 0 -1 0 842)" d="M212.46 91.88L212.94 91.88L212.94 91.88L212.94 107.48L212.94 107.48L212.46 107.48z" stroke="none" fill="#000000" fill-rule="winding" /><path transform="matrix(1 0 0 -1 0 842)" d="M403.8 91.88L404.28 91.88L404.28 91.88L404.28 107.48L404.28 107.48L403.8 107.48z" stroke="none" fill="#000000" fill-rule="winding" /><path transform="matrix(1 0 0 -1 0 842)" d="M505.56 91.88L506.04 91.88L506.04 91.88L506.04 107.48L506.04 107.48L505.56 107.48z" stroke="none" fill="#000000" fill-rule="winding" /><path transform="matrix(1 0 0 -1 0 842)" d="M79.44 91.4L404.28 91.4L404.28 91.4L404.28 91.88001L404.28 91.88001L79.44 91.88001z" stroke="none" fill="#000000" fill-rule="winding" /><path transform="matrix(1 0 0 -1 0 842)" d="M505.56 91.4L506.04 91.4L506.04 91.4L506.04 91.88001L506.04 91.88001L505.56 91.88001z" stroke="none" fill="#000000" fill-rule="winding" /><path transform="matrix(1 0 0 -1 0 842)" d="M79.44 75.74L79.92001 75.74L79.92001 75.74L79.92001 91.39999L79.92001 91.39999L79.44 91.39999z" stroke="none" fill="#000000" fill-rule="winding" /><path transform="matrix(1 0 0 -1 0 842)" d="M141.54 75.74L142.02 75.74L142.02 75.74L142.02 91.39999L142.02 91.39999L141.54 91.39999z" stroke="none" fill="#000000" fill-rule="winding" /><path transform="matrix(1 0 0 -1 0 842)" d="M212.46 75.74L212.94 75.74L212.94 75.74L212.94 91.39999L212.94 91.39999L212.46 91.39999z" stroke="none" fill="#000000" fill-rule="winding" /><path transform="matrix(1 0 0 -1 0 842)" d="M403.8 75.74L404.28 75.74L404.28 75.74L404.28 91.39999L404.28 91.39999L403.8 91.39999z" stroke="none" fill="#000000" fill-rule="winding" /><path transform="matrix(1 0 0 -1 0 842)" d="M505.56 75.74L506.04 75.74L506.04 75.74L506.04 91.39999L506.04 91.39999L505.56 91.39999z" stroke="none" fill="#000000" fill-rule="winding" /><path transform="matrix(1 0 0 -1 0 842)" d="M79.44 75.26L404.28 75.26L404.28 75.26L404.28 75.73998L404.28 75.73998L79.44 75.73998z" stroke="none" fill="#000000" fill-rule="winding" /><path transform="matrix(1 0 0 -1 0 842)" d="M505.56 75.26L506.04 75.26L506.04 75.26L506.04 75.73998L506.04 75.73998L505.56 75.73998z" stroke="none" fill="#000000" fill-rule="winding" /><path transform="matrix(1 0 0 -1 0 842)" d="M79.44 59.18L79.92001 59.18L79.92001 59.18L79.92001 75.26L79.92001 75.26L79.44 75.26z" stroke="none" fill="#000000" fill-rule="winding" /><path transform="matrix(1 0 0 -1 0 842)" d="M79.44 59.18L141.54 59.18L141.54 59.18L141.54 59.66001L141.54 59.66001L79.44 59.66001z" stroke="none" fill="#000000" fill-rule="winding" /><path transform="matrix(1 0 0 -1 0 842)" d="M141.54 59.18L142.02 59.18L142.02 59.18L142.02 75.26L142.02 75.26L141.54 75.26z" stroke="none" fill="#000000" fill-rule="winding" /><path transform="matrix(1 0 0 -1 0 842)" d="M142.02 59.18L212.46 59.18L212.46 59.18L212.46 59.66001L212.46 59.66001L142.02 59.66001z" stroke="none" fill="#000000" fill-rule="winding" /><path transform="matrix(1 0 0 -1 0 842)" d="M212.46 59.18L212.94 59.18L212.94 59.18L212.94 75.26L212.94 75.26L212.46 75.26z" stroke="none" fill="#000000" fill-rule="winding" /><path transform="matrix(1 0 0 -1 0 842)" d="M212.94 59.18L403.8 59.18L403.8 59.18L403.8 59.66001L403.8 59.66001L212.94 59.66001z" stroke="none" fill="#000000" fill-rule="winding" /><path transform="matrix(1 0 0 -1 0 842)" d="M403.8 59.18L404.28 59.18L404.28 59.18L404.28 75.26L404.28 75.26L403.8 75.26z" stroke="none" fill="#000000" fill-rule="winding" /><path transform="matrix(1 0 0 -1 0 842)" d="M404.28 59.66L505.56 59.66L505.56 59.66L505.56 59.18L505.56 59.18L404.28 59.18" stroke="none" fill="#000000" fill-rule="winding" /><path transform="matrix(1 0 0 -1 0 842)" d="M505.56 59.18L506.04 59.18L506.04 59.18L506.04 75.26L506.04 75.26L505.56 75.26z" stroke="none" fill="#000000" fill-rule="winding" /><path transform="matrix(1 0 0 -1 0 842)" d="M505.56 59.18L506.04 59.18L506.04 59.18L506.04 59.66001L506.04 59.66001L505.56 59.66001z" stroke="none" fill="#000000" fill-rule="winding" /></g></g></g></svg>