<svg xmlns="http://www.w3.org/2000/svg" xmlns:xlink="http://www.w3.org/1999/xlink" id="body_2" preserveAspectRatio="xMinYMin meet" viewBox="0 0 793 1123"><defs><clipPath id="1"><path d="M0 842L0 0L0 0L595.22 0L595.22 0L595.22 842L595.22 842L0 842z" /></clipPath></defs><g transform="matrix(1.333333 0 0 1.333333 0 0)"><g><g clip-path="url(#1)"><g transform="matrix(0.4798529 0 0 0.476 85.08 28.37994)"><g transform="matrix(1 0 0 1 0 0)"><image x="0" y="0" xlink:href="img_01.png" width="34" height="30" /></g></g><path transform="matrix(1 0 0 -1 0 842)" d="M83.58 795.02L511.8 795.02L511.8 795.02L511.8 795.7401L511.8 795.7401L83.58 795.7401z" stroke="none" fill="#000000" fill-rule="winding" /><path transform="matrix(1 0 0 -1 0 842)" d="M79.44 784.82L79.92001 784.82L79.92001 784.82L79.92001 785.3L79.92001 785.3L79.44 785.3z" stroke="none" fill="#000000" fill-rule="winding" /><path transform="matrix(1 0 0 -1 0 842)" d="M79.44 784.82L506.04 784.82L506.04 784.82L506.04 785.3L506.04 785.3L79.44 785.3z" stroke="none" fill="#000000" fill-rule="winding" /><path transform="matrix(1 0 0 -1 0 842)" d="M505.56 784.82L506.04 784.82L506.04 784.82L506.04 785.3L506.04 785.3L505.56 785.3z" stroke="none" fill="#000000" fill-rule="winding" /><path transform="matrix(1 0 0 -1 0 842)" d="M79.44 769.22L79.92001 769.22L79.92001 769.22L79.92001 784.8199L79.92001 784.8199L79.44 784.8199z" stroke="none" fill="#000000" fill-rule="winding" /><path transform="matrix(1 0 0 -1 0 842)" d="M141.54 769.22L142.02 769.22L142.02 769.22L142.02 784.8199L142.02 784.8199L141.54 784.8199z" stroke="none" fill="#000000" fill-rule="winding" /><path transform="matrix(1 0 0 -1 0 842)" d="M212.46 769.22L212.94 769.22L212.94 769.22L212.94 784.8199L212.94 784.8199L212.46 784.8199z" stroke="none" fill="#000000" fill-rule="winding" /><path transform="matrix(1 0 0 -1 0 842)" d="M375.42 769.22L375.9 769.22L375.9 769.22L375.9 784.8199L375.9 784.8199L375.42 784.8199z" stroke="none" fill="#000000" fill-rule="winding" /><path transform="matrix(1 0 0 -1 0 842)" d="M505.56 769.22L506.04 769.22L506.04 769.22L506.04 784.8199L506.04 784.8199L505.56 784.8199z" stroke="none" fill="#000000" fill-rule="winding" /><path transform="matrix(1 0 0 -1 0 842)" d="M79.44 768.74L506.04 768.74L506.04 768.74L506.04 769.22L506.04 769.22L79.44 769.22z" stroke="none" fill="#000000" fill-rule="winding" /><path transform="matrix(1 0 0 -1 0 842)" d="M79.44 737.48L79.92001 737.48L79.92001 737.48L79.92001 768.74L79.92001 768.74L79.44 768.74z" stroke="none" fill="#000000" fill-rule="winding" /><path transform="matrix(1 0 0 -1 0 842)" d="M141.54 737.48L142.02 737.48L142.02 737.48L142.02 768.74L142.02 768.74L141.54 768.74z" stroke="none" fill="#000000" fill-rule="winding" /><path transform="matrix(1 0 0 -1 0 842)" d="M212.46 737.48L212.94 737.48L212.94 737.48L212.94 768.74L212.94 768.74L212.46 768.74z" stroke="none" fill="#000000" fill-rule="winding" /><path transform="matrix(1 0 0 -1 0 842)" d="M375.42 737.48L375.9 737.48L375.9 737.48L375.9 768.74L375.9 768.74L375.42 768.74z" stroke="none" fill="#000000" fill-rule="winding" /><path transform="matrix(1 0 0 -1 0 842)" d="M505.56 737.48L506.04 737.48L506.04 737.48L506.04 768.74L506.04 768.74L505.56 768.74z" stroke="none" fill="#000000" fill-rule="winding" /><path transform="matrix(1 0 0 -1 0 842)" d="M79.44 737L506.04 737L506.04 737L506.04 737.48L506.04 737.48L79.44 737.48z" stroke="none" fill="#000000" fill-rule="winding" /><path transform="matrix(1 0 0 -1 0 842)" d="M79.44 721.4L79.92001 721.4L79.92001 721.4L79.92001 737L79.92001 737L79.44 737z" stroke="none" fill="#000000" fill-rule="winding" /><path transform="matrix(1 0 0 -1 0 842)" d="M141.54 721.4L142.02 721.4L142.02 721.4L142.02 737L142.02 737L141.54 737z" stroke="none" fill="#000000" fill-rule="winding" /><path transform="matrix(1 0 0 -1 0 842)" d="M212.46 721.4L212.94 721.4L212.94 721.4L212.94 737L212.94 737L212.46 737z" stroke="none" fill="#000000" fill-rule="winding" /><path transform="matrix(1 0 0 -1 0 842)" d="M375.42 721.4L375.9 721.4L375.9 721.4L375.9 737L375.9 737L375.42 737z" stroke="none" fill="#000000" fill-rule="winding" /><path transform="matrix(1 0 0 -1 0 842)" d="M505.56 721.4L506.04 721.4L506.04 721.4L506.04 737L506.04 737L505.56 737z" stroke="none" fill="#000000" fill-rule="winding" /><path transform="matrix(1 0 0 -1 0 842)" d="M79.44 720.92L375.9 720.92L375.9 720.92L375.9 721.4L375.9 721.4L79.44 721.4z" stroke="none" fill="#000000" fill-rule="winding" /><path transform="matrix(1 0 0 -1 0 842)" d="M505.56 720.92L506.04 720.92L506.04 720.92L506.04 721.4L506.04 721.4L505.56 721.4z" stroke="none" fill="#000000" fill-rule="winding" /><path transform="matrix(1 0 0 -1 0 842)" d="M79.44 705.32L79.92001 705.32L79.92001 705.32L79.92001 720.92L79.92001 720.92L79.44 720.92z" stroke="none" fill="#000000" fill-rule="winding" /><path transform="matrix(1 0 0 -1 0 842)" d="M141.54 705.32L142.02 705.32L142.02 705.32L142.02 720.92L142.02 720.92L141.54 720.92z" stroke="none" fill="#000000" fill-rule="winding" /><path transform="matrix(1 0 0 -1 0 842)" d="M212.46 705.32L212.94 705.32L212.94 705.32L212.94 720.92L212.94 720.92L212.46 720.92z" stroke="none" fill="#000000" fill-rule="winding" /><path transform="matrix(1 0 0 -1 0 842)" d="M375.42 705.32L375.9 705.32L375.9 705.32L375.9 720.92L375.9 720.92L375.42 720.92z" stroke="none" fill="#000000" fill-rule="winding" /><path transform="matrix(1 0 0 -1 0 842)" d="M505.56 705.32L506.04 705.32L506.04 705.32L506.04 720.92L506.04 720.92L505.56 720.92z" stroke="none" fill="#000000" fill-rule="winding" /><path transform="matrix(1 0 0 -1 0 842)" d="M79.44 704.84L375.9 704.84L375.9 704.84L375.9 705.32L375.9 705.32L79.44 705.32z" stroke="none" fill="#000000" fill-rule="winding" /><path transform="matrix(1 0 0 -1 0 842)" d="M505.56 704.84L506.04 704.84L506.04 704.84L506.04 705.32L506.04 705.32L505.56 705.32z" stroke="none" fill="#000000" fill-rule="winding" /><path transform="matrix(1 0 0 -1 0 842)" d="M79.44 689.18L79.92001 689.18L79.92001 689.18L79.92001 704.84L79.92001 704.84L79.44 704.84z" stroke="none" fill="#000000" fill-rule="winding" /><path transform="matrix(1 0 0 -1 0 842)" d="M141.54 689.18L142.02 689.18L142.02 689.18L142.02 704.84L142.02 704.84L141.54 704.84z" stroke="none" fill="#000000" fill-rule="winding" /><path transform="matrix(1 0 0 -1 0 842)" d="M212.46 689.18L212.94 689.18L212.94 689.18L212.94 704.84L212.94 704.84L212.46 704.84z" stroke="none" fill="#000000" fill-rule="winding" /><path transform="matrix(1 0 0 -1 0 842)" d="M375.42 689.18L375.9 689.18L375.9 689.18L375.9 704.84L375.9 704.84L375.42 704.84z" stroke="none" fill="#000000" fill-rule="winding" /><path transform="matrix(1 0 0 -1 0 842)" d="M505.56 689.18L506.04 689.18L506.04 689.18L506.04 704.84L506.04 704.84L505.56 704.84z" stroke="none" fill="#000000" fill-rule="winding" /><path transform="matrix(1 0 0 -1 0 842)" d="M79.44 688.7L375.9 688.7L375.9 688.7L375.9 689.18L375.9 689.18L79.44 689.18z" stroke="none" fill="#000000" fill-rule="winding" /><path transform="matrix(1 0 0 -1 0 842)" d="M505.56 688.7L506.04 688.7L506.04 688.7L506.04 689.18L506.04 689.18L505.56 689.18z" stroke="none" fill="#000000" fill-rule="winding" /><path transform="matrix(1 0 0 -1 0 842)" d="M79.44 673.1L79.92001 673.1L79.92001 673.1L79.92001 688.7L79.92001 688.7L79.44 688.7z" stroke="none" fill="#000000" fill-rule="winding" /><path transform="matrix(1 0 0 -1 0 842)" d="M141.54 673.1L142.02 673.1L142.02 673.1L142.02 688.7L142.02 688.7L141.54 688.7z" stroke="none" fill="#000000" fill-rule="winding" /><path transform="matrix(1 0 0 -1 0 842)" d="M212.46 673.1L212.94 673.1L212.94 673.1L212.94 688.7L212.94 688.7L212.46 688.7z" stroke="none" fill="#000000" fill-rule="winding" /><path transform="matrix(1 0 0 -1 0 842)" d="M375.42 673.1L375.9 673.1L375.9 673.1L375.9 688.7L375.9 688.7L375.42 688.7z" stroke="none" fill="#000000" fill-rule="winding" /><path transform="matrix(1 0 0 -1 0 842)" d="M505.56 673.1L506.04 673.1L506.04 673.1L506.04 688.7L506.04 688.7L505.56 688.7z" stroke="none" fill="#000000" fill-rule="winding" /><path transform="matrix(1 0 0 -1 0 842)" d="M79.44 672.62L506.04 672.62L506.04 672.62L506.04 673.1L506.04 673.1L79.44 673.1z" stroke="none" fill="#000000" fill-rule="winding" /><path transform="matrix(1 0 0 -1 0 842)" d="M79.44 657.02L79.92001 657.02L79.92001 657.02L79.92001 672.62L79.92001 672.62L79.44 672.62z" stroke="none" fill="#000000" fill-rule="winding" /><path transform="matrix(1 0 0 -1 0 842)" d="M141.54 657.02L142.02 657.02L142.02 657.02L142.02 672.62L142.02 672.62L141.54 672.62z" stroke="none" fill="#000000" fill-rule="winding" /><path transform="matrix(1 0 0 -1 0 842)" d="M212.46 657.02L212.94 657.02L212.94 657.02L212.94 672.62L212.94 672.62L212.46 672.62z" stroke="none" fill="#000000" fill-rule="winding" /><path transform="matrix(1 0 0 -1 0 842)" d="M375.42 657.02L375.9 657.02L375.9 657.02L375.9 672.62L375.9 672.62L375.42 672.62z" stroke="none" fill="#000000" fill-rule="winding" /><path transform="matrix(1 0 0 -1 0 842)" d="M505.56 657.02L506.04 657.02L506.04 657.02L506.04 672.62L506.04 672.62L505.56 672.62z" stroke="none" fill="#000000" fill-rule="winding" /><path transform="matrix(1 0 0 -1 0 842)" d="M79.44 656.54L375.9 656.54L375.9 656.54L375.9 657.02L375.9 657.02L79.44 657.02z" stroke="none" fill="#000000" fill-rule="winding" /><path transform="matrix(1 0 0 -1 0 842)" d="M505.56 656.54L506.04 656.54L506.04 656.54L506.04 657.02L506.04 657.02L505.56 657.02z" stroke="none" fill="#000000" fill-rule="winding" /><path transform="matrix(1 0 0 -1 0 842)" d="M79.44 640.88L79.92001 640.88L79.92001 640.88L79.92001 656.54L79.92001 656.54L79.44 656.54z" stroke="none" fill="#000000" fill-rule="winding" /><path transform="matrix(1 0 0 -1 0 842)" d="M141.54 640.88L142.02 640.88L142.02 640.88L142.02 656.54L142.02 656.54L141.54 656.54z" stroke="none" fill="#000000" fill-rule="winding" /><path transform="matrix(1 0 0 -1 0 842)" d="M212.46 640.88L212.94 640.88L212.94 640.88L212.94 656.54L212.94 656.54L212.46 656.54z" stroke="none" fill="#000000" fill-rule="winding" /><path transform="matrix(1 0 0 -1 0 842)" d="M375.42 640.88L375.9 640.88L375.9 640.88L375.9 656.54L375.9 656.54L375.42 656.54z" stroke="none" fill="#000000" fill-rule="winding" /><path transform="matrix(1 0 0 -1 0 842)" d="M505.56 640.88L506.04 640.88L506.04 640.88L506.04 656.54L506.04 656.54L505.56 656.54z" stroke="none" fill="#000000" fill-rule="winding" /><path transform="matrix(1 0 0 -1 0 842)" d="M79.44 640.4L375.9 640.4L375.9 640.4L375.9 640.88L375.9 640.88L79.44 640.88z" stroke="none" fill="#000000" fill-rule="winding" /><path transform="matrix(1 0 0 -1 0 842)" d="M505.56 640.4L506.04 640.4L506.04 640.4L506.04 640.88L506.04 640.88L505.56 640.88z" stroke="none" fill="#000000" fill-rule="winding" /><path transform="matrix(1 0 0 -1 0 842)" d="M79.44 624.8L79.92001 624.8L79.92001 624.8L79.92001 640.4L79.92001 640.4L79.44 640.4z" stroke="none" fill="#000000" fill-rule="winding" /><path transform="matrix(1 0 0 -1 0 842)" d="M141.54 624.8L142.02 624.8L142.02 624.8L142.02 640.4L142.02 640.4L141.54 640.4z" stroke="none" fill="#000000" fill-rule="winding" /><path transform="matrix(1 0 0 -1 0 842)" d="M212.46 624.8L212.94 624.8L212.94 624.8L212.94 640.4L212.94 640.4L212.46 640.4z" stroke="none" fill="#000000" fill-rule="winding" /><path transform="matrix(1 0 0 -1 0 842)" d="M375.42 624.8L375.9 624.8L375.9 624.8L375.9 640.4L375.9 640.4L375.42 640.4z" stroke="none" fill="#000000" fill-rule="winding" /><path transform="matrix(1 0 0 -1 0 842)" d="M505.56 624.8L506.04 624.8L506.04 624.8L506.04 640.4L506.04 640.4L505.56 640.4z" stroke="none" fill="#000000" fill-rule="winding" /><path transform="matrix(1 0 0 -1 0 842)" d="M79.44 624.32L375.9 624.32L375.9 624.32L375.9 624.8L375.9 624.8L79.44 624.8z" stroke="none" fill="#000000" fill-rule="winding" /><path transform="matrix(1 0 0 -1 0 842)" d="M505.56 624.32L506.04 624.32L506.04 624.32L506.04 624.8L506.04 624.8L505.56 624.8z" stroke="none" fill="#000000" fill-rule="winding" /><path transform="matrix(1 0 0 -1 0 842)" d="M79.44 608.72L79.92001 608.72L79.92001 608.72L79.92001 624.3199L79.92001 624.3199L79.44 624.3199z" stroke="none" fill="#000000" fill-rule="winding" /><path transform="matrix(1 0 0 -1 0 842)" d="M141.54 608.72L142.02 608.72L142.02 608.72L142.02 624.3199L142.02 624.3199L141.54 624.3199z" stroke="none" fill="#000000" fill-rule="winding" /><path transform="matrix(1 0 0 -1 0 842)" d="M212.46 608.72L212.94 608.72L212.94 608.72L212.94 624.3199L212.94 624.3199L212.46 624.3199z" stroke="none" fill="#000000" fill-rule="winding" /><path transform="matrix(1 0 0 -1 0 842)" d="M375.42 608.72L375.9 608.72L375.9 608.72L375.9 624.3199L375.9 624.3199L375.42 624.3199z" stroke="none" fill="#000000" fill-rule="winding" /><path transform="matrix(1 0 0 -1 0 842)" d="M505.56 608.72L506.04 608.72L506.04 608.72L506.04 624.3199L506.04 624.3199L505.56 624.3199z" stroke="none" fill="#000000" fill-rule="winding" /><path transform="matrix(1 0 0 -1 0 842)" d="M79.44 608.24L375.9 608.24L375.9 608.24L375.9 608.72L375.9 608.72L79.44 608.72z" stroke="none" fill="#000000" fill-rule="winding" /><path transform="matrix(1 0 0 -1 0 842)" d="M505.56 608.24L506.04 608.24L506.04 608.24L506.04 608.72L506.04 608.72L505.56 608.72z" stroke="none" fill="#000000" fill-rule="winding" /><path transform="matrix(1 0 0 -1 0 842)" d="M79.44 592.58L79.92001 592.58L79.92001 592.58L79.92001 608.24L79.92001 608.24L79.44 608.24z" stroke="none" fill="#000000" fill-rule="winding" /><path transform="matrix(1 0 0 -1 0 842)" d="M141.54 592.58L142.02 592.58L142.02 592.58L142.02 608.24L142.02 608.24L141.54 608.24z" stroke="none" fill="#000000" fill-rule="winding" /><path transform="matrix(1 0 0 -1 0 842)" d="M212.46 592.58L212.94 592.58L212.94 592.58L212.94 608.24L212.94 608.24L212.46 608.24z" stroke="none" fill="#000000" fill-rule="winding" /><path transform="matrix(1 0 0 -1 0 842)" d="M375.42 592.58L375.9 592.58L375.9 592.58L375.9 608.24L375.9 608.24L375.42 608.24z" stroke="none" fill="#000000" fill-rule="winding" /><path transform="matrix(1 0 0 -1 0 842)" d="M505.56 592.58L506.04 592.58L506.04 592.58L506.04 608.24L506.04 608.24L505.56 608.24z" stroke="none" fill="#000000" fill-rule="winding" /><path transform="matrix(1 0 0 -1 0 842)" d="M79.44 592.1L375.9 592.1L375.9 592.1L375.9 592.58L375.9 592.58L79.44 592.58z" stroke="none" fill="#000000" fill-rule="winding" /><path transform="matrix(1 0 0 -1 0 842)" d="M505.56 592.1L506.04 592.1L506.04 592.1L506.04 592.58L506.04 592.58L505.56 592.58z" stroke="none" fill="#000000" fill-rule="winding" /><path transform="matrix(1 0 0 -1 0 842)" d="M79.44 576.5L79.92001 576.5L79.92001 576.5L79.92001 592.1L79.92001 592.1L79.44 592.1z" stroke="none" fill="#000000" fill-rule="winding" /><path transform="matrix(1 0 0 -1 0 842)" d="M141.54 576.5L142.02 576.5L142.02 576.5L142.02 592.1L142.02 592.1L141.54 592.1z" stroke="none" fill="#000000" fill-rule="winding" /><path transform="matrix(1 0 0 -1 0 842)" d="M212.46 576.5L212.94 576.5L212.94 576.5L212.94 592.1L212.94 592.1L212.46 592.1z" stroke="none" fill="#000000" fill-rule="winding" /><path transform="matrix(1 0 0 -1 0 842)" d="M375.42 576.5L375.9 576.5L375.9 576.5L375.9 592.1L375.9 592.1L375.42 592.1z" stroke="none" fill="#000000" fill-rule="winding" /><path transform="matrix(1 0 0 -1 0 842)" d="M505.56 576.5L506.04 576.5L506.04 576.5L506.04 592.1L506.04 592.1L505.56 592.1z" stroke="none" fill="#000000" fill-rule="winding" /><path transform="matrix(1 0 0 -1 0 842)" d="M79.44 576.02L375.9 576.02L375.9 576.02L375.9 576.5001L375.9 576.5001L79.44 576.5001z" stroke="none" fill="#000000" fill-rule="winding" /><path transform="matrix(1 0 0 -1 0 842)" d="M505.56 576.02L506.04 576.02L506.04 576.02L506.04 576.5001L506.04 576.5001L505.56 576.5001z" stroke="none" fill="#000000" fill-rule="winding" /><path transform="matrix(1 0 0 -1 0 842)" d="M79.44 560.42L79.92001 560.42L79.92001 560.42L79.92001 576.02L79.92001 576.02L79.44 576.02z" stroke="none" fill="#000000" fill-rule="winding" /><path transform="matrix(1 0 0 -1 0 842)" d="M141.54 560.42L142.02 560.42L142.02 560.42L142.02 576.02L142.02 576.02L141.54 576.02z" stroke="none" fill="#000000" fill-rule="winding" /><path transform="matrix(1 0 0 -1 0 842)" d="M212.46 560.42L212.94 560.42L212.94 560.42L212.94 576.02L212.94 576.02L212.46 576.02z" stroke="none" fill="#000000" fill-rule="winding" /><path transform="matrix(1 0 0 -1 0 842)" d="M375.42 560.42L375.9 560.42L375.9 560.42L375.9 576.02L375.9 576.02L375.42 576.02z" stroke="none" fill="#000000" fill-rule="winding" /><path transform="matrix(1 0 0 -1 0 842)" d="M505.56 560.42L506.04 560.42L506.04 560.42L506.04 576.02L506.04 576.02L505.56 576.02z" stroke="none" fill="#000000" fill-rule="winding" /><path transform="matrix(1 0 0 -1 0 842)" d="M79.44 559.94L375.9 559.94L375.9 559.94L375.9 560.42L375.9 560.42L79.44 560.42z" stroke="none" fill="#000000" fill-rule="winding" /><path transform="matrix(1 0 0 -1 0 842)" d="M505.56 559.94L506.04 559.94L506.04 559.94L506.04 560.42L506.04 560.42L505.56 560.42z" stroke="none" fill="#000000" fill-rule="winding" /><path transform="matrix(1 0 0 -1 0 842)" d="M79.44 544.28L79.92001 544.28L79.92001 544.28L79.92001 559.94L79.92001 559.94L79.44 559.94z" stroke="none" fill="#000000" fill-rule="winding" /><path transform="matrix(1 0 0 -1 0 842)" d="M141.54 544.28L142.02 544.28L142.02 544.28L142.02 559.94L142.02 559.94L141.54 559.94z" stroke="none" fill="#000000" fill-rule="winding" /><path transform="matrix(1 0 0 -1 0 842)" d="M212.46 544.28L212.94 544.28L212.94 544.28L212.94 559.94L212.94 559.94L212.46 559.94z" stroke="none" fill="#000000" fill-rule="winding" /><path transform="matrix(1 0 0 -1 0 842)" d="M375.42 544.28L375.9 544.28L375.9 544.28L375.9 559.94L375.9 559.94L375.42 559.94z" stroke="none" fill="#000000" fill-rule="winding" /><path transform="matrix(1 0 0 -1 0 842)" d="M505.56 544.28L506.04 544.28L506.04 544.28L506.04 559.94L506.04 559.94L505.56 559.94z" stroke="none" fill="#000000" fill-rule="winding" /><path transform="matrix(1 0 0 -1 0 842)" d="M79.44 543.8L375.9 543.8L375.9 543.8L375.9 544.28L375.9 544.28L79.44 544.28z" stroke="none" fill="#000000" fill-rule="winding" /><path transform="matrix(1 0 0 -1 0 842)" d="M505.56 543.8L506.04 543.8L506.04 543.8L506.04 544.28L506.04 544.28L505.56 544.28z" stroke="none" fill="#000000" fill-rule="winding" /><path transform="matrix(1 0 0 -1 0 842)" d="M79.44 528.2L79.92001 528.2L79.92001 528.2L79.92001 543.8L79.92001 543.8L79.44 543.8z" stroke="none" fill="#000000" fill-rule="winding" /><path transform="matrix(1 0 0 -1 0 842)" d="M141.54 528.2L142.02 528.2L142.02 528.2L142.02 543.8L142.02 543.8L141.54 543.8z" stroke="none" fill="#000000" fill-rule="winding" /><path transform="matrix(1 0 0 -1 0 842)" d="M212.46 528.2L212.94 528.2L212.94 528.2L212.94 543.8L212.94 543.8L212.46 543.8z" stroke="none" fill="#000000" fill-rule="winding" /><path transform="matrix(1 0 0 -1 0 842)" d="M375.42 528.2L375.9 528.2L375.9 528.2L375.9 543.8L375.9 543.8L375.42 543.8z" stroke="none" fill="#000000" fill-rule="winding" /><path transform="matrix(1 0 0 -1 0 842)" d="M505.56 528.2L506.04 528.2L506.04 528.2L506.04 543.8L506.04 543.8L505.56 543.8z" stroke="none" fill="#000000" fill-rule="winding" /><path transform="matrix(1 0 0 -1 0 842)" d="M79.44 527.72L375.9 527.72L375.9 527.72L375.9 528.2L375.9 528.2L79.44 528.2z" stroke="none" fill="#000000" fill-rule="winding" /><path transform="matrix(1 0 0 -1 0 842)" d="M505.56 527.72L506.04 527.72L506.04 527.72L506.04 528.2L506.04 528.2L505.56 528.2z" stroke="none" fill="#000000" fill-rule="winding" /><path transform="matrix(1 0 0 -1 0 842)" d="M79.44 512.12L79.92001 512.12L79.92001 512.12L79.92001 527.72L79.92001 527.72L79.44 527.72z" stroke="none" fill="#000000" fill-rule="winding" /><path transform="matrix(1 0 0 -1 0 842)" d="M141.54 512.12L142.02 512.12L142.02 512.12L142.02 527.72L142.02 527.72L141.54 527.72z" stroke="none" fill="#000000" fill-rule="winding" /><path transform="matrix(1 0 0 -1 0 842)" d="M212.46 512.12L212.94 512.12L212.94 512.12L212.94 527.72L212.94 527.72L212.46 527.72z" stroke="none" fill="#000000" fill-rule="winding" /><path transform="matrix(1 0 0 -1 0 842)" d="M375.42 512.12L375.9 512.12L375.9 512.12L375.9 527.72L375.9 527.72L375.42 527.72z" stroke="none" fill="#000000" fill-rule="winding" /><path transform="matrix(1 0 0 -1 0 842)" d="M505.56 512.12L506.04 512.12L506.04 512.12L506.04 527.72L506.04 527.72L505.56 527.72z" stroke="none" fill="#000000" fill-rule="winding" /><path transform="matrix(1 0 0 -1 0 842)" d="M79.44 511.64L375.9 511.64L375.9 511.64L375.9 512.12L375.9 512.12L79.44 512.12z" stroke="none" fill="#000000" fill-rule="winding" /><path transform="matrix(1 0 0 -1 0 842)" d="M505.56 511.64L506.04 511.64L506.04 511.64L506.04 512.12L506.04 512.12L505.56 512.12z" stroke="none" fill="#000000" fill-rule="winding" /><path transform="matrix(1 0 0 -1 0 842)" d="M79.44 495.98L79.92001 495.98L79.92001 495.98L79.92001 511.64L79.92001 511.64L79.44 511.64z" stroke="none" fill="#000000" fill-rule="winding" /><path transform="matrix(1 0 0 -1 0 842)" d="M141.54 495.98L142.02 495.98L142.02 495.98L142.02 511.64L142.02 511.64L141.54 511.64z" stroke="none" fill="#000000" fill-rule="winding" /><path transform="matrix(1 0 0 -1 0 842)" d="M212.46 495.98L212.94 495.98L212.94 495.98L212.94 511.64L212.94 511.64L212.46 511.64z" stroke="none" fill="#000000" fill-rule="winding" /><path transform="matrix(1 0 0 -1 0 842)" d="M375.42 495.98L375.9 495.98L375.9 495.98L375.9 511.64L375.9 511.64L375.42 511.64z" stroke="none" fill="#000000" fill-rule="winding" /><path transform="matrix(1 0 0 -1 0 842)" d="M505.56 495.98L506.04 495.98L506.04 495.98L506.04 511.64L506.04 511.64L505.56 511.64z" stroke="none" fill="#000000" fill-rule="winding" /><path transform="matrix(1 0 0 -1 0 842)" d="M79.44 495.5L375.9 495.5L375.9 495.5L375.9 495.98L375.9 495.98L79.44 495.98z" stroke="none" fill="#000000" fill-rule="winding" /><path transform="matrix(1 0 0 -1 0 842)" d="M505.56 495.5L506.04 495.5L506.04 495.5L506.04 495.98L506.04 495.98L505.56 495.98z" stroke="none" fill="#000000" fill-rule="winding" /><path transform="matrix(1 0 0 -1 0 842)" d="M79.44 479.9L79.92001 479.9L79.92001 479.9L79.92001 495.5L79.92001 495.5L79.44 495.5z" stroke="none" fill="#000000" fill-rule="winding" /><path transform="matrix(1 0 0 -1 0 842)" d="M141.54 479.9L142.02 479.9L142.02 479.9L142.02 495.5L142.02 495.5L141.54 495.5z" stroke="none" fill="#000000" fill-rule="winding" /><path transform="matrix(1 0 0 -1 0 842)" d="M212.46 479.9L212.94 479.9L212.94 479.9L212.94 495.5L212.94 495.5L212.46 495.5z" stroke="none" fill="#000000" fill-rule="winding" /><path transform="matrix(1 0 0 -1 0 842)" d="M375.42 479.9L375.9 479.9L375.9 479.9L375.9 495.5L375.9 495.5L375.42 495.5z" stroke="none" fill="#000000" fill-rule="winding" /><path transform="matrix(1 0 0 -1 0 842)" d="M505.56 479.9L506.04 479.9L506.04 479.9L506.04 495.5L506.04 495.5L505.56 495.5z" stroke="none" fill="#000000" fill-rule="winding" /><path transform="matrix(1 0 0 -1 0 842)" d="M79.44 479.42L506.04 479.42L506.04 479.42L506.04 479.9L506.04 479.9L79.44 479.9z" stroke="none" fill="#000000" fill-rule="winding" /><path transform="matrix(1 0 0 -1 0 842)" d="M79.44 463.82L79.92001 463.82L79.92001 463.82L79.92001 479.42L79.92001 479.42L79.44 479.42z" stroke="none" fill="#000000" fill-rule="winding" /><path transform="matrix(1 0 0 -1 0 842)" d="M141.54 463.82L142.02 463.82L142.02 463.82L142.02 479.42L142.02 479.42L141.54 479.42z" stroke="none" fill="#000000" fill-rule="winding" /><path transform="matrix(1 0 0 -1 0 842)" d="M212.46 463.82L212.94 463.82L212.94 463.82L212.94 479.42L212.94 479.42L212.46 479.42z" stroke="none" fill="#000000" fill-rule="winding" /><path transform="matrix(1 0 0 -1 0 842)" d="M375.42 463.82L375.9 463.82L375.9 463.82L375.9 479.42L375.9 479.42L375.42 479.42z" stroke="none" fill="#000000" fill-rule="winding" /><path transform="matrix(1 0 0 -1 0 842)" d="M505.56 463.82L506.04 463.82L506.04 463.82L506.04 479.42L506.04 479.42L505.56 479.42z" stroke="none" fill="#000000" fill-rule="winding" /><path transform="matrix(1 0 0 -1 0 842)" d="M79.44 463.34L375.9 463.34L375.9 463.34L375.9 463.82L375.9 463.82L79.44 463.82z" stroke="none" fill="#000000" fill-rule="winding" /><path transform="matrix(1 0 0 -1 0 842)" d="M505.56 463.34L506.04 463.34L506.04 463.34L506.04 463.82L506.04 463.82L505.56 463.82z" stroke="none" fill="#000000" fill-rule="winding" /><path transform="matrix(1 0 0 -1 0 842)" d="M79.44 447.68L79.92001 447.68L79.92001 447.68L79.92001 463.34L79.92001 463.34L79.44 463.34z" stroke="none" fill="#000000" fill-rule="winding" /><path transform="matrix(1 0 0 -1 0 842)" d="M141.54 447.68L142.02 447.68L142.02 447.68L142.02 463.34L142.02 463.34L141.54 463.34z" stroke="none" fill="#000000" fill-rule="winding" /><path transform="matrix(1 0 0 -1 0 842)" d="M212.46 447.68L212.94 447.68L212.94 447.68L212.94 463.34L212.94 463.34L212.46 463.34z" stroke="none" fill="#000000" fill-rule="winding" /><path transform="matrix(1 0 0 -1 0 842)" d="M375.42 447.68L375.9 447.68L375.9 447.68L375.9 463.34L375.9 463.34L375.42 463.34z" stroke="none" fill="#000000" fill-rule="winding" /><path transform="matrix(1 0 0 -1 0 842)" d="M505.56 447.68L506.04 447.68L506.04 447.68L506.04 463.34L506.04 463.34L505.56 463.34z" stroke="none" fill="#000000" fill-rule="winding" /><path transform="matrix(1 0 0 -1 0 842)" d="M79.44 447.2L375.9 447.2L375.9 447.2L375.9 447.68L375.9 447.68L79.44 447.68z" stroke="none" fill="#000000" fill-rule="winding" /><path transform="matrix(1 0 0 -1 0 842)" d="M505.56 447.2L506.04 447.2L506.04 447.2L506.04 447.68L506.04 447.68L505.56 447.68z" stroke="none" fill="#000000" fill-rule="winding" /><path transform="matrix(1 0 0 -1 0 842)" d="M79.44 431.6L79.92001 431.6L79.92001 431.6L79.92001 447.2L79.92001 447.2L79.44 447.2z" stroke="none" fill="#000000" fill-rule="winding" /><path transform="matrix(1 0 0 -1 0 842)" d="M141.54 431.6L142.02 431.6L142.02 431.6L142.02 447.2L142.02 447.2L141.54 447.2z" stroke="none" fill="#000000" fill-rule="winding" /><path transform="matrix(1 0 0 -1 0 842)" d="M212.46 431.6L212.94 431.6L212.94 431.6L212.94 447.2L212.94 447.2L212.46 447.2z" stroke="none" fill="#000000" fill-rule="winding" /><path transform="matrix(1 0 0 -1 0 842)" d="M375.42 431.6L375.9 431.6L375.9 431.6L375.9 447.2L375.9 447.2L375.42 447.2z" stroke="none" fill="#000000" fill-rule="winding" /><path transform="matrix(1 0 0 -1 0 842)" d="M505.56 431.6L506.04 431.6L506.04 431.6L506.04 447.2L506.04 447.2L505.56 447.2z" stroke="none" fill="#000000" fill-rule="winding" /><path transform="matrix(1 0 0 -1 0 842)" d="M79.44 431.12L375.9 431.12L375.9 431.12L375.9 431.6L375.9 431.6L79.44 431.6z" stroke="none" fill="#000000" fill-rule="winding" /><path transform="matrix(1 0 0 -1 0 842)" d="M505.56 431.12L506.04 431.12L506.04 431.12L506.04 431.6L506.04 431.6L505.56 431.6z" stroke="none" fill="#000000" fill-rule="winding" /><path transform="matrix(1 0 0 -1 0 842)" d="M79.44 414.98L79.92001 414.98L79.92001 414.98L79.92001 431.12L79.92001 431.12L79.44 431.12z" stroke="none" fill="#000000" fill-rule="winding" /><path transform="matrix(1 0 0 -1 0 842)" d="M79.44 414.98L141.54 414.98L141.54 414.98L141.54 415.46L141.54 415.46L79.44 415.46z" stroke="none" fill="#000000" fill-rule="winding" /><path transform="matrix(1 0 0 -1 0 842)" d="M141.54 414.98L142.02 414.98L142.02 414.98L142.02 431.12L142.02 431.12L141.54 431.12z" stroke="none" fill="#000000" fill-rule="winding" /><path transform="matrix(1 0 0 -1 0 842)" d="M142.02 414.98L212.46 414.98L212.46 414.98L212.46 415.46L212.46 415.46L142.02 415.46z" stroke="none" fill="#000000" fill-rule="winding" /><path transform="matrix(1 0 0 -1 0 842)" d="M212.46 414.98L212.94 414.98L212.94 414.98L212.94 431.12L212.94 431.12L212.46 431.12z" stroke="none" fill="#000000" fill-rule="winding" /><path transform="matrix(1 0 0 -1 0 842)" d="M212.94 414.98L375.42 414.98L375.42 414.98L375.42 415.46L375.42 415.46L212.94 415.46z" stroke="none" fill="#000000" fill-rule="winding" /><path transform="matrix(1 0 0 -1 0 842)" d="M375.42 414.98L375.9 414.98L375.9 414.98L375.9 431.12L375.9 431.12L375.42 431.12z" stroke="none" fill="#000000" fill-rule="winding" /><path transform="matrix(1 0 0 -1 0 842)" d="M375.9 414.98L505.56 414.98L505.56 414.98L505.56 415.46L505.56 415.46L375.9 415.46z" stroke="none" fill="#000000" fill-rule="winding" /><path transform="matrix(1 0 0 -1 0 842)" d="M505.56 414.98L506.04 414.98L506.04 414.98L506.04 431.12L506.04 431.12L505.56 431.12z" stroke="none" fill="#000000" fill-rule="winding" /><path transform="matrix(1 0 0 -1 0 842)" d="M505.56 414.98L506.04 414.98L506.04 414.98L506.04 415.46L506.04 415.46L505.56 415.46z" stroke="none" fill="#000000" fill-rule="winding" /><path transform="matrix(1 0 0 -1 0 842)" d="M79.44 383.3L79.92001 383.3L79.92001 383.3L79.92001 383.78L79.92001 383.78L79.44 383.78z" stroke="none" fill="#000000" fill-rule="winding" /><path transform="matrix(1 0 0 -1 0 842)" d="M79.44 383.3L506.04 383.3L506.04 383.3L506.04 383.78L506.04 383.78L79.44 383.78z" stroke="none" fill="#000000" fill-rule="winding" /><path transform="matrix(1 0 0 -1 0 842)" d="M505.56 383.3L506.04 383.3L506.04 383.3L506.04 383.78L506.04 383.78L505.56 383.78z" stroke="none" fill="#000000" fill-rule="winding" /><path transform="matrix(1 0 0 -1 0 842)" d="M79.44 367.7L79.92001 367.7L79.92001 367.7L79.92001 383.3L79.92001 383.3L79.44 383.3z" stroke="none" fill="#000000" fill-rule="winding" /><path transform="matrix(1 0 0 -1 0 842)" d="M174.84 367.7L175.32 367.7L175.32 367.7L175.32 383.3L175.32 383.3L174.84 383.3z" stroke="none" fill="#000000" fill-rule="winding" /><path transform="matrix(1 0 0 -1 0 842)" d="M246.84 367.7L247.32 367.7L247.32 367.7L247.32 383.3L247.32 383.3L246.84 383.3z" stroke="none" fill="#000000" fill-rule="winding" /><path transform="matrix(1 0 0 -1 0 842)" d="M399.84 367.7L400.32 367.7L400.32 367.7L400.32 383.3L400.32 383.3L399.84 383.3z" stroke="none" fill="#000000" fill-rule="winding" /><path transform="matrix(1 0 0 -1 0 842)" d="M505.56 367.7L506.04 367.7L506.04 367.7L506.04 383.3L506.04 383.3L505.56 383.3z" stroke="none" fill="#000000" fill-rule="winding" /><path transform="matrix(1 0 0 -1 0 842)" d="M79.44 367.22L506.04 367.22L506.04 367.22L506.04 367.7L506.04 367.7L79.44 367.7z" stroke="none" fill="#000000" fill-rule="winding" /><path transform="matrix(1 0 0 -1 0 842)" d="M79.44 351.62L79.92001 351.62L79.92001 351.62L79.92001 367.22L79.92001 367.22L79.44 367.22z" stroke="none" fill="#000000" fill-rule="winding" /><path transform="matrix(1 0 0 -1 0 842)" d="M174.84 351.62L175.32 351.62L175.32 351.62L175.32 367.22L175.32 367.22L174.84 367.22z" stroke="none" fill="#000000" fill-rule="winding" /><path transform="matrix(1 0 0 -1 0 842)" d="M246.84 351.62L247.32 351.62L247.32 351.62L247.32 367.22L247.32 367.22L246.84 367.22z" stroke="none" fill="#000000" fill-rule="winding" /><path transform="matrix(1 0 0 -1 0 842)" d="M399.84 351.62L400.32 351.62L400.32 351.62L400.32 367.22L400.32 367.22L399.84 367.22z" stroke="none" fill="#000000" fill-rule="winding" /><path transform="matrix(1 0 0 -1 0 842)" d="M505.56 351.62L506.04 351.62L506.04 351.62L506.04 367.22L506.04 367.22L505.56 367.22z" stroke="none" fill="#000000" fill-rule="winding" /><path transform="matrix(1 0 0 -1 0 842)" d="M79.44 351.14L400.32 351.14L400.32 351.14L400.32 351.62L400.32 351.62L79.44 351.62z" stroke="none" fill="#000000" fill-rule="winding" /><path transform="matrix(1 0 0 -1 0 842)" d="M505.56 351.14L506.04 351.14L506.04 351.14L506.04 351.62L506.04 351.62L505.56 351.62z" stroke="none" fill="#000000" fill-rule="winding" /><path transform="matrix(1 0 0 -1 0 842)" d="M79.44 335L79.92001 335L79.92001 335L79.92001 351.14L79.92001 351.14L79.44 351.14z" stroke="none" fill="#000000" fill-rule="winding" /><path transform="matrix(1 0 0 -1 0 842)" d="M79.44 335L174.84 335L174.84 335L174.84 335.48L174.84 335.48L79.44 335.48z" stroke="none" fill="#000000" fill-rule="winding" /><path transform="matrix(1 0 0 -1 0 842)" d="M174.84 335L175.32 335L175.32 335L175.32 351.14L175.32 351.14L174.84 351.14z" stroke="none" fill="#000000" fill-rule="winding" /><path transform="matrix(1 0 0 -1 0 842)" d="M175.32 335L246.84 335L246.84 335L246.84 335.48L246.84 335.48L175.32 335.48z" stroke="none" fill="#000000" fill-rule="winding" /><path transform="matrix(1 0 0 -1 0 842)" d="M246.84 335L247.32 335L247.32 335L247.32 351.14L247.32 351.14L246.84 351.14z" stroke="none" fill="#000000" fill-rule="winding" /><path transform="matrix(1 0 0 -1 0 842)" d="M247.32 335L399.84 335L399.84 335L399.84 335.48L399.84 335.48L247.32 335.48z" stroke="none" fill="#000000" fill-rule="winding" /><path transform="matrix(1 0 0 -1 0 842)" d="M399.84 335L400.32 335L400.32 335L400.32 351.14L400.32 351.14L399.84 351.14z" stroke="none" fill="#000000" fill-rule="winding" /><path transform="matrix(1 0 0 -1 0 842)" d="M400.32 335L505.56 335L505.56 335L505.56 335.48L505.56 335.48L400.32 335.48z" stroke="none" fill="#000000" fill-rule="winding" /><path transform="matrix(1 0 0 -1 0 842)" d="M505.56 335L506.04 335L506.04 335L506.04 351.14L506.04 351.14L505.56 351.14z" stroke="none" fill="#000000" fill-rule="winding" /><path transform="matrix(1 0 0 -1 0 842)" d="M505.56 335L506.04 335L506.04 335L506.04 335.48L506.04 335.48L505.56 335.48z" stroke="none" fill="#000000" fill-rule="winding" /><path transform="matrix(1 0 0 -1 0 842)" d="M79.44 303.32L79.92001 303.32L79.92001 303.32L79.92001 303.8L79.92001 303.8L79.44 303.8z" stroke="none" fill="#000000" fill-rule="winding" /><path transform="matrix(1 0 0 -1 0 842)" d="M79.44 303.32L506.04 303.32L506.04 303.32L506.04 303.8L506.04 303.8L79.44 303.8z" stroke="none" fill="#000000" fill-rule="winding" /><path transform="matrix(1 0 0 -1 0 842)" d="M505.56 303.32L506.04 303.32L506.04 303.32L506.04 303.8L506.04 303.8L505.56 303.8z" stroke="none" fill="#000000" fill-rule="winding" /><path transform="matrix(1 0 0 -1 0 842)" d="M79.44 287.72L79.92001 287.72L79.92001 287.72L79.92001 303.32L79.92001 303.32L79.44 303.32z" stroke="none" fill="#000000" fill-rule="winding" /><path transform="matrix(1 0 0 -1 0 842)" d="M174.84 287.72L175.32 287.72L175.32 287.72L175.32 303.32L175.32 303.32L174.84 303.32z" stroke="none" fill="#000000" fill-rule="winding" /><path transform="matrix(1 0 0 -1 0 842)" d="M246.84 287.72L247.32 287.72L247.32 287.72L247.32 303.32L247.32 303.32L246.84 303.32z" stroke="none" fill="#000000" fill-rule="winding" /><path transform="matrix(1 0 0 -1 0 842)" d="M399.84 287.72L400.32 287.72L400.32 287.72L400.32 303.32L400.32 303.32L399.84 303.32z" stroke="none" fill="#000000" fill-rule="winding" /><path transform="matrix(1 0 0 -1 0 842)" d="M505.56 287.72L506.04 287.72L506.04 287.72L506.04 303.32L506.04 303.32L505.56 303.32z" stroke="none" fill="#000000" fill-rule="winding" /><path transform="matrix(1 0 0 -1 0 842)" d="M79.44 287.24L506.04 287.24L506.04 287.24L506.04 287.72L506.04 287.72L79.44 287.72z" stroke="none" fill="#000000" fill-rule="winding" /><path transform="matrix(1 0 0 -1 0 842)" d="M79.44 255.98L79.92001 255.98L79.92001 255.98L79.92001 287.24L79.92001 287.24L79.44 287.24z" stroke="none" fill="#000000" fill-rule="winding" /><path transform="matrix(1 0 0 -1 0 842)" d="M174.84 255.98L175.32 255.98L175.32 255.98L175.32 287.24L175.32 287.24L174.84 287.24z" stroke="none" fill="#000000" fill-rule="winding" /><path transform="matrix(1 0 0 -1 0 842)" d="M246.84 255.98L247.32 255.98L247.32 255.98L247.32 287.24L247.32 287.24L246.84 287.24z" stroke="none" fill="#000000" fill-rule="winding" /><path transform="matrix(1 0 0 -1 0 842)" d="M399.84 255.98L400.32 255.98L400.32 255.98L400.32 287.24L400.32 287.24L399.84 287.24z" stroke="none" fill="#000000" fill-rule="winding" /><path transform="matrix(1 0 0 -1 0 842)" d="M505.56 255.98L506.04 255.98L506.04 255.98L506.04 287.24L506.04 287.24L505.56 287.24z" stroke="none" fill="#000000" fill-rule="winding" /><path transform="matrix(1 0 0 -1 0 842)" d="M79.44 255.5L506.04 255.5L506.04 255.5L506.04 255.98L506.04 255.98L79.44 255.98z" stroke="none" fill="#000000" fill-rule="winding" /><path transform="matrix(1 0 0 -1 0 842)" d="M79.44 239.9L79.92001 239.9L79.92001 239.9L79.92001 255.5L79.92001 255.5L79.44 255.5z" stroke="none" fill="#000000" fill-rule="winding" /><path transform="matrix(1 0 0 -1 0 842)" d="M174.84 239.9L175.32 239.9L175.32 239.9L175.32 255.5L175.32 255.5L174.84 255.5z" stroke="none" fill="#000000" fill-rule="winding" /><path transform="matrix(1 0 0 -1 0 842)" d="M246.84 239.9L247.32 239.9L247.32 239.9L247.32 255.5L247.32 255.5L246.84 255.5z" stroke="none" fill="#000000" fill-rule="winding" /><path transform="matrix(1 0 0 -1 0 842)" d="M399.84 239.9L400.32 239.9L400.32 239.9L400.32 255.5L400.32 255.5L399.84 255.5z" stroke="none" fill="#000000" fill-rule="winding" /><path transform="matrix(1 0 0 -1 0 842)" d="M505.56 239.9L506.04 239.9L506.04 239.9L506.04 255.5L506.04 255.5L505.56 255.5z" stroke="none" fill="#000000" fill-rule="winding" /><path transform="matrix(1 0 0 -1 0 842)" d="M79.44 239.42L506.04 239.42L506.04 239.42L506.04 239.9L506.04 239.9L79.44 239.9z" stroke="none" fill="#000000" fill-rule="winding" /><path transform="matrix(1 0 0 -1 0 842)" d="M79.44 223.82L79.92001 223.82L79.92001 223.82L79.92001 239.42L79.92001 239.42L79.44 239.42z" stroke="none" fill="#000000" fill-rule="winding" /><path transform="matrix(1 0 0 -1 0 842)" d="M174.84 223.82L175.32 223.82L175.32 223.82L175.32 239.42L175.32 239.42L174.84 239.42z" stroke="none" fill="#000000" fill-rule="winding" /><path transform="matrix(1 0 0 -1 0 842)" d="M246.84 223.82L247.32 223.82L247.32 223.82L247.32 239.42L247.32 239.42L246.84 239.42z" stroke="none" fill="#000000" fill-rule="winding" /><path transform="matrix(1 0 0 -1 0 842)" d="M399.84 223.82L400.32 223.82L400.32 223.82L400.32 239.42L400.32 239.42L399.84 239.42z" stroke="none" fill="#000000" fill-rule="winding" /><path transform="matrix(1 0 0 -1 0 842)" d="M505.56 223.82L506.04 223.82L506.04 223.82L506.04 239.42L506.04 239.42L505.56 239.42z" stroke="none" fill="#000000" fill-rule="winding" /><path transform="matrix(1 0 0 -1 0 842)" d="M79.44 223.34L506.04 223.34L506.04 223.34L506.04 223.82L506.04 223.82L79.44 223.82z" stroke="none" fill="#000000" fill-rule="winding" /><path transform="matrix(1 0 0 -1 0 842)" d="M79.44 207.68L79.92001 207.68L79.92001 207.68L79.92001 223.34L79.92001 223.34L79.44 223.34z" stroke="none" fill="#000000" fill-rule="winding" /><path transform="matrix(1 0 0 -1 0 842)" d="M174.84 207.68L175.32 207.68L175.32 207.68L175.32 223.34L175.32 223.34L174.84 223.34z" stroke="none" fill="#000000" fill-rule="winding" /><path transform="matrix(1 0 0 -1 0 842)" d="M246.84 207.68L247.32 207.68L247.32 207.68L247.32 223.34L247.32 223.34L246.84 223.34z" stroke="none" fill="#000000" fill-rule="winding" /><path transform="matrix(1 0 0 -1 0 842)" d="M399.84 207.68L400.32 207.68L400.32 207.68L400.32 223.34L400.32 223.34L399.84 223.34z" stroke="none" fill="#000000" fill-rule="winding" /><path transform="matrix(1 0 0 -1 0 842)" d="M505.56 207.68L506.04 207.68L506.04 207.68L506.04 223.34L506.04 223.34L505.56 223.34z" stroke="none" fill="#000000" fill-rule="winding" /><path transform="matrix(1 0 0 -1 0 842)" d="M79.44 207.2L506.04 207.2L506.04 207.2L506.04 207.68L506.04 207.68L79.44 207.68z" stroke="none" fill="#000000" fill-rule="winding" /><path transform="matrix(1 0 0 -1 0 842)" d="M79.44 176L79.92001 176L79.92001 176L79.92001 207.2L79.92001 207.2L79.44 207.2z" stroke="none" fill="#000000" fill-rule="winding" /><path transform="matrix(1 0 0 -1 0 842)" d="M174.84 176L175.32 176L175.32 176L175.32 207.2L175.32 207.2L174.84 207.2z" stroke="none" fill="#000000" fill-rule="winding" /><path transform="matrix(1 0 0 -1 0 842)" d="M246.84 176L247.32 176L247.32 176L247.32 207.2L247.32 207.2L246.84 207.2z" stroke="none" fill="#000000" fill-rule="winding" /><path transform="matrix(1 0 0 -1 0 842)" d="M399.84 176L400.32 176L400.32 176L400.32 207.2L400.32 207.2L399.84 207.2z" stroke="none" fill="#000000" fill-rule="winding" /><path transform="matrix(1 0 0 -1 0 842)" d="M505.56 176L506.04 176L506.04 176L506.04 207.2L506.04 207.2L505.56 207.2z" stroke="none" fill="#000000" fill-rule="winding" /><path transform="matrix(1 0 0 -1 0 842)" d="M79.44 175.52L506.04 175.52L506.04 175.52L506.04 176L506.04 176L79.44 176z" stroke="none" fill="#000000" fill-rule="winding" /><path transform="matrix(1 0 0 -1 0 842)" d="M79.44 128.72L79.92001 128.72L79.92001 128.72L79.92001 175.52L79.92001 175.52L79.44 175.52z" stroke="none" fill="#000000" fill-rule="winding" /><path transform="matrix(1 0 0 -1 0 842)" d="M174.84 128.72L175.32 128.72L175.32 128.72L175.32 175.52L175.32 175.52L174.84 175.52z" stroke="none" fill="#000000" fill-rule="winding" /><path transform="matrix(1 0 0 -1 0 842)" d="M246.84 128.72L247.32 128.72L247.32 128.72L247.32 175.52L247.32 175.52L246.84 175.52z" stroke="none" fill="#000000" fill-rule="winding" /><path transform="matrix(1 0 0 -1 0 842)" d="M399.84 128.72L400.32 128.72L400.32 128.72L400.32 175.52L400.32 175.52L399.84 175.52z" stroke="none" fill="#000000" fill-rule="winding" /><path transform="matrix(1 0 0 -1 0 842)" d="M505.56 128.72L506.04 128.72L506.04 128.72L506.04 175.52L506.04 175.52L505.56 175.52z" stroke="none" fill="#000000" fill-rule="winding" /><path transform="matrix(1 0 0 -1 0 842)" d="M79.44 128.24L506.04 128.24L506.04 128.24L506.04 128.72L506.04 128.72L79.44 128.72z" stroke="none" fill="#000000" fill-rule="winding" /><path transform="matrix(1 0 0 -1 0 842)" d="M79.44 81.38L79.92001 81.38L79.92001 81.38L79.92001 128.24L79.92001 128.24L79.44 128.24z" stroke="none" fill="#000000" fill-rule="winding" /><path transform="matrix(1 0 0 -1 0 842)" d="M174.84 81.38L175.32 81.38L175.32 81.38L175.32 128.24L175.32 128.24L174.84 128.24z" stroke="none" fill="#000000" fill-rule="winding" /><path transform="matrix(1 0 0 -1 0 842)" d="M246.84 81.38L247.32 81.38L247.32 81.38L247.32 128.24L247.32 128.24L246.84 128.24z" stroke="none" fill="#000000" fill-rule="winding" /><path transform="matrix(1 0 0 -1 0 842)" d="M399.84 81.38L400.32 81.38L400.32 81.38L400.32 128.24L400.32 128.24L399.84 128.24z" stroke="none" fill="#000000" fill-rule="winding" /><path transform="matrix(1 0 0 -1 0 842)" d="M505.56 81.38L506.04 81.38L506.04 81.38L506.04 128.24L506.04 128.24L505.56 128.24z" stroke="none" fill="#000000" fill-rule="winding" /><path transform="matrix(1 0 0 -1 0 842)" d="M79.44 80.9L506.04 80.9L506.04 80.9L506.04 81.38001L506.04 81.38001L79.44 81.38001z" stroke="none" fill="#000000" fill-rule="winding" /><path transform="matrix(1 0 0 -1 0 842)" d="M79.44 64.82L79.92001 64.82L79.92001 64.82L79.92001 80.9L79.92001 80.9L79.44 80.9z" stroke="none" fill="#000000" fill-rule="winding" /><path transform="matrix(1 0 0 -1 0 842)" d="M79.44 64.82L174.84 64.82L174.84 64.82L174.84 65.29998L174.84 65.29998L79.44 65.29998z" stroke="none" fill="#000000" fill-rule="winding" /><path transform="matrix(1 0 0 -1 0 842)" d="M174.84 64.82L175.32 64.82L175.32 64.82L175.32 80.9L175.32 80.9L174.84 80.9z" stroke="none" fill="#000000" fill-rule="winding" /><path transform="matrix(1 0 0 -1 0 842)" d="M175.32 64.82L246.84 64.82L246.84 64.82L246.84 65.29998L246.84 65.29998L175.32 65.29998z" stroke="none" fill="#000000" fill-rule="winding" /><path transform="matrix(1 0 0 -1 0 842)" d="M246.84 64.82L247.32 64.82L247.32 64.82L247.32 80.9L247.32 80.9L246.84 80.9z" stroke="none" fill="#000000" fill-rule="winding" /><path transform="matrix(1 0 0 -1 0 842)" d="M247.32 64.82L399.84 64.82L399.84 64.82L399.84 65.29998L399.84 65.29998L247.32 65.29998z" stroke="none" fill="#000000" fill-rule="winding" /><path transform="matrix(1 0 0 -1 0 842)" d="M399.84 64.82L400.32 64.82L400.32 64.82L400.32 80.9L400.32 80.9L399.84 80.9z" stroke="none" fill="#000000" fill-rule="winding" /><path transform="matrix(1 0 0 -1 0 842)" d="M400.32 64.82L505.56 64.82L505.56 64.82L505.56 65.29998L505.56 65.29998L400.32 65.29998z" stroke="none" fill="#000000" fill-rule="winding" /><path transform="matrix(1 0 0 -1 0 842)" d="M505.56 64.82L506.04 64.82L506.04 64.82L506.04 80.9L506.04 80.9L505.56 80.9z" stroke="none" fill="#000000" fill-rule="winding" /><path transform="matrix(1 0 0 -1 0 842)" d="M505.56 64.82L506.04 64.82L506.04 64.82L506.04 65.29998L506.04 65.29998L505.56 65.29998z" stroke="none" fill="#000000" fill-rule="winding" /></g></g></g></svg>