<svg xmlns="http://www.w3.org/2000/svg" xmlns:xlink="http://www.w3.org/1999/xlink" id="body_1" preserveAspectRatio="xMinYMin meet" viewBox="0 0 793 1123"><defs><clipPath id="1"><path d="M0 842L0 0L0 0L595.22 0L595.22 0L595.22 842L595.22 842L0 842z" /></clipPath></defs><g transform="matrix(1.333333 0 0 1.333333 0 0)"><g><g clip-path="url(#1)"><g transform="matrix(0.4798529 0 0 0.476 85.08 28.37994)"><g transform="matrix(1 0 0 1 0 0)"><image x="0" y="0" xlink:href="img_01.png" width="34" height="30" /></g></g><path transform="matrix(1 0 0 -1 0 842)" d="M83.58 795.02L511.8 795.02L511.8 795.02L511.8 795.7401L511.8 795.7401L83.58 795.7401z" stroke="none" fill="#000000" fill-rule="winding" /><path transform="matrix(1 0 0 -1 0 842)" d="M79.44 738.02L79.92001 738.02L79.92001 738.02L79.92001 738.5001L79.92001 738.5001L79.44 738.5001z" stroke="none" fill="#000000" fill-rule="winding" /><path transform="matrix(1 0 0 -1 0 842)" d="M79.44 738.02L506.04 738.02L506.04 738.02L506.04 738.5001L506.04 738.5001L79.44 738.5001z" stroke="none" fill="#000000" fill-rule="winding" /><path transform="matrix(1 0 0 -1 0 842)" d="M505.56 738.02L506.04 738.02L506.04 738.02L506.04 738.5001L506.04 738.5001L505.56 738.5001z" stroke="none" fill="#000000" fill-rule="winding" /><path transform="matrix(1 0 0 -1 0 842)" d="M79.44 722.42L79.92001 722.42L79.92001 722.42L79.92001 738.02L79.92001 738.02L79.44 738.02z" stroke="none" fill="#000000" fill-rule="winding" /><path transform="matrix(1 0 0 -1 0 842)" d="M141.54 722.42L142.02 722.42L142.02 722.42L142.02 738.02L142.02 738.02L141.54 738.02z" stroke="none" fill="#000000" fill-rule="winding" /><path transform="matrix(1 0 0 -1 0 842)" d="M212.46 722.42L212.94 722.42L212.94 722.42L212.94 738.02L212.94 738.02L212.46 738.02z" stroke="none" fill="#000000" fill-rule="winding" /><path transform="matrix(1 0 0 -1 0 842)" d="M375.42 722.42L375.9 722.42L375.9 722.42L375.9 738.02L375.9 738.02L375.42 738.02z" stroke="none" fill="#000000" fill-rule="winding" /><path transform="matrix(1 0 0 -1 0 842)" d="M505.56 722.42L506.04 722.42L506.04 722.42L506.04 738.02L506.04 738.02L505.56 738.02z" stroke="none" fill="#000000" fill-rule="winding" /><path transform="matrix(1 0 0 -1 0 842)" d="M79.44 721.94L506.04 721.94L506.04 721.94L506.04 722.42L506.04 722.42L79.44 722.42z" stroke="none" fill="#000000" fill-rule="winding" /><path transform="matrix(1 0 0 -1 0 842)" d="M79.44 706.28L79.92001 706.28L79.92001 706.28L79.92001 721.94L79.92001 721.94L79.44 721.94z" stroke="none" fill="#000000" fill-rule="winding" /><path transform="matrix(1 0 0 -1 0 842)" d="M141.54 706.28L142.02 706.28L142.02 706.28L142.02 721.94L142.02 721.94L141.54 721.94z" stroke="none" fill="#000000" fill-rule="winding" /><path transform="matrix(1 0 0 -1 0 842)" d="M212.46 706.28L212.94 706.28L212.94 706.28L212.94 721.94L212.94 721.94L212.46 721.94z" stroke="none" fill="#000000" fill-rule="winding" /><path transform="matrix(1 0 0 -1 0 842)" d="M375.42 706.28L375.9 706.28L375.9 706.28L375.9 721.94L375.9 721.94L375.42 721.94z" stroke="none" fill="#000000" fill-rule="winding" /><path transform="matrix(1 0 0 -1 0 842)" d="M505.56 706.28L506.04 706.28L506.04 706.28L506.04 721.94L506.04 721.94L505.56 721.94z" stroke="none" fill="#000000" fill-rule="winding" /><path transform="matrix(1 0 0 -1 0 842)" d="M79.44 705.8L375.9 705.8L375.9 705.8L375.9 706.28L375.9 706.28L79.44 706.28z" stroke="none" fill="#000000" fill-rule="winding" /><path transform="matrix(1 0 0 -1 0 842)" d="M505.56 705.8L506.04 705.8L506.04 705.8L506.04 706.28L506.04 706.28L505.56 706.28z" stroke="none" fill="#000000" fill-rule="winding" /><path transform="matrix(1 0 0 -1 0 842)" d="M79.44 690.2L79.92001 690.2L79.92001 690.2L79.92001 705.8L79.92001 705.8L79.44 705.8z" stroke="none" fill="#000000" fill-rule="winding" /><path transform="matrix(1 0 0 -1 0 842)" d="M141.54 690.2L142.02 690.2L142.02 690.2L142.02 705.8L142.02 705.8L141.54 705.8z" stroke="none" fill="#000000" fill-rule="winding" /><path transform="matrix(1 0 0 -1 0 842)" d="M212.46 690.2L212.94 690.2L212.94 690.2L212.94 705.8L212.94 705.8L212.46 705.8z" stroke="none" fill="#000000" fill-rule="winding" /><path transform="matrix(1 0 0 -1 0 842)" d="M375.42 690.2L375.9 690.2L375.9 690.2L375.9 705.8L375.9 705.8L375.42 705.8z" stroke="none" fill="#000000" fill-rule="winding" /><path transform="matrix(1 0 0 -1 0 842)" d="M505.56 690.2L506.04 690.2L506.04 690.2L506.04 705.8L506.04 705.8L505.56 705.8z" stroke="none" fill="#000000" fill-rule="winding" /><path transform="matrix(1 0 0 -1 0 842)" d="M79.44 689.72L375.9 689.72L375.9 689.72L375.9 690.2L375.9 690.2L79.44 690.2z" stroke="none" fill="#000000" fill-rule="winding" /><path transform="matrix(1 0 0 -1 0 842)" d="M505.56 689.72L506.04 689.72L506.04 689.72L506.04 690.2L506.04 690.2L505.56 690.2z" stroke="none" fill="#000000" fill-rule="winding" /><path transform="matrix(1 0 0 -1 0 842)" d="M79.44 674.12L79.92001 674.12L79.92001 674.12L79.92001 689.72L79.92001 689.72L79.44 689.72z" stroke="none" fill="#000000" fill-rule="winding" /><path transform="matrix(1 0 0 -1 0 842)" d="M141.54 674.12L142.02 674.12L142.02 674.12L142.02 689.72L142.02 689.72L141.54 689.72z" stroke="none" fill="#000000" fill-rule="winding" /><path transform="matrix(1 0 0 -1 0 842)" d="M212.46 674.12L212.94 674.12L212.94 674.12L212.94 689.72L212.94 689.72L212.46 689.72z" stroke="none" fill="#000000" fill-rule="winding" /><path transform="matrix(1 0 0 -1 0 842)" d="M375.42 674.12L375.9 674.12L375.9 674.12L375.9 689.72L375.9 689.72L375.42 689.72z" stroke="none" fill="#000000" fill-rule="winding" /><path transform="matrix(1 0 0 -1 0 842)" d="M505.56 674.12L506.04 674.12L506.04 674.12L506.04 689.72L506.04 689.72L505.56 689.72z" stroke="none" fill="#000000" fill-rule="winding" /><path transform="matrix(1 0 0 -1 0 842)" d="M79.44 673.64L375.9 673.64L375.9 673.64L375.9 674.12L375.9 674.12L79.44 674.12z" stroke="none" fill="#000000" fill-rule="winding" /><path transform="matrix(1 0 0 -1 0 842)" d="M505.56 673.64L506.04 673.64L506.04 673.64L506.04 674.12L506.04 674.12L505.56 674.12z" stroke="none" fill="#000000" fill-rule="winding" /><path transform="matrix(1 0 0 -1 0 842)" d="M79.44 657.98L79.92001 657.98L79.92001 657.98L79.92001 673.64L79.92001 673.64L79.44 673.64z" stroke="none" fill="#000000" fill-rule="winding" /><path transform="matrix(1 0 0 -1 0 842)" d="M141.54 657.98L142.02 657.98L142.02 657.98L142.02 673.64L142.02 673.64L141.54 673.64z" stroke="none" fill="#000000" fill-rule="winding" /><path transform="matrix(1 0 0 -1 0 842)" d="M212.46 657.98L212.94 657.98L212.94 657.98L212.94 673.64L212.94 673.64L212.46 673.64z" stroke="none" fill="#000000" fill-rule="winding" /><path transform="matrix(1 0 0 -1 0 842)" d="M375.42 657.98L375.9 657.98L375.9 657.98L375.9 673.64L375.9 673.64L375.42 673.64z" stroke="none" fill="#000000" fill-rule="winding" /><path transform="matrix(1 0 0 -1 0 842)" d="M505.56 657.98L506.04 657.98L506.04 657.98L506.04 673.64L506.04 673.64L505.56 673.64z" stroke="none" fill="#000000" fill-rule="winding" /><path transform="matrix(1 0 0 -1 0 842)" d="M79.44 657.5L375.9 657.5L375.9 657.5L375.9 657.98L375.9 657.98L79.44 657.98z" stroke="none" fill="#000000" fill-rule="winding" /><path transform="matrix(1 0 0 -1 0 842)" d="M505.56 657.5L506.04 657.5L506.04 657.5L506.04 657.98L506.04 657.98L505.56 657.98z" stroke="none" fill="#000000" fill-rule="winding" /><path transform="matrix(1 0 0 -1 0 842)" d="M79.44 641.9L79.92001 641.9L79.92001 641.9L79.92001 657.5L79.92001 657.5L79.44 657.5z" stroke="none" fill="#000000" fill-rule="winding" /><path transform="matrix(1 0 0 -1 0 842)" d="M141.54 641.9L142.02 641.9L142.02 641.9L142.02 657.5L142.02 657.5L141.54 657.5z" stroke="none" fill="#000000" fill-rule="winding" /><path transform="matrix(1 0 0 -1 0 842)" d="M212.46 641.9L212.94 641.9L212.94 641.9L212.94 657.5L212.94 657.5L212.46 657.5z" stroke="none" fill="#000000" fill-rule="winding" /><path transform="matrix(1 0 0 -1 0 842)" d="M375.42 641.9L375.9 641.9L375.9 641.9L375.9 657.5L375.9 657.5L375.42 657.5z" stroke="none" fill="#000000" fill-rule="winding" /><path transform="matrix(1 0 0 -1 0 842)" d="M505.56 641.9L506.04 641.9L506.04 641.9L506.04 657.5L506.04 657.5L505.56 657.5z" stroke="none" fill="#000000" fill-rule="winding" /><path transform="matrix(1 0 0 -1 0 842)" d="M79.44 641.42L506.04 641.42L506.04 641.42L506.04 641.9L506.04 641.9L79.44 641.9z" stroke="none" fill="#000000" fill-rule="winding" /><path transform="matrix(1 0 0 -1 0 842)" d="M79.44 610.22L79.92001 610.22L79.92001 610.22L79.92001 641.42L79.92001 641.42L79.44 641.42z" stroke="none" fill="#000000" fill-rule="winding" /><path transform="matrix(1 0 0 -1 0 842)" d="M141.54 610.22L142.02 610.22L142.02 610.22L142.02 641.42L142.02 641.42L141.54 641.42z" stroke="none" fill="#000000" fill-rule="winding" /><path transform="matrix(1 0 0 -1 0 842)" d="M212.46 610.22L212.94 610.22L212.94 610.22L212.94 641.42L212.94 641.42L212.46 641.42z" stroke="none" fill="#000000" fill-rule="winding" /><path transform="matrix(1 0 0 -1 0 842)" d="M375.42 610.22L375.9 610.22L375.9 610.22L375.9 641.42L375.9 641.42L375.42 641.42z" stroke="none" fill="#000000" fill-rule="winding" /><path transform="matrix(1 0 0 -1 0 842)" d="M505.56 610.22L506.04 610.22L506.04 610.22L506.04 641.42L506.04 641.42L505.56 641.42z" stroke="none" fill="#000000" fill-rule="winding" /><path transform="matrix(1 0 0 -1 0 842)" d="M79.44 609.74L506.04 609.74L506.04 609.74L506.04 610.22L506.04 610.22L79.44 610.22z" stroke="none" fill="#000000" fill-rule="winding" /><path transform="matrix(1 0 0 -1 0 842)" d="M79.44 594.08L79.92001 594.08L79.92001 594.08L79.92001 609.74L79.92001 609.74L79.44 609.74z" stroke="none" fill="#000000" fill-rule="winding" /><path transform="matrix(1 0 0 -1 0 842)" d="M141.54 594.08L142.02 594.08L142.02 594.08L142.02 609.74L142.02 609.74L141.54 609.74z" stroke="none" fill="#000000" fill-rule="winding" /><path transform="matrix(1 0 0 -1 0 842)" d="M212.46 594.08L212.94 594.08L212.94 594.08L212.94 609.74L212.94 609.74L212.46 609.74z" stroke="none" fill="#000000" fill-rule="winding" /><path transform="matrix(1 0 0 -1 0 842)" d="M375.42 594.08L375.9 594.08L375.9 594.08L375.9 609.74L375.9 609.74L375.42 609.74z" stroke="none" fill="#000000" fill-rule="winding" /><path transform="matrix(1 0 0 -1 0 842)" d="M505.56 594.08L506.04 594.08L506.04 594.08L506.04 609.74L506.04 609.74L505.56 609.74z" stroke="none" fill="#000000" fill-rule="winding" /><path transform="matrix(1 0 0 -1 0 842)" d="M79.44 593.6L375.9 593.6L375.9 593.6L375.9 594.08L375.9 594.08L79.44 594.08z" stroke="none" fill="#000000" fill-rule="winding" /><path transform="matrix(1 0 0 -1 0 842)" d="M505.56 593.6L506.04 593.6L506.04 593.6L506.04 594.08L506.04 594.08L505.56 594.08z" stroke="none" fill="#000000" fill-rule="winding" /><path transform="matrix(1 0 0 -1 0 842)" d="M79.44 578L79.92001 578L79.92001 578L79.92001 593.6L79.92001 593.6L79.44 593.6z" stroke="none" fill="#000000" fill-rule="winding" /><path transform="matrix(1 0 0 -1 0 842)" d="M141.54 578L142.02 578L142.02 578L142.02 593.6L142.02 593.6L141.54 593.6z" stroke="none" fill="#000000" fill-rule="winding" /><path transform="matrix(1 0 0 -1 0 842)" d="M212.46 578L212.94 578L212.94 578L212.94 593.6L212.94 593.6L212.46 593.6z" stroke="none" fill="#000000" fill-rule="winding" /><path transform="matrix(1 0 0 -1 0 842)" d="M375.42 578L375.9 578L375.9 578L375.9 593.6L375.9 593.6L375.42 593.6z" stroke="none" fill="#000000" fill-rule="winding" /><path transform="matrix(1 0 0 -1 0 842)" d="M505.56 578L506.04 578L506.04 578L506.04 593.6L506.04 593.6L505.56 593.6z" stroke="none" fill="#000000" fill-rule="winding" /><path transform="matrix(1 0 0 -1 0 842)" d="M79.44 577.52L375.9 577.52L375.9 577.52L375.9 578.0001L375.9 578.0001L79.44 578.0001z" stroke="none" fill="#000000" fill-rule="winding" /><path transform="matrix(1 0 0 -1 0 842)" d="M505.56 577.52L506.04 577.52L506.04 577.52L506.04 578.0001L506.04 578.0001L505.56 578.0001z" stroke="none" fill="#000000" fill-rule="winding" /><path transform="matrix(1 0 0 -1 0 842)" d="M79.44 561.92L79.92001 561.92L79.92001 561.92L79.92001 577.52L79.92001 577.52L79.44 577.52z" stroke="none" fill="#000000" fill-rule="winding" /><path transform="matrix(1 0 0 -1 0 842)" d="M141.54 561.92L142.02 561.92L142.02 561.92L142.02 577.52L142.02 577.52L141.54 577.52z" stroke="none" fill="#000000" fill-rule="winding" /><path transform="matrix(1 0 0 -1 0 842)" d="M212.46 561.92L212.94 561.92L212.94 561.92L212.94 577.52L212.94 577.52L212.46 577.52z" stroke="none" fill="#000000" fill-rule="winding" /><path transform="matrix(1 0 0 -1 0 842)" d="M375.42 561.92L375.9 561.92L375.9 561.92L375.9 577.52L375.9 577.52L375.42 577.52z" stroke="none" fill="#000000" fill-rule="winding" /><path transform="matrix(1 0 0 -1 0 842)" d="M505.56 561.92L506.04 561.92L506.04 561.92L506.04 577.52L506.04 577.52L505.56 577.52z" stroke="none" fill="#000000" fill-rule="winding" /><path transform="matrix(1 0 0 -1 0 842)" d="M79.44 561.44L375.9 561.44L375.9 561.44L375.9 561.92L375.9 561.92L79.44 561.92z" stroke="none" fill="#000000" fill-rule="winding" /><path transform="matrix(1 0 0 -1 0 842)" d="M505.56 561.44L506.04 561.44L506.04 561.44L506.04 561.92L506.04 561.92L505.56 561.92z" stroke="none" fill="#000000" fill-rule="winding" /><path transform="matrix(1 0 0 -1 0 842)" d="M79.44 545.78L79.92001 545.78L79.92001 545.78L79.92001 561.44L79.92001 561.44L79.44 561.44z" stroke="none" fill="#000000" fill-rule="winding" /><path transform="matrix(1 0 0 -1 0 842)" d="M141.54 545.78L142.02 545.78L142.02 545.78L142.02 561.44L142.02 561.44L141.54 561.44z" stroke="none" fill="#000000" fill-rule="winding" /><path transform="matrix(1 0 0 -1 0 842)" d="M212.46 545.78L212.94 545.78L212.94 545.78L212.94 561.44L212.94 561.44L212.46 561.44z" stroke="none" fill="#000000" fill-rule="winding" /><path transform="matrix(1 0 0 -1 0 842)" d="M375.42 545.78L375.9 545.78L375.9 545.78L375.9 561.44L375.9 561.44L375.42 561.44z" stroke="none" fill="#000000" fill-rule="winding" /><path transform="matrix(1 0 0 -1 0 842)" d="M505.56 545.78L506.04 545.78L506.04 545.78L506.04 561.44L506.04 561.44L505.56 561.44z" stroke="none" fill="#000000" fill-rule="winding" /><path transform="matrix(1 0 0 -1 0 842)" d="M79.44 545.3L506.04 545.3L506.04 545.3L506.04 545.78L506.04 545.78L79.44 545.78z" stroke="none" fill="#000000" fill-rule="winding" /><path transform="matrix(1 0 0 -1 0 842)" d="M79.44 514.1L79.92001 514.1L79.92001 514.1L79.92001 545.3L79.92001 545.3L79.44 545.3z" stroke="none" fill="#000000" fill-rule="winding" /><path transform="matrix(1 0 0 -1 0 842)" d="M141.54 514.1L142.02 514.1L142.02 514.1L142.02 545.3L142.02 545.3L141.54 545.3z" stroke="none" fill="#000000" fill-rule="winding" /><path transform="matrix(1 0 0 -1 0 842)" d="M212.46 514.1L212.94 514.1L212.94 514.1L212.94 545.3L212.94 545.3L212.46 545.3z" stroke="none" fill="#000000" fill-rule="winding" /><path transform="matrix(1 0 0 -1 0 842)" d="M375.42 514.1L375.9 514.1L375.9 514.1L375.9 545.3L375.9 545.3L375.42 545.3z" stroke="none" fill="#000000" fill-rule="winding" /><path transform="matrix(1 0 0 -1 0 842)" d="M505.56 514.1L506.04 514.1L506.04 514.1L506.04 545.3L506.04 545.3L505.56 545.3z" stroke="none" fill="#000000" fill-rule="winding" /><path transform="matrix(1 0 0 -1 0 842)" d="M79.44 513.62L506.04 513.62L506.04 513.62L506.04 514.1L506.04 514.1L79.44 514.1z" stroke="none" fill="#000000" fill-rule="winding" /><path transform="matrix(1 0 0 -1 0 842)" d="M79.44 498.02L79.92001 498.02L79.92001 498.02L79.92001 513.62L79.92001 513.62L79.44 513.62z" stroke="none" fill="#000000" fill-rule="winding" /><path transform="matrix(1 0 0 -1 0 842)" d="M141.54 498.02L142.02 498.02L142.02 498.02L142.02 513.62L142.02 513.62L141.54 513.62z" stroke="none" fill="#000000" fill-rule="winding" /><path transform="matrix(1 0 0 -1 0 842)" d="M212.46 498.02L212.94 498.02L212.94 498.02L212.94 513.62L212.94 513.62L212.46 513.62z" stroke="none" fill="#000000" fill-rule="winding" /><path transform="matrix(1 0 0 -1 0 842)" d="M375.42 498.02L375.9 498.02L375.9 498.02L375.9 513.62L375.9 513.62L375.42 513.62z" stroke="none" fill="#000000" fill-rule="winding" /><path transform="matrix(1 0 0 -1 0 842)" d="M505.56 498.02L506.04 498.02L506.04 498.02L506.04 513.62L506.04 513.62L505.56 513.62z" stroke="none" fill="#000000" fill-rule="winding" /><path transform="matrix(1 0 0 -1 0 842)" d="M79.44 497.54L375.9 497.54L375.9 497.54L375.9 498.02L375.9 498.02L79.44 498.02z" stroke="none" fill="#000000" fill-rule="winding" /><path transform="matrix(1 0 0 -1 0 842)" d="M505.56 497.54L506.04 497.54L506.04 497.54L506.04 498.02L506.04 498.02L505.56 498.02z" stroke="none" fill="#000000" fill-rule="winding" /><path transform="matrix(1 0 0 -1 0 842)" d="M79.44 481.88L79.92001 481.88L79.92001 481.88L79.92001 497.54L79.92001 497.54L79.44 497.54z" stroke="none" fill="#000000" fill-rule="winding" /><path transform="matrix(1 0 0 -1 0 842)" d="M141.54 481.88L142.02 481.88L142.02 481.88L142.02 497.54L142.02 497.54L141.54 497.54z" stroke="none" fill="#000000" fill-rule="winding" /><path transform="matrix(1 0 0 -1 0 842)" d="M212.46 481.88L212.94 481.88L212.94 481.88L212.94 497.54L212.94 497.54L212.46 497.54z" stroke="none" fill="#000000" fill-rule="winding" /><path transform="matrix(1 0 0 -1 0 842)" d="M375.42 481.88L375.9 481.88L375.9 481.88L375.9 497.54L375.9 497.54L375.42 497.54z" stroke="none" fill="#000000" fill-rule="winding" /><path transform="matrix(1 0 0 -1 0 842)" d="M505.56 481.88L506.04 481.88L506.04 481.88L506.04 497.54L506.04 497.54L505.56 497.54z" stroke="none" fill="#000000" fill-rule="winding" /><path transform="matrix(1 0 0 -1 0 842)" d="M79.44 481.4L375.9 481.4L375.9 481.4L375.9 481.88L375.9 481.88L79.44 481.88z" stroke="none" fill="#000000" fill-rule="winding" /><path transform="matrix(1 0 0 -1 0 842)" d="M505.56 481.4L506.04 481.4L506.04 481.4L506.04 481.88L506.04 481.88L505.56 481.88z" stroke="none" fill="#000000" fill-rule="winding" /><path transform="matrix(1 0 0 -1 0 842)" d="M79.44 465.8L79.92001 465.8L79.92001 465.8L79.92001 481.4L79.92001 481.4L79.44 481.4z" stroke="none" fill="#000000" fill-rule="winding" /><path transform="matrix(1 0 0 -1 0 842)" d="M141.54 465.8L142.02 465.8L142.02 465.8L142.02 481.4L142.02 481.4L141.54 481.4z" stroke="none" fill="#000000" fill-rule="winding" /><path transform="matrix(1 0 0 -1 0 842)" d="M212.46 465.8L212.94 465.8L212.94 465.8L212.94 481.4L212.94 481.4L212.46 481.4z" stroke="none" fill="#000000" fill-rule="winding" /><path transform="matrix(1 0 0 -1 0 842)" d="M375.42 465.8L375.9 465.8L375.9 465.8L375.9 481.4L375.9 481.4L375.42 481.4z" stroke="none" fill="#000000" fill-rule="winding" /><path transform="matrix(1 0 0 -1 0 842)" d="M505.56 465.8L506.04 465.8L506.04 465.8L506.04 481.4L506.04 481.4L505.56 481.4z" stroke="none" fill="#000000" fill-rule="winding" /><path transform="matrix(1 0 0 -1 0 842)" d="M79.44 465.32L375.9 465.32L375.9 465.32L375.9 465.8L375.9 465.8L79.44 465.8z" stroke="none" fill="#000000" fill-rule="winding" /><path transform="matrix(1 0 0 -1 0 842)" d="M505.56 465.32L506.04 465.32L506.04 465.32L506.04 465.8L506.04 465.8L505.56 465.8z" stroke="none" fill="#000000" fill-rule="winding" /><path transform="matrix(1 0 0 -1 0 842)" d="M79.44 449.72L79.92001 449.72L79.92001 449.72L79.92001 465.32L79.92001 465.32L79.44 465.32z" stroke="none" fill="#000000" fill-rule="winding" /><path transform="matrix(1 0 0 -1 0 842)" d="M141.54 449.72L142.02 449.72L142.02 449.72L142.02 465.32L142.02 465.32L141.54 465.32z" stroke="none" fill="#000000" fill-rule="winding" /><path transform="matrix(1 0 0 -1 0 842)" d="M212.46 449.72L212.94 449.72L212.94 449.72L212.94 465.32L212.94 465.32L212.46 465.32z" stroke="none" fill="#000000" fill-rule="winding" /><path transform="matrix(1 0 0 -1 0 842)" d="M375.42 449.72L375.9 449.72L375.9 449.72L375.9 465.32L375.9 465.32L375.42 465.32z" stroke="none" fill="#000000" fill-rule="winding" /><path transform="matrix(1 0 0 -1 0 842)" d="M505.56 449.72L506.04 449.72L506.04 449.72L506.04 465.32L506.04 465.32L505.56 465.32z" stroke="none" fill="#000000" fill-rule="winding" /><path transform="matrix(1 0 0 -1 0 842)" d="M79.44 449.24L375.9 449.24L375.9 449.24L375.9 449.72L375.9 449.72L79.44 449.72z" stroke="none" fill="#000000" fill-rule="winding" /><path transform="matrix(1 0 0 -1 0 842)" d="M505.56 449.24L506.04 449.24L506.04 449.24L506.04 449.72L506.04 449.72L505.56 449.72z" stroke="none" fill="#000000" fill-rule="winding" /><path transform="matrix(1 0 0 -1 0 842)" d="M79.44 433.58L79.92001 433.58L79.92001 433.58L79.92001 449.24L79.92001 449.24L79.44 449.24z" stroke="none" fill="#000000" fill-rule="winding" /><path transform="matrix(1 0 0 -1 0 842)" d="M141.54 433.58L142.02 433.58L142.02 433.58L142.02 449.24L142.02 449.24L141.54 449.24z" stroke="none" fill="#000000" fill-rule="winding" /><path transform="matrix(1 0 0 -1 0 842)" d="M212.46 433.58L212.94 433.58L212.94 433.58L212.94 449.24L212.94 449.24L212.46 449.24z" stroke="none" fill="#000000" fill-rule="winding" /><path transform="matrix(1 0 0 -1 0 842)" d="M375.42 433.58L375.9 433.58L375.9 433.58L375.9 449.24L375.9 449.24L375.42 449.24z" stroke="none" fill="#000000" fill-rule="winding" /><path transform="matrix(1 0 0 -1 0 842)" d="M505.56 433.58L506.04 433.58L506.04 433.58L506.04 449.24L506.04 449.24L505.56 449.24z" stroke="none" fill="#000000" fill-rule="winding" /><path transform="matrix(1 0 0 -1 0 842)" d="M79.44 433.1L506.04 433.1L506.04 433.1L506.04 433.58L506.04 433.58L79.44 433.58z" stroke="none" fill="#000000" fill-rule="winding" /><path transform="matrix(1 0 0 -1 0 842)" d="M79.44 401.9L79.92001 401.9L79.92001 401.9L79.92001 433.1L79.92001 433.1L79.44 433.1z" stroke="none" fill="#000000" fill-rule="winding" /><path transform="matrix(1 0 0 -1 0 842)" d="M141.54 401.9L142.02 401.9L142.02 401.9L142.02 433.1L142.02 433.1L141.54 433.1z" stroke="none" fill="#000000" fill-rule="winding" /><path transform="matrix(1 0 0 -1 0 842)" d="M212.46 401.9L212.94 401.9L212.94 401.9L212.94 433.1L212.94 433.1L212.46 433.1z" stroke="none" fill="#000000" fill-rule="winding" /><path transform="matrix(1 0 0 -1 0 842)" d="M375.42 401.9L375.9 401.9L375.9 401.9L375.9 433.1L375.9 433.1L375.42 433.1z" stroke="none" fill="#000000" fill-rule="winding" /><path transform="matrix(1 0 0 -1 0 842)" d="M505.56 401.9L506.04 401.9L506.04 401.9L506.04 433.1L506.04 433.1L505.56 433.1z" stroke="none" fill="#000000" fill-rule="winding" /><path transform="matrix(1 0 0 -1 0 842)" d="M79.44 401.42L375.9 401.42L375.9 401.42L375.9 401.9L375.9 401.9L79.44 401.9z" stroke="none" fill="#000000" fill-rule="winding" /><path transform="matrix(1 0 0 -1 0 842)" d="M375.9 401.9L446.34 401.9L446.34 401.9L446.34 401.42L446.34 401.42L375.9 401.42" stroke="none" fill="#000000" fill-rule="winding" /><path transform="matrix(1 0 0 -1 0 842)" d="M446.34 401.42L506.04 401.42L506.04 401.42L506.04 401.9L506.04 401.9L446.34 401.9z" stroke="none" fill="#000000" fill-rule="winding" /><path transform="matrix(1 0 0 -1 0 842)" d="M79.44 370.22L79.92001 370.22L79.92001 370.22L79.92001 401.42L79.92001 401.42L79.44 401.42z" stroke="none" fill="#000000" fill-rule="winding" /><path transform="matrix(1 0 0 -1 0 842)" d="M141.54 370.22L142.02 370.22L142.02 370.22L142.02 401.42L142.02 401.42L141.54 401.42z" stroke="none" fill="#000000" fill-rule="winding" /><path transform="matrix(1 0 0 -1 0 842)" d="M212.46 370.22L212.94 370.22L212.94 370.22L212.94 401.42L212.94 401.42L212.46 401.42z" stroke="none" fill="#000000" fill-rule="winding" /><path transform="matrix(1 0 0 -1 0 842)" d="M375.42 370.22L375.9 370.22L375.9 370.22L375.9 401.42L375.9 401.42L375.42 401.42z" stroke="none" fill="#000000" fill-rule="winding" /><path transform="matrix(1 0 0 -1 0 842)" d="M446.34 370.22L446.82 370.22L446.82 370.22L446.82 401.42L446.82 401.42L446.34 401.42z" stroke="none" fill="#000000" fill-rule="winding" /><path transform="matrix(1 0 0 -1 0 842)" d="M505.56 370.22L506.04 370.22L506.04 370.22L506.04 401.42L506.04 401.42L505.56 401.42z" stroke="none" fill="#000000" fill-rule="winding" /><path transform="matrix(1 0 0 -1 0 842)" d="M79.44 369.74L375.9 369.74L375.9 369.74L375.9 370.22L375.9 370.22L79.44 370.22z" stroke="none" fill="#000000" fill-rule="winding" /><path transform="matrix(1 0 0 -1 0 842)" d="M375.9 370.22L446.34 370.22L446.34 370.22L446.34 369.74L446.34 369.74L375.9 369.74" stroke="none" fill="#000000" fill-rule="winding" /><path transform="matrix(1 0 0 -1 0 842)" d="M446.34 369.74L446.82 369.74L446.82 369.74L446.82 370.22L446.82 370.22L446.34 370.22z" stroke="none" fill="#000000" fill-rule="winding" /><path transform="matrix(1 0 0 -1 0 842)" d="M505.56 369.74L506.04 369.74L506.04 369.74L506.04 370.22L506.04 370.22L505.56 370.22z" stroke="none" fill="#000000" fill-rule="winding" /><path transform="matrix(1 0 0 -1 0 842)" d="M79.44 338.48L79.92001 338.48L79.92001 338.48L79.92001 369.74L79.92001 369.74L79.44 369.74z" stroke="none" fill="#000000" fill-rule="winding" /><path transform="matrix(1 0 0 -1 0 842)" d="M141.54 338.48L142.02 338.48L142.02 338.48L142.02 369.74L142.02 369.74L141.54 369.74z" stroke="none" fill="#000000" fill-rule="winding" /><path transform="matrix(1 0 0 -1 0 842)" d="M212.46 338.48L212.94 338.48L212.94 338.48L212.94 369.74L212.94 369.74L212.46 369.74z" stroke="none" fill="#000000" fill-rule="winding" /><path transform="matrix(1 0 0 -1 0 842)" d="M375.42 338.48L375.9 338.48L375.9 338.48L375.9 369.74L375.9 369.74L375.42 369.74z" stroke="none" fill="#000000" fill-rule="winding" /><path transform="matrix(1 0 0 -1 0 842)" d="M446.34 338.48L446.82 338.48L446.82 338.48L446.82 369.74L446.82 369.74L446.34 369.74z" stroke="none" fill="#000000" fill-rule="winding" /><path transform="matrix(1 0 0 -1 0 842)" d="M505.56 338.48L506.04 338.48L506.04 338.48L506.04 369.74L506.04 369.74L505.56 369.74z" stroke="none" fill="#000000" fill-rule="winding" /><path transform="matrix(1 0 0 -1 0 842)" d="M79.44 338L375.9 338L375.9 338L375.9 338.48L375.9 338.48L79.44 338.48z" stroke="none" fill="#000000" fill-rule="winding" /><path transform="matrix(1 0 0 -1 0 842)" d="M375.9 338.48L446.34 338.48L446.34 338.48L446.34 338L446.34 338L375.9 338" stroke="none" fill="#000000" fill-rule="winding" /><path transform="matrix(1 0 0 -1 0 842)" d="M446.34 338L506.04 338L506.04 338L506.04 338.48L506.04 338.48L446.34 338.48z" stroke="none" fill="#000000" fill-rule="winding" /><path transform="matrix(1 0 0 -1 0 842)" d="M79.44 322.4L79.92001 322.4L79.92001 322.4L79.92001 338L79.92001 338L79.44 338z" stroke="none" fill="#000000" fill-rule="winding" /><path transform="matrix(1 0 0 -1 0 842)" d="M141.54 322.4L142.02 322.4L142.02 322.4L142.02 338L142.02 338L141.54 338z" stroke="none" fill="#000000" fill-rule="winding" /><path transform="matrix(1 0 0 -1 0 842)" d="M212.46 322.4L212.94 322.4L212.94 322.4L212.94 338L212.94 338L212.46 338z" stroke="none" fill="#000000" fill-rule="winding" /><path transform="matrix(1 0 0 -1 0 842)" d="M375.42 322.4L375.9 322.4L375.9 322.4L375.9 338L375.9 338L375.42 338z" stroke="none" fill="#000000" fill-rule="winding" /><path transform="matrix(1 0 0 -1 0 842)" d="M505.56 322.4L506.04 322.4L506.04 322.4L506.04 338L506.04 338L505.56 338z" stroke="none" fill="#000000" fill-rule="winding" /><path transform="matrix(1 0 0 -1 0 842)" d="M79.44 321.92L375.9 321.92L375.9 321.92L375.9 322.4L375.9 322.4L79.44 322.4z" stroke="none" fill="#000000" fill-rule="winding" /><path transform="matrix(1 0 0 -1 0 842)" d="M505.56 321.92L506.04 321.92L506.04 321.92L506.04 322.4L506.04 322.4L505.56 322.4z" stroke="none" fill="#000000" fill-rule="winding" /><path transform="matrix(1 0 0 -1 0 842)" d="M79.44 306.32L79.92001 306.32L79.92001 306.32L79.92001 321.92L79.92001 321.92L79.44 321.92z" stroke="none" fill="#000000" fill-rule="winding" /><path transform="matrix(1 0 0 -1 0 842)" d="M141.54 306.32L142.02 306.32L142.02 306.32L142.02 321.92L142.02 321.92L141.54 321.92z" stroke="none" fill="#000000" fill-rule="winding" /><path transform="matrix(1 0 0 -1 0 842)" d="M212.46 306.32L212.94 306.32L212.94 306.32L212.94 321.92L212.94 321.92L212.46 321.92z" stroke="none" fill="#000000" fill-rule="winding" /><path transform="matrix(1 0 0 -1 0 842)" d="M375.42 306.32L375.9 306.32L375.9 306.32L375.9 321.92L375.9 321.92L375.42 321.92z" stroke="none" fill="#000000" fill-rule="winding" /><path transform="matrix(1 0 0 -1 0 842)" d="M505.56 306.32L506.04 306.32L506.04 306.32L506.04 321.92L506.04 321.92L505.56 321.92z" stroke="none" fill="#000000" fill-rule="winding" /><path transform="matrix(1 0 0 -1 0 842)" d="M79.44 305.84L375.9 305.84L375.9 305.84L375.9 306.32L375.9 306.32L79.44 306.32z" stroke="none" fill="#000000" fill-rule="winding" /><path transform="matrix(1 0 0 -1 0 842)" d="M505.56 305.84L506.04 305.84L506.04 305.84L506.04 306.32L506.04 306.32L505.56 306.32z" stroke="none" fill="#000000" fill-rule="winding" /><path transform="matrix(1 0 0 -1 0 842)" d="M79.44 290.18L79.92001 290.18L79.92001 290.18L79.92001 305.84L79.92001 305.84L79.44 305.84z" stroke="none" fill="#000000" fill-rule="winding" /><path transform="matrix(1 0 0 -1 0 842)" d="M141.54 290.18L142.02 290.18L142.02 290.18L142.02 305.84L142.02 305.84L141.54 305.84z" stroke="none" fill="#000000" fill-rule="winding" /><path transform="matrix(1 0 0 -1 0 842)" d="M212.46 290.18L212.94 290.18L212.94 290.18L212.94 305.84L212.94 305.84L212.46 305.84z" stroke="none" fill="#000000" fill-rule="winding" /><path transform="matrix(1 0 0 -1 0 842)" d="M375.42 290.18L375.9 290.18L375.9 290.18L375.9 305.84L375.9 305.84L375.42 305.84z" stroke="none" fill="#000000" fill-rule="winding" /><path transform="matrix(1 0 0 -1 0 842)" d="M505.56 290.18L506.04 290.18L506.04 290.18L506.04 305.84L506.04 305.84L505.56 305.84z" stroke="none" fill="#000000" fill-rule="winding" /><path transform="matrix(1 0 0 -1 0 842)" d="M79.44 289.7L375.9 289.7L375.9 289.7L375.9 290.18L375.9 290.18L79.44 290.18z" stroke="none" fill="#000000" fill-rule="winding" /><path transform="matrix(1 0 0 -1 0 842)" d="M375.9 290.18L446.34 290.18L446.34 290.18L446.34 289.7L446.34 289.7L375.9 289.7" stroke="none" fill="#000000" fill-rule="winding" /><path transform="matrix(1 0 0 -1 0 842)" d="M446.34 289.7L506.04 289.7L506.04 289.7L506.04 290.18L506.04 290.18L446.34 290.18z" stroke="none" fill="#000000" fill-rule="winding" /><path transform="matrix(1 0 0 -1 0 842)" d="M79.44 258.5L79.92001 258.5L79.92001 258.5L79.92001 289.7L79.92001 289.7L79.44 289.7z" stroke="none" fill="#000000" fill-rule="winding" /><path transform="matrix(1 0 0 -1 0 842)" d="M141.54 258.5L142.02 258.5L142.02 258.5L142.02 289.7L142.02 289.7L141.54 289.7z" stroke="none" fill="#000000" fill-rule="winding" /><path transform="matrix(1 0 0 -1 0 842)" d="M212.46 258.5L212.94 258.5L212.94 258.5L212.94 289.7L212.94 289.7L212.46 289.7z" stroke="none" fill="#000000" fill-rule="winding" /><path transform="matrix(1 0 0 -1 0 842)" d="M375.42 258.5L375.9 258.5L375.9 258.5L375.9 289.7L375.9 289.7L375.42 289.7z" stroke="none" fill="#000000" fill-rule="winding" /><path transform="matrix(1 0 0 -1 0 842)" d="M446.34 258.5L446.82 258.5L446.82 258.5L446.82 289.7L446.82 289.7L446.34 289.7z" stroke="none" fill="#000000" fill-rule="winding" /><path transform="matrix(1 0 0 -1 0 842)" d="M505.56 258.5L506.04 258.5L506.04 258.5L506.04 289.7L506.04 289.7L505.56 289.7z" stroke="none" fill="#000000" fill-rule="winding" /><path transform="matrix(1 0 0 -1 0 842)" d="M79.44 258.02L375.9 258.02L375.9 258.02L375.9 258.5L375.9 258.5L79.44 258.5z" stroke="none" fill="#000000" fill-rule="winding" /><path transform="matrix(1 0 0 -1 0 842)" d="M375.9 258.5L446.34 258.5L446.34 258.5L446.34 258.02L446.34 258.02L375.9 258.02" stroke="none" fill="#000000" fill-rule="winding" /><path transform="matrix(1 0 0 -1 0 842)" d="M446.34 258.02L446.82 258.02L446.82 258.02L446.82 258.5L446.82 258.5L446.34 258.5z" stroke="none" fill="#000000" fill-rule="winding" /><path transform="matrix(1 0 0 -1 0 842)" d="M505.56 258.02L506.04 258.02L506.04 258.02L506.04 258.5L506.04 258.5L505.56 258.5z" stroke="none" fill="#000000" fill-rule="winding" /><path transform="matrix(1 0 0 -1 0 842)" d="M79.44 226.82L79.92001 226.82L79.92001 226.82L79.92001 258.02L79.92001 258.02L79.44 258.02z" stroke="none" fill="#000000" fill-rule="winding" /><path transform="matrix(1 0 0 -1 0 842)" d="M141.54 226.82L142.02 226.82L142.02 226.82L142.02 258.02L142.02 258.02L141.54 258.02z" stroke="none" fill="#000000" fill-rule="winding" /><path transform="matrix(1 0 0 -1 0 842)" d="M212.46 226.82L212.94 226.82L212.94 226.82L212.94 258.02L212.94 258.02L212.46 258.02z" stroke="none" fill="#000000" fill-rule="winding" /><path transform="matrix(1 0 0 -1 0 842)" d="M375.42 226.82L375.9 226.82L375.9 226.82L375.9 258.02L375.9 258.02L375.42 258.02z" stroke="none" fill="#000000" fill-rule="winding" /><path transform="matrix(1 0 0 -1 0 842)" d="M446.34 226.82L446.82 226.82L446.82 226.82L446.82 258.02L446.82 258.02L446.34 258.02z" stroke="none" fill="#000000" fill-rule="winding" /><path transform="matrix(1 0 0 -1 0 842)" d="M505.56 226.82L506.04 226.82L506.04 226.82L506.04 258.02L506.04 258.02L505.56 258.02z" stroke="none" fill="#000000" fill-rule="winding" /><path transform="matrix(1 0 0 -1 0 842)" d="M79.44 226.34L375.9 226.34L375.9 226.34L375.9 226.82L375.9 226.82L79.44 226.82z" stroke="none" fill="#000000" fill-rule="winding" /><path transform="matrix(1 0 0 -1 0 842)" d="M375.9 226.82L446.34 226.82L446.34 226.82L446.34 226.34L446.34 226.34L375.9 226.34" stroke="none" fill="#000000" fill-rule="winding" /><path transform="matrix(1 0 0 -1 0 842)" d="M446.34 226.34L506.04 226.34L506.04 226.34L506.04 226.82L506.04 226.82L446.34 226.82z" stroke="none" fill="#000000" fill-rule="winding" /><path transform="matrix(1 0 0 -1 0 842)" d="M79.44 210.68L79.92001 210.68L79.92001 210.68L79.92001 226.34L79.92001 226.34L79.44 226.34z" stroke="none" fill="#000000" fill-rule="winding" /><path transform="matrix(1 0 0 -1 0 842)" d="M141.54 210.68L142.02 210.68L142.02 210.68L142.02 226.34L142.02 226.34L141.54 226.34z" stroke="none" fill="#000000" fill-rule="winding" /><path transform="matrix(1 0 0 -1 0 842)" d="M212.46 210.68L212.94 210.68L212.94 210.68L212.94 226.34L212.94 226.34L212.46 226.34z" stroke="none" fill="#000000" fill-rule="winding" /><path transform="matrix(1 0 0 -1 0 842)" d="M375.42 210.68L375.9 210.68L375.9 210.68L375.9 226.34L375.9 226.34L375.42 226.34z" stroke="none" fill="#000000" fill-rule="winding" /><path transform="matrix(1 0 0 -1 0 842)" d="M505.56 210.68L506.04 210.68L506.04 210.68L506.04 226.34L506.04 226.34L505.56 226.34z" stroke="none" fill="#000000" fill-rule="winding" /><path transform="matrix(1 0 0 -1 0 842)" d="M79.44 210.2L375.9 210.2L375.9 210.2L375.9 210.68L375.9 210.68L79.44 210.68z" stroke="none" fill="#000000" fill-rule="winding" /><path transform="matrix(1 0 0 -1 0 842)" d="M505.56 210.2L506.04 210.2L506.04 210.2L506.04 210.68L506.04 210.68L505.56 210.68z" stroke="none" fill="#000000" fill-rule="winding" /><path transform="matrix(1 0 0 -1 0 842)" d="M79.44 194.6L79.92001 194.6L79.92001 194.6L79.92001 210.2L79.92001 210.2L79.44 210.2z" stroke="none" fill="#000000" fill-rule="winding" /><path transform="matrix(1 0 0 -1 0 842)" d="M141.54 194.6L142.02 194.6L142.02 194.6L142.02 210.2L142.02 210.2L141.54 210.2z" stroke="none" fill="#000000" fill-rule="winding" /><path transform="matrix(1 0 0 -1 0 842)" d="M212.46 194.6L212.94 194.6L212.94 194.6L212.94 210.2L212.94 210.2L212.46 210.2z" stroke="none" fill="#000000" fill-rule="winding" /><path transform="matrix(1 0 0 -1 0 842)" d="M375.42 194.6L375.9 194.6L375.9 194.6L375.9 210.2L375.9 210.2L375.42 210.2z" stroke="none" fill="#000000" fill-rule="winding" /><path transform="matrix(1 0 0 -1 0 842)" d="M505.56 194.6L506.04 194.6L506.04 194.6L506.04 210.2L506.04 210.2L505.56 210.2z" stroke="none" fill="#000000" fill-rule="winding" /><path transform="matrix(1 0 0 -1 0 842)" d="M79.44 194.12L375.9 194.12L375.9 194.12L375.9 194.6L375.9 194.6L79.44 194.6z" stroke="none" fill="#000000" fill-rule="winding" /><path transform="matrix(1 0 0 -1 0 842)" d="M505.56 194.12L506.04 194.12L506.04 194.12L506.04 194.6L506.04 194.6L505.56 194.6z" stroke="none" fill="#000000" fill-rule="winding" /><path transform="matrix(1 0 0 -1 0 842)" d="M79.44 178.52L79.92001 178.52L79.92001 178.52L79.92001 194.12L79.92001 194.12L79.44 194.12z" stroke="none" fill="#000000" fill-rule="winding" /><path transform="matrix(1 0 0 -1 0 842)" d="M141.54 178.52L142.02 178.52L142.02 178.52L142.02 194.12L142.02 194.12L141.54 194.12z" stroke="none" fill="#000000" fill-rule="winding" /><path transform="matrix(1 0 0 -1 0 842)" d="M212.46 178.52L212.94 178.52L212.94 178.52L212.94 194.12L212.94 194.12L212.46 194.12z" stroke="none" fill="#000000" fill-rule="winding" /><path transform="matrix(1 0 0 -1 0 842)" d="M375.42 178.52L375.9 178.52L375.9 178.52L375.9 194.12L375.9 194.12L375.42 194.12z" stroke="none" fill="#000000" fill-rule="winding" /><path transform="matrix(1 0 0 -1 0 842)" d="M505.56 178.52L506.04 178.52L506.04 178.52L506.04 194.12L506.04 194.12L505.56 194.12z" stroke="none" fill="#000000" fill-rule="winding" /><path transform="matrix(1 0 0 -1 0 842)" d="M79.44 178.04L506.04 178.04L506.04 178.04L506.04 178.52L506.04 178.52L79.44 178.52z" stroke="none" fill="#000000" fill-rule="winding" /><path transform="matrix(1 0 0 -1 0 842)" d="M79.44 162.38L79.92001 162.38L79.92001 162.38L79.92001 178.04L79.92001 178.04L79.44 178.04z" stroke="none" fill="#000000" fill-rule="winding" /><path transform="matrix(1 0 0 -1 0 842)" d="M141.54 162.38L142.02 162.38L142.02 162.38L142.02 178.04L142.02 178.04L141.54 178.04z" stroke="none" fill="#000000" fill-rule="winding" /><path transform="matrix(1 0 0 -1 0 842)" d="M212.46 162.38L212.94 162.38L212.94 162.38L212.94 178.04L212.94 178.04L212.46 178.04z" stroke="none" fill="#000000" fill-rule="winding" /><path transform="matrix(1 0 0 -1 0 842)" d="M375.42 162.38L375.9 162.38L375.9 162.38L375.9 178.04L375.9 178.04L375.42 178.04z" stroke="none" fill="#000000" fill-rule="winding" /><path transform="matrix(1 0 0 -1 0 842)" d="M505.56 162.38L506.04 162.38L506.04 162.38L506.04 178.04L506.04 178.04L505.56 178.04z" stroke="none" fill="#000000" fill-rule="winding" /><path transform="matrix(1 0 0 -1 0 842)" d="M79.44 161.9L375.9 161.9L375.9 161.9L375.9 162.38L375.9 162.38L79.44 162.38z" stroke="none" fill="#000000" fill-rule="winding" /><path transform="matrix(1 0 0 -1 0 842)" d="M505.56 161.9L506.04 161.9L506.04 161.9L506.04 162.38L506.04 162.38L505.56 162.38z" stroke="none" fill="#000000" fill-rule="winding" /><path transform="matrix(1 0 0 -1 0 842)" d="M79.44 146.3L79.92001 146.3L79.92001 146.3L79.92001 161.9L79.92001 161.9L79.44 161.9z" stroke="none" fill="#000000" fill-rule="winding" /><path transform="matrix(1 0 0 -1 0 842)" d="M141.54 146.3L142.02 146.3L142.02 146.3L142.02 161.9L142.02 161.9L141.54 161.9z" stroke="none" fill="#000000" fill-rule="winding" /><path transform="matrix(1 0 0 -1 0 842)" d="M212.46 146.3L212.94 146.3L212.94 146.3L212.94 161.9L212.94 161.9L212.46 161.9z" stroke="none" fill="#000000" fill-rule="winding" /><path transform="matrix(1 0 0 -1 0 842)" d="M375.42 146.3L375.9 146.3L375.9 146.3L375.9 161.9L375.9 161.9L375.42 161.9z" stroke="none" fill="#000000" fill-rule="winding" /><path transform="matrix(1 0 0 -1 0 842)" d="M505.56 146.3L506.04 146.3L506.04 146.3L506.04 161.9L506.04 161.9L505.56 161.9z" stroke="none" fill="#000000" fill-rule="winding" /><path transform="matrix(1 0 0 -1 0 842)" d="M79.44 145.82L375.9 145.82L375.9 145.82L375.9 146.3L375.9 146.3L79.44 146.3z" stroke="none" fill="#000000" fill-rule="winding" /><path transform="matrix(1 0 0 -1 0 842)" d="M505.56 145.82L506.04 145.82L506.04 145.82L506.04 146.3L506.04 146.3L505.56 146.3z" stroke="none" fill="#000000" fill-rule="winding" /><path transform="matrix(1 0 0 -1 0 842)" d="M79.44 130.22L79.92001 130.22L79.92001 130.22L79.92001 145.82L79.92001 145.82L79.44 145.82z" stroke="none" fill="#000000" fill-rule="winding" /><path transform="matrix(1 0 0 -1 0 842)" d="M141.54 130.22L142.02 130.22L142.02 130.22L142.02 145.82L142.02 145.82L141.54 145.82z" stroke="none" fill="#000000" fill-rule="winding" /><path transform="matrix(1 0 0 -1 0 842)" d="M212.46 130.22L212.94 130.22L212.94 130.22L212.94 145.82L212.94 145.82L212.46 145.82z" stroke="none" fill="#000000" fill-rule="winding" /><path transform="matrix(1 0 0 -1 0 842)" d="M375.42 130.22L375.9 130.22L375.9 130.22L375.9 145.82L375.9 145.82L375.42 145.82z" stroke="none" fill="#000000" fill-rule="winding" /><path transform="matrix(1 0 0 -1 0 842)" d="M505.56 130.22L506.04 130.22L506.04 130.22L506.04 145.82L506.04 145.82L505.56 145.82z" stroke="none" fill="#000000" fill-rule="winding" /><path transform="matrix(1 0 0 -1 0 842)" d="M79.44 129.74L375.9 129.74L375.9 129.74L375.9 130.22L375.9 130.22L79.44 130.22z" stroke="none" fill="#000000" fill-rule="winding" /><path transform="matrix(1 0 0 -1 0 842)" d="M505.56 129.74L506.04 129.74L506.04 129.74L506.04 130.22L506.04 130.22L505.56 130.22z" stroke="none" fill="#000000" fill-rule="winding" /><path transform="matrix(1 0 0 -1 0 842)" d="M79.44 114.08L79.92001 114.08L79.92001 114.08L79.92001 129.74L79.92001 129.74L79.44 129.74z" stroke="none" fill="#000000" fill-rule="winding" /><path transform="matrix(1 0 0 -1 0 842)" d="M141.54 114.08L142.02 114.08L142.02 114.08L142.02 129.74L142.02 129.74L141.54 129.74z" stroke="none" fill="#000000" fill-rule="winding" /><path transform="matrix(1 0 0 -1 0 842)" d="M212.46 114.08L212.94 114.08L212.94 114.08L212.94 129.74L212.94 129.74L212.46 129.74z" stroke="none" fill="#000000" fill-rule="winding" /><path transform="matrix(1 0 0 -1 0 842)" d="M375.42 114.08L375.9 114.08L375.9 114.08L375.9 129.74L375.9 129.74L375.42 129.74z" stroke="none" fill="#000000" fill-rule="winding" /><path transform="matrix(1 0 0 -1 0 842)" d="M505.56 114.08L506.04 114.08L506.04 114.08L506.04 129.74L506.04 129.74L505.56 129.74z" stroke="none" fill="#000000" fill-rule="winding" /><path transform="matrix(1 0 0 -1 0 842)" d="M79.44 113.6L506.04 113.6L506.04 113.6L506.04 114.08L506.04 114.08L79.44 114.08z" stroke="none" fill="#000000" fill-rule="winding" /><path transform="matrix(1 0 0 -1 0 842)" d="M79.44 98L79.92001 98L79.92001 98L79.92001 113.6L79.92001 113.6L79.44 113.6z" stroke="none" fill="#000000" fill-rule="winding" /><path transform="matrix(1 0 0 -1 0 842)" d="M141.54 98L142.02 98L142.02 98L142.02 113.6L142.02 113.6L141.54 113.6z" stroke="none" fill="#000000" fill-rule="winding" /><path transform="matrix(1 0 0 -1 0 842)" d="M212.46 98L212.94 98L212.94 98L212.94 113.6L212.94 113.6L212.46 113.6z" stroke="none" fill="#000000" fill-rule="winding" /><path transform="matrix(1 0 0 -1 0 842)" d="M375.42 98L375.9 98L375.9 98L375.9 113.6L375.9 113.6L375.42 113.6z" stroke="none" fill="#000000" fill-rule="winding" /><path transform="matrix(1 0 0 -1 0 842)" d="M505.56 98L506.04 98L506.04 98L506.04 113.6L506.04 113.6L505.56 113.6z" stroke="none" fill="#000000" fill-rule="winding" /><path transform="matrix(1 0 0 -1 0 842)" d="M79.44 97.52L375.9 97.52L375.9 97.52L375.9 98.00001L375.9 98.00001L79.44 98.00001z" stroke="none" fill="#000000" fill-rule="winding" /><path transform="matrix(1 0 0 -1 0 842)" d="M505.56 97.52L506.04 97.52L506.04 97.52L506.04 98.00001L506.04 98.00001L505.56 98.00001z" stroke="none" fill="#000000" fill-rule="winding" /><path transform="matrix(1 0 0 -1 0 842)" d="M79.44 81.92L79.92001 81.92L79.92001 81.92L79.92001 97.52L79.92001 97.52L79.44 97.52z" stroke="none" fill="#000000" fill-rule="winding" /><path transform="matrix(1 0 0 -1 0 842)" d="M141.54 81.92L142.02 81.92L142.02 81.92L142.02 97.52L142.02 97.52L141.54 97.52z" stroke="none" fill="#000000" fill-rule="winding" /><path transform="matrix(1 0 0 -1 0 842)" d="M212.46 81.92L212.94 81.92L212.94 81.92L212.94 97.52L212.94 97.52L212.46 97.52z" stroke="none" fill="#000000" fill-rule="winding" /><path transform="matrix(1 0 0 -1 0 842)" d="M375.42 81.92L375.9 81.92L375.9 81.92L375.9 97.52L375.9 97.52L375.42 97.52z" stroke="none" fill="#000000" fill-rule="winding" /><path transform="matrix(1 0 0 -1 0 842)" d="M505.56 81.92L506.04 81.92L506.04 81.92L506.04 97.52L506.04 97.52L505.56 97.52z" stroke="none" fill="#000000" fill-rule="winding" /><path transform="matrix(1 0 0 -1 0 842)" d="M79.44 81.44L375.9 81.44L375.9 81.44L375.9 81.92001L375.9 81.92001L79.44 81.92001z" stroke="none" fill="#000000" fill-rule="winding" /><path transform="matrix(1 0 0 -1 0 842)" d="M505.56 81.44L506.04 81.44L506.04 81.44L506.04 81.92001L506.04 81.92001L505.56 81.92001z" stroke="none" fill="#000000" fill-rule="winding" /><path transform="matrix(1 0 0 -1 0 842)" d="M79.44 65.3L79.92001 65.3L79.92001 65.3L79.92001 81.44L79.92001 81.44L79.44 81.44z" stroke="none" fill="#000000" fill-rule="winding" /><path transform="matrix(1 0 0 -1 0 842)" d="M79.44 65.3L141.54 65.3L141.54 65.3L141.54 65.78001L141.54 65.78001L79.44 65.78001z" stroke="none" fill="#000000" fill-rule="winding" /><path transform="matrix(1 0 0 -1 0 842)" d="M141.54 65.3L142.02 65.3L142.02 65.3L142.02 81.44L142.02 81.44L141.54 81.44z" stroke="none" fill="#000000" fill-rule="winding" /><path transform="matrix(1 0 0 -1 0 842)" d="M142.02 65.3L212.46 65.3L212.46 65.3L212.46 65.78001L212.46 65.78001L142.02 65.78001z" stroke="none" fill="#000000" fill-rule="winding" /><path transform="matrix(1 0 0 -1 0 842)" d="M212.46 65.3L212.94 65.3L212.94 65.3L212.94 81.44L212.94 81.44L212.46 81.44z" stroke="none" fill="#000000" fill-rule="winding" /><path transform="matrix(1 0 0 -1 0 842)" d="M212.94 65.3L375.42 65.3L375.42 65.3L375.42 65.78001L375.42 65.78001L212.94 65.78001z" stroke="none" fill="#000000" fill-rule="winding" /><path transform="matrix(1 0 0 -1 0 842)" d="M375.42 65.3L375.9 65.3L375.9 65.3L375.9 81.44L375.9 81.44L375.42 81.44z" stroke="none" fill="#000000" fill-rule="winding" /><path transform="matrix(1 0 0 -1 0 842)" d="M375.9 65.3L505.56 65.3L505.56 65.3L505.56 65.78001L505.56 65.78001L375.9 65.78001z" stroke="none" fill="#000000" fill-rule="winding" /><path transform="matrix(1 0 0 -1 0 842)" d="M505.56 65.3L506.04 65.3L506.04 65.3L506.04 81.44L506.04 81.44L505.56 81.44z" stroke="none" fill="#000000" fill-rule="winding" /><path transform="matrix(1 0 0 -1 0 842)" d="M505.56 65.3L506.04 65.3L506.04 65.3L506.04 65.78001L506.04 65.78001L505.56 65.78001z" stroke="none" fill="#000000" fill-rule="winding" /></g></g></g></svg>