<svg xmlns="http://www.w3.org/2000/svg" xmlns:xlink="http://www.w3.org/1999/xlink" id="body_4" preserveAspectRatio="xMinYMin meet" viewBox="0 0 793 1123"><defs><clipPath id="1"><path d="M0 842L0 0L0 0L595.22 0L595.22 0L595.22 842L595.22 842L0 842z" /></clipPath></defs><g transform="matrix(1.333333 0 0 1.333333 0 0)"><g><g clip-path="url(#1)"><g transform="matrix(0.4798529 0 0 0.476 85.08 28.37994)"><g transform="matrix(1 0 0 1 0 0)"><image x="0" y="0" xlink:href="img_01.png" width="34" height="30" /></g></g><path transform="matrix(1 0 0 -1 0 842)" d="M83.58 795.02L511.8 795.02L511.8 795.02L511.8 795.7401L511.8 795.7401L83.58 795.7401z" stroke="none" fill="#000000" fill-rule="winding" /><path transform="matrix(1 0 0 -1 0 842)" d="M79.44 784.82L79.92001 784.82L79.92001 784.82L79.92001 785.3L79.92001 785.3L79.44 785.3z" stroke="none" fill="#000000" fill-rule="winding" /><path transform="matrix(1 0 0 -1 0 842)" d="M79.44 784.82L506.04 784.82L506.04 784.82L506.04 785.3L506.04 785.3L79.44 785.3z" stroke="none" fill="#000000" fill-rule="winding" /><path transform="matrix(1 0 0 -1 0 842)" d="M505.56 784.82L506.04 784.82L506.04 784.82L506.04 785.3L506.04 785.3L505.56 785.3z" stroke="none" fill="#000000" fill-rule="winding" /><path transform="matrix(1 0 0 -1 0 842)" d="M79.44 769.22L79.92001 769.22L79.92001 769.22L79.92001 784.8199L79.92001 784.8199L79.44 784.8199z" stroke="none" fill="#000000" fill-rule="winding" /><path transform="matrix(1 0 0 -1 0 842)" d="M174.84 769.22L175.32 769.22L175.32 769.22L175.32 784.8199L175.32 784.8199L174.84 784.8199z" stroke="none" fill="#000000" fill-rule="winding" /><path transform="matrix(1 0 0 -1 0 842)" d="M246.84 769.22L247.32 769.22L247.32 769.22L247.32 784.8199L247.32 784.8199L246.84 784.8199z" stroke="none" fill="#000000" fill-rule="winding" /><path transform="matrix(1 0 0 -1 0 842)" d="M399.84 769.22L400.32 769.22L400.32 769.22L400.32 784.8199L400.32 784.8199L399.84 784.8199z" stroke="none" fill="#000000" fill-rule="winding" /><path transform="matrix(1 0 0 -1 0 842)" d="M459.12 769.22L459.6 769.22L459.6 769.22L459.6 784.8199L459.6 784.8199L459.12 784.8199z" stroke="none" fill="#000000" fill-rule="winding" /><path transform="matrix(1 0 0 -1 0 842)" d="M505.56 769.22L506.04 769.22L506.04 769.22L506.04 784.8199L506.04 784.8199L505.56 784.8199z" stroke="none" fill="#000000" fill-rule="winding" /><path transform="matrix(1 0 0 -1 0 842)" d="M79.44 768.74L459.6 768.74L459.6 768.74L459.6 769.22L459.6 769.22L79.44 769.22z" stroke="none" fill="#000000" fill-rule="winding" /><path transform="matrix(1 0 0 -1 0 842)" d="M505.56 768.74L506.04 768.74L506.04 768.74L506.04 769.22L506.04 769.22L505.56 769.22z" stroke="none" fill="#000000" fill-rule="winding" /><path transform="matrix(1 0 0 -1 0 842)" d="M79.44 753.08L79.92001 753.08L79.92001 753.08L79.92001 768.74L79.92001 768.74L79.44 768.74z" stroke="none" fill="#000000" fill-rule="winding" /><path transform="matrix(1 0 0 -1 0 842)" d="M174.84 753.08L175.32 753.08L175.32 753.08L175.32 768.74L175.32 768.74L174.84 768.74z" stroke="none" fill="#000000" fill-rule="winding" /><path transform="matrix(1 0 0 -1 0 842)" d="M246.84 753.08L247.32 753.08L247.32 753.08L247.32 768.74L247.32 768.74L246.84 768.74z" stroke="none" fill="#000000" fill-rule="winding" /><path transform="matrix(1 0 0 -1 0 842)" d="M399.84 753.08L400.32 753.08L400.32 753.08L400.32 768.74L400.32 768.74L399.84 768.74z" stroke="none" fill="#000000" fill-rule="winding" /><path transform="matrix(1 0 0 -1 0 842)" d="M459.12 753.08L459.6 753.08L459.6 753.08L459.6 768.74L459.6 768.74L459.12 768.74z" stroke="none" fill="#000000" fill-rule="winding" /><path transform="matrix(1 0 0 -1 0 842)" d="M505.56 753.08L506.04 753.08L506.04 753.08L506.04 768.74L506.04 768.74L505.56 768.74z" stroke="none" fill="#000000" fill-rule="winding" /><path transform="matrix(1 0 0 -1 0 842)" d="M79.44 752.6L459.6 752.6L459.6 752.6L459.6 753.08L459.6 753.08L79.44 753.08z" stroke="none" fill="#000000" fill-rule="winding" /><path transform="matrix(1 0 0 -1 0 842)" d="M505.56 752.6L506.04 752.6L506.04 752.6L506.04 753.08L506.04 753.08L505.56 753.08z" stroke="none" fill="#000000" fill-rule="winding" /><path transform="matrix(1 0 0 -1 0 842)" d="M79.44 737L79.92001 737L79.92001 737L79.92001 752.6L79.92001 752.6L79.44 752.6z" stroke="none" fill="#000000" fill-rule="winding" /><path transform="matrix(1 0 0 -1 0 842)" d="M174.84 737L175.32 737L175.32 737L175.32 752.6L175.32 752.6L174.84 752.6z" stroke="none" fill="#000000" fill-rule="winding" /><path transform="matrix(1 0 0 -1 0 842)" d="M246.84 737L247.32 737L247.32 737L247.32 752.6L247.32 752.6L246.84 752.6z" stroke="none" fill="#000000" fill-rule="winding" /><path transform="matrix(1 0 0 -1 0 842)" d="M399.84 737L400.32 737L400.32 737L400.32 752.6L400.32 752.6L399.84 752.6z" stroke="none" fill="#000000" fill-rule="winding" /><path transform="matrix(1 0 0 -1 0 842)" d="M459.12 737L459.6 737L459.6 737L459.6 752.6L459.6 752.6L459.12 752.6z" stroke="none" fill="#000000" fill-rule="winding" /><path transform="matrix(1 0 0 -1 0 842)" d="M505.56 737L506.04 737L506.04 737L506.04 752.6L506.04 752.6L505.56 752.6z" stroke="none" fill="#000000" fill-rule="winding" /><path transform="matrix(1 0 0 -1 0 842)" d="M79.44 736.52L459.6 736.52L459.6 736.52L459.6 737.0001L459.6 737.0001L79.44 737.0001z" stroke="none" fill="#000000" fill-rule="winding" /><path transform="matrix(1 0 0 -1 0 842)" d="M505.56 736.52L506.04 736.52L506.04 736.52L506.04 737.0001L506.04 737.0001L505.56 737.0001z" stroke="none" fill="#000000" fill-rule="winding" /><path transform="matrix(1 0 0 -1 0 842)" d="M79.44 720.92L79.92001 720.92L79.92001 720.92L79.92001 736.52L79.92001 736.52L79.44 736.52z" stroke="none" fill="#000000" fill-rule="winding" /><path transform="matrix(1 0 0 -1 0 842)" d="M174.84 720.92L175.32 720.92L175.32 720.92L175.32 736.52L175.32 736.52L174.84 736.52z" stroke="none" fill="#000000" fill-rule="winding" /><path transform="matrix(1 0 0 -1 0 842)" d="M246.84 720.92L247.32 720.92L247.32 720.92L247.32 736.52L247.32 736.52L246.84 736.52z" stroke="none" fill="#000000" fill-rule="winding" /><path transform="matrix(1 0 0 -1 0 842)" d="M399.84 720.92L400.32 720.92L400.32 720.92L400.32 736.52L400.32 736.52L399.84 736.52z" stroke="none" fill="#000000" fill-rule="winding" /><path transform="matrix(1 0 0 -1 0 842)" d="M459.12 720.92L459.6 720.92L459.6 720.92L459.6 736.52L459.6 736.52L459.12 736.52z" stroke="none" fill="#000000" fill-rule="winding" /><path transform="matrix(1 0 0 -1 0 842)" d="M505.56 720.92L506.04 720.92L506.04 720.92L506.04 736.52L506.04 736.52L505.56 736.52z" stroke="none" fill="#000000" fill-rule="winding" /><path transform="matrix(1 0 0 -1 0 842)" d="M79.44 720.44L459.6 720.44L459.6 720.44L459.6 720.92L459.6 720.92L79.44 720.92z" stroke="none" fill="#000000" fill-rule="winding" /><path transform="matrix(1 0 0 -1 0 842)" d="M505.56 720.44L506.04 720.44L506.04 720.44L506.04 720.92L506.04 720.92L505.56 720.92z" stroke="none" fill="#000000" fill-rule="winding" /><path transform="matrix(1 0 0 -1 0 842)" d="M79.44 704.78L79.92001 704.78L79.92001 704.78L79.92001 720.44L79.92001 720.44L79.44 720.44z" stroke="none" fill="#000000" fill-rule="winding" /><path transform="matrix(1 0 0 -1 0 842)" d="M174.84 704.78L175.32 704.78L175.32 704.78L175.32 720.44L175.32 720.44L174.84 720.44z" stroke="none" fill="#000000" fill-rule="winding" /><path transform="matrix(1 0 0 -1 0 842)" d="M246.84 704.78L247.32 704.78L247.32 704.78L247.32 720.44L247.32 720.44L246.84 720.44z" stroke="none" fill="#000000" fill-rule="winding" /><path transform="matrix(1 0 0 -1 0 842)" d="M399.84 704.78L400.32 704.78L400.32 704.78L400.32 720.44L400.32 720.44L399.84 720.44z" stroke="none" fill="#000000" fill-rule="winding" /><path transform="matrix(1 0 0 -1 0 842)" d="M459.12 704.78L459.6 704.78L459.6 704.78L459.6 720.44L459.6 720.44L459.12 720.44z" stroke="none" fill="#000000" fill-rule="winding" /><path transform="matrix(1 0 0 -1 0 842)" d="M505.56 704.78L506.04 704.78L506.04 704.78L506.04 720.44L506.04 720.44L505.56 720.44z" stroke="none" fill="#000000" fill-rule="winding" /><path transform="matrix(1 0 0 -1 0 842)" d="M79.44 704.3L459.6 704.3L459.6 704.3L459.6 704.78L459.6 704.78L79.44 704.78z" stroke="none" fill="#000000" fill-rule="winding" /><path transform="matrix(1 0 0 -1 0 842)" d="M505.56 704.3L506.04 704.3L506.04 704.3L506.04 704.78L506.04 704.78L505.56 704.78z" stroke="none" fill="#000000" fill-rule="winding" /><path transform="matrix(1 0 0 -1 0 842)" d="M79.44 688.7L79.92001 688.7L79.92001 688.7L79.92001 704.3L79.92001 704.3L79.44 704.3z" stroke="none" fill="#000000" fill-rule="winding" /><path transform="matrix(1 0 0 -1 0 842)" d="M174.84 688.7L175.32 688.7L175.32 688.7L175.32 704.3L175.32 704.3L174.84 704.3z" stroke="none" fill="#000000" fill-rule="winding" /><path transform="matrix(1 0 0 -1 0 842)" d="M246.84 688.7L247.32 688.7L247.32 688.7L247.32 704.3L247.32 704.3L246.84 704.3z" stroke="none" fill="#000000" fill-rule="winding" /><path transform="matrix(1 0 0 -1 0 842)" d="M399.84 688.7L400.32 688.7L400.32 688.7L400.32 704.3L400.32 704.3L399.84 704.3z" stroke="none" fill="#000000" fill-rule="winding" /><path transform="matrix(1 0 0 -1 0 842)" d="M459.12 688.7L459.6 688.7L459.6 688.7L459.6 704.3L459.6 704.3L459.12 704.3z" stroke="none" fill="#000000" fill-rule="winding" /><path transform="matrix(1 0 0 -1 0 842)" d="M505.56 688.7L506.04 688.7L506.04 688.7L506.04 704.3L506.04 704.3L505.56 704.3z" stroke="none" fill="#000000" fill-rule="winding" /><path transform="matrix(1 0 0 -1 0 842)" d="M79.44 688.22L459.6 688.22L459.6 688.22L459.6 688.7L459.6 688.7L79.44 688.7z" stroke="none" fill="#000000" fill-rule="winding" /><path transform="matrix(1 0 0 -1 0 842)" d="M505.56 688.22L506.04 688.22L506.04 688.22L506.04 688.7L506.04 688.7L505.56 688.7z" stroke="none" fill="#000000" fill-rule="winding" /><path transform="matrix(1 0 0 -1 0 842)" d="M79.44 672.62L79.92001 672.62L79.92001 672.62L79.92001 688.22L79.92001 688.22L79.44 688.22z" stroke="none" fill="#000000" fill-rule="winding" /><path transform="matrix(1 0 0 -1 0 842)" d="M174.84 672.62L175.32 672.62L175.32 672.62L175.32 688.22L175.32 688.22L174.84 688.22z" stroke="none" fill="#000000" fill-rule="winding" /><path transform="matrix(1 0 0 -1 0 842)" d="M246.84 672.62L247.32 672.62L247.32 672.62L247.32 688.22L247.32 688.22L246.84 688.22z" stroke="none" fill="#000000" fill-rule="winding" /><path transform="matrix(1 0 0 -1 0 842)" d="M399.84 672.62L400.32 672.62L400.32 672.62L400.32 688.22L400.32 688.22L399.84 688.22z" stroke="none" fill="#000000" fill-rule="winding" /><path transform="matrix(1 0 0 -1 0 842)" d="M459.12 672.62L459.6 672.62L459.6 672.62L459.6 688.22L459.6 688.22L459.12 688.22z" stroke="none" fill="#000000" fill-rule="winding" /><path transform="matrix(1 0 0 -1 0 842)" d="M505.56 672.62L506.04 672.62L506.04 672.62L506.04 688.22L506.04 688.22L505.56 688.22z" stroke="none" fill="#000000" fill-rule="winding" /><path transform="matrix(1 0 0 -1 0 842)" d="M79.44 672.14L459.6 672.14L459.6 672.14L459.6 672.62L459.6 672.62L79.44 672.62z" stroke="none" fill="#000000" fill-rule="winding" /><path transform="matrix(1 0 0 -1 0 842)" d="M505.56 672.14L506.04 672.14L506.04 672.14L506.04 672.62L506.04 672.62L505.56 672.62z" stroke="none" fill="#000000" fill-rule="winding" /><path transform="matrix(1 0 0 -1 0 842)" d="M79.44 656.48L79.92001 656.48L79.92001 656.48L79.92001 672.14L79.92001 672.14L79.44 672.14z" stroke="none" fill="#000000" fill-rule="winding" /><path transform="matrix(1 0 0 -1 0 842)" d="M174.84 656.48L175.32 656.48L175.32 656.48L175.32 672.14L175.32 672.14L174.84 672.14z" stroke="none" fill="#000000" fill-rule="winding" /><path transform="matrix(1 0 0 -1 0 842)" d="M246.84 656.48L247.32 656.48L247.32 656.48L247.32 672.14L247.32 672.14L246.84 672.14z" stroke="none" fill="#000000" fill-rule="winding" /><path transform="matrix(1 0 0 -1 0 842)" d="M399.84 656.48L400.32 656.48L400.32 656.48L400.32 672.14L400.32 672.14L399.84 672.14z" stroke="none" fill="#000000" fill-rule="winding" /><path transform="matrix(1 0 0 -1 0 842)" d="M459.12 656.48L459.6 656.48L459.6 656.48L459.6 672.14L459.6 672.14L459.12 672.14z" stroke="none" fill="#000000" fill-rule="winding" /><path transform="matrix(1 0 0 -1 0 842)" d="M505.56 656.48L506.04 656.48L506.04 656.48L506.04 672.14L506.04 672.14L505.56 672.14z" stroke="none" fill="#000000" fill-rule="winding" /><path transform="matrix(1 0 0 -1 0 842)" d="M79.44 656L459.6 656L459.6 656L459.6 656.48L459.6 656.48L79.44 656.48z" stroke="none" fill="#000000" fill-rule="winding" /><path transform="matrix(1 0 0 -1 0 842)" d="M505.56 656L506.04 656L506.04 656L506.04 656.48L506.04 656.48L505.56 656.48z" stroke="none" fill="#000000" fill-rule="winding" /><path transform="matrix(1 0 0 -1 0 842)" d="M79.44 640.4L79.92001 640.4L79.92001 640.4L79.92001 656L79.92001 656L79.44 656z" stroke="none" fill="#000000" fill-rule="winding" /><path transform="matrix(1 0 0 -1 0 842)" d="M174.84 640.4L175.32 640.4L175.32 640.4L175.32 656L175.32 656L174.84 656z" stroke="none" fill="#000000" fill-rule="winding" /><path transform="matrix(1 0 0 -1 0 842)" d="M246.84 640.4L247.32 640.4L247.32 640.4L247.32 656L247.32 656L246.84 656z" stroke="none" fill="#000000" fill-rule="winding" /><path transform="matrix(1 0 0 -1 0 842)" d="M399.84 640.4L400.32 640.4L400.32 640.4L400.32 656L400.32 656L399.84 656z" stroke="none" fill="#000000" fill-rule="winding" /><path transform="matrix(1 0 0 -1 0 842)" d="M459.12 640.4L459.6 640.4L459.6 640.4L459.6 656L459.6 656L459.12 656z" stroke="none" fill="#000000" fill-rule="winding" /><path transform="matrix(1 0 0 -1 0 842)" d="M505.56 640.4L506.04 640.4L506.04 640.4L506.04 656L506.04 656L505.56 656z" stroke="none" fill="#000000" fill-rule="winding" /><path transform="matrix(1 0 0 -1 0 842)" d="M79.44 639.92L459.6 639.92L459.6 639.92L459.6 640.4L459.6 640.4L79.44 640.4z" stroke="none" fill="#000000" fill-rule="winding" /><path transform="matrix(1 0 0 -1 0 842)" d="M505.56 639.92L506.04 639.92L506.04 639.92L506.04 640.4L506.04 640.4L505.56 640.4z" stroke="none" fill="#000000" fill-rule="winding" /><path transform="matrix(1 0 0 -1 0 842)" d="M79.44 624.32L79.92001 624.32L79.92001 624.32L79.92001 639.92L79.92001 639.92L79.44 639.92z" stroke="none" fill="#000000" fill-rule="winding" /><path transform="matrix(1 0 0 -1 0 842)" d="M174.84 624.32L175.32 624.32L175.32 624.32L175.32 639.92L175.32 639.92L174.84 639.92z" stroke="none" fill="#000000" fill-rule="winding" /><path transform="matrix(1 0 0 -1 0 842)" d="M246.84 624.32L247.32 624.32L247.32 624.32L247.32 639.92L247.32 639.92L246.84 639.92z" stroke="none" fill="#000000" fill-rule="winding" /><path transform="matrix(1 0 0 -1 0 842)" d="M399.84 624.32L400.32 624.32L400.32 624.32L400.32 639.92L400.32 639.92L399.84 639.92z" stroke="none" fill="#000000" fill-rule="winding" /><path transform="matrix(1 0 0 -1 0 842)" d="M459.12 624.32L459.6 624.32L459.6 624.32L459.6 639.92L459.6 639.92L459.12 639.92z" stroke="none" fill="#000000" fill-rule="winding" /><path transform="matrix(1 0 0 -1 0 842)" d="M505.56 624.32L506.04 624.32L506.04 624.32L506.04 639.92L506.04 639.92L505.56 639.92z" stroke="none" fill="#000000" fill-rule="winding" /><path transform="matrix(1 0 0 -1 0 842)" d="M79.44 623.84L459.6 623.84L459.6 623.84L459.6 624.32L459.6 624.32L79.44 624.32z" stroke="none" fill="#000000" fill-rule="winding" /><path transform="matrix(1 0 0 -1 0 842)" d="M505.56 623.84L506.04 623.84L506.04 623.84L506.04 624.32L506.04 624.32L505.56 624.32z" stroke="none" fill="#000000" fill-rule="winding" /><path transform="matrix(1 0 0 -1 0 842)" d="M79.44 608.18L79.92001 608.18L79.92001 608.18L79.92001 623.84L79.92001 623.84L79.44 623.84z" stroke="none" fill="#000000" fill-rule="winding" /><path transform="matrix(1 0 0 -1 0 842)" d="M174.84 608.18L175.32 608.18L175.32 608.18L175.32 623.84L175.32 623.84L174.84 623.84z" stroke="none" fill="#000000" fill-rule="winding" /><path transform="matrix(1 0 0 -1 0 842)" d="M246.84 608.18L247.32 608.18L247.32 608.18L247.32 623.84L247.32 623.84L246.84 623.84z" stroke="none" fill="#000000" fill-rule="winding" /><path transform="matrix(1 0 0 -1 0 842)" d="M399.84 608.18L400.32 608.18L400.32 608.18L400.32 623.84L400.32 623.84L399.84 623.84z" stroke="none" fill="#000000" fill-rule="winding" /><path transform="matrix(1 0 0 -1 0 842)" d="M459.12 608.18L459.6 608.18L459.6 608.18L459.6 623.84L459.6 623.84L459.12 623.84z" stroke="none" fill="#000000" fill-rule="winding" /><path transform="matrix(1 0 0 -1 0 842)" d="M505.56 608.18L506.04 608.18L506.04 608.18L506.04 623.84L506.04 623.84L505.56 623.84z" stroke="none" fill="#000000" fill-rule="winding" /><path transform="matrix(1 0 0 -1 0 842)" d="M79.44 607.7L506.04 607.7L506.04 607.7L506.04 608.18L506.04 608.18L79.44 608.18z" stroke="none" fill="#000000" fill-rule="winding" /><path transform="matrix(1 0 0 -1 0 842)" d="M79.44 592.1L79.92001 592.1L79.92001 592.1L79.92001 607.7L79.92001 607.7L79.44 607.7z" stroke="none" fill="#000000" fill-rule="winding" /><path transform="matrix(1 0 0 -1 0 842)" d="M174.84 592.1L175.32 592.1L175.32 592.1L175.32 607.7L175.32 607.7L174.84 607.7z" stroke="none" fill="#000000" fill-rule="winding" /><path transform="matrix(1 0 0 -1 0 842)" d="M246.84 592.1L247.32 592.1L247.32 592.1L247.32 607.7L247.32 607.7L246.84 607.7z" stroke="none" fill="#000000" fill-rule="winding" /><path transform="matrix(1 0 0 -1 0 842)" d="M399.84 592.1L400.32 592.1L400.32 592.1L400.32 607.7L400.32 607.7L399.84 607.7z" stroke="none" fill="#000000" fill-rule="winding" /><path transform="matrix(1 0 0 -1 0 842)" d="M505.56 592.1L506.04 592.1L506.04 592.1L506.04 607.7L506.04 607.7L505.56 607.7z" stroke="none" fill="#000000" fill-rule="winding" /><path transform="matrix(1 0 0 -1 0 842)" d="M79.44 591.62L506.04 591.62L506.04 591.62L506.04 592.1L506.04 592.1L79.44 592.1z" stroke="none" fill="#000000" fill-rule="winding" /><path transform="matrix(1 0 0 -1 0 842)" d="M79.44 576.02L79.92001 576.02L79.92001 576.02L79.92001 591.62L79.92001 591.62L79.44 591.62z" stroke="none" fill="#000000" fill-rule="winding" /><path transform="matrix(1 0 0 -1 0 842)" d="M174.84 576.02L175.32 576.02L175.32 576.02L175.32 591.62L175.32 591.62L174.84 591.62z" stroke="none" fill="#000000" fill-rule="winding" /><path transform="matrix(1 0 0 -1 0 842)" d="M246.84 576.02L247.32 576.02L247.32 576.02L247.32 591.62L247.32 591.62L246.84 591.62z" stroke="none" fill="#000000" fill-rule="winding" /><path transform="matrix(1 0 0 -1 0 842)" d="M399.84 576.02L400.32 576.02L400.32 576.02L400.32 591.62L400.32 591.62L399.84 591.62z" stroke="none" fill="#000000" fill-rule="winding" /><path transform="matrix(1 0 0 -1 0 842)" d="M505.56 576.02L506.04 576.02L506.04 576.02L506.04 591.62L506.04 591.62L505.56 591.62z" stroke="none" fill="#000000" fill-rule="winding" /><path transform="matrix(1 0 0 -1 0 842)" d="M79.44 575.54L506.04 575.54L506.04 575.54L506.04 576.02L506.04 576.02L79.44 576.02z" stroke="none" fill="#000000" fill-rule="winding" /><path transform="matrix(1 0 0 -1 0 842)" d="M79.44 559.4L79.92001 559.4L79.92001 559.4L79.92001 575.54L79.92001 575.54L79.44 575.54z" stroke="none" fill="#000000" fill-rule="winding" /><path transform="matrix(1 0 0 -1 0 842)" d="M79.44 559.4L174.84 559.4L174.84 559.4L174.84 559.88L174.84 559.88L79.44 559.88z" stroke="none" fill="#000000" fill-rule="winding" /><path transform="matrix(1 0 0 -1 0 842)" d="M174.84 559.4L175.32 559.4L175.32 559.4L175.32 575.54L175.32 575.54L174.84 575.54z" stroke="none" fill="#000000" fill-rule="winding" /><path transform="matrix(1 0 0 -1 0 842)" d="M175.32 559.4L246.84 559.4L246.84 559.4L246.84 559.88L246.84 559.88L175.32 559.88z" stroke="none" fill="#000000" fill-rule="winding" /><path transform="matrix(1 0 0 -1 0 842)" d="M246.84 559.4L247.32 559.4L247.32 559.4L247.32 575.54L247.32 575.54L246.84 575.54z" stroke="none" fill="#000000" fill-rule="winding" /><path transform="matrix(1 0 0 -1 0 842)" d="M247.32 559.4L399.84 559.4L399.84 559.4L399.84 559.88L399.84 559.88L247.32 559.88z" stroke="none" fill="#000000" fill-rule="winding" /><path transform="matrix(1 0 0 -1 0 842)" d="M399.84 559.4L400.32 559.4L400.32 559.4L400.32 575.54L400.32 575.54L399.84 575.54z" stroke="none" fill="#000000" fill-rule="winding" /><path transform="matrix(1 0 0 -1 0 842)" d="M400.32 559.4L505.56 559.4L505.56 559.4L505.56 559.88L505.56 559.88L400.32 559.88z" stroke="none" fill="#000000" fill-rule="winding" /><path transform="matrix(1 0 0 -1 0 842)" d="M505.56 559.4L506.04 559.4L506.04 559.4L506.04 575.54L506.04 575.54L505.56 575.54z" stroke="none" fill="#000000" fill-rule="winding" /><path transform="matrix(1 0 0 -1 0 842)" d="M505.56 559.4L506.04 559.4L506.04 559.4L506.04 559.88L506.04 559.88L505.56 559.88z" stroke="none" fill="#000000" fill-rule="winding" /><path transform="matrix(1 0 0 -1 0 842)" d="M79.44 527.72L79.92001 527.72L79.92001 527.72L79.92001 528.2L79.92001 528.2L79.44 528.2z" stroke="none" fill="#000000" fill-rule="winding" /><path transform="matrix(1 0 0 -1 0 842)" d="M79.44 527.72L506.04 527.72L506.04 527.72L506.04 528.2L506.04 528.2L79.44 528.2z" stroke="none" fill="#000000" fill-rule="winding" /><path transform="matrix(1 0 0 -1 0 842)" d="M505.56 527.72L506.04 527.72L506.04 527.72L506.04 528.2L506.04 528.2L505.56 528.2z" stroke="none" fill="#000000" fill-rule="winding" /><path transform="matrix(1 0 0 -1 0 842)" d="M79.44 512.12L79.92001 512.12L79.92001 512.12L79.92001 527.72L79.92001 527.72L79.44 527.72z" stroke="none" fill="#000000" fill-rule="winding" /><path transform="matrix(1 0 0 -1 0 842)" d="M174.84 512.12L175.32 512.12L175.32 512.12L175.32 527.72L175.32 527.72L174.84 527.72z" stroke="none" fill="#000000" fill-rule="winding" /><path transform="matrix(1 0 0 -1 0 842)" d="M246.84 512.12L247.32 512.12L247.32 512.12L247.32 527.72L247.32 527.72L246.84 527.72z" stroke="none" fill="#000000" fill-rule="winding" /><path transform="matrix(1 0 0 -1 0 842)" d="M399.84 512.12L400.32 512.12L400.32 512.12L400.32 527.72L400.32 527.72L399.84 527.72z" stroke="none" fill="#000000" fill-rule="winding" /><path transform="matrix(1 0 0 -1 0 842)" d="M505.56 512.12L506.04 512.12L506.04 512.12L506.04 527.72L506.04 527.72L505.56 527.72z" stroke="none" fill="#000000" fill-rule="winding" /><path transform="matrix(1 0 0 -1 0 842)" d="M79.44 511.64L506.04 511.64L506.04 511.64L506.04 512.12L506.04 512.12L79.44 512.12z" stroke="none" fill="#000000" fill-rule="winding" /><path transform="matrix(1 0 0 -1 0 842)" d="M79.44 495.98L79.92001 495.98L79.92001 495.98L79.92001 511.64L79.92001 511.64L79.44 511.64z" stroke="none" fill="#000000" fill-rule="winding" /><path transform="matrix(1 0 0 -1 0 842)" d="M174.84 495.98L175.32 495.98L175.32 495.98L175.32 511.64L175.32 511.64L174.84 511.64z" stroke="none" fill="#000000" fill-rule="winding" /><path transform="matrix(1 0 0 -1 0 842)" d="M246.84 495.98L247.32 495.98L247.32 495.98L247.32 511.64L247.32 511.64L246.84 511.64z" stroke="none" fill="#000000" fill-rule="winding" /><path transform="matrix(1 0 0 -1 0 842)" d="M399.84 495.98L400.32 495.98L400.32 495.98L400.32 511.64L400.32 511.64L399.84 511.64z" stroke="none" fill="#000000" fill-rule="winding" /><path transform="matrix(1 0 0 -1 0 842)" d="M505.56 495.98L506.04 495.98L506.04 495.98L506.04 511.64L506.04 511.64L505.56 511.64z" stroke="none" fill="#000000" fill-rule="winding" /><path transform="matrix(1 0 0 -1 0 842)" d="M79.44 495.5L506.04 495.5L506.04 495.5L506.04 495.98L506.04 495.98L79.44 495.98z" stroke="none" fill="#000000" fill-rule="winding" /><path transform="matrix(1 0 0 -1 0 842)" d="M79.44 479.9L79.92001 479.9L79.92001 479.9L79.92001 495.5L79.92001 495.5L79.44 495.5z" stroke="none" fill="#000000" fill-rule="winding" /><path transform="matrix(1 0 0 -1 0 842)" d="M174.84 479.9L175.32 479.9L175.32 479.9L175.32 495.5L175.32 495.5L174.84 495.5z" stroke="none" fill="#000000" fill-rule="winding" /><path transform="matrix(1 0 0 -1 0 842)" d="M246.84 479.9L247.32 479.9L247.32 479.9L247.32 495.5L247.32 495.5L246.84 495.5z" stroke="none" fill="#000000" fill-rule="winding" /><path transform="matrix(1 0 0 -1 0 842)" d="M399.84 479.9L400.32 479.9L400.32 479.9L400.32 495.5L400.32 495.5L399.84 495.5z" stroke="none" fill="#000000" fill-rule="winding" /><path transform="matrix(1 0 0 -1 0 842)" d="M505.56 479.9L506.04 479.9L506.04 479.9L506.04 495.5L506.04 495.5L505.56 495.5z" stroke="none" fill="#000000" fill-rule="winding" /><path transform="matrix(1 0 0 -1 0 842)" d="M79.44 479.42L506.04 479.42L506.04 479.42L506.04 479.9L506.04 479.9L79.44 479.9z" stroke="none" fill="#000000" fill-rule="winding" /><path transform="matrix(1 0 0 -1 0 842)" d="M79.44 463.82L79.92001 463.82L79.92001 463.82L79.92001 479.42L79.92001 479.42L79.44 479.42z" stroke="none" fill="#000000" fill-rule="winding" /><path transform="matrix(1 0 0 -1 0 842)" d="M174.84 463.82L175.32 463.82L175.32 463.82L175.32 479.42L175.32 479.42L174.84 479.42z" stroke="none" fill="#000000" fill-rule="winding" /><path transform="matrix(1 0 0 -1 0 842)" d="M246.84 463.82L247.32 463.82L247.32 463.82L247.32 479.42L247.32 479.42L246.84 479.42z" stroke="none" fill="#000000" fill-rule="winding" /><path transform="matrix(1 0 0 -1 0 842)" d="M399.84 463.82L400.32 463.82L400.32 463.82L400.32 479.42L400.32 479.42L399.84 479.42z" stroke="none" fill="#000000" fill-rule="winding" /><path transform="matrix(1 0 0 -1 0 842)" d="M505.56 463.82L506.04 463.82L506.04 463.82L506.04 479.42L506.04 479.42L505.56 479.42z" stroke="none" fill="#000000" fill-rule="winding" /><path transform="matrix(1 0 0 -1 0 842)" d="M79.44 463.34L506.04 463.34L506.04 463.34L506.04 463.82L506.04 463.82L79.44 463.82z" stroke="none" fill="#000000" fill-rule="winding" /><path transform="matrix(1 0 0 -1 0 842)" d="M79.44 447.68L79.92001 447.68L79.92001 447.68L79.92001 463.34L79.92001 463.34L79.44 463.34z" stroke="none" fill="#000000" fill-rule="winding" /><path transform="matrix(1 0 0 -1 0 842)" d="M174.84 447.68L175.32 447.68L175.32 447.68L175.32 463.34L175.32 463.34L174.84 463.34z" stroke="none" fill="#000000" fill-rule="winding" /><path transform="matrix(1 0 0 -1 0 842)" d="M246.84 447.68L247.32 447.68L247.32 447.68L247.32 463.34L247.32 463.34L246.84 463.34z" stroke="none" fill="#000000" fill-rule="winding" /><path transform="matrix(1 0 0 -1 0 842)" d="M399.84 447.68L400.32 447.68L400.32 447.68L400.32 463.34L400.32 463.34L399.84 463.34z" stroke="none" fill="#000000" fill-rule="winding" /><path transform="matrix(1 0 0 -1 0 842)" d="M505.56 447.68L506.04 447.68L506.04 447.68L506.04 463.34L506.04 463.34L505.56 463.34z" stroke="none" fill="#000000" fill-rule="winding" /><path transform="matrix(1 0 0 -1 0 842)" d="M79.44 447.2L506.04 447.2L506.04 447.2L506.04 447.68L506.04 447.68L79.44 447.68z" stroke="none" fill="#000000" fill-rule="winding" /><path transform="matrix(1 0 0 -1 0 842)" d="M79.44 431.6L79.92001 431.6L79.92001 431.6L79.92001 447.2L79.92001 447.2L79.44 447.2z" stroke="none" fill="#000000" fill-rule="winding" /><path transform="matrix(1 0 0 -1 0 842)" d="M505.56 431.6L506.04 431.6L506.04 431.6L506.04 447.2L506.04 447.2L505.56 447.2z" stroke="none" fill="#000000" fill-rule="winding" /><path transform="matrix(1 0 0 -1 0 842)" d="M79.44 431.12L506.04 431.12L506.04 431.12L506.04 431.6L506.04 431.6L79.44 431.6z" stroke="none" fill="#000000" fill-rule="winding" /><path transform="matrix(1 0 0 -1 0 842)" d="M79.44 415.52L79.92001 415.52L79.92001 415.52L79.92001 431.12L79.92001 431.12L79.44 431.12z" stroke="none" fill="#000000" fill-rule="winding" /><path transform="matrix(1 0 0 -1 0 842)" d="M174.84 415.52L175.32 415.52L175.32 415.52L175.32 431.12L175.32 431.12L174.84 431.12z" stroke="none" fill="#000000" fill-rule="winding" /><path transform="matrix(1 0 0 -1 0 842)" d="M246.84 415.52L247.32 415.52L247.32 415.52L247.32 431.12L247.32 431.12L246.84 431.12z" stroke="none" fill="#000000" fill-rule="winding" /><path transform="matrix(1 0 0 -1 0 842)" d="M399.84 415.52L400.32 415.52L400.32 415.52L400.32 431.12L400.32 431.12L399.84 431.12z" stroke="none" fill="#000000" fill-rule="winding" /><path transform="matrix(1 0 0 -1 0 842)" d="M505.56 415.52L506.04 415.52L506.04 415.52L506.04 431.12L506.04 431.12L505.56 431.12z" stroke="none" fill="#000000" fill-rule="winding" /><path transform="matrix(1 0 0 -1 0 842)" d="M79.44 415.04L506.04 415.04L506.04 415.04L506.04 415.52L506.04 415.52L79.44 415.52z" stroke="none" fill="#000000" fill-rule="winding" /><path transform="matrix(1 0 0 -1 0 842)" d="M79.44 399.38L79.92001 399.38L79.92001 399.38L79.92001 415.04L79.92001 415.04L79.44 415.04z" stroke="none" fill="#000000" fill-rule="winding" /><path transform="matrix(1 0 0 -1 0 842)" d="M174.84 399.38L175.32 399.38L175.32 399.38L175.32 415.04L175.32 415.04L174.84 415.04z" stroke="none" fill="#000000" fill-rule="winding" /><path transform="matrix(1 0 0 -1 0 842)" d="M246.84 399.38L247.32 399.38L247.32 399.38L247.32 415.04L247.32 415.04L246.84 415.04z" stroke="none" fill="#000000" fill-rule="winding" /><path transform="matrix(1 0 0 -1 0 842)" d="M399.84 399.38L400.32 399.38L400.32 399.38L400.32 415.04L400.32 415.04L399.84 415.04z" stroke="none" fill="#000000" fill-rule="winding" /><path transform="matrix(1 0 0 -1 0 842)" d="M505.56 399.38L506.04 399.38L506.04 399.38L506.04 415.04L506.04 415.04L505.56 415.04z" stroke="none" fill="#000000" fill-rule="winding" /><path transform="matrix(1 0 0 -1 0 842)" d="M79.44 398.9L506.04 398.9L506.04 398.9L506.04 399.38L506.04 399.38L79.44 399.38z" stroke="none" fill="#000000" fill-rule="winding" /><path transform="matrix(1 0 0 -1 0 842)" d="M79.44 383.3L79.92001 383.3L79.92001 383.3L79.92001 398.9L79.92001 398.9L79.44 398.9z" stroke="none" fill="#000000" fill-rule="winding" /><path transform="matrix(1 0 0 -1 0 842)" d="M174.84 383.3L175.32 383.3L175.32 383.3L175.32 398.9L175.32 398.9L174.84 398.9z" stroke="none" fill="#000000" fill-rule="winding" /><path transform="matrix(1 0 0 -1 0 842)" d="M246.84 383.3L247.32 383.3L247.32 383.3L247.32 398.9L247.32 398.9L246.84 398.9z" stroke="none" fill="#000000" fill-rule="winding" /><path transform="matrix(1 0 0 -1 0 842)" d="M399.84 383.3L400.32 383.3L400.32 383.3L400.32 398.9L400.32 398.9L399.84 398.9z" stroke="none" fill="#000000" fill-rule="winding" /><path transform="matrix(1 0 0 -1 0 842)" d="M505.56 383.3L506.04 383.3L506.04 383.3L506.04 398.9L506.04 398.9L505.56 398.9z" stroke="none" fill="#000000" fill-rule="winding" /><path transform="matrix(1 0 0 -1 0 842)" d="M79.44 382.82L506.04 382.82L506.04 382.82L506.04 383.3L506.04 383.3L79.44 383.3z" stroke="none" fill="#000000" fill-rule="winding" /><path transform="matrix(1 0 0 -1 0 842)" d="M79.44 367.22L79.92001 367.22L79.92001 367.22L79.92001 382.82L79.92001 382.82L79.44 382.82z" stroke="none" fill="#000000" fill-rule="winding" /><path transform="matrix(1 0 0 -1 0 842)" d="M174.84 367.22L175.32 367.22L175.32 367.22L175.32 382.82L175.32 382.82L174.84 382.82z" stroke="none" fill="#000000" fill-rule="winding" /><path transform="matrix(1 0 0 -1 0 842)" d="M246.84 367.22L247.32 367.22L247.32 367.22L247.32 382.82L247.32 382.82L246.84 382.82z" stroke="none" fill="#000000" fill-rule="winding" /><path transform="matrix(1 0 0 -1 0 842)" d="M399.84 367.22L400.32 367.22L400.32 367.22L400.32 382.82L400.32 382.82L399.84 382.82z" stroke="none" fill="#000000" fill-rule="winding" /><path transform="matrix(1 0 0 -1 0 842)" d="M505.56 367.22L506.04 367.22L506.04 367.22L506.04 382.82L506.04 382.82L505.56 382.82z" stroke="none" fill="#000000" fill-rule="winding" /><path transform="matrix(1 0 0 -1 0 842)" d="M79.44 366.74L506.04 366.74L506.04 366.74L506.04 367.22L506.04 367.22L79.44 367.22z" stroke="none" fill="#000000" fill-rule="winding" /><path transform="matrix(1 0 0 -1 0 842)" d="M79.44 351.08L79.92001 351.08L79.92001 351.08L79.92001 366.74L79.92001 366.74L79.44 366.74z" stroke="none" fill="#000000" fill-rule="winding" /><path transform="matrix(1 0 0 -1 0 842)" d="M174.84 351.08L175.32 351.08L175.32 351.08L175.32 366.74L175.32 366.74L174.84 366.74z" stroke="none" fill="#000000" fill-rule="winding" /><path transform="matrix(1 0 0 -1 0 842)" d="M246.84 351.08L247.32 351.08L247.32 351.08L247.32 366.74L247.32 366.74L246.84 366.74z" stroke="none" fill="#000000" fill-rule="winding" /><path transform="matrix(1 0 0 -1 0 842)" d="M399.84 351.08L400.32 351.08L400.32 351.08L400.32 366.74L400.32 366.74L399.84 366.74z" stroke="none" fill="#000000" fill-rule="winding" /><path transform="matrix(1 0 0 -1 0 842)" d="M505.56 351.08L506.04 351.08L506.04 351.08L506.04 366.74L506.04 366.74L505.56 366.74z" stroke="none" fill="#000000" fill-rule="winding" /><path transform="matrix(1 0 0 -1 0 842)" d="M79.44 350.6L506.04 350.6L506.04 350.6L506.04 351.08L506.04 351.08L79.44 351.08z" stroke="none" fill="#000000" fill-rule="winding" /><path transform="matrix(1 0 0 -1 0 842)" d="M79.44 335L79.92001 335L79.92001 335L79.92001 350.6L79.92001 350.6L79.44 350.6z" stroke="none" fill="#000000" fill-rule="winding" /><path transform="matrix(1 0 0 -1 0 842)" d="M174.84 335L175.32 335L175.32 335L175.32 350.6L175.32 350.6L174.84 350.6z" stroke="none" fill="#000000" fill-rule="winding" /><path transform="matrix(1 0 0 -1 0 842)" d="M246.84 335L247.32 335L247.32 335L247.32 350.6L247.32 350.6L246.84 350.6z" stroke="none" fill="#000000" fill-rule="winding" /><path transform="matrix(1 0 0 -1 0 842)" d="M399.84 335L400.32 335L400.32 335L400.32 350.6L400.32 350.6L399.84 350.6z" stroke="none" fill="#000000" fill-rule="winding" /><path transform="matrix(1 0 0 -1 0 842)" d="M505.56 335L506.04 335L506.04 335L506.04 350.6L506.04 350.6L505.56 350.6z" stroke="none" fill="#000000" fill-rule="winding" /><path transform="matrix(1 0 0 -1 0 842)" d="M79.44 334.52L506.04 334.52L506.04 334.52L506.04 335L506.04 335L79.44 335z" stroke="none" fill="#000000" fill-rule="winding" /><path transform="matrix(1 0 0 -1 0 842)" d="M79.44 318.92L79.92001 318.92L79.92001 318.92L79.92001 334.52L79.92001 334.52L79.44 334.52z" stroke="none" fill="#000000" fill-rule="winding" /><path transform="matrix(1 0 0 -1 0 842)" d="M174.84 318.92L175.32 318.92L175.32 318.92L175.32 334.52L175.32 334.52L174.84 334.52z" stroke="none" fill="#000000" fill-rule="winding" /><path transform="matrix(1 0 0 -1 0 842)" d="M246.84 318.92L247.32 318.92L247.32 318.92L247.32 334.52L247.32 334.52L246.84 334.52z" stroke="none" fill="#000000" fill-rule="winding" /><path transform="matrix(1 0 0 -1 0 842)" d="M399.84 318.92L400.32 318.92L400.32 318.92L400.32 334.52L400.32 334.52L399.84 334.52z" stroke="none" fill="#000000" fill-rule="winding" /><path transform="matrix(1 0 0 -1 0 842)" d="M505.56 318.92L506.04 318.92L506.04 318.92L506.04 334.52L506.04 334.52L505.56 334.52z" stroke="none" fill="#000000" fill-rule="winding" /><path transform="matrix(1 0 0 -1 0 842)" d="M79.44 318.44L506.04 318.44L506.04 318.44L506.04 318.92L506.04 318.92L79.44 318.92z" stroke="none" fill="#000000" fill-rule="winding" /><path transform="matrix(1 0 0 -1 0 842)" d="M79.44 302.78L79.92001 302.78L79.92001 302.78L79.92001 318.44L79.92001 318.44L79.44 318.44z" stroke="none" fill="#000000" fill-rule="winding" /><path transform="matrix(1 0 0 -1 0 842)" d="M174.84 302.78L175.32 302.78L175.32 302.78L175.32 318.44L175.32 318.44L174.84 318.44z" stroke="none" fill="#000000" fill-rule="winding" /><path transform="matrix(1 0 0 -1 0 842)" d="M246.84 302.78L247.32 302.78L247.32 302.78L247.32 318.44L247.32 318.44L246.84 318.44z" stroke="none" fill="#000000" fill-rule="winding" /><path transform="matrix(1 0 0 -1 0 842)" d="M399.84 302.78L400.32 302.78L400.32 302.78L400.32 318.44L400.32 318.44L399.84 318.44z" stroke="none" fill="#000000" fill-rule="winding" /><path transform="matrix(1 0 0 -1 0 842)" d="M505.56 302.78L506.04 302.78L506.04 302.78L506.04 318.44L506.04 318.44L505.56 318.44z" stroke="none" fill="#000000" fill-rule="winding" /><path transform="matrix(1 0 0 -1 0 842)" d="M79.44 302.3L506.04 302.3L506.04 302.3L506.04 302.78L506.04 302.78L79.44 302.78z" stroke="none" fill="#000000" fill-rule="winding" /><path transform="matrix(1 0 0 -1 0 842)" d="M79.44 286.22L79.92001 286.22L79.92001 286.22L79.92001 302.3L79.92001 302.3L79.44 302.3z" stroke="none" fill="#000000" fill-rule="winding" /><path transform="matrix(1 0 0 -1 0 842)" d="M79.44 286.22L174.84 286.22L174.84 286.22L174.84 286.7L174.84 286.7L79.44 286.7z" stroke="none" fill="#000000" fill-rule="winding" /><path transform="matrix(1 0 0 -1 0 842)" d="M174.84 286.22L175.32 286.22L175.32 286.22L175.32 302.3L175.32 302.3L174.84 302.3z" stroke="none" fill="#000000" fill-rule="winding" /><path transform="matrix(1 0 0 -1 0 842)" d="M175.32 286.22L246.84 286.22L246.84 286.22L246.84 286.7L246.84 286.7L175.32 286.7z" stroke="none" fill="#000000" fill-rule="winding" /><path transform="matrix(1 0 0 -1 0 842)" d="M246.84 286.22L247.32 286.22L247.32 286.22L247.32 302.3L247.32 302.3L246.84 302.3z" stroke="none" fill="#000000" fill-rule="winding" /><path transform="matrix(1 0 0 -1 0 842)" d="M247.32 286.22L399.84 286.22L399.84 286.22L399.84 286.7L399.84 286.7L247.32 286.7z" stroke="none" fill="#000000" fill-rule="winding" /><path transform="matrix(1 0 0 -1 0 842)" d="M399.84 286.22L400.32 286.22L400.32 286.22L400.32 302.3L400.32 302.3L399.84 302.3z" stroke="none" fill="#000000" fill-rule="winding" /><path transform="matrix(1 0 0 -1 0 842)" d="M400.32 286.22L505.56 286.22L505.56 286.22L505.56 286.7L505.56 286.7L400.32 286.7z" stroke="none" fill="#000000" fill-rule="winding" /><path transform="matrix(1 0 0 -1 0 842)" d="M505.56 286.22L506.04 286.22L506.04 286.22L506.04 302.3L506.04 302.3L505.56 302.3z" stroke="none" fill="#000000" fill-rule="winding" /><path transform="matrix(1 0 0 -1 0 842)" d="M505.56 286.22L506.04 286.22L506.04 286.22L506.04 286.7L506.04 286.7L505.56 286.7z" stroke="none" fill="#000000" fill-rule="winding" /><path transform="matrix(1 0 0 -1 0 842)" d="M79.44 254.54L79.92001 254.54L79.92001 254.54L79.92001 255.02L79.92001 255.02L79.44 255.02z" stroke="none" fill="#000000" fill-rule="winding" /><path transform="matrix(1 0 0 -1 0 842)" d="M79.44 254.54L506.04 254.54L506.04 254.54L506.04 255.02L506.04 255.02L79.44 255.02z" stroke="none" fill="#000000" fill-rule="winding" /><path transform="matrix(1 0 0 -1 0 842)" d="M505.56 254.54L506.04 254.54L506.04 254.54L506.04 255.02L506.04 255.02L505.56 255.02z" stroke="none" fill="#000000" fill-rule="winding" /><path transform="matrix(1 0 0 -1 0 842)" d="M79.44 238.76L79.92001 238.76L79.92001 238.76L79.92001 254.54L79.92001 254.54L79.44 254.54z" stroke="none" fill="#000000" fill-rule="winding" /><path transform="matrix(1 0 0 -1 0 842)" d="M505.56 238.76L506.04 238.76L506.04 238.76L506.04 254.54L506.04 254.54L505.56 254.54z" stroke="none" fill="#000000" fill-rule="winding" /><path transform="matrix(1 0 0 -1 0 842)" d="M79.44 238.28L506.04 238.28L506.04 238.28L506.04 238.76L506.04 238.76L79.44 238.76z" stroke="none" fill="#000000" fill-rule="winding" /><path transform="matrix(1 0 0 -1 0 842)" d="M79.44 222.68L79.92001 222.68L79.92001 222.68L79.92001 238.28L79.92001 238.28L79.44 238.28z" stroke="none" fill="#000000" fill-rule="winding" /><path transform="matrix(1 0 0 -1 0 842)" d="M174.84 222.68L175.32 222.68L175.32 222.68L175.32 238.28L175.32 238.28L174.84 238.28z" stroke="none" fill="#000000" fill-rule="winding" /><path transform="matrix(1 0 0 -1 0 842)" d="M246.84 222.68L247.32 222.68L247.32 222.68L247.32 238.28L247.32 238.28L246.84 238.28z" stroke="none" fill="#000000" fill-rule="winding" /><path transform="matrix(1 0 0 -1 0 842)" d="M399.84 222.68L400.32 222.68L400.32 222.68L400.32 238.28L400.32 238.28L399.84 238.28z" stroke="none" fill="#000000" fill-rule="winding" /><path transform="matrix(1 0 0 -1 0 842)" d="M505.56 222.68L506.04 222.68L506.04 222.68L506.04 238.28L506.04 238.28L505.56 238.28z" stroke="none" fill="#000000" fill-rule="winding" /><path transform="matrix(1 0 0 -1 0 842)" d="M79.44 222.2L506.04 222.2L506.04 222.2L506.04 222.68L506.04 222.68L79.44 222.68z" stroke="none" fill="#000000" fill-rule="winding" /><path transform="matrix(1 0 0 -1 0 842)" d="M79.44 206.54L79.92001 206.54L79.92001 206.54L79.92001 222.2L79.92001 222.2L79.44 222.2z" stroke="none" fill="#000000" fill-rule="winding" /><path transform="matrix(1 0 0 -1 0 842)" d="M174.84 206.54L175.32 206.54L175.32 206.54L175.32 222.2L175.32 222.2L174.84 222.2z" stroke="none" fill="#000000" fill-rule="winding" /><path transform="matrix(1 0 0 -1 0 842)" d="M246.84 206.54L247.32 206.54L247.32 206.54L247.32 222.2L247.32 222.2L246.84 222.2z" stroke="none" fill="#000000" fill-rule="winding" /><path transform="matrix(1 0 0 -1 0 842)" d="M399.84 206.54L400.32 206.54L400.32 206.54L400.32 222.2L400.32 222.2L399.84 222.2z" stroke="none" fill="#000000" fill-rule="winding" /><path transform="matrix(1 0 0 -1 0 842)" d="M505.56 206.54L506.04 206.54L506.04 206.54L506.04 222.2L506.04 222.2L505.56 222.2z" stroke="none" fill="#000000" fill-rule="winding" /><path transform="matrix(1 0 0 -1 0 842)" d="M79.44 206.06L400.32 206.06L400.32 206.06L400.32 206.54L400.32 206.54L79.44 206.54z" stroke="none" fill="#000000" fill-rule="winding" /><path transform="matrix(1 0 0 -1 0 842)" d="M505.56 206.06L506.04 206.06L506.04 206.06L506.04 206.54L506.04 206.54L505.56 206.54z" stroke="none" fill="#000000" fill-rule="winding" /><path transform="matrix(1 0 0 -1 0 842)" d="M79.44 190.46L79.92001 190.46L79.92001 190.46L79.92001 206.06L79.92001 206.06L79.44 206.06z" stroke="none" fill="#000000" fill-rule="winding" /><path transform="matrix(1 0 0 -1 0 842)" d="M174.84 190.46L175.32 190.46L175.32 190.46L175.32 206.06L175.32 206.06L174.84 206.06z" stroke="none" fill="#000000" fill-rule="winding" /><path transform="matrix(1 0 0 -1 0 842)" d="M246.84 190.46L247.32 190.46L247.32 190.46L247.32 206.06L247.32 206.06L246.84 206.06z" stroke="none" fill="#000000" fill-rule="winding" /><path transform="matrix(1 0 0 -1 0 842)" d="M399.84 190.46L400.32 190.46L400.32 190.46L400.32 206.06L400.32 206.06L399.84 206.06z" stroke="none" fill="#000000" fill-rule="winding" /><path transform="matrix(1 0 0 -1 0 842)" d="M505.56 190.46L506.04 190.46L506.04 190.46L506.04 206.06L506.04 206.06L505.56 206.06z" stroke="none" fill="#000000" fill-rule="winding" /><path transform="matrix(1 0 0 -1 0 842)" d="M79.44 189.98L400.32 189.98L400.32 189.98L400.32 190.46L400.32 190.46L79.44 190.46z" stroke="none" fill="#000000" fill-rule="winding" /><path transform="matrix(1 0 0 -1 0 842)" d="M505.56 189.98L506.04 189.98L506.04 189.98L506.04 190.46L506.04 190.46L505.56 190.46z" stroke="none" fill="#000000" fill-rule="winding" /><path transform="matrix(1 0 0 -1 0 842)" d="M79.44 174.38L79.92001 174.38L79.92001 174.38L79.92001 189.98L79.92001 189.98L79.44 189.98z" stroke="none" fill="#000000" fill-rule="winding" /><path transform="matrix(1 0 0 -1 0 842)" d="M174.84 174.38L175.32 174.38L175.32 174.38L175.32 189.98L175.32 189.98L174.84 189.98z" stroke="none" fill="#000000" fill-rule="winding" /><path transform="matrix(1 0 0 -1 0 842)" d="M246.84 174.38L247.32 174.38L247.32 174.38L247.32 189.98L247.32 189.98L246.84 189.98z" stroke="none" fill="#000000" fill-rule="winding" /><path transform="matrix(1 0 0 -1 0 842)" d="M399.84 174.38L400.32 174.38L400.32 174.38L400.32 189.98L400.32 189.98L399.84 189.98z" stroke="none" fill="#000000" fill-rule="winding" /><path transform="matrix(1 0 0 -1 0 842)" d="M505.56 174.38L506.04 174.38L506.04 174.38L506.04 189.98L506.04 189.98L505.56 189.98z" stroke="none" fill="#000000" fill-rule="winding" /><path transform="matrix(1 0 0 -1 0 842)" d="M79.44 173.9L400.32 173.9L400.32 173.9L400.32 174.38L400.32 174.38L79.44 174.38z" stroke="none" fill="#000000" fill-rule="winding" /><path transform="matrix(1 0 0 -1 0 842)" d="M505.56 173.9L506.04 173.9L506.04 173.9L506.04 174.38L506.04 174.38L505.56 174.38z" stroke="none" fill="#000000" fill-rule="winding" /><path transform="matrix(1 0 0 -1 0 842)" d="M79.44 158.24L79.92001 158.24L79.92001 158.24L79.92001 173.9L79.92001 173.9L79.44 173.9z" stroke="none" fill="#000000" fill-rule="winding" /><path transform="matrix(1 0 0 -1 0 842)" d="M174.84 158.24L175.32 158.24L175.32 158.24L175.32 173.9L175.32 173.9L174.84 173.9z" stroke="none" fill="#000000" fill-rule="winding" /><path transform="matrix(1 0 0 -1 0 842)" d="M246.84 158.24L247.32 158.24L247.32 158.24L247.32 173.9L247.32 173.9L246.84 173.9z" stroke="none" fill="#000000" fill-rule="winding" /><path transform="matrix(1 0 0 -1 0 842)" d="M399.84 158.24L400.32 158.24L400.32 158.24L400.32 173.9L400.32 173.9L399.84 173.9z" stroke="none" fill="#000000" fill-rule="winding" /><path transform="matrix(1 0 0 -1 0 842)" d="M505.56 158.24L506.04 158.24L506.04 158.24L506.04 173.9L506.04 173.9L505.56 173.9z" stroke="none" fill="#000000" fill-rule="winding" /><path transform="matrix(1 0 0 -1 0 842)" d="M79.44 157.76L400.32 157.76L400.32 157.76L400.32 158.24L400.32 158.24L79.44 158.24z" stroke="none" fill="#000000" fill-rule="winding" /><path transform="matrix(1 0 0 -1 0 842)" d="M505.56 157.76L506.04 157.76L506.04 157.76L506.04 158.24L506.04 158.24L505.56 158.24z" stroke="none" fill="#000000" fill-rule="winding" /><path transform="matrix(1 0 0 -1 0 842)" d="M79.44 142.16L79.92001 142.16L79.92001 142.16L79.92001 157.76L79.92001 157.76L79.44 157.76z" stroke="none" fill="#000000" fill-rule="winding" /><path transform="matrix(1 0 0 -1 0 842)" d="M174.84 142.16L175.32 142.16L175.32 142.16L175.32 157.76L175.32 157.76L174.84 157.76z" stroke="none" fill="#000000" fill-rule="winding" /><path transform="matrix(1 0 0 -1 0 842)" d="M246.84 142.16L247.32 142.16L247.32 142.16L247.32 157.76L247.32 157.76L246.84 157.76z" stroke="none" fill="#000000" fill-rule="winding" /><path transform="matrix(1 0 0 -1 0 842)" d="M399.84 142.16L400.32 142.16L400.32 142.16L400.32 157.76L400.32 157.76L399.84 157.76z" stroke="none" fill="#000000" fill-rule="winding" /><path transform="matrix(1 0 0 -1 0 842)" d="M505.56 142.16L506.04 142.16L506.04 142.16L506.04 157.76L506.04 157.76L505.56 157.76z" stroke="none" fill="#000000" fill-rule="winding" /><path transform="matrix(1 0 0 -1 0 842)" d="M79.44 141.68L400.32 141.68L400.32 141.68L400.32 142.16L400.32 142.16L79.44 142.16z" stroke="none" fill="#000000" fill-rule="winding" /><path transform="matrix(1 0 0 -1 0 842)" d="M505.56 141.68L506.04 141.68L506.04 141.68L506.04 142.16L506.04 142.16L505.56 142.16z" stroke="none" fill="#000000" fill-rule="winding" /><path transform="matrix(1 0 0 -1 0 842)" d="M79.44 126.08L79.92001 126.08L79.92001 126.08L79.92001 141.68L79.92001 141.68L79.44 141.68z" stroke="none" fill="#000000" fill-rule="winding" /><path transform="matrix(1 0 0 -1 0 842)" d="M174.84 126.08L175.32 126.08L175.32 126.08L175.32 141.68L175.32 141.68L174.84 141.68z" stroke="none" fill="#000000" fill-rule="winding" /><path transform="matrix(1 0 0 -1 0 842)" d="M246.84 126.08L247.32 126.08L247.32 126.08L247.32 141.68L247.32 141.68L246.84 141.68z" stroke="none" fill="#000000" fill-rule="winding" /><path transform="matrix(1 0 0 -1 0 842)" d="M399.84 126.08L400.32 126.08L400.32 126.08L400.32 141.68L400.32 141.68L399.84 141.68z" stroke="none" fill="#000000" fill-rule="winding" /><path transform="matrix(1 0 0 -1 0 842)" d="M505.56 126.08L506.04 126.08L506.04 126.08L506.04 141.68L506.04 141.68L505.56 141.68z" stroke="none" fill="#000000" fill-rule="winding" /><path transform="matrix(1 0 0 -1 0 842)" d="M79.44 125.6L506.04 125.6L506.04 125.6L506.04 126.08L506.04 126.08L79.44 126.08z" stroke="none" fill="#000000" fill-rule="winding" /><path transform="matrix(1 0 0 -1 0 842)" d="M79.44 109.04L79.92001 109.04L79.92001 109.04L79.92001 125.6L79.92001 125.6L79.44 125.6z" stroke="none" fill="#000000" fill-rule="winding" /><path transform="matrix(1 0 0 -1 0 842)" d="M505.56 109.04L506.04 109.04L506.04 109.04L506.04 125.6L506.04 125.6L505.56 125.6z" stroke="none" fill="#000000" fill-rule="winding" /><path transform="matrix(1 0 0 -1 0 842)" d="M79.44 108.56L506.04 108.56L506.04 108.56L506.04 109.04L506.04 109.04L79.44 109.04z" stroke="none" fill="#000000" fill-rule="winding" /><path transform="matrix(1 0 0 -1 0 842)" d="M79.44 92.96L79.92001 92.96L79.92001 92.96L79.92001 108.56L79.92001 108.56L79.44 108.56z" stroke="none" fill="#000000" fill-rule="winding" /><path transform="matrix(1 0 0 -1 0 842)" d="M174.84 92.96L175.32 92.96L175.32 92.96L175.32 108.56L175.32 108.56L174.84 108.56z" stroke="none" fill="#000000" fill-rule="winding" /><path transform="matrix(1 0 0 -1 0 842)" d="M246.84 92.96L247.32 92.96L247.32 92.96L247.32 108.56L247.32 108.56L246.84 108.56z" stroke="none" fill="#000000" fill-rule="winding" /><path transform="matrix(1 0 0 -1 0 842)" d="M399.84 92.96L400.32 92.96L400.32 92.96L400.32 108.56L400.32 108.56L399.84 108.56z" stroke="none" fill="#000000" fill-rule="winding" /><path transform="matrix(1 0 0 -1 0 842)" d="M505.56 92.96L506.04 92.96L506.04 92.96L506.04 108.56L506.04 108.56L505.56 108.56z" stroke="none" fill="#000000" fill-rule="winding" /><path transform="matrix(1 0 0 -1 0 842)" d="M79.44 92.48L400.32 92.48L400.32 92.48L400.32 92.95998L400.32 92.95998L79.44 92.95998z" stroke="none" fill="#000000" fill-rule="winding" /><path transform="matrix(1 0 0 -1 0 842)" d="M505.56 92.48L506.04 92.48L506.04 92.48L506.04 92.95998L506.04 92.95998L505.56 92.95998z" stroke="none" fill="#000000" fill-rule="winding" /><path transform="matrix(1 0 0 -1 0 842)" d="M79.44 76.88L79.92001 76.88L79.92001 76.88L79.92001 92.48L79.92001 92.48L79.44 92.48z" stroke="none" fill="#000000" fill-rule="winding" /><path transform="matrix(1 0 0 -1 0 842)" d="M174.84 76.88L175.32 76.88L175.32 76.88L175.32 92.48L175.32 92.48L174.84 92.48z" stroke="none" fill="#000000" fill-rule="winding" /><path transform="matrix(1 0 0 -1 0 842)" d="M246.84 76.88L247.32 76.88L247.32 76.88L247.32 92.48L247.32 92.48L246.84 92.48z" stroke="none" fill="#000000" fill-rule="winding" /><path transform="matrix(1 0 0 -1 0 842)" d="M399.84 76.88L400.32 76.88L400.32 76.88L400.32 92.48L400.32 92.48L399.84 92.48z" stroke="none" fill="#000000" fill-rule="winding" /><path transform="matrix(1 0 0 -1 0 842)" d="M505.56 76.88L506.04 76.88L506.04 76.88L506.04 92.48L506.04 92.48L505.56 92.48z" stroke="none" fill="#000000" fill-rule="winding" /><path transform="matrix(1 0 0 -1 0 842)" d="M79.44 76.4L400.32 76.4L400.32 76.4L400.32 76.88001L400.32 76.88001L79.44 76.88001z" stroke="none" fill="#000000" fill-rule="winding" /><path transform="matrix(1 0 0 -1 0 842)" d="M505.56 76.4L506.04 76.4L506.04 76.4L506.04 76.88001L506.04 76.88001L505.56 76.88001z" stroke="none" fill="#000000" fill-rule="winding" /><path transform="matrix(1 0 0 -1 0 842)" d="M79.44 60.26L79.92001 60.26L79.92001 60.26L79.92001 76.39999L79.92001 76.39999L79.44 76.39999z" stroke="none" fill="#000000" fill-rule="winding" /><path transform="matrix(1 0 0 -1 0 842)" d="M79.44 60.26L174.84 60.26L174.84 60.26L174.84 60.73998L174.84 60.73998L79.44 60.73998z" stroke="none" fill="#000000" fill-rule="winding" /><path transform="matrix(1 0 0 -1 0 842)" d="M174.84 60.26L175.32 60.26L175.32 60.26L175.32 76.39999L175.32 76.39999L174.84 76.39999z" stroke="none" fill="#000000" fill-rule="winding" /><path transform="matrix(1 0 0 -1 0 842)" d="M175.32 60.26L246.84 60.26L246.84 60.26L246.84 60.73998L246.84 60.73998L175.32 60.73998z" stroke="none" fill="#000000" fill-rule="winding" /><path transform="matrix(1 0 0 -1 0 842)" d="M246.84 60.26L247.32 60.26L247.32 60.26L247.32 76.39999L247.32 76.39999L246.84 76.39999z" stroke="none" fill="#000000" fill-rule="winding" /><path transform="matrix(1 0 0 -1 0 842)" d="M247.32 60.26L399.84 60.26L399.84 60.26L399.84 60.73998L399.84 60.73998L247.32 60.73998z" stroke="none" fill="#000000" fill-rule="winding" /><path transform="matrix(1 0 0 -1 0 842)" d="M399.84 60.26L400.32 60.26L400.32 60.26L400.32 76.39999L400.32 76.39999L399.84 76.39999z" stroke="none" fill="#000000" fill-rule="winding" /><path transform="matrix(1 0 0 -1 0 842)" d="M400.32 60.26L505.56 60.26L505.56 60.26L505.56 60.73998L505.56 60.73998L400.32 60.73998z" stroke="none" fill="#000000" fill-rule="winding" /><path transform="matrix(1 0 0 -1 0 842)" d="M505.56 60.26L506.04 60.26L506.04 60.26L506.04 76.39999L506.04 76.39999L505.56 76.39999z" stroke="none" fill="#000000" fill-rule="winding" /><path transform="matrix(1 0 0 -1 0 842)" d="M505.56 60.26L506.04 60.26L506.04 60.26L506.04 60.73998L506.04 60.73998L505.56 60.73998z" stroke="none" fill="#000000" fill-rule="winding" /></g></g></g></svg>