<svg xmlns="http://www.w3.org/2000/svg" xmlns:xlink="http://www.w3.org/1999/xlink" id="body_9" preserveAspectRatio="xMinYMin meet" viewBox="0 0 793 1123"><defs><clipPath id="1"><path d="M0 842L0 0L0 0L595.22 0L595.22 0L595.22 842L595.22 842L0 842z" /></clipPath></defs><g transform="matrix(1.333333 0 0 1.333333 0 0)"><g><g clip-path="url(#1)"><g transform="matrix(0.4798529 0 0 0.476 85.08 28.37994)"><g transform="matrix(1 0 0 1 0 0)"><image x="0" y="0" xlink:href="img_01.png" width="34" height="30" /></g></g><path transform="matrix(1 0 0 -1 0 842)" d="M83.58 795.02L511.8 795.02L511.8 795.02L511.8 795.7401L511.8 795.7401L83.58 795.7401z" stroke="none" fill="#000000" fill-rule="winding" /><path transform="matrix(1 0 0 -1 0 842)" d="M79.44 784.82L79.92001 784.82L79.92001 784.82L79.92001 785.3L79.92001 785.3L79.44 785.3z" stroke="none" fill="#000000" fill-rule="winding" /><path transform="matrix(1 0 0 -1 0 842)" d="M79.44 784.82L404.28 784.82L404.28 784.82L404.28 785.3L404.28 785.3L79.44 785.3z" stroke="none" fill="#000000" fill-rule="winding" /><path transform="matrix(1 0 0 -1 0 842)" d="M404.28 785.3L505.56 785.3L505.56 785.3L505.56 784.82L505.56 784.82L404.28 784.82" stroke="none" fill="#000000" fill-rule="winding" /><path transform="matrix(1 0 0 -1 0 842)" d="M505.56 784.82L506.04 784.82L506.04 784.82L506.04 785.3L506.04 785.3L505.56 785.3z" stroke="none" fill="#000000" fill-rule="winding" /><path transform="matrix(1 0 0 -1 0 842)" d="M505.56 784.82L506.04 784.82L506.04 784.82L506.04 785.3L506.04 785.3L505.56 785.3z" stroke="none" fill="#000000" fill-rule="winding" /><path transform="matrix(1 0 0 -1 0 842)" d="M79.44 769.22L79.92001 769.22L79.92001 769.22L79.92001 784.8199L79.92001 784.8199L79.44 784.8199z" stroke="none" fill="#000000" fill-rule="winding" /><path transform="matrix(1 0 0 -1 0 842)" d="M141.54 769.22L142.02 769.22L142.02 769.22L142.02 784.8199L142.02 784.8199L141.54 784.8199z" stroke="none" fill="#000000" fill-rule="winding" /><path transform="matrix(1 0 0 -1 0 842)" d="M212.46 769.22L212.94 769.22L212.94 769.22L212.94 784.8199L212.94 784.8199L212.46 784.8199z" stroke="none" fill="#000000" fill-rule="winding" /><path transform="matrix(1 0 0 -1 0 842)" d="M403.8 769.22L404.28 769.22L404.28 769.22L404.28 784.8199L404.28 784.8199L403.8 784.8199z" stroke="none" fill="#000000" fill-rule="winding" /><path transform="matrix(1 0 0 -1 0 842)" d="M505.56 769.22L506.04 769.22L506.04 769.22L506.04 784.8199L506.04 784.8199L505.56 784.8199z" stroke="none" fill="#000000" fill-rule="winding" /><path transform="matrix(1 0 0 -1 0 842)" d="M79.44 768.74L404.28 768.74L404.28 768.74L404.28 769.22L404.28 769.22L79.44 769.22z" stroke="none" fill="#000000" fill-rule="winding" /><path transform="matrix(1 0 0 -1 0 842)" d="M505.56 768.74L506.04 768.74L506.04 768.74L506.04 769.22L506.04 769.22L505.56 769.22z" stroke="none" fill="#000000" fill-rule="winding" /><path transform="matrix(1 0 0 -1 0 842)" d="M79.44 753.08L79.92001 753.08L79.92001 753.08L79.92001 768.74L79.92001 768.74L79.44 768.74z" stroke="none" fill="#000000" fill-rule="winding" /><path transform="matrix(1 0 0 -1 0 842)" d="M141.54 753.08L142.02 753.08L142.02 753.08L142.02 768.74L142.02 768.74L141.54 768.74z" stroke="none" fill="#000000" fill-rule="winding" /><path transform="matrix(1 0 0 -1 0 842)" d="M212.46 753.08L212.94 753.08L212.94 753.08L212.94 768.74L212.94 768.74L212.46 768.74z" stroke="none" fill="#000000" fill-rule="winding" /><path transform="matrix(1 0 0 -1 0 842)" d="M403.8 753.08L404.28 753.08L404.28 753.08L404.28 768.74L404.28 768.74L403.8 768.74z" stroke="none" fill="#000000" fill-rule="winding" /><path transform="matrix(1 0 0 -1 0 842)" d="M505.56 753.08L506.04 753.08L506.04 753.08L506.04 768.74L506.04 768.74L505.56 768.74z" stroke="none" fill="#000000" fill-rule="winding" /><path transform="matrix(1 0 0 -1 0 842)" d="M79.44 752.6L404.28 752.6L404.28 752.6L404.28 753.08L404.28 753.08L79.44 753.08z" stroke="none" fill="#000000" fill-rule="winding" /><path transform="matrix(1 0 0 -1 0 842)" d="M505.56 752.6L506.04 752.6L506.04 752.6L506.04 753.08L506.04 753.08L505.56 753.08z" stroke="none" fill="#000000" fill-rule="winding" /><path transform="matrix(1 0 0 -1 0 842)" d="M79.44 737L79.92001 737L79.92001 737L79.92001 752.6L79.92001 752.6L79.44 752.6z" stroke="none" fill="#000000" fill-rule="winding" /><path transform="matrix(1 0 0 -1 0 842)" d="M141.54 737L142.02 737L142.02 737L142.02 752.6L142.02 752.6L141.54 752.6z" stroke="none" fill="#000000" fill-rule="winding" /><path transform="matrix(1 0 0 -1 0 842)" d="M212.46 737L212.94 737L212.94 737L212.94 752.6L212.94 752.6L212.46 752.6z" stroke="none" fill="#000000" fill-rule="winding" /><path transform="matrix(1 0 0 -1 0 842)" d="M403.8 737L404.28 737L404.28 737L404.28 752.6L404.28 752.6L403.8 752.6z" stroke="none" fill="#000000" fill-rule="winding" /><path transform="matrix(1 0 0 -1 0 842)" d="M505.56 737L506.04 737L506.04 737L506.04 752.6L506.04 752.6L505.56 752.6z" stroke="none" fill="#000000" fill-rule="winding" /><path transform="matrix(1 0 0 -1 0 842)" d="M79.44 736.52L404.28 736.52L404.28 736.52L404.28 737.0001L404.28 737.0001L79.44 737.0001z" stroke="none" fill="#000000" fill-rule="winding" /><path transform="matrix(1 0 0 -1 0 842)" d="M505.56 736.52L506.04 736.52L506.04 736.52L506.04 737.0001L506.04 737.0001L505.56 737.0001z" stroke="none" fill="#000000" fill-rule="winding" /><path transform="matrix(1 0 0 -1 0 842)" d="M79.44 720.92L79.92001 720.92L79.92001 720.92L79.92001 736.52L79.92001 736.52L79.44 736.52z" stroke="none" fill="#000000" fill-rule="winding" /><path transform="matrix(1 0 0 -1 0 842)" d="M141.54 720.92L142.02 720.92L142.02 720.92L142.02 736.52L142.02 736.52L141.54 736.52z" stroke="none" fill="#000000" fill-rule="winding" /><path transform="matrix(1 0 0 -1 0 842)" d="M212.46 720.92L212.94 720.92L212.94 720.92L212.94 736.52L212.94 736.52L212.46 736.52z" stroke="none" fill="#000000" fill-rule="winding" /><path transform="matrix(1 0 0 -1 0 842)" d="M403.8 720.92L404.28 720.92L404.28 720.92L404.28 736.52L404.28 736.52L403.8 736.52z" stroke="none" fill="#000000" fill-rule="winding" /><path transform="matrix(1 0 0 -1 0 842)" d="M505.56 720.92L506.04 720.92L506.04 720.92L506.04 736.52L506.04 736.52L505.56 736.52z" stroke="none" fill="#000000" fill-rule="winding" /><path transform="matrix(1 0 0 -1 0 842)" d="M79.44 720.44L404.28 720.44L404.28 720.44L404.28 720.92L404.28 720.92L79.44 720.92z" stroke="none" fill="#000000" fill-rule="winding" /><path transform="matrix(1 0 0 -1 0 842)" d="M505.56 720.44L506.04 720.44L506.04 720.44L506.04 720.92L506.04 720.92L505.56 720.92z" stroke="none" fill="#000000" fill-rule="winding" /><path transform="matrix(1 0 0 -1 0 842)" d="M79.44 704.78L79.92001 704.78L79.92001 704.78L79.92001 720.44L79.92001 720.44L79.44 720.44z" stroke="none" fill="#000000" fill-rule="winding" /><path transform="matrix(1 0 0 -1 0 842)" d="M141.54 704.78L142.02 704.78L142.02 704.78L142.02 720.44L142.02 720.44L141.54 720.44z" stroke="none" fill="#000000" fill-rule="winding" /><path transform="matrix(1 0 0 -1 0 842)" d="M212.46 704.78L212.94 704.78L212.94 704.78L212.94 720.44L212.94 720.44L212.46 720.44z" stroke="none" fill="#000000" fill-rule="winding" /><path transform="matrix(1 0 0 -1 0 842)" d="M403.8 704.78L404.28 704.78L404.28 704.78L404.28 720.44L404.28 720.44L403.8 720.44z" stroke="none" fill="#000000" fill-rule="winding" /><path transform="matrix(1 0 0 -1 0 842)" d="M505.56 704.78L506.04 704.78L506.04 704.78L506.04 720.44L506.04 720.44L505.56 720.44z" stroke="none" fill="#000000" fill-rule="winding" /><path transform="matrix(1 0 0 -1 0 842)" d="M79.44 704.3L404.28 704.3L404.28 704.3L404.28 704.78L404.28 704.78L79.44 704.78z" stroke="none" fill="#000000" fill-rule="winding" /><path transform="matrix(1 0 0 -1 0 842)" d="M505.56 704.3L506.04 704.3L506.04 704.3L506.04 704.78L506.04 704.78L505.56 704.78z" stroke="none" fill="#000000" fill-rule="winding" /><path transform="matrix(1 0 0 -1 0 842)" d="M79.44 688.7L79.92001 688.7L79.92001 688.7L79.92001 704.3L79.92001 704.3L79.44 704.3z" stroke="none" fill="#000000" fill-rule="winding" /><path transform="matrix(1 0 0 -1 0 842)" d="M141.54 688.7L142.02 688.7L142.02 688.7L142.02 704.3L142.02 704.3L141.54 704.3z" stroke="none" fill="#000000" fill-rule="winding" /><path transform="matrix(1 0 0 -1 0 842)" d="M212.46 688.7L212.94 688.7L212.94 688.7L212.94 704.3L212.94 704.3L212.46 704.3z" stroke="none" fill="#000000" fill-rule="winding" /><path transform="matrix(1 0 0 -1 0 842)" d="M403.8 688.7L404.28 688.7L404.28 688.7L404.28 704.3L404.28 704.3L403.8 704.3z" stroke="none" fill="#000000" fill-rule="winding" /><path transform="matrix(1 0 0 -1 0 842)" d="M505.56 688.7L506.04 688.7L506.04 688.7L506.04 704.3L506.04 704.3L505.56 704.3z" stroke="none" fill="#000000" fill-rule="winding" /><path transform="matrix(1 0 0 -1 0 842)" d="M79.44 688.22L404.28 688.22L404.28 688.22L404.28 688.7L404.28 688.7L79.44 688.7z" stroke="none" fill="#000000" fill-rule="winding" /><path transform="matrix(1 0 0 -1 0 842)" d="M505.56 688.22L506.04 688.22L506.04 688.22L506.04 688.7L506.04 688.7L505.56 688.7z" stroke="none" fill="#000000" fill-rule="winding" /><path transform="matrix(1 0 0 -1 0 842)" d="M79.44 672.62L79.92001 672.62L79.92001 672.62L79.92001 688.22L79.92001 688.22L79.44 688.22z" stroke="none" fill="#000000" fill-rule="winding" /><path transform="matrix(1 0 0 -1 0 842)" d="M141.54 672.62L142.02 672.62L142.02 672.62L142.02 688.22L142.02 688.22L141.54 688.22z" stroke="none" fill="#000000" fill-rule="winding" /><path transform="matrix(1 0 0 -1 0 842)" d="M212.46 672.62L212.94 672.62L212.94 672.62L212.94 688.22L212.94 688.22L212.46 688.22z" stroke="none" fill="#000000" fill-rule="winding" /><path transform="matrix(1 0 0 -1 0 842)" d="M403.8 672.62L404.28 672.62L404.28 672.62L404.28 688.22L404.28 688.22L403.8 688.22z" stroke="none" fill="#000000" fill-rule="winding" /><path transform="matrix(1 0 0 -1 0 842)" d="M505.56 672.62L506.04 672.62L506.04 672.62L506.04 688.22L506.04 688.22L505.56 688.22z" stroke="none" fill="#000000" fill-rule="winding" /><path transform="matrix(1 0 0 -1 0 842)" d="M79.44 672.14L404.28 672.14L404.28 672.14L404.28 672.62L404.28 672.62L79.44 672.62z" stroke="none" fill="#000000" fill-rule="winding" /><path transform="matrix(1 0 0 -1 0 842)" d="M505.56 672.14L506.04 672.14L506.04 672.14L506.04 672.62L506.04 672.62L505.56 672.62z" stroke="none" fill="#000000" fill-rule="winding" /><path transform="matrix(1 0 0 -1 0 842)" d="M79.44 656.48L79.92001 656.48L79.92001 656.48L79.92001 672.14L79.92001 672.14L79.44 672.14z" stroke="none" fill="#000000" fill-rule="winding" /><path transform="matrix(1 0 0 -1 0 842)" d="M141.54 656.48L142.02 656.48L142.02 656.48L142.02 672.14L142.02 672.14L141.54 672.14z" stroke="none" fill="#000000" fill-rule="winding" /><path transform="matrix(1 0 0 -1 0 842)" d="M212.46 656.48L212.94 656.48L212.94 656.48L212.94 672.14L212.94 672.14L212.46 672.14z" stroke="none" fill="#000000" fill-rule="winding" /><path transform="matrix(1 0 0 -1 0 842)" d="M403.8 656.48L404.28 656.48L404.28 656.48L404.28 672.14L404.28 672.14L403.8 672.14z" stroke="none" fill="#000000" fill-rule="winding" /><path transform="matrix(1 0 0 -1 0 842)" d="M505.56 656.48L506.04 656.48L506.04 656.48L506.04 672.14L506.04 672.14L505.56 672.14z" stroke="none" fill="#000000" fill-rule="winding" /><path transform="matrix(1 0 0 -1 0 842)" d="M79.44 656L404.28 656L404.28 656L404.28 656.48L404.28 656.48L79.44 656.48z" stroke="none" fill="#000000" fill-rule="winding" /><path transform="matrix(1 0 0 -1 0 842)" d="M505.56 656L506.04 656L506.04 656L506.04 656.48L506.04 656.48L505.56 656.48z" stroke="none" fill="#000000" fill-rule="winding" /><path transform="matrix(1 0 0 -1 0 842)" d="M79.44 640.4L79.92001 640.4L79.92001 640.4L79.92001 656L79.92001 656L79.44 656z" stroke="none" fill="#000000" fill-rule="winding" /><path transform="matrix(1 0 0 -1 0 842)" d="M141.54 640.4L142.02 640.4L142.02 640.4L142.02 656L142.02 656L141.54 656z" stroke="none" fill="#000000" fill-rule="winding" /><path transform="matrix(1 0 0 -1 0 842)" d="M212.46 640.4L212.94 640.4L212.94 640.4L212.94 656L212.94 656L212.46 656z" stroke="none" fill="#000000" fill-rule="winding" /><path transform="matrix(1 0 0 -1 0 842)" d="M403.8 640.4L404.28 640.4L404.28 640.4L404.28 656L404.28 656L403.8 656z" stroke="none" fill="#000000" fill-rule="winding" /><path transform="matrix(1 0 0 -1 0 842)" d="M505.56 640.4L506.04 640.4L506.04 640.4L506.04 656L506.04 656L505.56 656z" stroke="none" fill="#000000" fill-rule="winding" /><path transform="matrix(1 0 0 -1 0 842)" d="M79.44 639.92L404.28 639.92L404.28 639.92L404.28 640.4L404.28 640.4L79.44 640.4z" stroke="none" fill="#000000" fill-rule="winding" /><path transform="matrix(1 0 0 -1 0 842)" d="M505.56 639.92L506.04 639.92L506.04 639.92L506.04 640.4L506.04 640.4L505.56 640.4z" stroke="none" fill="#000000" fill-rule="winding" /><path transform="matrix(1 0 0 -1 0 842)" d="M79.44 624.32L79.92001 624.32L79.92001 624.32L79.92001 639.92L79.92001 639.92L79.44 639.92z" stroke="none" fill="#000000" fill-rule="winding" /><path transform="matrix(1 0 0 -1 0 842)" d="M141.54 624.32L142.02 624.32L142.02 624.32L142.02 639.92L142.02 639.92L141.54 639.92z" stroke="none" fill="#000000" fill-rule="winding" /><path transform="matrix(1 0 0 -1 0 842)" d="M212.46 624.32L212.94 624.32L212.94 624.32L212.94 639.92L212.94 639.92L212.46 639.92z" stroke="none" fill="#000000" fill-rule="winding" /><path transform="matrix(1 0 0 -1 0 842)" d="M403.8 624.32L404.28 624.32L404.28 624.32L404.28 639.92L404.28 639.92L403.8 639.92z" stroke="none" fill="#000000" fill-rule="winding" /><path transform="matrix(1 0 0 -1 0 842)" d="M505.56 624.32L506.04 624.32L506.04 624.32L506.04 639.92L506.04 639.92L505.56 639.92z" stroke="none" fill="#000000" fill-rule="winding" /><path transform="matrix(1 0 0 -1 0 842)" d="M79.44 623.84L404.28 623.84L404.28 623.84L404.28 624.32L404.28 624.32L79.44 624.32z" stroke="none" fill="#000000" fill-rule="winding" /><path transform="matrix(1 0 0 -1 0 842)" d="M505.56 623.84L506.04 623.84L506.04 623.84L506.04 624.32L506.04 624.32L505.56 624.32z" stroke="none" fill="#000000" fill-rule="winding" /><path transform="matrix(1 0 0 -1 0 842)" d="M79.44 608.18L79.92001 608.18L79.92001 608.18L79.92001 623.84L79.92001 623.84L79.44 623.84z" stroke="none" fill="#000000" fill-rule="winding" /><path transform="matrix(1 0 0 -1 0 842)" d="M141.54 608.18L142.02 608.18L142.02 608.18L142.02 623.84L142.02 623.84L141.54 623.84z" stroke="none" fill="#000000" fill-rule="winding" /><path transform="matrix(1 0 0 -1 0 842)" d="M212.46 608.18L212.94 608.18L212.94 608.18L212.94 623.84L212.94 623.84L212.46 623.84z" stroke="none" fill="#000000" fill-rule="winding" /><path transform="matrix(1 0 0 -1 0 842)" d="M403.8 608.18L404.28 608.18L404.28 608.18L404.28 623.84L404.28 623.84L403.8 623.84z" stroke="none" fill="#000000" fill-rule="winding" /><path transform="matrix(1 0 0 -1 0 842)" d="M505.56 608.18L506.04 608.18L506.04 608.18L506.04 623.84L506.04 623.84L505.56 623.84z" stroke="none" fill="#000000" fill-rule="winding" /><path transform="matrix(1 0 0 -1 0 842)" d="M79.44 607.7L404.28 607.7L404.28 607.7L404.28 608.18L404.28 608.18L79.44 608.18z" stroke="none" fill="#000000" fill-rule="winding" /><path transform="matrix(1 0 0 -1 0 842)" d="M505.56 607.7L506.04 607.7L506.04 607.7L506.04 608.18L506.04 608.18L505.56 608.18z" stroke="none" fill="#000000" fill-rule="winding" /><path transform="matrix(1 0 0 -1 0 842)" d="M79.44 592.1L79.92001 592.1L79.92001 592.1L79.92001 607.7L79.92001 607.7L79.44 607.7z" stroke="none" fill="#000000" fill-rule="winding" /><path transform="matrix(1 0 0 -1 0 842)" d="M141.54 592.1L142.02 592.1L142.02 592.1L142.02 607.7L142.02 607.7L141.54 607.7z" stroke="none" fill="#000000" fill-rule="winding" /><path transform="matrix(1 0 0 -1 0 842)" d="M212.46 592.1L212.94 592.1L212.94 592.1L212.94 607.7L212.94 607.7L212.46 607.7z" stroke="none" fill="#000000" fill-rule="winding" /><path transform="matrix(1 0 0 -1 0 842)" d="M403.8 592.1L404.28 592.1L404.28 592.1L404.28 607.7L404.28 607.7L403.8 607.7z" stroke="none" fill="#000000" fill-rule="winding" /><path transform="matrix(1 0 0 -1 0 842)" d="M505.56 592.1L506.04 592.1L506.04 592.1L506.04 607.7L506.04 607.7L505.56 607.7z" stroke="none" fill="#000000" fill-rule="winding" /><path transform="matrix(1 0 0 -1 0 842)" d="M79.44 591.62L404.28 591.62L404.28 591.62L404.28 592.1L404.28 592.1L79.44 592.1z" stroke="none" fill="#000000" fill-rule="winding" /><path transform="matrix(1 0 0 -1 0 842)" d="M505.56 591.62L506.04 591.62L506.04 591.62L506.04 592.1L506.04 592.1L505.56 592.1z" stroke="none" fill="#000000" fill-rule="winding" /><path transform="matrix(1 0 0 -1 0 842)" d="M79.44 576.02L79.92001 576.02L79.92001 576.02L79.92001 591.62L79.92001 591.62L79.44 591.62z" stroke="none" fill="#000000" fill-rule="winding" /><path transform="matrix(1 0 0 -1 0 842)" d="M141.54 576.02L142.02 576.02L142.02 576.02L142.02 591.62L142.02 591.62L141.54 591.62z" stroke="none" fill="#000000" fill-rule="winding" /><path transform="matrix(1 0 0 -1 0 842)" d="M212.46 576.02L212.94 576.02L212.94 576.02L212.94 591.62L212.94 591.62L212.46 591.62z" stroke="none" fill="#000000" fill-rule="winding" /><path transform="matrix(1 0 0 -1 0 842)" d="M403.8 576.02L404.28 576.02L404.28 576.02L404.28 591.62L404.28 591.62L403.8 591.62z" stroke="none" fill="#000000" fill-rule="winding" /><path transform="matrix(1 0 0 -1 0 842)" d="M505.56 576.02L506.04 576.02L506.04 576.02L506.04 591.62L506.04 591.62L505.56 591.62z" stroke="none" fill="#000000" fill-rule="winding" /><path transform="matrix(1 0 0 -1 0 842)" d="M79.44 575.54L404.28 575.54L404.28 575.54L404.28 576.02L404.28 576.02L79.44 576.02z" stroke="none" fill="#000000" fill-rule="winding" /><path transform="matrix(1 0 0 -1 0 842)" d="M505.56 575.54L506.04 575.54L506.04 575.54L506.04 576.02L506.04 576.02L505.56 576.02z" stroke="none" fill="#000000" fill-rule="winding" /><path transform="matrix(1 0 0 -1 0 842)" d="M79.44 559.88L79.92001 559.88L79.92001 559.88L79.92001 575.54L79.92001 575.54L79.44 575.54z" stroke="none" fill="#000000" fill-rule="winding" /><path transform="matrix(1 0 0 -1 0 842)" d="M141.54 559.88L142.02 559.88L142.02 559.88L142.02 575.54L142.02 575.54L141.54 575.54z" stroke="none" fill="#000000" fill-rule="winding" /><path transform="matrix(1 0 0 -1 0 842)" d="M212.46 559.88L212.94 559.88L212.94 559.88L212.94 575.54L212.94 575.54L212.46 575.54z" stroke="none" fill="#000000" fill-rule="winding" /><path transform="matrix(1 0 0 -1 0 842)" d="M403.8 559.88L404.28 559.88L404.28 559.88L404.28 575.54L404.28 575.54L403.8 575.54z" stroke="none" fill="#000000" fill-rule="winding" /><path transform="matrix(1 0 0 -1 0 842)" d="M505.56 559.88L506.04 559.88L506.04 559.88L506.04 575.54L506.04 575.54L505.56 575.54z" stroke="none" fill="#000000" fill-rule="winding" /><path transform="matrix(1 0 0 -1 0 842)" d="M79.44 559.4L404.28 559.4L404.28 559.4L404.28 559.88L404.28 559.88L79.44 559.88z" stroke="none" fill="#000000" fill-rule="winding" /><path transform="matrix(1 0 0 -1 0 842)" d="M505.56 559.4L506.04 559.4L506.04 559.4L506.04 559.88L506.04 559.88L505.56 559.88z" stroke="none" fill="#000000" fill-rule="winding" /><path transform="matrix(1 0 0 -1 0 842)" d="M79.44 543.8L79.92001 543.8L79.92001 543.8L79.92001 559.4L79.92001 559.4L79.44 559.4z" stroke="none" fill="#000000" fill-rule="winding" /><path transform="matrix(1 0 0 -1 0 842)" d="M141.54 543.8L142.02 543.8L142.02 543.8L142.02 559.4L142.02 559.4L141.54 559.4z" stroke="none" fill="#000000" fill-rule="winding" /><path transform="matrix(1 0 0 -1 0 842)" d="M212.46 543.8L212.94 543.8L212.94 543.8L212.94 559.4L212.94 559.4L212.46 559.4z" stroke="none" fill="#000000" fill-rule="winding" /><path transform="matrix(1 0 0 -1 0 842)" d="M403.8 543.8L404.28 543.8L404.28 543.8L404.28 559.4L404.28 559.4L403.8 559.4z" stroke="none" fill="#000000" fill-rule="winding" /><path transform="matrix(1 0 0 -1 0 842)" d="M505.56 543.8L506.04 543.8L506.04 543.8L506.04 559.4L506.04 559.4L505.56 559.4z" stroke="none" fill="#000000" fill-rule="winding" /><path transform="matrix(1 0 0 -1 0 842)" d="M79.44 543.32L404.28 543.32L404.28 543.32L404.28 543.8L404.28 543.8L79.44 543.8z" stroke="none" fill="#000000" fill-rule="winding" /><path transform="matrix(1 0 0 -1 0 842)" d="M505.56 543.32L506.04 543.32L506.04 543.32L506.04 543.8L506.04 543.8L505.56 543.8z" stroke="none" fill="#000000" fill-rule="winding" /><path transform="matrix(1 0 0 -1 0 842)" d="M79.44 527.72L79.92001 527.72L79.92001 527.72L79.92001 543.3199L79.92001 543.3199L79.44 543.3199z" stroke="none" fill="#000000" fill-rule="winding" /><path transform="matrix(1 0 0 -1 0 842)" d="M141.54 527.72L142.02 527.72L142.02 527.72L142.02 543.3199L142.02 543.3199L141.54 543.3199z" stroke="none" fill="#000000" fill-rule="winding" /><path transform="matrix(1 0 0 -1 0 842)" d="M212.46 527.72L212.94 527.72L212.94 527.72L212.94 543.3199L212.94 543.3199L212.46 543.3199z" stroke="none" fill="#000000" fill-rule="winding" /><path transform="matrix(1 0 0 -1 0 842)" d="M403.8 527.72L404.28 527.72L404.28 527.72L404.28 543.3199L404.28 543.3199L403.8 543.3199z" stroke="none" fill="#000000" fill-rule="winding" /><path transform="matrix(1 0 0 -1 0 842)" d="M505.56 527.72L506.04 527.72L506.04 527.72L506.04 543.3199L506.04 543.3199L505.56 543.3199z" stroke="none" fill="#000000" fill-rule="winding" /><path transform="matrix(1 0 0 -1 0 842)" d="M79.44 527.24L404.28 527.24L404.28 527.24L404.28 527.72L404.28 527.72L79.44 527.72z" stroke="none" fill="#000000" fill-rule="winding" /><path transform="matrix(1 0 0 -1 0 842)" d="M505.56 527.24L506.04 527.24L506.04 527.24L506.04 527.72L506.04 527.72L505.56 527.72z" stroke="none" fill="#000000" fill-rule="winding" /><path transform="matrix(1 0 0 -1 0 842)" d="M79.44 511.58L79.92001 511.58L79.92001 511.58L79.92001 527.24L79.92001 527.24L79.44 527.24z" stroke="none" fill="#000000" fill-rule="winding" /><path transform="matrix(1 0 0 -1 0 842)" d="M141.54 511.58L142.02 511.58L142.02 511.58L142.02 527.24L142.02 527.24L141.54 527.24z" stroke="none" fill="#000000" fill-rule="winding" /><path transform="matrix(1 0 0 -1 0 842)" d="M212.46 511.58L212.94 511.58L212.94 511.58L212.94 527.24L212.94 527.24L212.46 527.24z" stroke="none" fill="#000000" fill-rule="winding" /><path transform="matrix(1 0 0 -1 0 842)" d="M403.8 511.58L404.28 511.58L404.28 511.58L404.28 527.24L404.28 527.24L403.8 527.24z" stroke="none" fill="#000000" fill-rule="winding" /><path transform="matrix(1 0 0 -1 0 842)" d="M505.56 511.58L506.04 511.58L506.04 511.58L506.04 527.24L506.04 527.24L505.56 527.24z" stroke="none" fill="#000000" fill-rule="winding" /><path transform="matrix(1 0 0 -1 0 842)" d="M79.44 511.1L404.28 511.1L404.28 511.1L404.28 511.58L404.28 511.58L79.44 511.58z" stroke="none" fill="#000000" fill-rule="winding" /><path transform="matrix(1 0 0 -1 0 842)" d="M505.56 511.1L506.04 511.1L506.04 511.1L506.04 511.58L506.04 511.58L505.56 511.58z" stroke="none" fill="#000000" fill-rule="winding" /><path transform="matrix(1 0 0 -1 0 842)" d="M79.44 495.5L79.92001 495.5L79.92001 495.5L79.92001 511.1L79.92001 511.1L79.44 511.1z" stroke="none" fill="#000000" fill-rule="winding" /><path transform="matrix(1 0 0 -1 0 842)" d="M141.54 495.5L142.02 495.5L142.02 495.5L142.02 511.1L142.02 511.1L141.54 511.1z" stroke="none" fill="#000000" fill-rule="winding" /><path transform="matrix(1 0 0 -1 0 842)" d="M212.46 495.5L212.94 495.5L212.94 495.5L212.94 511.1L212.94 511.1L212.46 511.1z" stroke="none" fill="#000000" fill-rule="winding" /><path transform="matrix(1 0 0 -1 0 842)" d="M403.8 495.5L404.28 495.5L404.28 495.5L404.28 511.1L404.28 511.1L403.8 511.1z" stroke="none" fill="#000000" fill-rule="winding" /><path transform="matrix(1 0 0 -1 0 842)" d="M505.56 495.5L506.04 495.5L506.04 495.5L506.04 511.1L506.04 511.1L505.56 511.1z" stroke="none" fill="#000000" fill-rule="winding" /><path transform="matrix(1 0 0 -1 0 842)" d="M79.44 495.02L404.28 495.02L404.28 495.02L404.28 495.5L404.28 495.5L79.44 495.5z" stroke="none" fill="#000000" fill-rule="winding" /><path transform="matrix(1 0 0 -1 0 842)" d="M505.56 495.02L506.04 495.02L506.04 495.02L506.04 495.5L506.04 495.5L505.56 495.5z" stroke="none" fill="#000000" fill-rule="winding" /><path transform="matrix(1 0 0 -1 0 842)" d="M79.44 479.42L79.92001 479.42L79.92001 479.42L79.92001 495.02L79.92001 495.02L79.44 495.02z" stroke="none" fill="#000000" fill-rule="winding" /><path transform="matrix(1 0 0 -1 0 842)" d="M141.54 479.42L142.02 479.42L142.02 479.42L142.02 495.02L142.02 495.02L141.54 495.02z" stroke="none" fill="#000000" fill-rule="winding" /><path transform="matrix(1 0 0 -1 0 842)" d="M212.46 479.42L212.94 479.42L212.94 479.42L212.94 495.02L212.94 495.02L212.46 495.02z" stroke="none" fill="#000000" fill-rule="winding" /><path transform="matrix(1 0 0 -1 0 842)" d="M403.8 479.42L404.28 479.42L404.28 479.42L404.28 495.02L404.28 495.02L403.8 495.02z" stroke="none" fill="#000000" fill-rule="winding" /><path transform="matrix(1 0 0 -1 0 842)" d="M505.56 479.42L506.04 479.42L506.04 479.42L506.04 495.02L506.04 495.02L505.56 495.02z" stroke="none" fill="#000000" fill-rule="winding" /><path transform="matrix(1 0 0 -1 0 842)" d="M79.44 478.94L404.28 478.94L404.28 478.94L404.28 479.42L404.28 479.42L79.44 479.42z" stroke="none" fill="#000000" fill-rule="winding" /><path transform="matrix(1 0 0 -1 0 842)" d="M505.56 478.94L506.04 478.94L506.04 478.94L506.04 479.42L506.04 479.42L505.56 479.42z" stroke="none" fill="#000000" fill-rule="winding" /><path transform="matrix(1 0 0 -1 0 842)" d="M79.44 463.28L79.92001 463.28L79.92001 463.28L79.92001 478.94L79.92001 478.94L79.44 478.94z" stroke="none" fill="#000000" fill-rule="winding" /><path transform="matrix(1 0 0 -1 0 842)" d="M141.54 463.28L142.02 463.28L142.02 463.28L142.02 478.94L142.02 478.94L141.54 478.94z" stroke="none" fill="#000000" fill-rule="winding" /><path transform="matrix(1 0 0 -1 0 842)" d="M212.46 463.28L212.94 463.28L212.94 463.28L212.94 478.94L212.94 478.94L212.46 478.94z" stroke="none" fill="#000000" fill-rule="winding" /><path transform="matrix(1 0 0 -1 0 842)" d="M403.8 463.28L404.28 463.28L404.28 463.28L404.28 478.94L404.28 478.94L403.8 478.94z" stroke="none" fill="#000000" fill-rule="winding" /><path transform="matrix(1 0 0 -1 0 842)" d="M505.56 463.28L506.04 463.28L506.04 463.28L506.04 478.94L506.04 478.94L505.56 478.94z" stroke="none" fill="#000000" fill-rule="winding" /><path transform="matrix(1 0 0 -1 0 842)" d="M79.44 462.8L404.28 462.8L404.28 462.8L404.28 463.28L404.28 463.28L79.44 463.28z" stroke="none" fill="#000000" fill-rule="winding" /><path transform="matrix(1 0 0 -1 0 842)" d="M505.56 462.8L506.04 462.8L506.04 462.8L506.04 463.28L506.04 463.28L505.56 463.28z" stroke="none" fill="#000000" fill-rule="winding" /><path transform="matrix(1 0 0 -1 0 842)" d="M79.44 446.72L79.92001 446.72L79.92001 446.72L79.92001 462.8L79.92001 462.8L79.44 462.8z" stroke="none" fill="#000000" fill-rule="winding" /><path transform="matrix(1 0 0 -1 0 842)" d="M79.44 446.72L141.54 446.72L141.54 446.72L141.54 447.2L141.54 447.2L79.44 447.2z" stroke="none" fill="#000000" fill-rule="winding" /><path transform="matrix(1 0 0 -1 0 842)" d="M141.54 446.72L142.02 446.72L142.02 446.72L142.02 462.8L142.02 462.8L141.54 462.8z" stroke="none" fill="#000000" fill-rule="winding" /><path transform="matrix(1 0 0 -1 0 842)" d="M142.02 446.72L212.46 446.72L212.46 446.72L212.46 447.2L212.46 447.2L142.02 447.2z" stroke="none" fill="#000000" fill-rule="winding" /><path transform="matrix(1 0 0 -1 0 842)" d="M212.46 446.72L212.94 446.72L212.94 446.72L212.94 462.8L212.94 462.8L212.46 462.8z" stroke="none" fill="#000000" fill-rule="winding" /><path transform="matrix(1 0 0 -1 0 842)" d="M212.94 446.72L403.8 446.72L403.8 446.72L403.8 447.2L403.8 447.2L212.94 447.2z" stroke="none" fill="#000000" fill-rule="winding" /><path transform="matrix(1 0 0 -1 0 842)" d="M403.8 446.72L404.28 446.72L404.28 446.72L404.28 462.8L404.28 462.8L403.8 462.8z" stroke="none" fill="#000000" fill-rule="winding" /><path transform="matrix(1 0 0 -1 0 842)" d="M404.28 447.2L505.56 447.2L505.56 447.2L505.56 446.72L505.56 446.72L404.28 446.72" stroke="none" fill="#000000" fill-rule="winding" /><path transform="matrix(1 0 0 -1 0 842)" d="M505.56 446.72L506.04 446.72L506.04 446.72L506.04 462.8L506.04 462.8L505.56 462.8z" stroke="none" fill="#000000" fill-rule="winding" /><path transform="matrix(1 0 0 -1 0 842)" d="M505.56 446.72L506.04 446.72L506.04 446.72L506.04 447.2L506.04 447.2L505.56 447.2z" stroke="none" fill="#000000" fill-rule="winding" /><path transform="matrix(1 0 0 -1 0 842)" d="M79.44 368.24L79.92001 368.24L79.92001 368.24L79.92001 368.72L79.92001 368.72L79.44 368.72z" stroke="none" fill="#000000" fill-rule="winding" /><path transform="matrix(1 0 0 -1 0 842)" d="M79.44 368.24L404.28 368.24L404.28 368.24L404.28 368.72L404.28 368.72L79.44 368.72z" stroke="none" fill="#000000" fill-rule="winding" /><path transform="matrix(1 0 0 -1 0 842)" d="M404.28 368.72L505.56 368.72L505.56 368.72L505.56 368.24L505.56 368.24L404.28 368.24" stroke="none" fill="#000000" fill-rule="winding" /><path transform="matrix(1 0 0 -1 0 842)" d="M505.56 368.24L506.04 368.24L506.04 368.24L506.04 368.72L506.04 368.72L505.56 368.72z" stroke="none" fill="#000000" fill-rule="winding" /><path transform="matrix(1 0 0 -1 0 842)" d="M505.56 368.24L506.04 368.24L506.04 368.24L506.04 368.72L506.04 368.72L505.56 368.72z" stroke="none" fill="#000000" fill-rule="winding" /><path transform="matrix(1 0 0 -1 0 842)" d="M79.44 352.58L79.92001 352.58L79.92001 352.58L79.92001 368.24L79.92001 368.24L79.44 368.24z" stroke="none" fill="#000000" fill-rule="winding" /><path transform="matrix(1 0 0 -1 0 842)" d="M141.54 352.58L142.02 352.58L142.02 352.58L142.02 368.24L142.02 368.24L141.54 368.24z" stroke="none" fill="#000000" fill-rule="winding" /><path transform="matrix(1 0 0 -1 0 842)" d="M212.46 352.58L212.94 352.58L212.94 352.58L212.94 368.24L212.94 368.24L212.46 368.24z" stroke="none" fill="#000000" fill-rule="winding" /><path transform="matrix(1 0 0 -1 0 842)" d="M403.8 352.58L404.28 352.58L404.28 352.58L404.28 368.24L404.28 368.24L403.8 368.24z" stroke="none" fill="#000000" fill-rule="winding" /><path transform="matrix(1 0 0 -1 0 842)" d="M505.56 352.58L506.04 352.58L506.04 352.58L506.04 368.24L506.04 368.24L505.56 368.24z" stroke="none" fill="#000000" fill-rule="winding" /><path transform="matrix(1 0 0 -1 0 842)" d="M79.44 352.1L404.28 352.1L404.28 352.1L404.28 352.58L404.28 352.58L79.44 352.58z" stroke="none" fill="#000000" fill-rule="winding" /><path transform="matrix(1 0 0 -1 0 842)" d="M404.28 352.58L505.56 352.58L505.56 352.58L505.56 352.1L505.56 352.1L404.28 352.1" stroke="none" fill="#000000" fill-rule="winding" /><path transform="matrix(1 0 0 -1 0 842)" d="M505.56 352.1L506.04 352.1L506.04 352.1L506.04 352.58L506.04 352.58L505.56 352.58z" stroke="none" fill="#000000" fill-rule="winding" /><path transform="matrix(1 0 0 -1 0 842)" d="M79.44 336.5L79.92001 336.5L79.92001 336.5L79.92001 352.1L79.92001 352.1L79.44 352.1z" stroke="none" fill="#000000" fill-rule="winding" /><path transform="matrix(1 0 0 -1 0 842)" d="M141.54 336.5L142.02 336.5L142.02 336.5L142.02 352.1L142.02 352.1L141.54 352.1z" stroke="none" fill="#000000" fill-rule="winding" /><path transform="matrix(1 0 0 -1 0 842)" d="M212.46 336.5L212.94 336.5L212.94 336.5L212.94 352.1L212.94 352.1L212.46 352.1z" stroke="none" fill="#000000" fill-rule="winding" /><path transform="matrix(1 0 0 -1 0 842)" d="M403.8 336.5L404.28 336.5L404.28 336.5L404.28 352.1L404.28 352.1L403.8 352.1z" stroke="none" fill="#000000" fill-rule="winding" /><path transform="matrix(1 0 0 -1 0 842)" d="M505.56 336.5L506.04 336.5L506.04 336.5L506.04 352.1L506.04 352.1L505.56 352.1z" stroke="none" fill="#000000" fill-rule="winding" /><path transform="matrix(1 0 0 -1 0 842)" d="M79.44 336.02L404.28 336.02L404.28 336.02L404.28 336.5L404.28 336.5L79.44 336.5z" stroke="none" fill="#000000" fill-rule="winding" /><path transform="matrix(1 0 0 -1 0 842)" d="M505.56 336.02L506.04 336.02L506.04 336.02L506.04 336.5L506.04 336.5L505.56 336.5z" stroke="none" fill="#000000" fill-rule="winding" /><path transform="matrix(1 0 0 -1 0 842)" d="M79.44 320.42L79.92001 320.42L79.92001 320.42L79.92001 336.02L79.92001 336.02L79.44 336.02z" stroke="none" fill="#000000" fill-rule="winding" /><path transform="matrix(1 0 0 -1 0 842)" d="M141.54 320.42L142.02 320.42L142.02 320.42L142.02 336.02L142.02 336.02L141.54 336.02z" stroke="none" fill="#000000" fill-rule="winding" /><path transform="matrix(1 0 0 -1 0 842)" d="M212.46 320.42L212.94 320.42L212.94 320.42L212.94 336.02L212.94 336.02L212.46 336.02z" stroke="none" fill="#000000" fill-rule="winding" /><path transform="matrix(1 0 0 -1 0 842)" d="M403.8 320.42L404.28 320.42L404.28 320.42L404.28 336.02L404.28 336.02L403.8 336.02z" stroke="none" fill="#000000" fill-rule="winding" /><path transform="matrix(1 0 0 -1 0 842)" d="M505.56 320.42L506.04 320.42L506.04 320.42L506.04 336.02L506.04 336.02L505.56 336.02z" stroke="none" fill="#000000" fill-rule="winding" /><path transform="matrix(1 0 0 -1 0 842)" d="M79.44 319.94L404.28 319.94L404.28 319.94L404.28 320.42L404.28 320.42L79.44 320.42z" stroke="none" fill="#000000" fill-rule="winding" /><path transform="matrix(1 0 0 -1 0 842)" d="M505.56 319.94L506.04 319.94L506.04 319.94L506.04 320.42L506.04 320.42L505.56 320.42z" stroke="none" fill="#000000" fill-rule="winding" /><path transform="matrix(1 0 0 -1 0 842)" d="M79.44 304.28L79.92001 304.28L79.92001 304.28L79.92001 319.94L79.92001 319.94L79.44 319.94z" stroke="none" fill="#000000" fill-rule="winding" /><path transform="matrix(1 0 0 -1 0 842)" d="M141.54 304.28L142.02 304.28L142.02 304.28L142.02 319.94L142.02 319.94L141.54 319.94z" stroke="none" fill="#000000" fill-rule="winding" /><path transform="matrix(1 0 0 -1 0 842)" d="M212.46 304.28L212.94 304.28L212.94 304.28L212.94 319.94L212.94 319.94L212.46 319.94z" stroke="none" fill="#000000" fill-rule="winding" /><path transform="matrix(1 0 0 -1 0 842)" d="M403.8 304.28L404.28 304.28L404.28 304.28L404.28 319.94L404.28 319.94L403.8 319.94z" stroke="none" fill="#000000" fill-rule="winding" /><path transform="matrix(1 0 0 -1 0 842)" d="M505.56 304.28L506.04 304.28L506.04 304.28L506.04 319.94L506.04 319.94L505.56 319.94z" stroke="none" fill="#000000" fill-rule="winding" /><path transform="matrix(1 0 0 -1 0 842)" d="M79.44 303.8L404.28 303.8L404.28 303.8L404.28 304.28L404.28 304.28L79.44 304.28z" stroke="none" fill="#000000" fill-rule="winding" /><path transform="matrix(1 0 0 -1 0 842)" d="M505.56 303.8L506.04 303.8L506.04 303.8L506.04 304.28L506.04 304.28L505.56 304.28z" stroke="none" fill="#000000" fill-rule="winding" /><path transform="matrix(1 0 0 -1 0 842)" d="M79.44 288.2L79.92001 288.2L79.92001 288.2L79.92001 303.8L79.92001 303.8L79.44 303.8z" stroke="none" fill="#000000" fill-rule="winding" /><path transform="matrix(1 0 0 -1 0 842)" d="M141.54 288.2L142.02 288.2L142.02 288.2L142.02 303.8L142.02 303.8L141.54 303.8z" stroke="none" fill="#000000" fill-rule="winding" /><path transform="matrix(1 0 0 -1 0 842)" d="M212.46 288.2L212.94 288.2L212.94 288.2L212.94 303.8L212.94 303.8L212.46 303.8z" stroke="none" fill="#000000" fill-rule="winding" /><path transform="matrix(1 0 0 -1 0 842)" d="M403.8 288.2L404.28 288.2L404.28 288.2L404.28 303.8L404.28 303.8L403.8 303.8z" stroke="none" fill="#000000" fill-rule="winding" /><path transform="matrix(1 0 0 -1 0 842)" d="M505.56 288.2L506.04 288.2L506.04 288.2L506.04 303.8L506.04 303.8L505.56 303.8z" stroke="none" fill="#000000" fill-rule="winding" /><path transform="matrix(1 0 0 -1 0 842)" d="M79.44 287.72L404.28 287.72L404.28 287.72L404.28 288.2L404.28 288.2L79.44 288.2z" stroke="none" fill="#000000" fill-rule="winding" /><path transform="matrix(1 0 0 -1 0 842)" d="M505.56 287.72L506.04 287.72L506.04 287.72L506.04 288.2L506.04 288.2L505.56 288.2z" stroke="none" fill="#000000" fill-rule="winding" /><path transform="matrix(1 0 0 -1 0 842)" d="M79.44 272.12L79.92001 272.12L79.92001 272.12L79.92001 287.72L79.92001 287.72L79.44 287.72z" stroke="none" fill="#000000" fill-rule="winding" /><path transform="matrix(1 0 0 -1 0 842)" d="M141.54 272.12L142.02 272.12L142.02 272.12L142.02 287.72L142.02 287.72L141.54 287.72z" stroke="none" fill="#000000" fill-rule="winding" /><path transform="matrix(1 0 0 -1 0 842)" d="M212.46 272.12L212.94 272.12L212.94 272.12L212.94 287.72L212.94 287.72L212.46 287.72z" stroke="none" fill="#000000" fill-rule="winding" /><path transform="matrix(1 0 0 -1 0 842)" d="M403.8 272.12L404.28 272.12L404.28 272.12L404.28 287.72L404.28 287.72L403.8 287.72z" stroke="none" fill="#000000" fill-rule="winding" /><path transform="matrix(1 0 0 -1 0 842)" d="M505.56 272.12L506.04 272.12L506.04 272.12L506.04 287.72L506.04 287.72L505.56 287.72z" stroke="none" fill="#000000" fill-rule="winding" /><path transform="matrix(1 0 0 -1 0 842)" d="M79.44 271.64L404.28 271.64L404.28 271.64L404.28 272.12L404.28 272.12L79.44 272.12z" stroke="none" fill="#000000" fill-rule="winding" /><path transform="matrix(1 0 0 -1 0 842)" d="M505.56 271.64L506.04 271.64L506.04 271.64L506.04 272.12L506.04 272.12L505.56 272.12z" stroke="none" fill="#000000" fill-rule="winding" /><path transform="matrix(1 0 0 -1 0 842)" d="M79.44 255.5L79.92001 255.5L79.92001 255.5L79.92001 271.64L79.92001 271.64L79.44 271.64z" stroke="none" fill="#000000" fill-rule="winding" /><path transform="matrix(1 0 0 -1 0 842)" d="M79.44 255.5L141.54 255.5L141.54 255.5L141.54 255.98L141.54 255.98L79.44 255.98z" stroke="none" fill="#000000" fill-rule="winding" /><path transform="matrix(1 0 0 -1 0 842)" d="M141.54 255.5L142.02 255.5L142.02 255.5L142.02 271.64L142.02 271.64L141.54 271.64z" stroke="none" fill="#000000" fill-rule="winding" /><path transform="matrix(1 0 0 -1 0 842)" d="M142.02 255.5L212.46 255.5L212.46 255.5L212.46 255.98L212.46 255.98L142.02 255.98z" stroke="none" fill="#000000" fill-rule="winding" /><path transform="matrix(1 0 0 -1 0 842)" d="M212.46 255.5L212.94 255.5L212.94 255.5L212.94 271.64L212.94 271.64L212.46 271.64z" stroke="none" fill="#000000" fill-rule="winding" /><path transform="matrix(1 0 0 -1 0 842)" d="M212.94 255.5L403.8 255.5L403.8 255.5L403.8 255.98L403.8 255.98L212.94 255.98z" stroke="none" fill="#000000" fill-rule="winding" /><path transform="matrix(1 0 0 -1 0 842)" d="M403.8 255.5L404.28 255.5L404.28 255.5L404.28 271.64L404.28 271.64L403.8 271.64z" stroke="none" fill="#000000" fill-rule="winding" /><path transform="matrix(1 0 0 -1 0 842)" d="M404.28 255.98L505.56 255.98L505.56 255.98L505.56 255.5L505.56 255.5L404.28 255.5" stroke="none" fill="#000000" fill-rule="winding" /><path transform="matrix(1 0 0 -1 0 842)" d="M505.56 255.5L506.04 255.5L506.04 255.5L506.04 271.64L506.04 271.64L505.56 271.64z" stroke="none" fill="#000000" fill-rule="winding" /><path transform="matrix(1 0 0 -1 0 842)" d="M505.56 255.5L506.04 255.5L506.04 255.5L506.04 255.98L506.04 255.98L505.56 255.98z" stroke="none" fill="#000000" fill-rule="winding" /><path transform="matrix(1 0 0 -1 0 842)" d="M79.44 223.82L79.92001 223.82L79.92001 223.82L79.92001 224.3L79.92001 224.3L79.44 224.3z" stroke="none" fill="#000000" fill-rule="winding" /><path transform="matrix(1 0 0 -1 0 842)" d="M79.44 223.82L506.04 223.82L506.04 223.82L506.04 224.3L506.04 224.3L79.44 224.3z" stroke="none" fill="#000000" fill-rule="winding" /><path transform="matrix(1 0 0 -1 0 842)" d="M505.56 223.82L506.04 223.82L506.04 223.82L506.04 224.3L506.04 224.3L505.56 224.3z" stroke="none" fill="#000000" fill-rule="winding" /><path transform="matrix(1 0 0 -1 0 842)" d="M79.44 208.22L79.92001 208.22L79.92001 208.22L79.92001 223.82L79.92001 223.82L79.44 223.82z" stroke="none" fill="#000000" fill-rule="winding" /><path transform="matrix(1 0 0 -1 0 842)" d="M174.84 208.22L175.32 208.22L175.32 208.22L175.32 223.82L175.32 223.82L174.84 223.82z" stroke="none" fill="#000000" fill-rule="winding" /><path transform="matrix(1 0 0 -1 0 842)" d="M246.84 208.22L247.32 208.22L247.32 208.22L247.32 223.82L247.32 223.82L246.84 223.82z" stroke="none" fill="#000000" fill-rule="winding" /><path transform="matrix(1 0 0 -1 0 842)" d="M399.84 208.22L400.32 208.22L400.32 208.22L400.32 223.82L400.32 223.82L399.84 223.82z" stroke="none" fill="#000000" fill-rule="winding" /><path transform="matrix(1 0 0 -1 0 842)" d="M505.56 208.22L506.04 208.22L506.04 208.22L506.04 223.82L506.04 223.82L505.56 223.82z" stroke="none" fill="#000000" fill-rule="winding" /><path transform="matrix(1 0 0 -1 0 842)" d="M79.44 207.74L506.04 207.74L506.04 207.74L506.04 208.22L506.04 208.22L79.44 208.22z" stroke="none" fill="#000000" fill-rule="winding" /><path transform="matrix(1 0 0 -1 0 842)" d="M79.44 192.08L79.92001 192.08L79.92001 192.08L79.92001 207.74L79.92001 207.74L79.44 207.74z" stroke="none" fill="#000000" fill-rule="winding" /><path transform="matrix(1 0 0 -1 0 842)" d="M174.84 192.08L175.32 192.08L175.32 192.08L175.32 207.74L175.32 207.74L174.84 207.74z" stroke="none" fill="#000000" fill-rule="winding" /><path transform="matrix(1 0 0 -1 0 842)" d="M246.84 192.08L247.32 192.08L247.32 192.08L247.32 207.74L247.32 207.74L246.84 207.74z" stroke="none" fill="#000000" fill-rule="winding" /><path transform="matrix(1 0 0 -1 0 842)" d="M399.84 192.08L400.32 192.08L400.32 192.08L400.32 207.74L400.32 207.74L399.84 207.74z" stroke="none" fill="#000000" fill-rule="winding" /><path transform="matrix(1 0 0 -1 0 842)" d="M505.56 192.08L506.04 192.08L506.04 192.08L506.04 207.74L506.04 207.74L505.56 207.74z" stroke="none" fill="#000000" fill-rule="winding" /><path transform="matrix(1 0 0 -1 0 842)" d="M79.44 191.6L506.04 191.6L506.04 191.6L506.04 192.08L506.04 192.08L79.44 192.08z" stroke="none" fill="#000000" fill-rule="winding" /><path transform="matrix(1 0 0 -1 0 842)" d="M79.44 176L79.92001 176L79.92001 176L79.92001 191.6L79.92001 191.6L79.44 191.6z" stroke="none" fill="#000000" fill-rule="winding" /><path transform="matrix(1 0 0 -1 0 842)" d="M174.84 176L175.32 176L175.32 176L175.32 191.6L175.32 191.6L174.84 191.6z" stroke="none" fill="#000000" fill-rule="winding" /><path transform="matrix(1 0 0 -1 0 842)" d="M246.84 176L247.32 176L247.32 176L247.32 191.6L247.32 191.6L246.84 191.6z" stroke="none" fill="#000000" fill-rule="winding" /><path transform="matrix(1 0 0 -1 0 842)" d="M399.84 176L400.32 176L400.32 176L400.32 191.6L400.32 191.6L399.84 191.6z" stroke="none" fill="#000000" fill-rule="winding" /><path transform="matrix(1 0 0 -1 0 842)" d="M505.56 176L506.04 176L506.04 176L506.04 191.6L506.04 191.6L505.56 191.6z" stroke="none" fill="#000000" fill-rule="winding" /><path transform="matrix(1 0 0 -1 0 842)" d="M79.44 175.52L506.04 175.52L506.04 175.52L506.04 176L506.04 176L79.44 176z" stroke="none" fill="#000000" fill-rule="winding" /><path transform="matrix(1 0 0 -1 0 842)" d="M79.44 159.38L79.92001 159.38L79.92001 159.38L79.92001 175.52L79.92001 175.52L79.44 175.52z" stroke="none" fill="#000000" fill-rule="winding" /><path transform="matrix(1 0 0 -1 0 842)" d="M79.44 159.38L174.84 159.38L174.84 159.38L174.84 159.86L174.84 159.86L79.44 159.86z" stroke="none" fill="#000000" fill-rule="winding" /><path transform="matrix(1 0 0 -1 0 842)" d="M174.84 159.38L175.32 159.38L175.32 159.38L175.32 175.52L175.32 175.52L174.84 175.52z" stroke="none" fill="#000000" fill-rule="winding" /><path transform="matrix(1 0 0 -1 0 842)" d="M175.32 159.38L246.84 159.38L246.84 159.38L246.84 159.86L246.84 159.86L175.32 159.86z" stroke="none" fill="#000000" fill-rule="winding" /><path transform="matrix(1 0 0 -1 0 842)" d="M246.84 159.38L247.32 159.38L247.32 159.38L247.32 175.52L247.32 175.52L246.84 175.52z" stroke="none" fill="#000000" fill-rule="winding" /><path transform="matrix(1 0 0 -1 0 842)" d="M247.32 159.38L399.84 159.38L399.84 159.38L399.84 159.86L399.84 159.86L247.32 159.86z" stroke="none" fill="#000000" fill-rule="winding" /><path transform="matrix(1 0 0 -1 0 842)" d="M399.84 159.38L400.32 159.38L400.32 159.38L400.32 175.52L400.32 175.52L399.84 175.52z" stroke="none" fill="#000000" fill-rule="winding" /><path transform="matrix(1 0 0 -1 0 842)" d="M400.32 159.38L505.56 159.38L505.56 159.38L505.56 159.86L505.56 159.86L400.32 159.86z" stroke="none" fill="#000000" fill-rule="winding" /><path transform="matrix(1 0 0 -1 0 842)" d="M505.56 159.38L506.04 159.38L506.04 159.38L506.04 175.52L506.04 175.52L505.56 175.52z" stroke="none" fill="#000000" fill-rule="winding" /><path transform="matrix(1 0 0 -1 0 842)" d="M505.56 159.38L506.04 159.38L506.04 159.38L506.04 159.86L506.04 159.86L505.56 159.86z" stroke="none" fill="#000000" fill-rule="winding" /></g></g></g></svg>